<svg xmlns="http://www.w3.org/2000/svg" viewBox="0 0 122.18 125.86"><defs><style>.cls-1{fill:#dd4628;}.cls-2,.cls-3{fill:#3c3c3b;}.cls-2{stroke:#3c3c3b;stroke-miterlimit:10;stroke-width:0.25px;}</style></defs><title>Questionnairre</title><g id="Layer_2" data-name="Layer 2"><g id="Standard_Activities" data-name="Standard Activities"><g id="Questionnairre"><path class="cls-1" d="M105.36,32.6A16.37,16.37,0,0,0,88.93,48.88a2.62,2.62,0,0,0,5.23,0,11.2,11.2,0,1,1,11.2,11.41,2.61,2.61,0,0,0-2.62,2.61V74.63a2.62,2.62,0,0,0,5.23,0V65.31a16.43,16.43,0,0,0-2.61-32.71Z"/><circle class="cls-1" cx="105.14" cy="85.22" r="2.86"/><path class="cls-2" d="M28.51,94.67H29a12.86,12.86,0,0,0,9.82-4.25C44.15,84.36,43.26,74,43.16,73,42.81,65.56,39,62.45,36.4,60.34c-2.81-2.29-7.9-2.48-11.63-1.76l-1,.26a10.16,10.16,0,0,0-2.63,1.3c-2.84,1.8-6.49,5.36-6.84,12.85-.1,1-1,11.37,4.37,17.43a12.84,12.84,0,0,0,9.81,4.25ZM18.05,73.34s0-.08,0-.11c.46-10,7.56-11.07,10.59-11.07h.17c3.76.08,10.16,1.61,10.59,11.07a.2.2,0,0,0,0,.11c0,.1,1,9.58-3.45,14.58a9.11,9.11,0,0,1-7.17,3h-.14a9.13,9.13,0,0,1-7.17-3C17.09,83,18,73.43,18.05,73.34Z"/><path class="cls-2" d="M57.41,111.88v0c0-.11,0-.22,0-.35-.08-2.76-.27-9.22-6.32-11.28l-.14,0c-6.29-1.6-13.52-8.73-13.58-8.77a1.88,1.88,0,1,0-2.16,3.08c.24.17,7.79,7.54,14.74,9.32,3.25,1.16,3.61,4.63,3.71,7.81,0,.13,0,.24,0,.35a26.07,26.07,0,0,1-.29,4.31C51.11,117.54,42.25,122,28.78,122s-22.33-4.45-24.61-5.73a24.13,24.13,0,0,1-.29-4.31c0-.12,0-.23,0-.35.1-3.18.46-6.66,3.71-7.81,7-1.79,15.5-8.67,15.74-8.82a1.88,1.88,0,0,0-2.16-3.08c-.06,0-8.26,6.67-14.58,8.27l-.14,0c-6,2.08-6.23,8.54-6.32,11.29,0,.12,0,.23,0,.34v.05c0,.72,0,4.45.71,6.31a1.75,1.75,0,0,0,.73.88c.41.28,10.44,6.67,27.22,6.67s26.81-6.4,27.23-6.67a1.84,1.84,0,0,0,.72-.88,22.06,22.06,0,0,0,.67-6.3Z"/><path class="cls-1" d="M85.56,23.78H48a2.21,2.21,0,0,0-2.23,1.78,2.13,2.13,0,0,0,2.11,2.49H85.74C88.57,28.05,88.43,23.78,85.56,23.78Z"/><path class="cls-1" d="M74.32,35.17H48.06a2.3,2.3,0,1,0,0,4.59H74.32a2.3,2.3,0,1,0,0-4.59Z"/><path class="cls-1" d="M105.4,12.26H48A2.22,2.22,0,0,0,45.79,14a2.14,2.14,0,0,0,2.11,2.5h57.4A2.14,2.14,0,1,0,105.4,12.26Z"/><path class="cls-3" d="M81.37,48.36s-9,0-10.78.07c-.87,0-1.36.77-2.14,1.4l-14.63,15s0-14.28,0-14.34a2.38,2.38,0,0,0-2.37-2.17H42.21c-1.74,0-2.67-.79-2.67-2.43V6.4a2.83,2.83,0,0,1,2.92-2.93h70.42A3.22,3.22,0,0,1,115.8,6.9V27.44c0,1.31.4,2.38,1.72,2.38s1.76-1.07,1.76-2.38V5.69A5.69,5.69,0,0,0,113.59,0H41.65A5.69,5.69,0,0,0,36,5.69V46.63a5.69,5.69,0,0,0,5.69,5.69h8.59V67.45a2.38,2.38,0,0,0,2.38,2.38,2.42,2.42,0,0,0,1.69-.69L71.12,52.32H82.49A2.05,2.05,0,0,0,84.6,50C84.4,48.05,81.37,48.36,81.37,48.36Z"/></g></g></g></svg>