<svg xmlns="http://www.w3.org/2000/svg" viewBox="0 0 127.45 127.5"><defs><style>.cls-1{fill:#dd4628;}.cls-2{fill:#3c3c3b;}</style></defs><title>Assignment</title><g id="Layer_2" data-name="Layer 2"><g id="Standard_Activities" data-name="Standard Activities"><g id="Assignment"><path class="cls-1" d="M92.35,69.41v-54a1.72,1.72,0,0,0-.5-1.22L78.12.5A1.74,1.74,0,0,0,76.9,0H47.66a6.87,6.87,0,0,0-6.87,6.87V69.4C39.13,69.67,98.41,69.41,92.35,69.41ZM78.62,5.86l7.87,7.87H82.05a3.44,3.44,0,0,1-3.43-3.43Zm-34.39,1a3.44,3.44,0,0,1,3.43-3.44H75.19V10.3a6.86,6.86,0,0,0,6.86,6.86h6.87V65.78l-44.69.09Z"/><path class="cls-2" d="M127,85.08l-.06-.16A15.57,15.57,0,0,0,107.36,76l-16,5.57A14.74,14.74,0,0,0,77,77.32L60,81.66A15.23,15.23,0,0,1,48.46,80a31.2,31.2,0,0,0-16-4.41h-6.8V69.15A2.15,2.15,0,0,0,23.54,67H2.14A2.14,2.14,0,0,0,0,69.15v56.21a2.14,2.14,0,0,0,2.14,2.14h21.4a2.14,2.14,0,0,0,2.15-2.14V114.75h6.8A27.09,27.09,0,0,1,43.42,117l4.24,1.86a29,29,0,0,0,24.23-.46l52-25.14A6.45,6.45,0,0,0,127,85.08ZM21.4,123.22H4.28V71.29H21.4v51.93ZM122,89.44,70,114.58a24.63,24.63,0,0,1-20.65.39l-4.25-1.85a31.25,31.25,0,0,0-12.64-2.65h-6.8V79.85h6.8a26.75,26.75,0,0,1,13.76,3.8A19.56,19.56,0,0,0,61,85.81l17-4.33a10.39,10.39,0,0,1,12.09,6l.37.88h0l.25.58.15.37L61.56,101.15l1.6,4L94.51,92.5h0l.09,0,.09,0,.11-.07.07,0,.12-.08,0,0,.11-.09,0,0,.1-.1,0-.05.08-.11,0-.06a.41.41,0,0,1,.07-.11.16.16,0,0,1,0-.07l.05-.12,0-.07h0a1,1,0,0,0,0-.16s0,0,0,0a2.13,2.13,0,0,0,0-1.25c0-.06-.05-.13-.07-.2L94.1,85.88v0l-.25-.6,14.93-5.18a11.28,11.28,0,0,1,14.17,6.45l.07.16A2.14,2.14,0,0,1,122,89.44Z"/><path class="cls-1" d="M51.67,22.61a1.5,1.5,0,0,0,0,3H82.33a1.5,1.5,0,1,0,0-3Z"/><path class="cls-1" d="M62,56.51H51.67a1.5,1.5,0,0,0,0,3H62a1.5,1.5,0,0,0,0-3Z"/><path class="cls-1" d="M51.3,31.27a1.49,1.49,0,1,0,0,3H82a1.49,1.49,0,0,0,0-3Z"/><path class="cls-1" d="M51.67,39.56a1.5,1.5,0,0,0,0,3H82.33a1.5,1.5,0,1,0,0-3Z"/><path class="cls-1" d="M51.67,48a1.49,1.49,0,0,0,0,3H82.33a1.49,1.49,0,1,0,0-3Z"/></g></g></g></svg>