<svg xmlns="http://www.w3.org/2000/svg" viewBox="0 0 127.89 127.8"><defs><style>.cls-1{fill:#3c3c3b;}.cls-2{fill:#dd4628;}</style></defs><title>Choice</title><g id="Layer_2" data-name="Layer 2"><g id="Standard_Activities" data-name="Standard Activities"><g id="Choice"><path class="cls-1" d="M64,0A64,64,0,0,0,0,63.91a62.66,62.66,0,0,0,10.58,34.9L.25,123.56a3.09,3.09,0,0,0,1.72,4,3.15,3.15,0,0,0,2.3,0L29,117.25A63.85,63.85,0,1,0,64,0Zm0,121.7a58.28,58.28,0,0,1-32.86-10.46,3.14,3.14,0,0,0-1.73-.55,2.93,2.93,0,0,0-1.18,0L8.85,119,17,99.67a3.07,3.07,0,0,0-.31-3A56.46,56.46,0,0,1,6.19,63.91,57.79,57.79,0,1,1,64,121.64H64v.06Z"/><path class="cls-2" d="M63.94,25.74A22,22,0,0,0,41.83,47.63a3.53,3.53,0,1,0,7.05,0A15.07,15.07,0,1,1,63.94,63a3.53,3.53,0,0,0-3.52,3.53V82.28a3.52,3.52,0,0,0,7,0V69.74a22.11,22.11,0,0,0-3.52-44Z"/><circle class="cls-2" cx="63.65" cy="98.43" r="3.85"/></g></g></g></svg>