<?xml version="1.0" encoding="utf-8"?>
<!-- Generator: Adobe Illustrator 16.0.2, SVG Export Plug-In . SVG Version: 6.00 Build 0)  -->
<!DOCTYPE svg PUBLIC "-//W3C//DTD SVG 1.1//EN" "http://www.w3.org/Graphics/SVG/1.1/DTD/svg11.dtd">
<svg version="1.1" id="Unlock" xmlns="http://www.w3.org/2000/svg" xmlns:xlink="http://www.w3.org/1999/xlink" x="0px" y="0px"
	 width="24px" height="24px" viewBox="0 0 24 24" enable-background="new 0 0 24 24" xml:space="preserve">
<path fill="#CCCCCC" d="M17.6,20l-2.1,2H15v0.9l-0.9,1L13.4,24H18v-3.8C18,20.2,17.7,20,17.6,20z"/>
<path id="withpassword_2_" fill="#CCCCCC" d="M5.1,13.5c0,0-2.2-2.7-2.2-5.7c0-4.3,2.7-7.8,6-7.8c3.3,0,6,3.5,6,7.8
	c0,0.1,0,0.2,0,0.3c-1.8,1.2-3,3.3-3,5.6c0,0.2,0.1,0.4,0.1,0.6l-6,6V24H0v-6.1l4.7-2.5C5.5,15,5.6,14.2,5.1,13.5z"/>
<path fill="#FF6633" d="M24,13.7c0,2.9-2.4,5.3-5.3,5.3c-0.5,0-1.1,0-1.6-0.2L14.9,21H14v1h-0.6H12v2h-0.1H7v-3.2l6.3-6.1
	c-0.1-0.4,0-0.7,0-1.1c0-2.9,2.4-5.3,5.3-5.3C21.5,8.3,24,10.8,24,13.7z"/>
<path fill="#FFFFFF" d="M21.7,11.9c0-0.8-0.7-1.5-1.5-1.5s-1.5,0.7-1.5,1.5c0,0.8,0.7,1.5,1.5,1.5S21.7,12.7,21.7,11.9z"/>
<rect x="12" y="22" fill="#FF6633" width="1" height="1"/>
<polygon fill="#FF6633" points="12.4,24 13.1,24 13.1,24 "/>
<rect x="14" y="23" fill="#CCCCCC" width="1" height="1"/>
</svg>
