<svg xmlns="http://www.w3.org/2000/svg" viewBox="0 0 95.85 127.8"><defs><style>.cls-1{fill:#3c3c3b;}.cls-2{fill:#dd4628;}</style></defs><title>Book</title><g id="Layer_2" data-name="Layer 2"><g id="Resources"><g id="Book"><path class="cls-1" d="M11.71,0A11.72,11.72,0,0,0,.06,12.78H0V117.06A10.74,10.74,0,0,0,10.74,127.8H95.85V0ZM4.26,117.06V21.3a10.67,10.67,0,0,0,6.39,2.13v100.1a6.48,6.48,0,0,1-6.39-6.47Zm87.33,6.48H14.91V23.43H91.59ZM52.44,19.17H12.17a7.76,7.76,0,0,1-7.86-6.69A7.32,7.32,0,0,1,6.19,6.73a7.46,7.46,0,0,1,5.52-2.47H91.59V6.39H80.94a2.13,2.13,0,1,0,0,4.26H91.59v2.13H83.07a2.13,2.13,0,1,0,0,4.26h8.52v2.13Z"/><path class="cls-2" d="M23.45,77.77a2.1,2.1,0,0,1-2.1-2.1V18.5a2.1,2.1,0,0,1,4.2,0V75.67A2.1,2.1,0,0,1,23.45,77.77Z"/><path class="cls-2" d="M23.45,77.77a2.08,2.08,0,0,1-1.14-.34,2.1,2.1,0,0,1-.62-2.9L34.29,55a2.1,2.1,0,1,1,3.52,2.28l-12.6,19.5A2.09,2.09,0,0,1,23.45,77.77Z"/><path class="cls-2" d="M48.3,77.77a2.09,2.09,0,0,1-1.78-1L34.27,57.28a2.1,2.1,0,0,1,3.56-2.23l12.25,19.5a2.11,2.11,0,0,1-1.78,3.22Z"/><path class="cls-2" d="M48.3,77.77a2.1,2.1,0,0,1-2.1-2.1V18.5a2.1,2.1,0,1,1,4.2,0V75.67A2.1,2.1,0,0,1,48.3,77.77Z"/><path class="cls-2" d="M47.3,23.5H24.45a3,3,0,0,1,0-6H47.3a3,3,0,0,1,0,6Z"/><path class="cls-2" d="M23.45,20.6A2.1,2.1,0,0,1,22,17L30.08,8.9a2.1,2.1,0,0,1,3,3L24.93,20A2.07,2.07,0,0,1,23.45,20.6Z"/><path class="cls-2" d="M47.11,21.79a2.1,2.1,0,0,1-1.49-3.58l9-9a2.1,2.1,0,1,1,3,3l-9,9A2.07,2.07,0,0,1,47.11,21.79Z"/><path class="cls-2" d="M56.11,12.49H31.56a2.1,2.1,0,1,1,0-4.2H56.11a2.1,2.1,0,1,1,0,4.2Z"/></g></g></g></svg>