<?xml version="1.0" encoding="utf-8"?>
<!-- Generator: Adobe Illustrator 16.0.2, SVG Export Plug-In . SVG Version: 6.00 Build 0)  -->
<!DOCTYPE svg PUBLIC "-//W3C//DTD SVG 1.1//EN" "http://www.w3.org/Graphics/SVG/1.1/DTD/svg11.dtd">
<svg version="1.1"
	 id="ArupApplication" sodipodi:docname="applicationv3.svg" inkscape:version="0.48.4 r9939" xmlns:osb="http://www.openswatchbook.org/uri/2009/osb" xmlns:dc="http://purl.org/dc/elements/1.1/" xmlns:cc="http://creativecommons.org/ns#" xmlns:rdf="http://www.w3.org/1999/02/22-rdf-syntax-ns#" xmlns:svg="http://www.w3.org/2000/svg" xmlns:sodipodi="http://sodipodi.sourceforge.net/DTD/sodipodi-0.dtd" xmlns:inkscape="http://www.inkscape.org/namespaces/inkscape"
	 xmlns="http://www.w3.org/2000/svg" xmlns:xlink="http://www.w3.org/1999/xlink" x="0px" y="0px" width="24px" height="24px"
	 viewBox="0 0 24 24" enable-background="new 0 0 24 24" xml:space="preserve">
<path id="path3342" inkscape:connector-curvature="0" fill="#5F5555" d="M8.711,0.613c0,1.589,0,3.301,0,4.891
	c0,0.734,1.173,0.734,1.173,0c0-1.589,0-3.301,0-4.891C9.884-0.121,8.711-0.121,8.711,0.613L8.711,0.613z"/>
<path id="path3348" inkscape:connector-curvature="0" fill="#5F5555" d="M12.057,0.613c0,1.589,0,3.301,0,4.891
	c0,0.734,1.173,0.734,1.173,0c0-1.589,0-3.301,0-4.891C13.23-0.121,12.057-0.121,12.057,0.613L12.057,0.613z"/>
<path id="path3354" inkscape:connector-curvature="0" fill="#5F5555" d="M15.402,0.613c0,1.589,0,3.301,0,4.891
	c0,0.734,1.174,0.734,1.174,0c0-1.589,0-3.301,0-4.891C16.576-0.121,15.402-0.121,15.402,0.613L15.402,0.613z"/>
<path id="path3607" sodipodi:nodetypes="cccccc" inkscape:connector-curvature="0" fill="none" stroke="#5F5555" stroke-width="1.2" stroke-linecap="round" stroke-linejoin="round" d="
	M3.527,16.252l-0.022,2.55c0.023,3.179,1.679,4.517,3.939,4.535l8.406,0.019l4.399-5.666L20.203,3.225"/>
<path id="path4589" sodipodi:nodetypes="ccc" inkscape:connector-curvature="0" fill="none" stroke="#565353" stroke-width="1.2" stroke-linecap="round" stroke-linejoin="round" d="
	M19.693,23.447l3.8-4.838L23.447,3.132"/>
<path id="path4595" inkscape:connector-curvature="0" fill="#565353" stroke="#565353" stroke-width="1.1082" stroke-linecap="round" stroke-linejoin="round" d="
	M18.602,16.727c-0.483,0.033-0.988-0.039-1.459,0.063c-0.678,0.29-1.263,0.797-1.556,1.475c-0.226,0.396-0.274,0.848-0.269,1.297
	c-0.024,1.09-0.066,2.188-0.051,3.273c0.094,0.27,0.455,0.113,0.67,0.154c0.304-0.119,0.422-0.485,0.648-0.706
	c1.169-1.509,2.372-2.999,3.52-4.521c0.033-0.32,0.063-0.679-0.021-0.992c-0.301-0.148-0.672-0.018-1-0.053
	C18.923,16.721,18.762,16.723,18.602,16.727L18.602,16.727z"/>
<polygon id="rect3109" fill="#FF0000" stroke="#FF0000" stroke-width="2.5001" points="2.538,4.526 12.096,14 11.507,14.584
	1.948,5.11 "/>
<rect id="rect3111" x="2.175" y="3.932" transform="matrix(0.7071 0.7071 -0.7071 0.7071 5.2129 -0.5821)" fill="#FFFFFF" stroke="#FFFFFF" stroke-width="1.8553" stroke-linecap="round" stroke-linejoin="round" stroke-opacity="0" width="2.268" height="4.139"/>
<rect id="rect3887" x="8.994" y="10.719" transform="matrix(0.7072 0.707 -0.707 0.7072 12.0245 -3.4697)" fill="#FFFFFF" stroke="#FFFFFF" stroke-width="1.8978" stroke-linecap="round" stroke-linejoin="round" stroke-opacity="0" width="2.414" height="4.127"/>
<path id="path3875" sodipodi:nodetypes="ccccc" inkscape:connector-curvature="0" fill="#FF0000" d="M11.508,16.334l2.607,1.105
	l0.859-0.883l-1.086-2.584L11.508,16.334z"/>
</svg>
