<svg xmlns="http://www.w3.org/2000/svg" viewBox="0 0 127.8 104.37"><defs><style>.cls-1{fill:#3c3c3b;}.cls-2{fill:#dd4628;}</style></defs><title>Folder</title><g id="Layer_2" data-name="Layer 2"><g id="Resources"><g id="Folder"><path class="cls-1" d="M122.45,34.08H115V20.73a5.83,5.83,0,0,0-5.82-5.82H56.48L45.83,0h-40A5.83,5.83,0,0,0,0,5.82V98.87H0a5.49,5.49,0,0,0,1.11,3.36,5.43,5.43,0,0,0,4.34,2.14H100.8a5.41,5.41,0,0,0,5.22-3.86L127.8,40.79v-.38c0-3.67-2.25-6.33-5.35-6.33ZM4.26,5.82A1.56,1.56,0,0,1,5.82,4.26H43.63L54.28,19.17H109.2a1.56,1.56,0,0,1,1.56,1.56V34.08H27.11a4.5,4.5,0,0,0-.9.08,5.36,5.36,0,0,0-4.31,3.78L4.26,86.05ZM102,99.22a1.21,1.21,0,0,1-1.16.89H5.46a1.22,1.22,0,0,1-1-.48,1.13,1.13,0,0,1-.25-.86L26,39.23a1.19,1.19,0,0,1,1.15-.89h95.34c.81,0,1,1.16,1.07,1.74Z"/><path class="cls-2" d="M102.24,52.19l-63.93.32a2.54,2.54,0,0,0,0,5l63.94-.33a2.53,2.53,0,0,0,0-5Z"/><path class="cls-2" d="M97.1,63.92l-64.43.33a2.54,2.54,0,0,0,0,5l64.43-.33a2.54,2.54,0,0,0,0-5Z"/></g></g></g></svg>