<svg xmlns="http://www.w3.org/2000/svg" xmlns:xlink="http://www.w3.org/1999/xlink" viewBox="0 0 112.68 127.64"><defs><style>.cls-1{fill:none;}.cls-2{fill:#dd4628;}.cls-3{clip-path:url(#clip-path);}.cls-4{fill:#3c3c3c;}.cls-5{clip-path:url(#clip-path-2);}</style><clipPath id="clip-path" transform="translate(-7.02 -0.05)"><rect class="cls-1" width="119.76" height="128"/></clipPath><clipPath id="clip-path-2" transform="translate(-7.02 -0.05)"><rect class="cls-1" x="0.34" width="119.76" height="128"/></clipPath></defs><title>External tool</title><g id="Layer_2" data-name="Layer 2"><g id="Standard_Activities" data-name="Standard Activities"><g id="External_tool" data-name="External tool"><path class="cls-2" d="M89.46,30.19l3.62-8.32-4.36-2.23a3.43,3.43,0,0,1-2.13-3.05,3,3,0,0,1,2-2.92l15.7-7a3.66,3.66,0,0,1,2.6.17,3.76,3.76,0,0,1,2,1.8l5.7,16.7a2.86,2.86,0,0,1-.7,3.5,3.47,3.47,0,0,1-3.69.52L106,27.49l-3.63,8.32a3.31,3.31,0,0,1-4.42,1.54l-6.6-2.88A3.31,3.31,0,0,1,89.46,30.19ZM105.61,9.85,90.1,16.61l7.46,3.68L92.64,31.5l6.54,2.93,4.92-11.29,7.29,3.17Zm-15.45,7.2h0Z" transform="translate(-7.02 -0.05)"/><g class="cls-3"><path class="cls-4" d="M113.41,64.11l-3.83-8.7a16.49,16.49,0,0,0-.75-1.52,13.29,13.29,0,0,0-17-5.78l-1.47.64L88.5,44.47h0l-1.38-3.15a11,11,0,0,0-14.5-5.61l-4.89,2.12a9,9,0,0,0-3.28-2.93c-2.68-1.39-5.89-1.27-9.57.34l-3.49,1.54-4.53-10.3a13.2,13.2,0,0,0-9.39-7.9,11.89,11.89,0,0,0-10.55,2.94,13.15,13.15,0,0,0-3,15L41.06,75.75a20.64,20.64,0,0,0-4.48-.39,15.63,15.63,0,0,0-10,3.51,2.17,2.17,0,0,0-.44.36,11.47,11.47,0,0,0-3.45,8.7c.21,4,2.49,7.95,6.62,11.42l.06.05,35.26,27.75a2.55,2.55,0,0,0,1.58.55,2.64,2.64,0,0,0,1-.22l50.52-22.21a2.54,2.54,0,0,0,1.51-2.17l.28-4.4a74.82,74.82,0,0,0-6.15-34.59Zm1.07,34.27-.18,2.86-47.7,21-34-26.78c-2.95-2.49-4.65-5.25-4.78-7.76a6.28,6.28,0,0,1,1.66-4.51l.25-.22c3-3.14,10.63-3.35,14.6-.45l8.76,8.42a2.54,2.54,0,0,0,3.52-3.67l-8.52-8.19L28.57,34.44a8.06,8.06,0,0,1,1.86-9.26,6.9,6.9,0,0,1,6-1.62,8,8,0,0,1,5.73,5L57,62.1a2.54,2.54,0,0,0,4.65-2.05L53.43,41.43l3.5-1.54c2.2-1,3.94-1.13,5.18-.49a5.31,5.31,0,0,1,2.21,2.68L73,61.89a2.55,2.55,0,0,0,2.33,1.52,2.47,2.47,0,0,0,1-.22,2.54,2.54,0,0,0,1.31-3.35L70,42.38l4.66-2h0a5.78,5.78,0,0,1,4.49-.12,5.86,5.86,0,0,1,3.28,3.13L92.81,66.89a2.54,2.54,0,0,0,2.33,1.52,2.66,2.66,0,0,0,1-.21,2.54,2.54,0,0,0,1.3-3.35l-5-11.44,1.46-.64a8.16,8.16,0,0,1,10.48,3.56c.2.36.39.74.56,1.12l3.82,8.7a69.56,69.56,0,0,1,5.73,32.23Z" transform="translate(-7.02 -0.05)"/></g><path class="cls-2" d="M24.79,47.6a2.53,2.53,0,0,0-3.52.72l-4.74,7.2A2.55,2.55,0,0,0,17.26,59a2.57,2.57,0,0,0,1.4.42,2.53,2.53,0,0,0,2.12-1.15l4.74-7.19a2.54,2.54,0,0,0-.73-3.52Z" transform="translate(-7.02 -0.05)"/><path class="cls-2" d="M13.34,19.92l5,3.31A2.36,2.36,0,1,0,21,19.29l-5-3.31a2.36,2.36,0,0,0-2.6,3.94Z" transform="translate(-7.02 -0.05)"/><path class="cls-2" d="M19.52,34.85A2.36,2.36,0,0,0,16.73,33L8.9,34.63a2.36,2.36,0,0,0,.48,4.67,2,2,0,0,0,.48,0l7.83-1.61a2.37,2.37,0,0,0,1.83-2.79Z" transform="translate(-7.02 -0.05)"/><path class="cls-2" d="M51.32,27.69a2.36,2.36,0,0,0,2.31,1.89,2.61,2.61,0,0,0,.48,0l5.22-1.08a2.36,2.36,0,1,0-1-4.62L53.16,24.9a2.37,2.37,0,0,0-1.84,2.79Z" transform="translate(-7.02 -0.05)"/><path class="cls-2" d="M44.14,17.5a2.34,2.34,0,0,0,3.26-.68l4.4-6.68a2.36,2.36,0,0,0-3.95-2.59l-4.39,6.68a2.36,2.36,0,0,0,.68,3.27Z" transform="translate(-7.02 -0.05)"/><g class="cls-5"><path class="cls-2" d="M28.66,11.54a2.55,2.55,0,0,0,2.49,2,2.35,2.35,0,0,0,.52-.05,2.54,2.54,0,0,0,2-3L31.9,2.08a2.54,2.54,0,1,0-5,1Z" transform="translate(-7.02 -0.05)"/></g></g></g></g></svg>