<?xml version="1.0" encoding="utf-8"?>
<!-- Generator: Adobe Illustrator 16.0.2, SVG Export Plug-In . SVG Version: 6.00 Build 0)  -->
<!DOCTYPE svg PUBLIC "-//W3C//DTD SVG 1.1//EN" "http://www.w3.org/Graphics/SVG/1.1/DTD/svg11.dtd">
<svg version="1.1" id="ArupCompletion" xmlns="http://www.w3.org/2000/svg" xmlns:xlink="http://www.w3.org/1999/xlink" x="0px"
	 y="0px" width="24px" height="24px" viewBox="0 0 24 24" enable-background="new 0 0 24 24" xml:space="preserve">
<path fill="#666666" d="M22.3,23.9c-0.5,0.1-1,0.1-1.6,0.1c-0.8,0-1.5-0.1-2.3-0.3s-1.4-0.5-2.1-1c-0.6-0.4-1.1-1-1.5-1.7
	c-0.4-0.7-0.6-1.6-0.6-2.6c0-0.9,0.2-1.8,0.5-2.5c0.3-0.7,0.8-1.3,1.3-1.8c0.6-0.5,1.2-0.8,2-1.1s1.6-0.4,2.5-0.4
	c0.5,0,0.9,0,1.4,0.1s1.1,0.2,1.9,0.4l-0.2,2.4c-0.6-0.3-1.1-0.5-1.5-0.6s-0.9-0.2-1.4-0.2c-0.5,0-1,0.1-1.4,0.3s-0.8,0.4-1.1,0.7
	c-0.3,0.3-0.5,0.7-0.7,1.1c-0.2,0.4-0.2,0.9-0.2,1.4c0,0.5,0.1,1,0.3,1.5s0.4,0.8,0.8,1.1c0.3,0.3,0.7,0.5,1.2,0.7s0.9,0.2,1.5,0.2
	c0.4,0,0.8,0,1.3-0.1c0.4-0.1,0.9-0.2,1.5-0.4l0.1,2.3C23.4,23.7,22.8,23.8,22.3,23.9z"/>
<path fill="none" stroke="#CC3333" stroke-width="2" d="M23,5.8c0,2.8-1.3,4.8-2.9,4.8h-16c-1.7,0-3.1-2-3.1-4.8
	c0-1.4,0.4-2.6,0.9-3.4C2.5,1.5,3.2,1,4.1,1h16C21.7,1,23,3,23,5.8z"/>
</svg>
