<?xml version="1.0" encoding="utf-8"?>
<!-- Generator: Adobe Illustrator 16.0.2, SVG Export Plug-In . SVG Version: 6.00 Build 0)  -->
<!DOCTYPE svg PUBLIC "-//W3C//DTD SVG 1.1//EN" "http://www.w3.org/Graphics/SVG/1.1/DTD/svg11.dtd">
<svg version="1.1" id="Layer_1" xmlns="http://www.w3.org/2000/svg" xmlns:xlink="http://www.w3.org/1999/xlink" x="0px" y="0px"
	 width="24px" height="24px" viewBox="0 0 24 24" enable-background="new 0 0 24 24" xml:space="preserve">
<g id="XMLID_3_">
	<g>
		<path fill="#FFFFFF" d="M19.9,1c1.6,0,2.9,2,2.9,4.8c0,2.8-1.3,4.8-2.9,4.8H4.1c-1.7,0-3.1-2-3.1-4.8c0-1.4,0.4-2.6,0.9-3.4
			C2.5,1.5,3.2,1,4.1,1H19.9z"/>
	</g>
	<g>
		<path fill="none" stroke="#CC3333" stroke-width="2" d="M23,5.8c0,2.8-1.3,4.8-2.9,4.8h-16c-1.7,0-3.1-2-3.1-4.8
			c0-1.4,0.4-2.6,0.9-3.4C2.5,1.5,3.2,1,4.1,1h16C21.7,1,23,3,23,5.8z"/>
	</g>
</g>
<g>
	<path fill="#666666" d="M20.5,24l-0.9-2.3h-4.4L14.2,24h-3.2l4.5-11h3.9L24,24H20.5z M17.5,15.3L17.5,15.3L16,19.6h3L17.5,15.3z"/>
</g>
</svg>
