<?xml version="1.0" encoding="utf-8"?>
<!-- Generator: Adobe Illustrator 19.1.1, SVG Export Plug-In . SVG Version: 6.00 Build 0)  -->
<svg version="1.1" id="Layer_1" xmlns="http://www.w3.org/2000/svg" xmlns:xlink="http://www.w3.org/1999/xlink" x="0px" y="0px"
	 viewBox="-364 239.2 211.5 78.2" style="enable-background:new -364 239.2 211.5 78.2;" xml:space="preserve">
<style type="text/css">
	.st0{fill:#135775;}
	.st1{fill:#FFFFFF;}
	.st2{fill:#2DA9E1;}
</style>
<g>
	<path class="st0" d="M-163.9,252.6h-135.5c-6.3,0-11.5,5.1-11.5,11.5v31c0,6.3,5.1,11.5,11.5,11.5H-189l15.8,10.8l-2.4-10.8h11.6
		c6.3,0,11.5-5.1,11.5-11.5v-31C-152.5,257.7-157.6,252.6-163.9,252.6z"/>
	<path class="st1" d="M-269.2,286.8c0.6,0.4,1.4,0.6,2.2,0.6c1.3,0,2.4-0.7,3.4-2c0.9-1.3,1.4-3.1,1.4-5.4c0-2.2-0.5-3.9-1.4-5
		c-1-1.1-2.1-1.7-3.4-1.7c-0.9,0-1.7,0.3-2.5,0.8c-0.7,0.6-1.1,1.1-1.1,1.6v9.1C-270.3,285.7-269.9,286.4-269.2,286.8 M-276.4,295.8
		c1.1-0.1,1.9-0.3,2.2-0.7c0.3-0.4,0.5-1.1,0.5-1.9v-17.6c0-0.9-0.1-1.5-0.3-1.8c-0.2-0.3-0.6-0.4-1.3-0.4c-0.1,0-0.3,0-0.4,0
		s-0.3,0-0.5,0.1v-0.6l1.7-0.6c0.1,0,1.3-0.4,3.7-1.3c0.1,0,0.1,0,0.1,0.1s0,0.1,0,0.2v2.5c0.8-0.8,1.5-1.4,2.1-1.8
		c1.1-0.7,2.2-1,3.4-1c1.7,0,3.1,0.7,4.3,2.1s1.8,3.4,1.8,5.8c0,2.4-0.7,4.6-2.2,6.6s-3.3,3-5.5,3c-0.7,0-1.3-0.1-1.8-0.3
		c-0.8-0.3-1.5-0.7-2.1-1.4v6c0,1.2,0.2,2,0.6,2.3s1.3,0.5,2.6,0.6v0.6h-9v-0.5H-276.4z"/>
	<path class="st1" d="M-252.3,286.8c0.6,0.4,1.4,0.6,2.2,0.6c1.3,0,2.4-0.7,3.4-2c1-1.3,1.4-3.1,1.4-5.4c0-2.2-0.5-3.9-1.4-5
		c-1-1.1-2.1-1.7-3.4-1.7c-0.9,0-1.7,0.3-2.5,0.8c-0.7,0.6-1.1,1.1-1.1,1.6v9.1C-253.4,285.7-253,286.4-252.3,286.8 M-259.5,295.8
		c1.1-0.1,1.9-0.3,2.2-0.7c0.3-0.4,0.5-1.1,0.5-1.9v-17.6c0-0.9-0.1-1.5-0.3-1.8c-0.2-0.3-0.6-0.4-1.3-0.4c-0.1,0-0.3,0-0.4,0
		s-0.3,0-0.5,0.1v-0.6l1.7-0.6c0.1,0,1.3-0.4,3.7-1.3c0.1,0,0.1,0,0.1,0.1s0,0.1,0,0.2v2.5c0.8-0.8,1.5-1.4,2.1-1.8
		c1.1-0.7,2.2-1,3.4-1c1.7,0,3.1,0.7,4.3,2.1s1.8,3.4,1.8,5.8c0,2.4-0.7,4.6-2.2,6.6s-3.3,3-5.5,3c-0.7,0-1.3-0.1-1.8-0.3
		c-0.8-0.3-1.5-0.7-2.1-1.4v6c0,1.2,0.2,2,0.6,2.3s1.3,0.5,2.6,0.6v0.6h-9v-0.5H-259.5z"/>
	<path class="st1" d="M-242.2,287.7c1.1-0.1,1.9-0.3,2.2-0.6c0.4-0.3,0.5-0.9,0.5-1.9V277c0-1.2-0.1-2.1-0.3-2.6s-0.6-0.8-1.2-0.8
		c-0.1,0-0.3,0-0.5,0s-0.4,0.1-0.6,0.1v-0.6c0.7-0.2,1.4-0.5,2.1-0.7c0.7-0.3,1.2-0.4,1.5-0.5c0.6-0.2,1.2-0.5,1.9-0.8
		c0.1,0,0.1,0,0.2,0.1c0,0.1,0,0.2,0,0.4v3c0.8-1.1,1.5-1.9,2.3-2.5c0.7-0.6,1.5-0.9,2.3-0.9c0.6,0,1.1,0.2,1.5,0.6s0.6,0.8,0.6,1.4
		c0,0.5-0.1,0.9-0.4,1.3c-0.3,0.3-0.7,0.5-1.1,0.5c-0.5,0-0.9-0.2-1.4-0.6c-0.5-0.4-0.8-0.6-1.1-0.6c-0.4,0-0.9,0.3-1.6,1
		c-0.6,0.7-0.9,1.4-0.9,2.1v8.2c0,1,0.2,1.8,0.7,2.2s1.3,0.6,2.4,0.6v0.4h-9L-242.2,287.7L-242.2,287.7z"/>
	<path class="st1" d="M-220.5,278.2c-1.4,0.5-2.6,1-3.5,1.5c-1.7,1.1-2.6,2.3-2.6,3.7c0,1.1,0.4,1.9,1.1,2.4c0.5,0.3,1,0.5,1.6,0.5
		c0.8,0,1.6-0.2,2.3-0.7c0.7-0.4,1.1-1,1.1-1.7L-220.5,278.2L-220.5,278.2z M-227.2,280.2c1.1-0.7,3.3-1.7,6.7-3v-1.5
		c0-1.2-0.1-2.1-0.4-2.6c-0.4-0.8-1.3-1.2-2.6-1.2c-0.6,0-1.2,0.2-1.8,0.5c-0.6,0.3-0.8,0.8-0.8,1.3c0,0.1,0,0.4,0.1,0.7
		c0.1,0.3,0.1,0.6,0.1,0.7c0,0.7-0.2,1.2-0.7,1.4c-0.3,0.2-0.6,0.2-0.9,0.2c-0.5,0-1-0.2-1.3-0.5c-0.3-0.4-0.4-0.8-0.4-1.2
		c0-0.9,0.5-1.7,1.6-2.7c1.1-0.9,2.6-1.4,4.6-1.4c2.4,0,4,0.8,4.8,2.3c0.4,0.8,0.7,2.1,0.7,3.7v7.4c0,0.7,0,1.2,0.1,1.5
		c0.2,0.5,0.5,0.7,1,0.7c0.3,0,0.5,0,0.7-0.1c0.2-0.1,0.5-0.3,0.9-0.6v0.9c-0.4,0.5-0.8,0.9-1.3,1.2c-0.7,0.5-1.4,0.7-2.1,0.7
		c-0.8,0-1.4-0.3-1.8-0.8c-0.4-0.5-0.6-1.2-0.6-1.9c-0.9,0.8-1.7,1.4-2.4,1.8c-1.1,0.7-2.2,1-3.1,1c-1,0-1.9-0.4-2.7-1.1
		c-0.8-0.7-1.1-1.7-1.1-2.8C-229.8,282.9-228.9,281.4-227.2,280.2"/>
	<path class="st1" d="M-281.4,278.2c-1.4,0.5-2.5,1-3.5,1.5c-1.7,1.1-2.6,2.3-2.6,3.7c0,1.1,0.4,1.9,1.1,2.4c0.5,0.3,1,0.5,1.6,0.5
		c0.8,0,1.6-0.2,2.3-0.7c0.7-0.4,1.1-1,1.1-1.7V278.2z M-288.1,280.2c1.1-0.7,3.3-1.7,6.7-3v-1.5c0-1.2-0.1-2.1-0.4-2.6
		c-0.4-0.8-1.3-1.2-2.6-1.2c-0.6,0-1.2,0.2-1.8,0.5c-0.6,0.3-0.8,0.8-0.8,1.3c0,0.1,0,0.4,0.1,0.7c0.1,0.3,0.1,0.6,0.1,0.7
		c0,0.7-0.2,1.2-0.7,1.4c-0.3,0.2-0.6,0.2-0.9,0.2c-0.5,0-1-0.2-1.3-0.5c-0.3-0.4-0.4-0.8-0.4-1.2c0-0.9,0.5-1.7,1.6-2.7
		c1.1-0.9,2.6-1.4,4.6-1.4c2.4,0,4,0.8,4.8,2.3c0.4,0.8,0.7,2.1,0.7,3.7v7.4c0,0.7,0,1.2,0.1,1.5c0.2,0.5,0.5,0.7,1,0.7
		c0.3,0,0.5,0,0.7-0.1c0.2-0.1,0.5-0.3,0.9-0.6v0.9c-0.4,0.5-0.8,0.9-1.3,1.2c-0.7,0.5-1.4,0.7-2.1,0.7c-0.8,0-1.4-0.3-1.8-0.8
		s-0.6-1.2-0.6-1.9c-0.9,0.8-1.7,1.4-2.4,1.8c-1.1,0.7-2.2,1-3.2,1s-1.9-0.4-2.7-1.1c-0.8-0.7-1.1-1.7-1.1-2.8
		C-290.8,282.9-289.9,281.4-288.1,280.2"/>
	<path class="st1" d="M-214.7,287.8c1.3-0.1,2.1-0.3,2.5-0.7c0.3-0.3,0.5-1.2,0.5-2.6v-8.7c0-0.8-0.1-1.3-0.2-1.6
		c-0.2-0.5-0.6-0.7-1.1-0.7c-0.1,0-0.3,0-0.4,0c-0.1,0-0.5,0.1-1.1,0.3v-0.6l0.8-0.3c2.1-0.7,3.6-1.2,4.4-1.6
		c0.3-0.1,0.6-0.2,0.7-0.2c0,0.1,0,0.2,0,0.3v13.1c0,1.4,0.2,2.3,0.5,2.6c0.3,0.4,1.1,0.6,2.3,0.7v0.5h-8.9V287.8z"/>
	<path class="st1" d="M-204.7,282.5h0.6c0.3,1.4,0.7,2.4,1.1,3.2c0.8,1.4,2.1,2,3.7,2c0.9,0,1.6-0.3,2.2-0.8c0.5-0.5,0.8-1.2,0.8-2
		c0-0.5-0.2-1-0.5-1.5s-0.8-0.9-1.6-1.4l-2-1.2c-1.5-0.8-2.6-1.6-3.3-2.4c-0.7-0.8-1.1-1.8-1.1-2.9c0-1.4,0.5-2.5,1.5-3.3
		c1-0.9,2.2-1.3,3.7-1.3c0.6,0,1.3,0.1,2.1,0.4c0.8,0.2,1.2,0.4,1.3,0.4c0.2,0,0.4,0,0.5-0.1s0.2-0.2,0.3-0.3h0.4l0.1,5.1h-0.6
		c-0.2-1.2-0.6-2.1-1-2.8c-0.8-1.2-1.8-1.8-3.3-1.8c-0.9,0-1.5,0.3-2,0.8s-0.7,1.1-0.7,1.8c0,1.1,0.8,2.1,2.5,3l2.4,1.3
		c2.6,1.4,3.9,3,3.9,4.9c0,1.4-0.5,2.6-1.6,3.5s-2.5,1.4-4.2,1.4c-0.7,0-1.5-0.1-2.5-0.4c-0.9-0.2-1.5-0.4-1.6-0.4s-0.3,0.1-0.4,0.2
		c-0.1,0.1-0.2,0.2-0.3,0.4h-0.5v-5.8H-204.7z"/>
	<path class="st1" d="M-183.5,278.2c-1.4,0.5-2.6,1-3.5,1.5c-1.7,1.1-2.6,2.3-2.6,3.7c0,1.1,0.4,1.9,1.1,2.4c0.5,0.3,1,0.5,1.6,0.5
		c0.8,0,1.6-0.2,2.3-0.7c0.7-0.4,1.1-1,1.1-1.7L-183.5,278.2L-183.5,278.2z M-190.2,280.2c1.1-0.7,3.3-1.7,6.7-3v-1.5
		c0-1.2-0.1-2.1-0.4-2.6c-0.4-0.8-1.3-1.2-2.6-1.2c-0.6,0-1.2,0.2-1.8,0.5c-0.6,0.3-0.8,0.8-0.8,1.3c0,0.1,0,0.4,0.1,0.7
		c0.1,0.3,0.1,0.6,0.1,0.7c0,0.7-0.2,1.2-0.7,1.4c-0.3,0.2-0.6,0.2-0.9,0.2c-0.5,0-1-0.2-1.3-0.5c-0.3-0.4-0.4-0.8-0.4-1.2
		c0-0.9,0.5-1.7,1.6-2.7c1.1-0.9,2.6-1.4,4.6-1.4c2.4,0,4,0.8,4.8,2.3c0.4,0.8,0.7,2.1,0.7,3.7v7.4c0,0.7,0,1.2,0.1,1.5
		c0.2,0.5,0.5,0.7,1,0.7c0.3,0,0.5,0,0.7-0.1c0.2-0.1,0.5-0.3,0.9-0.6v0.9c-0.4,0.5-0.8,0.9-1.3,1.2c-0.7,0.5-1.4,0.7-2.1,0.7
		c-0.8,0-1.4-0.3-1.8-0.8c-0.4-0.5-0.6-1.2-0.6-1.9c-0.9,0.8-1.7,1.4-2.4,1.8c-1.1,0.7-2.2,1-3.2,1s-1.9-0.4-2.7-1.1
		c-0.8-0.7-1.1-1.7-1.1-2.8C-192.8,282.9-192,281.4-190.2,280.2"/>
	<path class="st1" d="M-177.6,287.8c1.1-0.1,1.9-0.3,2.3-0.7c0.4-0.3,0.6-1,0.6-2v-17.8c0-0.8-0.1-1.4-0.2-1.7
		c-0.2-0.5-0.7-0.8-1.5-0.8c-0.2,0-0.4,0-0.6,0.1c-0.2,0-0.5,0.1-0.8,0.2v-0.6c1.6-0.4,3.6-1,5.9-1.7c0.1,0,0.1,0,0.2,0.1
		c0,0.1,0,0.2,0,0.5v21.8c0,1.1,0.2,1.7,0.5,2c0.4,0.3,1.1,0.5,2.3,0.6v0.5h-8.8v-0.5H-177.6z"/>
	<path class="st2" d="M-211.8,264.5c0.4-0.4,0.8-0.6,1.3-0.6s1,0.2,1.3,0.6c0.4,0.4,0.6,0.8,0.6,1.3s-0.2,1-0.6,1.3
		c-0.4,0.4-0.8,0.6-1.3,0.6s-1-0.2-1.3-0.6c-0.4-0.4-0.5-0.8-0.5-1.3S-212.2,264.9-211.8,264.5"/>
</g>
<g>
	<path class="st2" d="M-358.3,276.1h56.2c3.2,0,5.7-2.6,5.7-5.7v-25.5c0-3.2-2.6-5.7-5.7-5.7h-56.2c-3.1-0.1-5.7,2.5-5.7,5.7v25.5
		C-364,273.6-361.4,276.1-358.3,276.1"/>
	<path class="st1" d="M-346.5,256.9l-3-7.3l-3,7.3H-346.5z M-357.9,263.7v-0.5c0.7-0.1,1.2-0.3,1.5-0.8c0.3-0.4,0.9-1.6,1.8-3.6
		l5.5-13h0.5l6.6,15c0.4,1,0.8,1.6,1.1,1.8c0.3,0.2,0.7,0.4,1.3,0.5v0.5h-6.7v-0.5c0.8-0.1,1.3-0.2,1.5-0.3c0.2-0.1,0.3-0.3,0.3-0.7
		c0-0.1,0-0.4-0.1-0.7c-0.1-0.3-0.2-0.7-0.4-1l-1-2.5h-7c-0.7,1.7-1.1,2.8-1.2,3.2c-0.1,0.4-0.2,0.7-0.2,0.9c0,0.4,0.2,0.8,0.5,0.9
		c0.2,0.1,0.6,0.2,1.3,0.2v0.5h-5.3V263.7z"/>
	<path class="st1" d="M-339,263.2c0.8-0.1,1.3-0.2,1.6-0.4c0.3-0.2,0.4-0.7,0.4-1.4v-5.8c0-0.9-0.1-1.5-0.2-1.8
		c-0.2-0.4-0.5-0.5-0.9-0.5c-0.1,0-0.2,0-0.3,0s-0.3,0.1-0.4,0.1V253c0.5-0.2,1-0.3,1.5-0.5c0.5-0.2,0.9-0.3,1.1-0.4
		c0.4-0.2,0.9-0.4,1.3-0.6c0.1,0,0.1,0,0.1,0.1c0,0,0,0.1,0,0.3v2.1c0.6-0.8,1.1-1.4,1.6-1.8s1-0.6,1.6-0.6c0.4,0,0.8,0.1,1.1,0.4
		c0.3,0.3,0.4,0.6,0.4,1c0,0.4-0.1,0.7-0.3,0.9c-0.2,0.2-0.5,0.4-0.8,0.4c-0.3,0-0.7-0.1-1-0.5c-0.3-0.3-0.6-0.5-0.8-0.5
		c-0.3,0-0.7,0.2-1.1,0.7s-0.7,1-0.7,1.5v5.8c0,0.7,0.2,1.3,0.5,1.5c0.3,0.3,0.9,0.4,1.7,0.4v0.4h-6.4V263.2z"/>
	<path class="st1" d="M-326.2,251.7v8.3c0,0.6,0.1,1.1,0.2,1.4c0.3,0.7,0.9,1,1.8,1c0.6,0,1.2-0.2,1.7-0.6c0.3-0.2,0.6-0.5,1-0.9
		v-7.1c0-0.7-0.1-1.1-0.4-1.3c-0.3-0.2-0.8-0.3-1.6-0.4v-0.4h4.2v9.1c0,0.6,0.1,1,0.3,1.2c0.2,0.2,0.7,0.3,1.3,0.3v0.4
		c-0.5,0.1-0.8,0.2-1,0.3c-0.2,0.1-0.6,0.2-1.1,0.4c-0.2,0.1-0.7,0.3-1.5,0.6c0,0-0.1,0-0.1-0.1v-0.1v-2.1c-0.6,0.6-1.1,1.1-1.6,1.4
		c-0.7,0.5-1.5,0.8-2.3,0.8c-0.7,0-1.5-0.3-2.1-0.8c-0.7-0.5-1-1.4-1-2.7v-6.7c0-0.7-0.1-1.1-0.4-1.4c-0.2-0.1-0.6-0.2-1.2-0.3v-0.4
		h3.8V251.7z"/>
	<path class="st1" d="M-311.8,262.6c0.4,0.3,1,0.4,1.6,0.4c0.9,0,1.7-0.5,2.4-1.4c0.7-0.9,1-2.2,1-3.9c0-1.6-0.3-2.8-1-3.6
		c-0.7-0.8-1.5-1.2-2.4-1.2c-0.6,0-1.2,0.2-1.7,0.6c-0.5,0.4-0.8,0.8-0.8,1.2v6.6C-312.6,261.9-312.3,262.3-311.8,262.6 M-317,269
		c0.8-0.1,1.3-0.2,1.5-0.5c0.2-0.3,0.3-0.8,0.3-1.4v-12.4c0-0.7-0.1-1.1-0.2-1.3c-0.2-0.2-0.5-0.3-0.9-0.3c-0.1,0-0.2,0-0.3,0
		s-0.2,0-0.4,0.1v-0.4l1.2-0.4c0,0,0.9-0.3,2.6-0.9c0,0,0.1,0,0.1,0.1v0.1v1.7c0.6-0.6,1.1-1,1.5-1.3c0.8-0.5,1.6-0.7,2.4-0.7
		c1.2,0,2.2,0.5,3.1,1.5s1.3,2.4,1.3,4.2c0,1.7-0.5,3.3-1.5,4.7s-2.3,2.1-3.9,2.1c-0.5,0-0.9-0.1-1.3-0.2c-0.6-0.2-1.1-0.5-1.5-1
		v4.2c0,0.9,0.1,1.4,0.4,1.6c0.3,0.2,0.9,0.3,1.9,0.4v0.5h-6.3V269z"/>
</g>
</svg>
