<svg xmlns="http://www.w3.org/2000/svg" viewBox="0 0 249.12 42.16"><defs><style>.cls-1{fill:#d53c16;}.cls-2{fill:#605c5e;}</style></defs><title>Asset 4</title><g id="Layer_2" data-name="Layer 2"><g id="Arup_Moodle" data-name="Arup Moodle"><path class="cls-1" d="M138.59,32.34h-14V30.41a7.18,7.18,0,0,0,2.65-.36A1.94,1.94,0,0,0,128.36,29a5.79,5.79,0,0,0,.25-1.92V9.21L118.08,32.34h-1.26L106.14,9.21V26.15a15.36,15.36,0,0,0,.1,2.06,2.58,2.58,0,0,0,.47,1.22,2.23,2.23,0,0,0,1.2.74,8.55,8.55,0,0,0,2.29.24v1.93H99.87V30.41a8,8,0,0,0,2.29-.25,2.26,2.26,0,0,0,1.19-.76,2.55,2.55,0,0,0,.45-1.2c0-.47.08-1.15.08-2.05V10a13.23,13.23,0,0,0-.18-2.61,1.82,1.82,0,0,0-1-1.21,7,7,0,0,0-2.81-.41V3.87h10.2L119.33,24l9.28-20.1h10V5.8c-1.71,0-2.82.26-3.32.77a3.64,3.64,0,0,0-.75,2.59V27.05a6,6,0,0,0,.24,1.87,1.9,1.9,0,0,0,1.15,1.1,7,7,0,0,0,2.68.39Z"/><path class="cls-1" d="M161.32,22.49a10.29,10.29,0,0,1-1.55,5.67,10.07,10.07,0,0,1-4.19,3.69,13,13,0,0,1-5.78,1.28A13.63,13.63,0,0,1,144.21,32a10.23,10.23,0,0,1-4.31-3.56,10,10,0,0,1-1.68-5.87c0-3.46,1.16-6.08,3.47-7.88A13.07,13.07,0,0,1,149.94,12a12.54,12.54,0,0,1,6.15,1.43,9.73,9.73,0,0,1,3.9,3.86A10.74,10.74,0,0,1,161.32,22.49Zm-6.48-.15a13.91,13.91,0,0,0-1.05-6.12c-.71-1.37-2.07-2.06-4.1-2.06a4.65,4.65,0,0,0-3,.9,4.87,4.87,0,0,0-1.53,2.77,22.31,22.31,0,0,0-.43,4.87,15.53,15.53,0,0,0,1,6c.64,1.52,2,2.27,4.2,2.27a4.15,4.15,0,0,0,3.25-1.25,6.18,6.18,0,0,0,1.43-3.11A25.55,25.55,0,0,0,154.84,22.34Z"/><path class="cls-1" d="M185.47,22.49a10.29,10.29,0,0,1-1.55,5.67,10,10,0,0,1-4.18,3.69A13,13,0,0,1,174,33.13a13.68,13.68,0,0,1-5.6-1.17,10.35,10.35,0,0,1-4.31-3.56,10,10,0,0,1-1.68-5.87c0-3.46,1.16-6.08,3.47-7.88A13.12,13.12,0,0,1,174.1,12a12.52,12.52,0,0,1,6.14,1.43,9.73,9.73,0,0,1,3.9,3.86A10.63,10.63,0,0,1,185.47,22.49ZM179,22.34a13.74,13.74,0,0,0-1.06-6.12q-1-2.05-4.1-2.06a4.65,4.65,0,0,0-3,.9,4.92,4.92,0,0,0-1.52,2.77,22.31,22.31,0,0,0-.43,4.87,15.53,15.53,0,0,0,1,6c.64,1.52,2,2.27,4.19,2.27a4.12,4.12,0,0,0,3.25-1.25,6.18,6.18,0,0,0,1.43-3.11A25.48,25.48,0,0,0,179,22.34Z"/><path class="cls-1" d="M213.31,32.06a55.13,55.13,0,0,0-8.89,1.06,7.62,7.62,0,0,1-.41-2.46,9.84,9.84,0,0,1-6.46,2.46,9.35,9.35,0,0,1-5-1.43,10.54,10.54,0,0,1-3.68-3.9,11,11,0,0,1-1.37-5.38,11.17,11.17,0,0,1,.6-3.59A9.75,9.75,0,0,1,190,15.55a8.91,8.91,0,0,1,3.16-2.33,10.47,10.47,0,0,1,4.3-.84,9.06,9.06,0,0,1,3,.44,7.74,7.74,0,0,1,2,1A14.33,14.33,0,0,1,204,15.21V7.52a7.44,7.44,0,0,0-.25-2.25,1.33,1.33,0,0,0-1-.86,10.6,10.6,0,0,0-2.28-.24V2l9.41-2V26.25a12.09,12.09,0,0,0,.15,2.34,1.31,1.31,0,0,0,.84.95,7.52,7.52,0,0,0,2.39.37ZM204,27.63V18.14a12.28,12.28,0,0,0-2.3-2.18,5.15,5.15,0,0,0-3.17-1,3.85,3.85,0,0,0-2.11.63,4.92,4.92,0,0,0-1.59,1.62q-1,1.61-1,5.46a9.91,9.91,0,0,0,1.44,5.86,4.3,4.3,0,0,0,3.57,2,5.58,5.58,0,0,0,2.87-.78A7.31,7.31,0,0,0,204,27.63Z"/><path class="cls-1" d="M227.76,32.34H214.55V30.19h1a3.83,3.83,0,0,0,1.94-.38,1.61,1.61,0,0,0,.75-1,11.06,11.06,0,0,0,.13-2V6.8c0-1.13-.25-1.85-.77-2.16a6.57,6.57,0,0,0-3-.47V2l9.74-2V26.77a10.94,10.94,0,0,0,.13,2,1.56,1.56,0,0,0,.73,1.05,3.71,3.71,0,0,0,1.94.39h.67Z"/><path class="cls-1" d="M249.12,22H235c0,.3.06.93.13,1.9a11.38,11.38,0,0,0,.64,3,5.34,5.34,0,0,0,5.41,3.61,8.65,8.65,0,0,0,2.94-.64,6.32,6.32,0,0,0,3-2.43l1.79,1.24q-2.71,4.43-8.61,4.43a14.21,14.21,0,0,1-4.82-.78,10.7,10.7,0,0,1-3.68-2.15,9.4,9.4,0,0,1-2.32-3.26,10,10,0,0,1-.8-4A10.57,10.57,0,0,1,230,17.65a10,10,0,0,1,3.85-3.85,11.32,11.32,0,0,1,5.72-1.42,9.69,9.69,0,0,1,5.31,1.38,8.49,8.49,0,0,1,3.21,3.58A10.92,10.92,0,0,1,249.12,22Zm-5.7-2.15c0-3.57-1.37-5.35-4.13-5.35A3.56,3.56,0,0,0,236.22,16,7.07,7.07,0,0,0,235,19.88Z"/><path class="cls-2" d="M0,31.16c2.41-.08,2.82-.46,3.57-2.41,1.16-3,2.66-7.47,4.07-11.5L12.29,3.89l4.44-.72L25.15,29c.62,1.91,1.12,2.08,3.36,2.16v1.45H16.31V31.16l2.2-.17c1-.08,1.2-.62.87-1.66L17,22.07H8.47c-.79,2.66-1.62,5-2.16,7.34-.25,1-.21,1.5.83,1.58l2.36.17v1.45H0ZM16.39,20.24,12.82,9.08H12.7c-.46,1.33-3.11,9.67-3.61,11.16Z"/><path class="cls-2" d="M28.89,31.16c2.53-.13,2.82-.29,2.82-2.16V16.47c0-1.58-.29-1.91-1.12-2l-1.5-.2V12.94l7.47-1.16.5,3.52c2.53-2.49,3.86-3.52,5.48-3.52a2.36,2.36,0,0,1,2.57,2.53,3.63,3.63,0,0,1-.58,2.11,2.38,2.38,0,0,1-1.78.92,3.23,3.23,0,0,1-1.54-.5,4.93,4.93,0,0,0-2.32-.91c-1,0-1.75,1-1.75,3.52V29c0,1.87.34,2,3.7,2.16v1.45h-12Z"/><path class="cls-2" d="M62.12,30.25c-1.49.78-3.9,2.86-7.43,2.86-3,0-6-1.41-6-6.23V16.47c0-1.58-.3-1.87-1.13-2l-1.49-.2V12.94l7.76-1.16.29.25V25.6c0,3.23,1.54,4.65,3.7,4.65a4.29,4.29,0,0,0,3.94-2.41,6.74,6.74,0,0,0,.33-2.41v-9c0-1.58-.29-1.87-1.12-2l-1.5-.2V12.94l7.76-1.16.29.25V29c0,1.87.3,2,2.83,2.16v1.45H62.49Z"/><path class="cls-2" d="M69.34,40.7c2.53-.12,2.82-.29,2.82-2.16V16.47c0-1.58-.29-1.91-1.12-2l-1.49-.2V12.94l7.38-1.16.67,2.94c1.87-1.37,4-2.94,6.93-2.94,5.19,0,7.72,4.6,7.72,10.12,0,4.44-1.25,7.35-3.24,9A12.85,12.85,0,0,1,77.6,32.4v6.14c0,1.87.33,2,3.52,2.16v1.46H69.34ZM77.6,26.22a11.18,11.18,0,0,0,.21,2.49,3.56,3.56,0,0,0,3.73,2.66c3.45,0,4.9-3.28,4.9-8.8,0-6.77-2.7-7.93-4.57-7.93A4,4,0,0,0,78,17.25a6.55,6.55,0,0,0-.37,2.33Z"/></g></g></svg>