<?xml version="1.0" encoding="UTF-8"?>
<svg width="24px" height="24px" viewBox="0 0 24 24" version="1.1" xmlns="http://www.w3.org/2000/svg" xmlns:xlink="http://www.w3.org/1999/xlink">
    <!-- Generator: Sketch 51.3 (57544) - http://www.bohemiancoding.com/sketch -->
    <title>nav/messages</title>
    <desc>Created with Sketch.</desc>
    <defs>
        <path d="M3.75898191,20.2410179 L8.19429037,18.7625817 C8.41560206,18.6888112 8.65721007,18.7064764 8.86543801,18.8116528 C10.0022699,19.3858692 11.2586613,19.6834356 12.534221,19.6801121 C15.6450761,19.6789083 18.4883688,17.9205562 19.880772,15.1345618 C20.4549885,13.9977299 20.7525549,12.7413384 20.7492342,11.4677215 L20.7505597,10.9789537 C20.5205103,6.80906524 17.1909346,3.47948945 13.0692424,3.25076856 L12.5322783,3.25076559 C11.2586613,3.24744492 10.0022699,3.54501132 8.86211797,4.12089589 C6.07944356,5.51163099 4.32109147,8.35492372 4.31988482,11.4677215 C4.31656415,12.7413384 4.61413055,13.9977299 5.18834699,15.1345618 C5.29352342,15.3427897 5.31118863,15.5843977 5.23741807,15.8057094 L3.75898191,20.2410179 Z M22.4991052,11.4643262 C22.5029597,13.0131525 22.1410071,14.5410041 21.4443742,15.9201783 C19.7573873,19.2956128 16.3084217,21.4285257 12.5368407,21.429983 C11.1115957,21.433699 9.70408429,21.1276524 8.41122814,20.5347983 L2.65226444,22.4544528 C1.96827543,22.6824492 1.31755064,22.0317244 1.54554698,21.3477353 L3.46520135,15.5887722 C2.87234734,14.2959276 2.56630057,12.8885594 2.57001389,11.4651017 C2.57147406,7.69157809 4.70438701,4.24261247 8.07650146,2.55729371 C9.4593421,1.85881766 10.9876149,1.49685832 12.5345595,1.5008946 L13.1174386,1.50222306 C18.1779076,1.78140501 22.2185948,5.82209221 22.4991052,10.9307574 L22.4991052,11.4643262 Z" id="path-1"></path>
    </defs>
    <g id="nav/messages" stroke="none" stroke-width="1" fill="none" fill-rule="evenodd">
        <mask id="mask-2" fill="white">
            <use xlink:href="#path-1"></use>
        </mask>
        <use id="Shape" fill="#000000" fill-rule="nonzero" xlink:href="#path-1"></use>
        <g id="base-color" mask="url(#mask-2)" fill="#ADB5BD">
            <g id="gray-0.6-#adb5bd">
                <rect x="0" y="0" width="24" height="24"></rect>
            </g>
        </g>
    </g>
</svg>