<svg xmlns="http://www.w3.org/2000/svg" viewBox="0 0 128 108.31"><defs><style>.cls-1{fill:#3c3c3b;}.cls-2{fill:#dd4628;}</style></defs><title>URL</title><g id="Layer_2" data-name="Layer 2"><g id="Resources"><g id="URL"><path class="cls-1" d="M9.85,88.12H48.14L42.6,102.89H36.92v5.42H91.08v-5.42H85.4L79.86,88.12h38.29A9.85,9.85,0,0,0,128,78.27V9.85A9.85,9.85,0,0,0,118.15,0H9.85A9.85,9.85,0,0,0,0,9.85V78.27a9.85,9.85,0,0,0,9.85,9.85Zm70.29,14.77H47.86L53.4,88.12H74.6Zm42.94-24.62a4.93,4.93,0,0,1-4.93,4.92H9.85a4.93,4.93,0,0,1-4.93-4.92V73.35H123.08v4.92ZM4.92,9.85A4.93,4.93,0,0,1,9.85,4.92h108.3a4.93,4.93,0,0,1,4.93,4.93V68.42H4.92Z"/><path class="cls-2" d="M61.42,19.85,46,35.18a2.45,2.45,0,0,0,3.41,3.37L64.84,22.72c.76-.77.61-1.65-.33-2.58a2.22,2.22,0,0,0-3.09-.29Z"/><path class="cls-2" d="M75.11,21.45l-26.51,27A2.45,2.45,0,0,0,52,51.78l26.5-27a2.2,2.2,0,0,0-.32-3.08,2.22,2.22,0,0,0-3.09-.29Z"/><path class="cls-2" d="M78.18,35,62.8,50.8a2.44,2.44,0,0,0,3.41,3.37L81.59,38.35A2.45,2.45,0,0,0,78.18,35Z"/></g></g></g></svg>