<svg xmlns="http://www.w3.org/2000/svg" xmlns:xlink="http://www.w3.org/1999/xlink" viewBox="0 0 127.69 122.78"><defs><style>.cls-1{fill:none;}.cls-2{clip-path:url(#clip-path);}.cls-3{fill:#3c3c3b;}.cls-4{fill:#dd4628;}</style><clipPath id="clip-path" transform="translate(0 -0.31)"><rect class="cls-1" width="128" height="123.28"/></clipPath></defs><title>Page</title><g id="Layer_2" data-name="Layer 2"><g id="Resources"><g id="Page"><g class="cls-2"><path class="cls-3" d="M110.27.31H33A17.45,17.45,0,0,0,15.53,17.73V88.35a17.42,17.42,0,0,0,2,34.74h63A17.46,17.46,0,0,0,97.9,105.66V35.15h12.37a17.42,17.42,0,1,0,0-34.84ZM68.13,117.93H17.49a12.28,12.28,0,0,1,0-24.56H68.13a17.41,17.41,0,0,0,0,24.56ZM92.77,17.73v87.93A12.27,12.27,0,1,1,80.5,93.4a2.58,2.58,0,0,0,0-5.16H20.79V17.73A12.29,12.29,0,0,1,33,5.46H97.82a17.4,17.4,0,0,0-5,12.27ZM107.69,30H97.92V25.77h9.77Zm5.16-.26V23.19a2.58,2.58,0,0,0-2.58-2.57H97.92V17.73a12.27,12.27,0,1,1,14.93,12Z" transform="translate(0 -0.31)"/></g><path class="cls-4" d="M78.52,23.15H34.91a2,2,0,0,0-1.74,2.13,2,2,0,0,0,1.74,2.13H78.52a2,2,0,0,0,1.75-2.13,2,2,0,0,0-1.75-2.13Z" transform="translate(0 -0.31)"/><path class="cls-4" d="M78.52,37.69H34.91a2.17,2.17,0,0,0,0,4.26H78.52a2.17,2.17,0,0,0,0-4.26Z" transform="translate(0 -0.31)"/><path class="cls-4" d="M78.52,52.23H34.91a2.17,2.17,0,0,0,0,4.26H78.52a2.17,2.17,0,0,0,0-4.26Z" transform="translate(0 -0.31)"/><path class="cls-4" d="M78.52,66.77H34.91a2.17,2.17,0,0,0,0,4.26H78.52a2.17,2.17,0,0,0,0-4.26Z" transform="translate(0 -0.31)"/></g></g></g></svg>