<?xml version="1.0" encoding="utf-8"?>
<!-- Generator: Adobe Illustrator 16.0.2, SVG Export Plug-In . SVG Version: 6.00 Build 0)  -->
<!DOCTYPE svg PUBLIC "-//W3C//DTD SVG 1.1//EN" "http://www.w3.org/Graphics/SVG/1.1/DTD/svg11.dtd">
<svg version="1.1" id="elearning" xmlns="http://www.w3.org/2000/svg" xmlns:xlink="http://www.w3.org/1999/xlink" x="0px" y="0px"
	 width="35px" height="35px" viewBox="182.5 182.5 35 35" enable-background="new 182.5 182.5 35 35" xml:space="preserve">
<ellipse fill="#4E4E50" cx="195.3" cy="186.7" rx="4.1" ry="4.3"/>
<ellipse fill="#4E4E50" cx="195.3" cy="195.5" rx="3.9" ry="4"/>
<ellipse fill="#4E4E50" cx="195.3" cy="205.7" rx="3.9" ry="4"/>
<ellipse fill="#4E4E50" cx="203.9" cy="206.4" rx="2.8" ry="2.9"/>
<ellipse fill="#4E4E50" cx="204.3" cy="214.9" rx="2.4" ry="2.5"/>
<ellipse fill="#4E4E50" cx="205.1" cy="197" rx="2" ry="2.1"/>
<polygon fill="#4E4E50" points="199.2,205.7 191.4,205.7 191.4,195.5 199.2,195.5 "/>
<polygon fill="#4E4E50" points="198.1,199 205.1,199 205.1,194.9 198.1,194.9 "/>
<polygon fill="#4E4E50" points="195.3,209.8 203.8,209.8 203.8,203.5 195.3,203.5 "/>
<polygon fill="#4E4E50" points="201.9,206.4 206.7,206.4 206.7,214.9 201.9,214.9 "/>
<path fill="#848484" d="M212.6,201.7c0,0.6-0.5,1.1-1,1.1h-7c-0.6,0-1-0.5-1-1.1l0,0c0-0.6,0.5-1.1,1-1.1h7
	C212.1,200.6,212.6,201.1,212.6,201.7L212.6,201.7z"/>
<path fill="#848484" d="M212.7,201.6c0,0.6-0.5,1.1-1,1.1l0,0c-0.6,0-1-0.5-1-1.1v-9.1c0-0.6,0.5-1.1,1-1.1l0,0c0.6,0,1,0.5,1,1.1
	V201.6z"/>
<path fill="#848484" d="M187.8,211.9c0,0.6,0.5,1.1,1,1.1h7c0.6,0,1-0.5,1-1.1l0,0c0-0.6-0.5-1.1-1-1.1h-7
	C188.3,210.9,187.8,211.3,187.8,211.9L187.8,211.9z"/>
<path fill="#848484" d="M187.7,211.8c0,0.6,0.5,1.1,1,1.1l0,0c0.6,0,1-0.5,1-1.1v-9.1c0-0.6-0.5-1.1-1-1.1l0,0c-0.6,0-1,0.5-1,1.1
	V211.8z"/>
</svg>
