<svg xmlns="http://www.w3.org/2000/svg" xmlns:xlink="http://www.w3.org/1999/xlink" viewBox="0 0 127.5 105.52"><defs><style>.cls-1{fill:none;}.cls-2{clip-path:url(#clip-path);}.cls-3{fill:#3c3c3c;}.cls-4{fill:#dd4628;}</style><clipPath id="clip-path"><rect class="cls-1" width="127.5" height="105.52"/></clipPath></defs><title>Glossary</title><g id="Layer_2" data-name="Layer 2"><g id="Standard_Activities" data-name="Standard Activities"><g id="Glossary"><g class="cls-2"><path class="cls-3" d="M125.3,8.79h-6.59V2.2a2.2,2.2,0,0,0-2.2-2.2h-33A35,35,0,0,0,63.75,6.12,34.91,34.91,0,0,0,44,0H11a2.2,2.2,0,0,0-2.2,2.2V8.79H2.2A2.2,2.2,0,0,0,0,11V94.53a2.19,2.19,0,0,0,2.2,2.19H48.36v4.4a4.4,4.4,0,0,0,4.4,4.4h22a4.4,4.4,0,0,0,4.4-4.4v-4.4H125.3a2.19,2.19,0,0,0,2.2-2.19V11a2.2,2.2,0,0,0-2.2-2.2ZM73.81,6A30.62,30.62,0,0,1,83.53,4.4h30.78V83.53H83.53c-.83,0-1.67,0-2.5.1l-.81.08c-.56.05-1.12.1-1.67.18l-.94.16c-.5.08-1,.17-1.5.28l-1,.22-1.43.38-1,.29-1.42.5c-.3.11-.61.22-.9.34-.51.21-1,.43-1.5.66-.25.12-.51.22-.76.35-.66.32-1.32.68-2,1.05l-.21.11h0V9.91A31.3,31.3,0,0,1,73.81,6ZM13.19,4.4H44A30.46,30.46,0,0,1,61.55,9.92V88.24h0l-.22-.11c-.65-.37-1.31-.73-2-1.05-.25-.12-.51-.22-.76-.35l-1.5-.66c-.29-.12-.6-.22-.9-.34l-1.42-.5-1-.29-1.44-.38c-.32-.08-.64-.16-1-.22-.5-.11-1-.2-1.5-.28l-.94-.16c-.56-.08-1.1-.13-1.67-.18l-.81-.08c-.82-.06-1.66-.1-2.49-.1H13.19ZM123.1,92.33h-44a4.4,4.4,0,0,0-4.4,4.39v4.4h-22v-4.4a4.4,4.4,0,0,0-4.4-4.39H4.4V13.19H8.79V85.73a2.2,2.2,0,0,0,2.2,2.2H44a30.52,30.52,0,0,1,18.46,6.16s.1,0,.14.07a1.33,1.33,0,0,0,.2.14s.07,0,.11,0l.18.1.21,0a1.67,1.67,0,0,0,1,0l.18,0c.06,0,.12-.07.18-.09s.08,0,.11,0a1.43,1.43,0,0,0,.2-.14c.07,0,.1,0,.14-.07a30.52,30.52,0,0,1,18.46-6.16h33a2.2,2.2,0,0,0,2.2-2.2V13.19h4.39Z"/></g><path class="cls-4" d="M25.89,59.69a6.78,6.78,0,0,0,3.09.79c1.36,0,2.18-.43,2.43-1.28l1.84-6.54H43.79l1.86,6.54c.23.85,1,1.28,2.17,1.28,1.44,0,4-.87,4-2.66a2.49,2.49,0,0,0-.1-.49S42.3,26.51,42.26,26.39c-.51-1.67-2.6-2.16-4.13-2.16s-3.58.37-4.08,1.94L24.54,57.11a3.65,3.65,0,0,0-.09.53,2.36,2.36,0,0,0,1.44,2Zm13-27.15,4.28,15.1H34.65Z"/><path class="cls-4" d="M79.51,58.56q0,1.77,1.92,1.77h20.41c1.39,0,2-1.65,2-2.81s-.64-2.8-2-2.8H87.68l14.56-26.31a4.54,4.54,0,0,0,.73-2.32c0-1.14-.64-1.72-1.91-1.72H82.37c-1.42,0-2,1.63-2,2.81s.52,2.8,2,2.8H94.81L80.2,56.34a4.28,4.28,0,0,0-.69,2.22Z"/></g></g></g></svg>