<svg xmlns="http://www.w3.org/2000/svg" viewBox="0 0 127.8 108.14"><defs><style>.cls-1{fill:#dd4628;}.cls-2{fill:#3c3c3b;}</style></defs><title>Video Resource</title><g id="Layer_2" data-name="Layer 2"><g id="Resources"><g id="Video_Resource" data-name="Video Resource"><path class="cls-1" d="M81,33.6l-25.61-14a4.71,4.71,0,0,0-7,4.13V51.5a4.69,4.69,0,0,0,6.93,4.14L80.93,41.87a4.7,4.7,0,0,0,0-8.27ZM55.18,48V27.24L74.32,37.71Z"/><path class="cls-2" d="M9.83,88.48H48.06l-5.52,14.74H36.86v4.92H90.94v-4.92H85.26L79.74,88.48H118a9.83,9.83,0,0,0,9.83-9.83V9.83A9.83,9.83,0,0,0,118,0H9.83A9.83,9.83,0,0,0,0,9.83V78.65a9.83,9.83,0,0,0,9.83,9.83ZM80,103.22H47.78l5.53-14.74H74.49Zm42.87-24.57A4.91,4.91,0,0,1,118,83.56H9.83a4.92,4.92,0,0,1-4.92-4.91V73.73h118v4.92ZM4.91,9.83A4.92,4.92,0,0,1,9.83,4.92H118a4.91,4.91,0,0,1,4.91,4.91v59H4.91Z"/></g></g></g></svg>