<?xml version="1.0" encoding="utf-8"?>
<!-- Generator: Adobe Illustrator 16.0.2, SVG Export Plug-In . SVG Version: 6.00 Build 0)  -->
<!DOCTYPE svg PUBLIC "-//W3C//DTD SVG 1.1//EN" "http://www.w3.org/Graphics/SVG/1.1/DTD/svg11.dtd">
<svg version="1.1" id="ArupCompletion" xmlns="http://www.w3.org/2000/svg" xmlns:xlink="http://www.w3.org/1999/xlink" x="0px"
	 y="0px" width="24px" height="24px" viewBox="0 0 24 24" enable-background="new 0 0 24 24" xml:space="preserve">
<path fill="none" stroke="#CC3333" stroke-width="2" d="M23,5.8c0,2.8-1.3,4.8-2.9,4.8h-16c-1.7,0-3.1-2-3.1-4.8
	c0-1.4,0.4-2.6,0.9-3.4C2.5,1.5,3.2,1,4.1,1h16C21.7,1,23,3,23,5.8z"/>
<g>
	<path fill="#666666" d="M5.569,20.887l2.149,0.693c-0.145,0.645-0.372,1.182-0.682,1.613c-0.311,0.432-0.695,0.758-1.156,0.977
		c-0.46,0.221-1.045,0.33-1.756,0.33c-0.863,0-1.567-0.134-2.114-0.401c-0.546-0.268-1.019-0.739-1.416-1.413
		C0.199,22.012,0,21.149,0,20.098c0-1.402,0.349-2.479,1.047-3.232s1.686-1.129,2.963-1.129c1,0,1.785,0.215,2.357,0.646
		s0.997,1.096,1.274,1.989l-2.165,0.515c-0.076-0.258-0.155-0.447-0.238-0.566c-0.137-0.201-0.305-0.355-0.503-0.463
		s-0.42-0.162-0.666-0.162c-0.556,0-0.981,0.238-1.277,0.717c-0.224,0.354-0.335,0.91-0.335,1.668c0,0.939,0.133,1.584,0.4,1.932
		c0.267,0.349,0.642,0.522,1.125,0.522c0.469,0,0.824-0.141,1.063-0.422C5.287,21.831,5.461,21.422,5.569,20.887z"/>
	<path fill="#666666" d="M8.897,15.881h4.075c0.889,0,1.553,0.225,1.994,0.676c0.443,0.451,0.664,1.093,0.664,1.926
		c0,0.855-0.242,1.523-0.723,2.006c-0.482,0.481-1.217,0.723-2.205,0.723H11.36v3.145H8.897V15.881z M11.36,19.494h0.602
		c0.473,0,0.804-0.088,0.996-0.264s0.287-0.4,0.287-0.674c0-0.266-0.084-0.491-0.25-0.676c-0.166-0.186-0.479-0.277-0.935-0.277
		H11.36V19.494z"/>
	<path fill="#666666" d="M16.945,15.881h3.643c0.719,0,1.299,0.104,1.74,0.312s0.807,0.507,1.096,0.896
		c0.289,0.391,0.498,0.843,0.629,1.359c0.129,0.517,0.193,1.063,0.193,1.642c0,0.905-0.096,1.608-0.289,2.107
		s-0.461,0.917-0.803,1.255c-0.344,0.337-0.711,0.562-1.105,0.673c-0.537,0.154-1.023,0.231-1.461,0.231h-3.643V15.881z
		 M19.396,17.8v4.63h0.602c0.512,0,0.877-0.061,1.094-0.182s0.385-0.333,0.508-0.636s0.186-0.793,0.186-1.472
		c0-0.897-0.139-1.512-0.412-1.844S20.645,17.8,20.01,17.8H19.396z"/>
</g>
</svg>
