<?xml version="1.0" encoding="utf-8"?>
<!-- Generator: Adobe Illustrator 19.0.0, SVG Export Plug-In . SVG Version: 6.00 Build 0)  -->
<svg version="1.1" id="Layer_1" xmlns="http://www.w3.org/2000/svg" xmlns:xlink="http://www.w3.org/1999/xlink" x="0px" y="0px"
	 viewBox="-293 389 12 12" style="enable-background:new -293 389 12 12;" xml:space="preserve">
<style type="text/css">
	.st0{fill:#FFFFFF;}
</style>
<path class="st0" d="M-281.2,394.5l-1.9-1.9c-0.3-0.3-0.5-0.2-0.5,0.2v1.2h-2.2v-2.2h1.1c0.4,0,0.5-0.2,0.2-0.5l-2-2
	c-0.3-0.3-0.8-0.3-1,0l-1.9,1.9c-0.3,0.2-0.2,0.5,0.1,0.5h1.1v2.2h-2.2v-1.2c0-0.4-0.2-0.5-0.5-0.2l-1.9,2c-0.3,0.3-0.3,0.8,0,1
	l1.9,1.9c0.3,0.3,0.5,0.2,0.5-0.2v-1h2.2v2.2h-1.1c-0.4,0-0.5,0.1-0.2,0.4l1.9,1.9c0.3,0.3,0.8,0.3,1.1,0l1.9-1.9
	c0.3-0.3,0.2-0.4-0.2-0.4h-1v-2.2h2.2v1c0,0.4,0.2,0.5,0.5,0.2l1.9-1.9C-280.9,395.2-280.9,394.8-281.2,394.5z"/>
</svg>
