<svg id="progress-svg" version="1.1" xmlns="http://www.w3.org/2000/svg" xmlns:xlink="http://www.w3.org/1999/xlink" xml:space="preserve" viewBox="0 0 1000 150" style="width: 100%;">
<defs>
    <line id="def-line" x1="100" y1="50" x2="150" y2="50"/>
    <polygon id="def-arrow-backward" points="136,61 114,50 136,39"/>
    <polygon id="def-arrow-forward" points="114,39 136,50 114,61"/>
    <circle id="def-circle" cx="50" cy="50" r="48.5"/>
	<rect id="def-allantoid" width="250" height="97" x="0" y="1.5" ry="48.5" />
	<path id="def-tick" d="M81.5 38.4L50.9 67.1l-5.8 5.4c-.8.7-1.8 1.1-2.9 1.1-1.1 0-2.1-.4-2.9-1.1l-5.8-5.4-15.2-14.3c-.8-.7-1.2-1.7-1.2-2.7s.4-2 1.2-2.7l5.8-5.4c.8-.7 1.8-1.1 2.9-1.1 1.1 0 2.1.4 2.9 1.1l12.4 11.7 27.8-26.2c.8-.7 1.8-1.1 2.9-1.1s2.1.4 2.9 1.1l5.8 5.4c.8.7 1.2 1.7 1.2 2.7s-.6 2-1.4 2.8z"/>
</defs>
<g class="lines">
    <use xlink:href="#def-line" class="line line-1-2"/>
    <use xlink:href="#def-line" class="line line-2-3" transform="translate(300,0)"/>
    <use xlink:href="#def-line" class="line line-3-4" transform="translate(450,0)"/>
    <use xlink:href="#def-line" class="line line-4-5" transform="translate(600,0)"/>
    <use xlink:href="#def-line" class="line line-5-6" transform="translate(750,0)"/>
</g>
<g class="arrows">
    <use xlink:href="#def-arrow-forward" class="arrow arrow-1-2"/>
    <use xlink:href="#def-arrow-forward" class="arrow arrow-2-3" transform="translate(300,0)"/>
    <use xlink:href="#def-arrow-forward" class="arrow arrow-3-4" transform="translate(450,0)"/>
    <use xlink:href="#def-arrow-forward" class="arrow arrow-4-5" transform="translate(600,0)"/>
    <use xlink:href="#def-arrow-forward" class="arrow arrow-5-6" transform="translate(750,0)"/>
    <use xlink:href="#def-arrow-backward" class="arrow arrow-2-1"/>
    <use xlink:href="#def-arrow-backward" class="arrow arrow-3-2" transform="translate(300,0)"/>
    <use xlink:href="#def-arrow-backward" class="arrow arrow-4-3" transform="translate(450,0)"/>
    <use xlink:href="#def-arrow-backward" class="arrow arrow-5-4" transform="translate(600,0)"/>
    <use xlink:href="#def-arrow-backward" class="arrow arrow-6-5" transform="translate(750,0)"/>
</g>
<g class="circles">
    <use xlink:href="#def-circle" class="circle circle-1"/>
	<use xlink:href="#def-allantoid" class="circle circle-2" transform="translate(150,0)"/>
    <use xlink:href="#def-circle" class="circle circle-3" transform="translate(450,0)"/>
    <use xlink:href="#def-circle" class="circle circle-4" transform="translate(600,0)"/>
    <use xlink:href="#def-circle" class="circle circle-5" transform="translate(750,0)"/>
    <use xlink:href="#def-circle" class="circle circle-6" transform="translate(900,0)"/>
</g>
<g class="ticks">
    <use xlink:href="#def-tick" class="tick tick-1"/>
    <use xlink:href="#def-tick" class="tick tick-2" transform="translate(150,0)"/>
	<use xlink:href="#def-tick" class="tick tick-3" transform="translate(450,0)"/>
    <use xlink:href="#def-tick" class="tick tick-4" transform="translate(600,0)"/>
    <use xlink:href="#def-tick" class="tick tick-5" transform="translate(750,0)"/>
    <use xlink:href="#def-tick" class="tick tick-6" transform="translate(900,0)"/>
</g>
<g class="numbers">
    <path class="number number-1" d="M47.65 67.75v-24.6l-6.3 4.5-4-6 11.4-7.4h7.9v33.5h-9z"/>
    <path class="number number-2" d="M187.95 67.2v-6.4c1.5-1.2 2.8-2.4 3.9-3.4l3-2.7c.9-.8 1.6-1.5 2.3-2.2.7-.7 1.3-1.3 1.8-1.9.4-.5.9-1 1.3-1.6.4-.6.8-1.1 1.2-1.7.4-.6.6-1.2.8-1.8.2-.6.3-1.2.3-1.8 0-1.2-.4-2.2-1.2-3-.8-.8-2-1.2-3.5-1.2-1.2 0-2.6.2-4.2.5-1.6.4-3.1.9-4.7 1.8l-.3-7c1.8-.6 3.4-1.1 5.1-1.5 1.6-.3 3.3-.5 4.9-.5 1.9 0 3.6.2 5.2.6 1.6.4 2.9 1 4.1 1.8 1.1.8 2 1.8 2.6 3 .6 1.2 1 2.6 1 4.3 0 1.9-.6 3.9-1.7 6s-2.9 4.4-5.3 6.8c-.7.7-1.5 1.5-2.6 2.5-1.1.9-2.1 1.8-3.1 2.7h13.2v6.3h-24.1v.4z"/>
    <path class="number number-3" d="M511 61.75c-.8 1.3-1.8 2.4-3.2 3.2-1.3.8-2.9 1.4-4.7 1.8s-3.7.6-5.7.6c-1.9 0-3.7-.1-5.3-.2s-3.1-.5-4.4-.9l.4-7.1c1.1.6 2.4 1.1 3.8 1.3 1.4.2 2.9.3 4.4.3 2.2 0 3.9-.4 5.1-1.2 1.2-.8 1.8-1.8 1.8-3.1s-.5-2.3-1.6-2.9c-1.1-.6-2.6-.9-4.5-.9h-1.8c-.7 0-1.3 0-1.8.1v-6c.3 0 .5.1.7.1h3.1c.7 0 1.3-.1 2-.2.7-.2 1.2-.4 1.8-.7.5-.3 1-.7 1.3-1.2s.5-1 .5-1.6c0-.8-.2-1.4-.5-1.9s-.8-.9-1.3-1.2c-.5-.3-1.2-.5-1.9-.6-.7-.1-1.4-.1-2.1-.1-.5 0-1.1 0-1.8.1-.6 0-1.3.1-2 .2s-1.4.2-2.1.4-1.3.4-1.9.6l-.4-6.6c1.7-.5 3.3-.9 4.9-1.1 1.6-.2 3.2-.3 4.9-.3 1.6 0 3.1.1 4.7.4 1.6.3 3 .8 4.2 1.5 1.2.7 2.3 1.6 3 2.8.8 1.2 1.2 2.7 1.2 4.5 0 1.1-.2 2-.5 2.8s-.8 1.5-1.3 2.1c-.6.6-1.2 1.1-2 1.5-.8.4-1.5.7-2.3.9v.1c2 .4 3.6 1.3 4.8 2.5 1.2 1.3 1.8 3 1.8 5.1-.1 2-.5 3.6-1.3 4.9z"/>
    <path class="number number-4" d="M659.35 60.35v6.4h-8.4v-6.4h-15v-7.1l13.4-20h9.9v21.1h4.8v6h-4.7zm-7.8-20.2l-9.2 14.2h9.2v-14.2z"/>
    <path class="number number-5" d="M811 59.2c-.5 1.3-1.1 2.4-1.8 3.3s-1.6 1.7-2.6 2.2c-1 .6-2 1-3.1 1.4s-2.2.6-3.2.7c-1.1.1-2.1.2-3 .2-1.4 0-2.9-.1-4.2-.3-1.4-.2-3-.5-4.9-.9l.1-7.2c1.6.8 3.1 1.3 4.6 1.5 1.4.2 2.6.3 3.6.3 2.1 0 3.8-.4 5-1.3 1.2-.9 1.8-2.2 1.8-4 0-.9-.2-1.7-.6-2.3s-1-1.1-1.7-1.5c-.7-.4-1.5-.7-2.4-.8-.9-.2-1.8-.3-2.7-.3-1.2 0-2.5.1-3.7.2-1.2.1-2.5.3-3.6.6l.2-18h21.8v6h-14.2v5.6c.4-.1.9-.1 1.4-.1h1.4c1.7 0 3.3.2 4.8.6 1.5.4 2.9 1 4 1.9 1.2.8 2.1 1.9 2.8 3.2s1 2.8 1 4.6c-.1 1.6-.3 3.1-.8 4.4z"/>
    <path class="number number-6" d="M961.85 60.45c-.6 1.4-1.5 2.6-2.6 3.6s-2.4 1.8-4 2.4-3.3.9-5.1.9c-2.4 0-4.4-.4-6-1.3s-3-2-4-3.5-1.7-3.2-2.2-5.1c-.4-1.9-.7-3.9-.7-6 0-2.7.2-5 .7-6.9.4-1.9 1-3.5 1.7-4.9.5-.9 1.1-1.8 1.8-2.7s1.6-1.6 2.6-2.2c1-.6 2.2-1.2 3.5-1.5 1.3-.4 2.8-.6 4.4-.6 1.6 0 3.1.1 4.5.3 1.4.2 2.9.6 4.3 1.2l-.5 6.6c-1-.6-2.1-1.1-3.3-1.4-1.2-.3-2.4-.4-3.6-.4-1.3 0-2.4.2-3.3.5-.9.3-1.7.8-2.3 1.5-.7.7-1.2 1.7-1.7 3-.4 1.3-.6 2.9-.6 4.9h.1c1-1.3 2-2.2 3.2-2.7 1.2-.5 2.5-.7 4-.7 1.6 0 3 .3 4.2.8 1.2.5 2.3 1.3 3.1 2.3.9 1 1.5 2.1 2 3.4.5 1.3.7 2.7.7 4.1 0 1.5-.3 3-.9 4.4zm-8.6-7.6c-.8-.9-1.8-1.3-3.2-1.3-1.3 0-2.4.5-3.1 1.4-.8.9-1.2 2.1-1.2 3.6s.4 2.8 1.2 3.7c.8.9 1.9 1.4 3.2 1.4 1.4 0 2.4-.5 3.2-1.4s1.1-2.1 1.1-3.4c-.1-1.8-.4-3.1-1.2-4z"/>
</g>
<g class="texts">
    <path class="text text-1" d="M19.75 117h-2.8l-1.1-2.9h-5.2l-1.1 2.9h-2.8l5-12.9h2.8l5.2 12.9zm-4.8-5.1l-1.8-4.8-1.7 4.8h3.5zm6.1-4.2h2.3v1.4c.3-.5.7-.8 1.2-1.1s1.1-.4 1.7-.4c1.1 0 2 .4 2.8 1.3s1.1 2 1.1 3.6-.4 2.8-1.1 3.6c-.8.9-1.7 1.3-2.8 1.3-.5 0-1-.1-1.4-.3s-.9-.6-1.3-1.1v4.7h-2.5v-13zm2.4 4.5c0 1 .2 1.8.6 2.3.4.5.9.8 1.5.8s1.1-.2 1.4-.7c.4-.5.6-1.2.6-2.3 0-1-.2-1.7-.6-2.2s-.9-.7-1.5-.7-1.1.2-1.5.7c-.3.5-.5 1.2-.5 2.1zm8.6-4.5h2.3v1.4c.3-.5.7-.8 1.2-1.1s1.1-.4 1.7-.4c1.1 0 2 .4 2.8 1.3s1.1 2 1.1 3.6-.4 2.8-1.1 3.6c-.8.9-1.7 1.3-2.8 1.3-.5 0-1-.1-1.4-.3s-.9-.6-1.3-1.1v4.7h-2.5v-13zm2.4 4.5c0 1 .2 1.8.6 2.3.4.5.9.8 1.5.8s1.1-.2 1.4-.7c.4-.5.6-1.2.6-2.3 0-1-.2-1.7-.6-2.2s-.9-.7-1.5-.7-1.1.2-1.5.7c-.3.5-.5 1.2-.5 2.1zm11 4.8h-2.5v-9.3h2.3v1.3c.4-.6.7-1 1.1-1.2s.7-.3 1.1-.3c.6 0 1.1.2 1.6.5l-.8 2.2c-.4-.3-.8-.4-1.2-.4-.3 0-.6.1-.9.3-.2.2-.4.5-.6 1s-.2 1.5-.2 3.1v2.8h.1zm6.5-6.5l-2.2-.4c.3-.9.7-1.6 1.3-2s1.5-.7 2.7-.7c1.1 0 1.9.1 2.5.4.5.3.9.6 1.1 1s.3 1.1.3 2.2v2.9c0 .8 0 1.4.1 1.8s.2.8.4 1.3h-2.4c-.1-.2-.1-.4-.2-.7 0-.1-.1-.2-.1-.3-.4.4-.9.7-1.4.9s-1 .3-1.5.3c-1 0-1.7-.3-2.3-.8s-.8-1.2-.8-2c0-.5.1-1 .4-1.4.3-.4.6-.7 1.1-.9.5-.2 1.1-.4 2-.6 1.2-.2 2-.4 2.4-.6v-.2c0-.5-.1-.8-.4-1-.2-.2-.7-.3-1.3-.3-.4 0-.8.1-1 .3-.4.1-.6.4-.7.8zm3.3 2c-.3.1-.8.2-1.5.4s-1.1.3-1.3.4c-.3.2-.5.5-.5.9 0 .3.1.6.4.9s.6.4 1 .4.9-.1 1.3-.4c.3-.2.5-.5.6-.8.1-.2.1-.6.1-1.2v-.6h-.1zm4.9-6.1v-2.3h2.5v2.3h-2.5zm0 10.6v-9.3h2.5v9.3h-2.5zm4.1-2.7l2.5-.4c.1.5.3.8.6 1.1.3.3.8.4 1.4.4.6 0 1.1-.1 1.4-.4.2-.2.3-.4.3-.7 0-.2-.1-.3-.2-.5-.1-.1-.4-.2-.8-.3-2-.4-3.3-.8-3.8-1.2-.7-.5-1.1-1.2-1.1-2.1 0-.8.3-1.5 1-2s1.6-.8 3-.8c1.3 0 2.2.2 2.8.6s1 1 1.3 1.8l-2.3.4c-.1-.4-.3-.6-.6-.8s-.7-.3-1.2-.3c-.7 0-1.1.1-1.4.3-.2.1-.3.3-.3.5s.1.3.2.4c.2.2 1 .4 2.3.7s2.2.7 2.8 1.1c.5.4.8 1.1.8 1.8 0 .9-.4 1.6-1.1 2.2s-1.8.9-3.2.9c-1.3 0-2.3-.3-3-.8s-1.2-1-1.4-1.9zm16.3-.3l2.5.4c-.3.9-.8 1.6-1.5 2.1s-1.5.7-2.6.7c-1.6 0-2.8-.5-3.6-1.6-.6-.8-.9-1.9-.9-3.2 0-1.5.4-2.8 1.2-3.6s1.8-1.3 3.1-1.3c1.4 0 2.5.5 3.3 1.4.8.9 1.2 2.3 1.2 4.2h-6.2c0 .7.2 1.3.6 1.7.4.4.9.6 1.4.6.4 0 .7-.1 1-.3s.3-.6.5-1.1zm.1-2.5c0-.7-.2-1.3-.6-1.6-.4-.4-.8-.6-1.3-.6s-1 .2-1.3.6-.5.9-.5 1.6h3.7zm9.9 2.5l2.5.4c-.3.9-.8 1.6-1.5 2.1s-1.5.7-2.6.7c-1.6 0-2.8-.5-3.6-1.6-.6-.8-.9-1.9-.9-3.2 0-1.5.4-2.8 1.2-3.6s1.8-1.3 3.1-1.3c1.4 0 2.5.5 3.3 1.4.8.9 1.2 2.3 1.2 4.2h-6.2c0 .7.2 1.3.6 1.7.4.4.9.6 1.4.6.4 0 .7-.1 1-.3s.3-.6.5-1.1zm.1-2.5c0-.7-.2-1.3-.6-1.6-.4-.4-.8-.6-1.3-.6s-1 .2-1.3.6-.5.9-.5 1.6h3.7zm-60 14.2h4.8c1.1 0 1.9.1 2.5.2.8.2 1.4.6 1.9 1.2s.9 1.3 1.2 2.1c.3.8.4 1.8.4 3 0 1.1-.1 2-.4 2.7-.3.9-.8 1.7-1.4 2.3-.5.4-1.1.8-1.8 1-.6.2-1.3.3-2.3.3h-4.9v-12.8zm2.6 2.2v8.5h1.9c.7 0 1.3 0 1.6-.1.4-.1.8-.3 1.1-.5s.5-.7.7-1.2c.2-.6.3-1.4.3-2.4s-.1-1.8-.3-2.3-.4-.9-.7-1.2-.7-.5-1.2-.6c-.4-.1-1.1-.1-2.1-.1h-1.3v-.1zm12.7 10.7h-2.5v-9.3h2.3v1.3c.4-.6.7-1 1.1-1.2s.7-.3 1.1-.3c.6 0 1.1.2 1.6.5l-.8 2.2c-.4-.3-.8-.4-1.2-.4-.3 0-.6.1-.9.3-.2.2-.4.5-.6 1s-.2 1.5-.2 3.1v2.8h.1zm6.5-6.5l-2.2-.4c.3-.9.7-1.6 1.3-2s1.5-.7 2.7-.7c1.1 0 1.9.1 2.5.4.5.3.9.6 1.1 1s.3 1.1.3 2.2v2.9c0 .8 0 1.4.1 1.8s.2.8.4 1.3h-2.4c-.1-.2-.1-.4-.2-.7 0-.1-.1-.2-.1-.3-.4.4-.9.7-1.4.9s-1 .3-1.5.3c-1 0-1.7-.3-2.3-.8s-.8-1.2-.8-2c0-.5.1-1 .4-1.4.3-.4.6-.7 1.1-.9.5-.2 1.1-.4 2-.6 1.2-.2 2-.4 2.4-.6v-.2c0-.5-.1-.8-.4-1-.2-.2-.7-.3-1.3-.3-.4 0-.8.1-1 .3-.3.1-.5.4-.7.8zm3.3 2c-.3.1-.8.2-1.5.4s-1.1.3-1.3.4c-.3.2-.5.5-.5.9 0 .3.1.6.4.9s.6.4 1 .4.9-.1 1.3-.4c.3-.2.5-.5.6-.8.1-.2.1-.6.1-1.2v-.6h-.1zm3.8-4.8h1.4v-.7c0-.8.1-1.4.3-1.8s.5-.7.9-.9c.4-.2 1-.4 1.7-.4s1.4.1 2.1.3l-.3 1.7c-.4-.1-.8-.1-1.1-.1-.4 0-.6.1-.8.3-.2.2-.2.5-.2 1v.7h1.8v1.9h-1.8v7.4h-2.5v-7.4h-1.4v-2h-.1zm11.4 0v2h-1.7v5.1s.1.2.2.3.3.1.4.1c.2 0 .6-.1 1-.2l.2 1.9c-.6.2-1.2.4-2 .4-.4 0-.8-.1-1.2-.2-.4-.1-.6-.3-.8-.6-.2-.2-.3-.6-.3-1-.1-.3-.1-.9-.1-1.7v-4.1h-1.1v-2h1.1v-1.9l2.5-1.4v3.3h1.8z"/>
    <path class="text text-2" d="M245.8 118H243l-1.1-2.9h-5.2l-1.1 2.9h-2.8l5-12.9h2.8l5.2 12.9z m-4.7-5.1l-1.8-4.8-1.7 4.8h3.5z m6-4.2h2.3v1.4c0.3-0.5 0.7-0.8 1.2-1.1s1.1-0.4 1.7-0.4c1.1 0 2 0.4 2.8 1.3s1.1 2 1.1 3.6-0.4 2.8-1.1 3.6c-0.8 0.9-1.7 1.3-2.8 1.3-0.5 0-1-0.1-1.4-0.3s-0.9-0.6-1.3-1.1v4.7h-2.5v-13z m2.5 4.5c0 1 0.2 1.8 0.6 2.3 0.4 0.5 0.9 0.8 1.5 0.8s1.1-0.2 1.4-0.7c0.4-0.5 0.6-1.2 0.6-2.3 0-1-0.2-1.7-0.6-2.2s-0.9-0.7-1.5-0.7-1.1 0.2-1.5 0.7c-0.3 0.5-0.5 1.2-0.5 2.1z m8.5-4.5h2.3v1.4c0.3-0.5 0.7-0.8 1.2-1.1s1.1-0.4 1.7-0.4c1.1 0 2 0.4 2.8 1.3s1.1 2 1.1 3.6-0.4 2.8-1.1 3.6c-0.8 0.9-1.7 1.3-2.8 1.3-0.5 0-1-0.1-1.4-0.3s-0.9-0.6-1.3-1.1v4.7h-2.5v-13z m2.5 4.5c0 1 0.2 1.8 0.6 2.3 0.4 0.5 0.9 0.8 1.5 0.8s1.1-0.2 1.4-0.7c0.4-0.5 0.6-1.2 0.6-2.3 0-1-0.2-1.7-0.6-2.2s-0.9-0.7-1.5-0.7-1.1 0.2-1.5 0.7c-0.3 0.5-0.5 1.2-0.5 2.1z m11 4.8h-2.5v-9.3h2.3v1.3c0.4-0.6 0.7-1 1.1-1.2s0.7-0.3 1.1-0.3c0.6 0 1.1 0.2 1.6 0.5l-0.8 2.2c-0.4-0.3-0.8-0.4-1.2-0.4-0.3 0-0.6 0.1-0.9 0.3-0.2 0.2-0.4 0.5-0.6 1s-0.2 1.5-0.2 3.1v2.8h0.1z m6.4-6.5l-2.2-0.4c0.3-0.9 0.7-1.6 1.3-2s1.5-0.7 2.7-0.7c1.1 0 1.9 0.1 2.5 0.4 0.5 0.3 0.9 0.6 1.1 1s0.3 1.1 0.3 2.2v2.9c0 0.8 0 1.4 0.1 1.8s0.2 0.8 0.4 1.3h-2.4c-0.1-0.2-0.1-0.4-0.2-0.7 0-0.1-0.1-0.2-0.1-0.3-0.4 0.4-0.9 0.7-1.4 0.9s-1 0.3-1.5 0.3c-1 0-1.7-0.3-2.3-0.8s-0.8-1.2-0.8-2c0-0.5 0.1-1 0.4-1.4 0.3-0.4 0.6-0.7 1.1-0.9 0.5-0.2 1.1-0.4 2-0.6 1.2-0.2 2-0.4 2.4-0.6v-0.2c0-0.5-0.1-0.8-0.4-1-0.2-0.2-0.7-0.3-1.3-0.3-0.4 0-0.8 0.1-1 0.3-0.3 0.1-0.5 0.4-0.7 0.8z m3.4 2c-0.3 0.1-0.8 0.2-1.5 0.4s-1.1 0.3-1.3 0.4c-0.3 0.2-0.5 0.5-0.5 0.9 0 0.3 0.1 0.6 0.4 0.9s0.6 0.4 1 0.4 0.9-0.1 1.3-0.4c0.3-0.2 0.5-0.5 0.6-0.8 0.1-0.2 0.1-0.6 0.1-1.2v-0.6h-0.1z m4.8-6.1v-2.3h2.5v2.3h-2.5z m0 10.6v-9.3h2.5v9.3h-2.5z m4.1-2.7l2.5-0.4c0.1 0.5 0.3 0.8 0.6 1.1 0.3 0.3 0.8 0.4 1.4 0.4 0.6 0 1.1-0.1 1.4-0.4 0.2-0.2 0.3-0.4 0.3-0.7 0-0.2-0.1-0.3-0.2-0.5-0.1-0.1-0.4-0.2-0.8-0.3-2-0.4-3.3-0.8-3.8-1.2-0.7-0.5-1.1-1.2-1.1-2.1 0-0.8 0.3-1.5 1-2s1.6-0.8 3-0.8c1.3 0 2.2 0.2 2.8 0.6s1 1 1.3 1.8l-2.3 0.4c-0.1-0.4-0.3-0.6-0.6-0.8s-0.7-0.3-1.2-0.3c-0.7 0-1.1 0.1-1.4 0.3-0.2 0.1-0.3 0.3-0.3 0.5s0.1 0.3 0.2 0.4c0.2 0.2 1 0.4 2.3 0.7s2.2 0.7 2.8 1.1c0.5 0.4 0.8 1.1 0.8 1.8 0 0.9-0.4 1.6-1.1 2.2s-1.8 0.9-3.2 0.9c-1.3 0-2.3-0.3-3-0.8s-1.1-1-1.4-1.9z m16.3-0.3l2.5 0.4c-0.3 0.9-0.8 1.6-1.5 2.1s-1.5 0.7-2.6 0.7c-1.6 0-2.8-0.5-3.6-1.6-0.6-0.8-0.9-1.9-0.9-3.2 0-1.5 0.4-2.8 1.2-3.6s1.8-1.3 3.1-1.3c1.4 0 2.5 0.5 3.3 1.4 0.8 0.9 1.2 2.3 1.2 4.2h-6.2c0 0.7 0.2 1.3 0.6 1.7 0.4 0.4 0.9 0.6 1.4 0.6 0.4 0 0.7-0.1 1-0.3s0.4-0.6 0.5-1.1z m0.2-2.5c0-0.7-0.2-1.3-0.6-1.6-0.4-0.4-0.8-0.6-1.3-0.6s-1 0.2-1.3 0.6-0.5 0.9-0.5 1.6h3.7z m6.8 5.5h-2.5v-9.3h2.3v1.3c0.4-0.6 0.7-1 1.1-1.2s0.7-0.3 1.1-0.3c0.6 0 1.1 0.2 1.6 0.5l-0.8 2.2c-0.4-0.3-0.8-0.4-1.2-0.4-0.3 0-0.6 0.1-0.9 0.3-0.2 0.2-0.4 0.5-0.6 1s-0.2 1.5-0.2 3.1v2.8h0.1z m-68.4 21.6v-12.9h5.5c1.4 0 2.4 0.1 3 0.3s1.1 0.6 1.5 1.2 0.6 1.3 0.6 2c0 1-0.3 1.8-0.9 2.4s-1.4 1-2.5 1.2c0.6 0.3 1 0.7 1.4 1.1s0.9 1.1 1.5 2.1l1.6 2.5h-3.1l-1.9-2.8c-0.7-1-1.1-1.6-1.4-1.9s-0.5-0.4-0.8-0.5c-0.3-0.1-0.7-0.1-1.3-0.1h-0.5v5.4h-2.7z m2.6-7.4h1.9c1.2 0 2-0.1 2.3-0.2s0.6-0.3 0.7-0.5 0.3-0.6 0.3-1-0.1-0.8-0.3-1.1c-0.2-0.3-0.6-0.4-1-0.5h-3.9v3.3z m15.8 4.4l2.5 0.4c-0.3 0.9-0.8 1.6-1.5 2.1s-1.5 0.7-2.6 0.7c-1.6 0-2.8-0.5-3.6-1.6-0.6-0.8-0.9-1.9-0.9-3.2 0-1.5 0.4-2.8 1.2-3.6s1.8-1.3 3.1-1.3c1.4 0 2.5 0.5 3.3 1.4 0.8 0.9 1.2 2.3 1.2 4.2h-6.2c0 0.7 0.2 1.3 0.6 1.7 0.4 0.4 0.9 0.6 1.4 0.6 0.4 0 0.7-0.1 1-0.3s0.4-0.6 0.5-1.1z m0.2-2.5c0-0.7-0.2-1.3-0.6-1.6-0.4-0.4-0.8-0.6-1.3-0.6s-1 0.2-1.3 0.6-0.5 0.9-0.5 1.6h3.7z m7 5.5l-3.8-9.3h2.6l1.8 4.8 0.5 1.6c0.1-0.4 0.2-0.7 0.3-0.8 0.1-0.3 0.2-0.5 0.3-0.8l1.8-4.8h2.5l-3.7 9.3h-2.3z m7.4-10.6v-2.3h2.5v2.3h-2.5z m0 10.6v-9.3h2.5v9.3h-2.5z m10.4-3l2.5 0.4c-0.3 0.9-0.8 1.6-1.5 2.1s-1.5 0.7-2.6 0.7c-1.6 0-2.8-0.5-3.6-1.6-0.6-0.8-0.9-1.9-0.9-3.2 0-1.5 0.4-2.8 1.2-3.6s1.8-1.3 3.1-1.3c1.4 0 2.5 0.5 3.3 1.4 0.8 0.9 1.2 2.3 1.2 4.2h-6.2c0 0.7 0.2 1.3 0.6 1.7 0.4 0.4 0.9 0.6 1.4 0.6 0.4 0 0.7-0.1 1-0.3s0.4-0.6 0.5-1.1z m0.2-2.5c0-0.7-0.2-1.3-0.6-1.6-0.4-0.4-0.8-0.6-1.3-0.6s-1 0.2-1.3 0.6-0.5 0.9-0.5 1.6h3.7z m6.2 5.5l-3-9.3h2.4l1.7 6.1 1.6-6.1h2.4l1.6 6.1 1.8-6.1h2.4l-3 9.3h-2.3l-1.6-6-1.6 6H295z"/>
    <path class="text text-3" d="M463.47 105.06h-2.91L455.69 117.94h2.81l1.05-2.94h5.05l1.09 2.94H468.5L463.47 105.06z m-3.14 7.75L462.03 108.06l1.76 4.75h-3.46zM469.94 121.5h2.5v-4.67c0.46 0.5 0.89 0.85 1.31 1.05 0.41 0.2 0.88 0.31 1.38 0.31 1.07 0 1.98-0.43 2.74-1.31C478.62 116.01 479 114.8 479 113.23c0-1.53-0.38-2.72-1.13-3.57C477.13 108.8 476.21 108.38 475.14 108.38c-0.62 0-1.18 0.15-1.69 0.45-0.51 0.31-0.91 0.69-1.2 1.17V108.63h-2.31v12.87z m3.03-10.53C473.37 110.49 473.86 110.25 474.46 110.25c0.58 0 1.06 0.25 1.45 0.74 0.39 0.49 0.59 1.25 0.59 2.26 0 1.09-0.19 1.87-0.57 2.35-0.38 0.48-0.85 0.72-1.42 0.71-0.59 0-1.1-0.26-1.51-0.78-0.41-0.52-0.62-1.32-0.62-2.41 0-0.95 0.2-1.66 0.59-2.15zM480.94 121.5h2.5v-4.67c0.46 0.5 0.890.85 1.31 1.05 0.41 0.2 0.88 0.31 1.38 0.31 1.07 0 1.98-0.43 2.74-1.31 0.75-0.87 1.13-2.09 1.13-3.65 0-1.53-0.38-2.72-1.13-3.57C488.13 108.8 487.21 108.38 486.14 108.38c-0.62 0-1.18 0.15-1.69 0.45-0.51 0.31-0.91 0.69-1.2 1.17V108.63h-2.31v12.87z m3.03-10.53c0.4-0.48 0.89-0.72 1.49-0.72 0.58 0 1.06 0.25 1.45 0.74 0.39 0.49 0.59 1.25 0.59 2.26 0 1.09-0.19 1.87-0.57 2.35-0.38 0.48-0.85 0.72-1.42 0.71-0.59 0-1.1-0.26-1.51-0.78-0.41-0.52-0.62-1.32-0.62-2.41 0-0.95 0.2-1.66 0.59-2.15zM494.44 115.04c0-1.6 0.07-2.65 0.2-3.15 0.13-0.5 0.32-0.85 0.54-1.04 0.23-0.19 0.52-0.29 0.86-0.29 0.34 0 0.72 0.13 1.12 0.41l0.78-2.14c-0.51-0.31-1.04-0.46-1.6-0.46-0.39 0-0.74 0.11-1.05 0.32-0.31 0.21-0.66 0.63-1.04 1.26V108.63h-2.31v9.31h2.5v-2.9zM501.37 110.51c0.23-0.18 0.54-0.26 0.95-0.26 0.6 0 1.01 0.1 1.23 0.3 0.22 0.2 0.33 0.54 0.32 1.02V111.81c-0.43 0.19-1.21 0.39-2.32 0.62-0.83 0.17-1.46 0.36-1.91 0.58-0.44 0.22-0.78 0.54-1.02 0.96-0.24 0.42-0.37 0.89-0.37 1.43 0 0.81 0.27 1.47 0.82 2 0.55 0.53 1.3 0.79 2.25 0.79 0.54 0 1.05-0.1 1.52-0.31 0.47-0.21 0.92-0.52 1.34-0.94 0.02 0.05 0.05 0.14 0.09 0.28 0.09 0.32 0.17 0.56 0.23 0.72h2.5c-0.24-0.45-0.41-0.86-0.49-1.26-0.09-0.39-0.13-1-0.14-1.82l0.07-2.88c0-1.07-0.11-1.81-0.33-2.22-0.22-0.4-0.59-0.73-1.12-0.99-0.53-0.26-1.34-0.39-2.43-0.39-1.2 0-2.1 0.22-2.71 0.65-0.61 0.44-1.04 1.12-1.29 2.03l2.25 0.38c0.14-0.44 0.33-0.75 0.56-0.93zM503.88 113.94c0 0.6-0.03 1.01-0.1 1.22-0.09 0.33-0.27 0.6-0.55 0.83-0.38 0.3-0.78 0.45-1.19 0.45-0.37 0-0.68-0.13-0.93-0.39-0.24-0.26-0.36-0.56-0.36-0.91 0-0.36 0.15-0.65 0.45-0.88 0.2-0.14 0.62-0.29 1.26-0.44 0.64-0.15 1.11-0.28 1.42-0.38v0.5zM511.44 107.38V105.06h-2.5v2.31h2.5z m0 10.56V108.63h-2.5v9.31h2.5zM514.57 117.41c0.74 0.52 1.74 0.77 3.01 0.78 1.39 0 2.45-0.31 3.16-0.93 0.71-0.62 1.07-1.36 1.07-2.22 0-0.79-0.26-1.41-0.77-1.85-0.52-0.44-1.44-0.81-2.75-1.11-1.31-0.3-2.08-0.54-2.29-0.71-0.16-0.13-0.25-0.28-0.25-0.46 0-0.21 0.09-0.38 0.28-0.51 0.28-0.18 0.75-0.28 1.4-0.28 0.52 0 0.91 0.1 1.19 0.31 0.28 0.2 0.47 0.5 0.57 0.88l2.31-0.44c-0.23-0.82-0.66-1.45-1.28-1.86-0.62-0.42-1.57-0.63-2.85-0.64-1.34 0-2.33 0.28-2.97 0.84-0.64 0.56-0.96 1.24-0.96 2.05 0 0.9 0.37 1.61 1.1 2.12 0.53 0.37 1.79 0.77 3.77 1.22 0.43 0.1 0.7 0.21 0.83 0.33 0.12 0.13 0.17 0.28 0.17 0.48 0 0.28-0.11 0.5-0.32 0.67-0.32 0.24-0.79 0.36-1.41 0.36-0.57 0-1.01-0.12-1.33-0.37C515.94 115.83 515.73 115.47 515.63 115l-2.5 0.31c0.23 0.88 0.71 1.59 1.44 2.1zM528.72 116c-0.26 0.21-0.58 0.31-0.97 0.31-0.56 0-1.03-0.2-1.41-0.61-0.38-0.41-0.57-0.97-0.59-1.7h6.25c0.04-1.9-0.35-3.32-1.16-4.24C530.04 108.84 528.94 108.38 527.55 108.38c-1.24 0-2.27 0.44-3.08 1.32-0.81 0.88-1.22 2.1-1.22 3.65 0 1.3 0.31 2.38 0.92 3.24 0.78 1.07 1.97 1.6 3.59 1.6 1.02 0 1.87-0.23 2.56-0.7 0.68-0.47 1.18-1.15 1.49-2.05l-2.5-0.44c-0.13 0.46-0.33 0.8-0.59 1zM525.79 112.5c-0.01-0.69 0.17-1.24 0.52-1.64 0.35-0.4 0.8-0.61 1.35-0.61 0.51 0 0.93 0.19 1.28 0.57 0.35 0.38 0.54 0.94 0.56 1.68h-3.71zM538.72 116c-0.26 0.21-0.58 0.31-0.97 0.31-0.56 0-1.03-0.2-1.41-0.61-0.38-0.41-0.57-0.97-0.59-1.7h6.25c0.04-1.9-0.35-3.32-1.16-4.24C540.04 108.84 538.94 108.38 537.55 108.38c-1.24 0-2.27 0.44-3.08 1.32-0.81 0.88-1.22 2.1-1.22 3.65 0 1.3 0.31 2.38 0.92 3.24 0.78 1.07 1.97 1.6 3.59 1.6 1.02 0 1.87-0.23 2.56-0.7 0.68-0.47 1.18-1.15 1.49-2.05l-2.5-0.44c-0.13 0.46-0.33 0.8-0.59 1zM535.79 112.5c-0.01-0.69 0.17-1.24 0.52-1.64 0.35-0.4 0.8-0.61 1.35-0.61 0.51 0 0.93 0.19 1.28 0.57 0.35 0.38 0.54 0.94 0.56 1.68h-3.71zM433.13 139.54v-5.5h5.37v-2.19h-5.37v-3h6.18v-2.19H430.5v12.88h2.63zM443.94 128.97v-2.31h-2.5v2.31h2.5z m0 10.57v-9.32h-2.5v9.32h2.5zM454.94 133.73c0-0.72-0.05-1.28-0.14-1.67-0.09-0.39-0.25-0.73-0.48-1.04-0.23-0.3-0.57-0.56-1.02-0.75-0.45-0.2-0.95-0.29-1.49-0.29-1.23 0-2.25 0.54-3.06 1.62V130.22h-2.31v9.32h2.5v-4.25c0-1.05 0.06-1.76 0.18-2.15 0.12-0.39 0.35-0.7 0.69-0.94 0.33-0.24 0.71-0.35 1.13-0.35 0.33 0 0.61 0.08 0.84 0.25 0.23 0.17 0.4 0.4 0.5 0.69 0.1 0.3 0.16 0.95 0.16 1.96V139.54h2.5v-5.81zM459.87 132.11c0.23-0.18 0.54-0.26 0.95-0.26 0.6 0 1.01 0.1 1.23 0.3 0.22 0.2 0.33 0.54 0.32 1.02v0.24c-0.43 0.19-1.21 0.39-2.32 0.62-0.83 0.17-1.46 0.36-1.91 0.58-0.44 0.22-0.78 0.54-1.02 0.96-0.24 0.42-0.37 0.89-0.37 1.43 0 0.81 0.27 1.47 0.82 2 0.55 0.53 1.3 0.79 2.25 0.79 0.54 0 1.05-0.1 1.52-0.31 0.47-0.21 0.92-0.52 1.34-0.94 0.02 0.05 0.05 0.14 0.09 0.28 0.09 0.32 0.17 0.56 0.23 0.72h2.5c-0.24-0.45-0.41-0.86-0.49-1.26-0.09-0.39-0.13-1-0.14-1.82l0.07-2.88c0-1.07-0.11-1.81-0.33-2.22-0.22-0.4-0.59-0.73-1.12-0.99-0.53-0.26-1.34-0.39-2.43-0.39-1.2 0-2.1 0.22-2.71 0.65-0.61 0.44-1.04 1.12-1.29 2.03l2.25 0.38c0.14-0.44 0.33-0.75 0.56-0.93zM462.38 135.54c0 0.6-0.03 1.01-0.1 1.22-0.09 0.33-0.27 0.6-0.55 0.83-0.38 0.3-0.78 0.45-1.19 0.45-0.37 0-0.68-0.13-0.93-0.39-0.24-0.26-0.36-0.56-0.36-0.91 0-0.36 0.15-0.65 0.45-0.88 0.2-0.14 0.62-0.29 1.26-0.44 0.64-0.15 1.11-0.28 1.42-0.38v0.5zM469.94 139.54v-12.88h-2.5v12.88h2.5zM484.72 136.87c-0.51 0.44-1.11 0.66-1.81 0.67-0.95 0-1.73-0.35-2.33-1.04-0.6-0.69-0.89-1.85-0.89-3.48 0-1.53 0.3-2.64 0.89-3.33 0.6-0.69 1.37-1.03 2.33-1.03 0.69 0 1.28 0.2 1.76 0.59 0.48 0.39 0.8 0.92 0.96 1.6l2.56-0.63c-0.29-1.04-0.73-1.84-1.32-2.39-0.98-0.94-2.26-1.41-3.84-1.42-1.8 0-3.26 0.6-4.37 1.79C477.55 129.39 477 131.06 477 133.21c0 2.04 0.55 3.64 1.67 4.82 1.11 1.17 2.53 1.76 4.25 1.76 1.39 0 2.54-0.34 3.45-1.03s1.55-1.74 1.94-3.16l-2.5-0.81c-0.22 0.95-0.58 1.65-1.09 2.08zM490.48 137.49c0.4 0.75 0.99 1.32 1.77 1.71 0.78 0.39 1.59 0.58 2.45 0.59 1.38 0 2.53-0.47 3.43-1.4 0.91-0.93 1.37-2.11 1.37-3.54 0-1.41-0.45-2.57-1.35-3.49-0.9-0.92-2.06-1.38-3.47-1.38-0.91 0-1.74 0.2-2.48 0.61-0.74 0.41-1.31 1-1.72 1.76-0.4 0.77-0.61 1.57-0.61 2.4 0 1.08 0.2 1.99 0.61 2.74z m2.55-4.77c0.43-0.5 0.97-0.75 1.6-0.75 0.64 0 1.17 0.25 1.6 0.75 0.43 0.5 0.65 1.21 0.64 2.14 0 0.95-0.22 1.68-0.64 2.18-0.43 0.5-0.96 0.75-1.6 0.75-0.64 0-1.17-0.25-1.6-0.75C492.59 136.54 492.38 135.82 492.38 134.88c0-0.94 0.22-1.66 0.65-2.16zM501.19 139.54h2.5v-4.56c0-0.9 0.06-1.54 0.19-1.93 0.13-0.39 0.34-0.69 0.65-0.89 0.3-0.21 0.64-0.31 1.01-0.31 0.31 0 0.56 0.07 0.74 0.19 0.18 0.13 0.32 0.33 0.4 0.6 0.09 0.26 0.13 0.85 0.13 1.76V139.54h2.5v-4.5c0-0.88 0.07-1.53 0.2-1.94 0.13-0.41 0.35-0.72 0.66-0.93 0.3-0.21 0.63-0.32 0.97-0.32 0.47 0 0.82 0.18 1.04 0.53 0.17 0.27 0.25 0.87 0.26 1.8v5.36h2.5v-5.98c0-0.89-0.09-1.54-0.26-1.94-0.23-0.54-0.59-0.95-1.06-1.23-0.48-0.28-1.06-0.42-1.75-0.41-0.54 0-1.05 0.12-1.52 0.36-0.48 0.24-0.92 0.61-1.33 1.11-0.28-0.49-0.65-0.86-1.09-1.11-0.44-0.24-0.96-0.37-1.56-0.36-1.13 0-2.11 0.51-2.93 1.52V130.22h-2.25v9.32zM517.19 139.54h2.5v-4.56c0-0.9 0.06-1.54 0.19-1.93 0.13-0.39 0.34-0.69 0.65-0.89 0.3-0.21 0.64-0.31 1.01-0.31 0.31 0 0.56 0.07 0.74 0.19 0.18 0.13 0.32 0.33 0.4 0.6 0.09 0.26 0.13 0.85 0.13 1.76V139.54h2.5v-4.5c0-0.88 0.07-1.53 0.2-1.94 0.13-0.41 0.35-0.72 0.66-0.93 0.3-0.21 0.63-0.32 0.97-0.32 0.47 0 0.82 0.18 1.04 0.53 0.17 0.27 0.25 0.87 0.26 1.8v5.36h2.5v-5.98c0-0.89-0.09-1.54-0.26-1.94-0.23-0.54-0.59-0.95-1.06-1.23-0.48-0.28-1.06-0.42-1.75-0.41-0.54 0-1.05 0.12-1.52 0.36-0.48 0.24-0.92 0.61-1.33 1.11-0.28-0.49-0.65-0.86-1.09-1.11-0.44-0.24-0.96-0.37-1.56-0.36-1.13 0-2.11 0.51-2.93 1.52V130.22h-2.25v9.32zM538.22 137.6c-0.26 0.21-0.58 0.31-0.97 0.31-0.56 0-1.03-0.2-1.41-0.61-0.38-0.41-0.57-0.97-0.59-1.7h6.25c0.04-1.9-0.35-3.32-1.16-4.24-0.81-0.92-1.91-1.38-3.29-1.38-1.24 0-2.27 0.44-3.08 1.32-0.81 0.88-1.22 2.1-1.22 3.65 0 1.3 0.31 2.38 0.92 3.24 0.78 1.07 1.97 1.6 3.59 1.6 1.02 0 1.87-0.23 2.56-0.7 0.68-0.47 1.18-1.15 1.49-2.05l-2.5-0.44c-0.13 0.46-0.33 0.8-0.59 1z m-2.93-3.5c-0.01-0.69 0.17-1.24 0.52-1.64 0.35-0.4 0.8-0.61 1.35-0.61 0.51 0 0.93 0.19 1.28 0.57 0.35 0.38 0.54 0.94 0.56 1.68h-3.71zM551.94 133.73c0-0.72-0.05-1.28-0.14-1.67-0.09-0.39-0.25-0.73-0.48-1.04-0.23-0.3-0.57-0.56-1.02-0.75-0.45-0.2-0.95-0.29-1.49-0.29-1.23 0-2.25 0.54-3.06 1.62V130.22h-2.31v9.32h2.5v-4.25c0-1.05 0.06-1.76 0.18-2.15 0.12-0.39 0.35-0.7 0.69-0.94 0.33-0.24 0.71-0.35 1.13-0.35 0.33 0 0.61 0.08 0.84 0.25 0.23 0.17 0.4 0.4 0.5 0.69 0.1 0.3 0.16 0.95 0.16 1.96V139.54h2.5v-5.81zM557.13 130.22v-3.25l-2.5 1.44v1.81h-1.19v1.88h1.19v4.13c0 0.89 0.03 1.47 0.07 1.76 0.06 0.41 0.18 0.74 0.35 0.98 0.17 0.24 0.43 0.44 0.79 0.59 0.36 0.15 0.76 0.23 1.21 0.23 0.73 0 1.38-0.12 1.95-0.37l-0.16-1.93c-0.44 0.16-0.78 0.24-1.01 0.23-0.17 0-0.31-0.04-0.43-0.12-0.12-0.08-0.19-0.19-0.23-0.32-0.03-0.13-0.05-0.58-0.04-1.35V132.1h1.68v-1.88h-1.68zM561.07 139.01c0.74 0.52 1.74 0.77 3.01 0.78 1.39 0 2.45-0.31 3.16-0.93 0.71-0.62 1.07-1.36 1.07-2.22 0-0.79-0.26-1.41-0.77-1.85-0.52-0.44-1.44-0.81-2.75-1.11-1.31-0.3-2.08-0.54-2.29-0.71-0.16-0.13-0.25-0.28-0.25-0.46 0-0.21 0.09-0.38 0.28-0.51 0.28-0.18 0.75-0.28 1.4-0.28 0.52 0 0.91 0.1 1.19 0.31 0.28 0.2 0.47 0.5 0.57 0.88l2.31-0.44c-0.23-0.82-0.66-1.45-1.28-1.86-0.62-0.42-1.57-0.63-2.85-0.64-1.34 0-2.33 0.28-2.97 0.84-0.64 0.56-0.96 1.24-0.96 2.05 0 0.9 0.37 1.61 1.1 2.12 0.53 0.37 1.79 0.77 3.77 1.22 0.43 0.1 0.7 0.21 0.83 0.33 0.12 0.13 0.17 0.28 0.17 0.48 0 0.28-0.11 0.5-0.32 0.67-0.32 0.24-0.79 0.36-1.41 0.36-0.57 0-1.01-0.12-1.33-0.37-0.32-0.24-0.53-0.6-0.63-1.07l-2.5 0.31c0.23 0.88 0.71 1.59 1.45 2.1z"/>
    <path class="text text-4" d="M619.9 118h-2.8l-1.1-2.9h-5.2l-1.1 2.9H607l5-12.9h2.8l5.1 12.9zm-4.8-5.1l-1.8-4.8-1.7 4.8h3.5zm6.1-4.2h2.3v1.4c.3-.5.7-.8 1.2-1.1s1.1-.4 1.7-.4c1.1 0 2 .4 2.8 1.3s1.1 2 1.1 3.6-.4 2.8-1.1 3.6c-.8.9-1.7 1.3-2.8 1.3-.5 0-1-.1-1.4-.3s-.9-.6-1.3-1.1v4.7h-2.5v-13zm2.4 4.5c0 1 .2 1.8.6 2.3.4.5.9.8 1.5.8s1.1-.2 1.4-.7c.4-.5.6-1.2.6-2.3 0-1-.2-1.7-.6-2.2s-.9-.7-1.5-.7-1.1.2-1.5.7c-.3.5-.5 1.2-.5 2.1zm8.6-4.5h2.3v1.4c.3-.5.7-.8 1.2-1.1s1.1-.4 1.7-.4c1.1 0 2 .4 2.8 1.3s1.1 2 1.1 3.6-.4 2.8-1.1 3.6c-.8.9-1.7 1.3-2.8 1.3-.5 0-1-.1-1.4-.3s-.9-.6-1.3-1.1v4.7h-2.5v-13zm2.4 4.5c0 1 .2 1.8.6 2.3.4.5.9.8 1.5.8s1.1-.2 1.4-.7c.4-.5.6-1.2.6-2.3 0-1-.2-1.7-.6-2.2s-.9-.7-1.5-.7-1.1.2-1.5.7c-.3.5-.5 1.2-.5 2.1zm11 4.8h-2.5v-9.3h2.3v1.3c.4-.6.7-1 1.1-1.2s.7-.3 1.1-.3c.6 0 1.1.2 1.6.5l-.8 2.2c-.4-.3-.8-.4-1.2-.4-.3 0-.6.1-.9.3-.2.2-.4.5-.6 1s-.2 1.5-.2 3.1v2.8h.1zm6.5-6.5l-2.2-.4c.3-.9.7-1.6 1.3-2s1.5-.7 2.7-.7c1.1 0 1.9.1 2.5.4.5.3.9.6 1.1 1s.3 1.1.3 2.2v2.9c0 .8 0 1.4.1 1.8s.2.8.4 1.3h-2.4c-.1-.2-.1-.4-.2-.7 0-.1-.1-.2-.1-.3-.4.4-.9.7-1.4.9s-1 .3-1.5.3c-1 0-1.7-.3-2.3-.8s-.8-1.2-.8-2c0-.5.1-1 .4-1.4.3-.4.6-.7 1.1-.9.5-.2 1.1-.4 2-.6 1.2-.2 2-.4 2.4-.6v-.2c0-.5-.1-.8-.4-1-.2-.2-.7-.3-1.3-.3-.4 0-.8.1-1 .3-.3.1-.5.4-.7.8zm3.3 2c-.3.1-.8.2-1.5.4s-1.1.3-1.3.4c-.3.2-.5.5-.5.9 0 .3.1.6.4.9s.6.4 1 .4.9-.1 1.3-.4c.3-.2.5-.5.6-.8.1-.2.1-.6.1-1.2v-.6h-.1zm4.9-6.1v-2.3h2.5v2.3h-2.5zm0 10.6v-9.3h2.5v9.3h-2.5zm4.1-2.7l2.5-.4c.1.5.3.8.6 1.1.3.3.8.4 1.4.4.6 0 1.1-.1 1.4-.4.2-.2.3-.4.3-.7 0-.2-.1-.3-.2-.5-.1-.1-.4-.2-.8-.3-2-.4-3.3-.8-3.8-1.2-.7-.5-1.1-1.2-1.1-2.1 0-.8.3-1.5 1-2s1.6-.8 3-.8c1.3 0 2.2.2 2.8.6s1 1 1.3 1.8l-2.3.4c-.1-.4-.3-.6-.6-.8s-.7-.3-1.2-.3c-.7 0-1.1.1-1.4.3-.2.1-.3.3-.3.5s.1.3.2.4c.2.2 1 .4 2.3.7s2.2.7 2.8 1.1c.5.4.8 1.1.8 1.8 0 .9-.4 1.6-1.1 2.2s-1.8.9-3.2.9c-1.3 0-2.3-.3-3-.8s-1.2-1-1.4-1.9zm16.3-.3l2.5.4c-.3.9-.8 1.6-1.5 2.1s-1.5.7-2.6.7c-1.6 0-2.8-.5-3.6-1.6-.6-.8-.9-1.9-.9-3.2 0-1.5.4-2.8 1.2-3.6s1.8-1.3 3.1-1.3c1.4 0 2.5.5 3.3 1.4.8.9 1.2 2.3 1.2 4.2h-6.2c0 .7.2 1.3.6 1.7.4.4.9.6 1.4.6.4 0 .7-.1 1-.3s.4-.6.5-1.1zm.1-2.5c0-.7-.2-1.3-.6-1.6-.4-.4-.8-.6-1.3-.6s-1 .2-1.3.6-.5.9-.5 1.6h3.7zm6.9 5.5h-2.5v-9.3h2.3v1.3c.4-.6.7-1 1.1-1.2s.7-.3 1.1-.3c.6 0 1.1.2 1.6.5l-.8 2.2c-.4-.3-.8-.4-1.2-.4-.3 0-.6.1-.9.3-.2.2-.4.5-.6 1s-.2 1.5-.2 3.1v2.8h.1zm-91.9 21.6v-12.9h8.8v2.2h-6.2v3h5.4v2.2h-5.4v5.5h-2.6zm11-10.6v-2.3h2.5v2.3h-2.5zm0 10.6v-9.3h2.5v9.3h-2.5zm13.5 0h-2.5v-4.8c0-1-.1-1.7-.2-2s-.3-.5-.5-.7-.5-.2-.9-.2-.8.1-1.2.4-.6.5-.7.9-.2 1.1-.2 2.1v4.2h-2.5v-9.3h2.3v1.4c.8-1.1 1.8-1.6 3.1-1.6.5 0 1 .1 1.5.3s.8.4 1 .8.4.7.5 1 .1.9.1 1.7v5.8h.2zm4.3-6.5l-2.2-.4c.3-.9.7-1.6 1.3-2s1.5-.7 2.7-.7c1.1 0 1.9.1 2.5.4.5.3.9.6 1.1 1s.3 1.1.3 2.2v2.9c0 .8 0 1.4.1 1.8s.2.8.4 1.3h-2.4c-.1-.2-.1-.4-.2-.7 0-.1-.1-.2-.1-.3-.4.4-.9.7-1.4.9s-1 .3-1.5.3c-1 0-1.7-.3-2.3-.8s-.8-1.2-.8-2c0-.5.1-1 .4-1.4.3-.4.6-.7 1.1-.9.5-.2 1.1-.4 2-.6 1.2-.2 2-.4 2.4-.6v-.2c0-.5-.1-.8-.4-1-.2-.2-.7-.3-1.3-.3-.4 0-.8.1-1 .3-.3.1-.5.4-.7.8zm3.3 2c-.3.1-.8.2-1.5.4s-1.1.3-1.3.4c-.3.2-.5.5-.5.9 0 .3.1.6.4.9s.6.4 1 .4.9-.1 1.3-.4c.3-.2.5-.5.6-.8.1-.2.1-.6.1-1.2v-.6h-.1zm4.9 4.5v-12.9h2.5v12.9h-2.5zm10 0v-12.9h5.5c1.4 0 2.4.1 3 .3s1.1.6 1.5 1.2.6 1.3.6 2c0 1-.3 1.8-.9 2.4s-1.4 1-2.5 1.2c.6.3 1 .7 1.4 1.1s.9 1.1 1.5 2.1l1.6 2.5h-3.1l-1.9-2.8c-.7-1-1.1-1.6-1.4-1.9s-.5-.4-.8-.5c-.3-.1-.7-.1-1.3-.1h-.5v5.4h-2.7zm2.6-7.4h1.9c1.2 0 2-.1 2.3-.2s.6-.3.7-.5.3-.6.3-1-.1-.8-.3-1.1c-.2-.3-.6-.4-1-.5h-3.9v3.3zm15.8 4.4l2.5.4c-.3.9-.8 1.6-1.5 2.1s-1.5.7-2.6.7c-1.6 0-2.8-.5-3.6-1.6-.6-.8-.9-1.9-.9-3.2 0-1.5.4-2.8 1.2-3.6s1.8-1.3 3.1-1.3c1.4 0 2.5.5 3.3 1.4.8.9 1.2 2.3 1.2 4.2h-6.2c0 .7.2 1.3.6 1.7.4.4.9.6 1.4.6.4 0 .7-.1 1-.3s.3-.6.5-1.1zm.1-2.5c0-.7-.2-1.3-.6-1.6-.4-.4-.8-.6-1.3-.6s-1 .2-1.3.6-.5.9-.5 1.6h3.7zm7.1 5.5l-3.8-9.3h2.6l1.8 4.8.5 1.6c.1-.4.2-.7.3-.8.1-.3.2-.5.3-.8l1.8-4.8h2.5l-3.7 9.3h-2.3zm7.4-10.6v-2.3h2.5v2.3h-2.5zm0 10.6v-9.3h2.5v9.3h-2.5zm10.4-3l2.5.4c-.3.9-.8 1.6-1.5 2.1s-1.5.7-2.6.7c-1.6 0-2.8-.5-3.6-1.6-.6-.8-.9-1.9-.9-3.2 0-1.5.4-2.8 1.2-3.6s1.8-1.3 3.1-1.3c1.4 0 2.5.5 3.3 1.4.8.9 1.2 2.3 1.2 4.2h-6.2c0 .7.2 1.3.6 1.7.4.4.9.6 1.4.6.4 0 .7-.1 1-.3s.4-.6.5-1.1zm.1-2.5c0-.7-.2-1.3-.6-1.6-.4-.4-.8-.6-1.3-.6s-1 .2-1.3.6-.5.9-.5 1.6h3.7zm6.2 5.5l-3-9.3h2.4l1.7 6.1 1.6-6.1h2.4l1.6 6.1 1.8-6.1h2.4l-3 9.3H698l-1.6-6-1.6 6h-2.3z"/>
    <path class="text text-5" d="M781.45 113.8l2.5-.2c.2.8.5 1.5.9 1.9s1.1.6 1.9.6c.8 0 1.5-.2 1.9-.5s.6-.8.6-1.2c0-.3-.1-.6-.3-.8s-.5-.4-.9-.6c-.3-.1-1-.3-2.1-.6-1.4-.3-2.4-.8-2.9-1.3-.8-.7-1.2-1.6-1.2-2.6 0-.7.2-1.3.6-1.8.4-.6.9-1 1.6-1.3s1.5-.4 2.5-.4c1.6 0 2.8.4 3.7 1.1s1.2 1.7 1.3 2.8l-2.6.1c-.1-.7-.4-1.1-.7-1.4-.4-.3-.9-.4-1.6-.4-.8 0-1.3.2-1.8.5-.3.2-.4.5-.4.8 0 .3.1.6.4.8.3.3 1.1.6 2.4.9s2.2.6 2.8.9c.6.3 1.1.8 1.4 1.3.3.6.5 1.2.5 2.1 0 .7-.2 1.4-.6 2.1s-1 1.1-1.7 1.4c-.8.3-1.7.5-2.8.5-1.6 0-2.9-.4-3.8-1.1s-1.4-2.2-1.6-3.6zm12.6-6.4v-2.3h2.5v2.3h-2.5zm0 10.6v-9.3h2.5v9.3h-2.5zm4.8.6l2.8.3c0 .3.2.6.3.7.2.2.6.3 1.1.3.6 0 1.1-.1 1.5-.3.2-.1.4-.3.5-.6.1-.2.1-.6.1-1.1v-1.4c-.7 1-1.7 1.5-2.8 1.5-1.3 0-2.2-.5-3-1.6-.6-.8-.9-1.9-.9-3.1 0-1.6.4-2.8 1.1-3.6s1.7-1.2 2.8-1.2c1.2 0 2.1.5 2.9 1.5v-1.3h2.3v8.4c0 1.1-.1 1.9-.3 2.5s-.4 1-.8 1.3-.8.6-1.3.7-1.2.3-2.1.3c-1.6 0-2.7-.3-3.4-.8s-1-1.2-1-2.1c.2-.2.2-.3.2-.4zm2.2-5.5c0 1 .2 1.7.6 2.2.4.5.9.7 1.4.7.6 0 1.1-.2 1.5-.7.4-.5.6-1.2.6-2.1 0-1-.2-1.7-.6-2.2s-.9-.7-1.5-.7-1.1.2-1.5.7-.5 1.2-.5 2.1zm17.5 4.9h-2.5v-4.8c0-1-.1-1.7-.2-2s-.3-.5-.5-.7-.5-.2-.9-.2-.8.1-1.2.4-.6.5-.7.9-.2 1.1-.2 2.1v4.2h-2.5v-9.3h2.3v1.4c.8-1.1 1.8-1.6 3.1-1.6.5 0 1 .1 1.5.3s.8.4 1 .8.4.7.5 1 .1.9.1 1.7v5.8h.2zm-30.5 15.2c0-1.3.2-2.4.6-3.3.3-.7.7-1.2 1.2-1.8s1.1-.9 1.7-1.2c.8-.3 1.7-.5 2.8-.5 1.9 0 3.4.6 4.6 1.8s1.7 2.8 1.7 4.9c0 2.1-.6 3.7-1.7 4.9-1.1 1.2-2.6 1.8-4.5 1.8s-3.4-.6-4.6-1.8c-1.2-1.1-1.8-2.7-1.8-4.8zm2.7-.1c0 1.5.3 2.6 1 3.3s1.5 1.1 2.6 1.1 1.9-.4 2.6-1.1c.7-.7 1-1.9 1-3.4s-.3-2.6-1-3.3-1.5-1.1-2.6-1.1-1.9.4-2.6 1.1-1 2-1 3.4zm10.8-2.8h1.4v-.7c0-.8.1-1.4.3-1.8s.5-.7.9-.9c.4-.2 1-.4 1.7-.4s1.4.1 2.1.3l-.3 1.7c-.4-.1-.8-.1-1.1-.1-.4 0-.6.1-.8.3-.2.2-.2.5-.2 1v.7h1.8v1.9h-1.8v7.4h-2.5v-7.4h-1.4v-2h-.1zm5.9 0h1.4v-.7c0-.8.1-1.4.3-1.8s.5-.7.9-.9c.4-.2 1-.4 1.7-.4s1.4.1 2.1.3l-.3 1.7c-.4-.1-.8-.1-1.1-.1-.4 0-.6.1-.8.3-.2.2-.2.5-.2 1v.7h1.8v1.9h-1.8v7.4h-2.5v-7.4h-1.5v-2z"/>
    <path class="text text-6" d="M922.25 118h-2.8l-1.1-2.9h-5.2l-1.1 2.9h-2.8l5-12.9h2.8l5.2 12.9zm-4.8-5.1l-1.8-4.8-1.7 4.8h3.5zm6.1-4.2h2.3v1.4c.3-.5.7-.8 1.2-1.1s1.1-.4 1.7-.4c1.1 0 2 .4 2.8 1.3s1.1 2 1.1 3.6-.4 2.8-1.1 3.6c-.8.9-1.7 1.3-2.8 1.3-.5 0-1-.1-1.4-.3-.4-.2-.9-.6-1.3-1.1v4.7h-2.5v-13zm2.4 4.5c0 1 .2 1.8.6 2.3.4.5.9.8 1.5.8s1.1-.2 1.4-.7c.4-.5.6-1.2.6-2.3 0-1-.2-1.7-.6-2.2s-.9-.7-1.5-.7-1.1.2-1.5.7c-.3.5-.5 1.2-.5 2.1zm8.6-4.5h2.3v1.4c.3-.5.7-.8 1.2-1.1s1.1-.4 1.7-.4c1.1 0 2 .4 2.8 1.3s1.1 2 1.1 3.6-.4 2.8-1.1 3.6c-.8.9-1.7 1.3-2.8 1.3-.5 0-1-.1-1.4-.3-.4-.2-.9-.6-1.3-1.1v4.7h-2.5v-13zm2.4 4.5c0 1 .2 1.8.6 2.3.4.5.9.8 1.5.8s1.1-.2 1.4-.7c.4-.5.6-1.2.6-2.3 0-1-.2-1.7-.6-2.2s-.9-.7-1.5-.7-1.1.2-1.5.7c-.3.5-.5 1.2-.5 2.1zm11 4.8h-2.5v-9.3h2.3v1.3c.4-.6.7-1 1.1-1.2.3-.2.7-.3 1.1-.3.6 0 1.1.2 1.6.5l-.8 2.2c-.4-.3-.8-.4-1.2-.4-.3 0-.6.1-.9.3-.2.2-.4.5-.6 1-.1.5-.2 1.5-.2 3.1v2.8h.1zm6.5-6.5l-2.2-.4c.3-.9.7-1.6 1.3-2s1.5-.7 2.7-.7c1.1 0 1.9.1 2.5.4.5.3.9.6 1.1 1 .2.4.3 1.1.3 2.2v2.9c0 .8 0 1.4.1 1.8.1.4.2.8.4 1.3h-2.4c-.1-.2-.1-.4-.2-.7 0-.1-.1-.2-.1-.3-.4.4-.9.7-1.4.9s-1 .3-1.5.3c-1 0-1.7-.3-2.3-.8-.6-.5-.8-1.2-.8-2 0-.5.1-1 .4-1.4.3-.4.6-.7 1.1-.9.5-.2 1.1-.4 2-.6 1.2-.2 2-.4 2.4-.6v-.2c0-.5-.1-.8-.4-1-.2-.2-.7-.3-1.3-.3-.4 0-.8.1-1 .3-.4.1-.6.4-.7.8zm3.3 2c-.3.1-.8.2-1.5.4s-1.1.3-1.3.4c-.3.2-.5.5-.5.9 0 .3.1.6.4.9s.6.4 1 .4.9-.1 1.3-.4c.3-.2.5-.5.6-.8.1-.2.1-.6.1-1.2v-.6h-.1zm4.8-6.1v-2.3h2.5v2.3h-2.5zm0 10.6v-9.3h2.5v9.3h-2.5zm4.2-2.7l2.5-.4c.1.5.3.8.6 1.1.3.3.8.4 1.4.4.6 0 1.1-.1 1.4-.4.2-.2.3-.4.3-.7 0-.2-.1-.3-.2-.5-.1-.1-.4-.2-.8-.3-2-.4-3.3-.8-3.8-1.2-.7-.5-1.1-1.2-1.1-2.1 0-.8.3-1.5 1-2s1.6-.8 3-.8c1.3 0 2.2.2 2.8.6s1 1 1.3 1.8l-2.3.4c-.1-.4-.3-.6-.6-.8-.3-.2-.7-.3-1.2-.3-.7 0-1.1.1-1.4.3-.2.1-.3.3-.3.5s.1.3.2.4c.2.2 1 .4 2.3.7 1.3.3 2.2.7 2.8 1.1.5.4.8 1.1.8 1.8 0 .9-.4 1.6-1.1 2.2s-1.8.9-3.2.9c-1.3 0-2.3-.3-3-.8-.7-.3-1.2-1-1.4-1.9zm12.7-3.8l-2.2-.4c.3-.9.7-1.6 1.3-2s1.5-.7 2.7-.7c1.1 0 1.9.1 2.5.4.5.3.9.6 1.1 1 .2.4.3 1.1.3 2.2v2.9c0 .8 0 1.4.1 1.8.1.4.2.8.4 1.3h-2.4c-.1-.2-.1-.4-.2-.7 0-.1-.1-.2-.1-.3-.4.4-.9.7-1.4.9s-1 .3-1.5.3c-1 0-1.7-.3-2.3-.8-.6-.5-.8-1.2-.8-2 0-.5.1-1 .4-1.4.3-.4.6-.7 1.1-.9.5-.2 1.1-.4 2-.6 1.2-.2 2-.4 2.4-.6v-.2c0-.5-.1-.8-.4-1-.2-.2-.7-.3-1.3-.3-.4 0-.8.1-1 .3-.3.1-.5.4-.7.8zm3.3 2c-.3.1-.8.2-1.5.4s-1.1.3-1.3.4c-.3.2-.5.5-.5.9 0 .3.1.6.4.9s.6.4 1 .4.9-.1 1.3-.4c.3-.2.5-.5.6-.8.1-.2.1-.6.1-1.2v-.6h-.1zm4.9 4.5v-12.9h2.5V118h-2.5zm-68.8 16.9l2.5.8c-.4 1.4-1 2.5-1.9 3.1-.9.7-2 1-3.4 1-1.7 0-3.1-.6-4.2-1.8-1.1-1.2-1.7-2.8-1.7-4.8 0-2.1.6-3.8 1.7-5 1.1-1.2 2.6-1.8 4.4-1.8 1.6 0 2.9.5 3.8 1.4.6.6 1 1.3 1.3 2.4l-2.6.6c-.2-.7-.5-1.2-1-1.6-.5-.4-1.1-.6-1.8-.6-1 0-1.7.3-2.3 1-.6.7-.9 1.8-.9 3.3 0 1.6.3 2.8.9 3.5s1.3 1 2.3 1c.7 0 1.3-.2 1.8-.7s.9-.9 1.1-1.8zm4.2-.1c0-.8.2-1.6.6-2.4s1-1.4 1.7-1.8c.7-.4 1.6-.6 2.5-.6 1.4 0 2.6.5 3.5 1.4.9.9 1.4 2.1 1.4 3.5s-.5 2.6-1.4 3.5c-.9.9-2.1 1.4-3.4 1.4-.9 0-1.7-.2-2.4-.6-.8-.4-1.4-1-1.8-1.7-.5-.7-.7-1.6-.7-2.7zm2.5.1c0 .9.2 1.6.7 2.1s1 .7 1.6.7 1.2-.2 1.6-.7c.4-.5.7-1.2.7-2.1 0-.9-.2-1.6-.7-2.1-.4-.5-1-.7-1.6-.7s-1.2.2-1.6.7-.7 1.2-.7 2.1zm8.9-4.6h2.3v1.3c.8-1 1.8-1.5 2.9-1.5.6 0 1.1.1 1.6.4s.8.6 1.1 1.1c.4-.5.9-.9 1.3-1.1s1-.4 1.5-.4c.7 0 1.3.1 1.7.4s.8.7 1.1 1.2c.2.4.3 1 .3 1.9v6h-2.6v-5.3c0-.9-.1-1.5-.3-1.8-.2-.4-.6-.5-1.1-.5-.3 0-.7.1-1 .3s-.5.5-.7.9c-.1.4-.2 1.1-.2 1.9v4.5h-2.5v-5.1c0-.9 0-1.5-.1-1.8s-.2-.5-.4-.6c-.2-.1-.4-.2-.8-.2s-.7.1-1 .3-.5.5-.7.9c-.1.4-.2 1-.2 1.9v4.5h-2.5v-9.2h.3zm16.1 0h2.3v1.4c.3-.5.7-.8 1.2-1.1s1.1-.4 1.7-.4c1.1 0 2 .4 2.8 1.3s1.1 2 1.1 3.6-.4 2.8-1.1 3.6c-.8.9-1.7 1.3-2.8 1.3-.5 0-1-.1-1.4-.3-.4-.2-.9-.6-1.3-1.1v4.7h-2.5v-13zm2.4 4.5c0 1 .2 1.8.6 2.3.4.5.9.8 1.5.8s1.1-.2 1.4-.7c.4-.5.6-1.2.6-2.3 0-1-.2-1.7-.6-2.2s-.9-.7-1.5-.7-1.1.2-1.5.7c-.3.5-.5 1.2-.5 2.1zm8.6 4.8v-12.9h2.5v12.9h-2.5zm10.5-3l2.5.4c-.3.9-.8 1.6-1.5 2.1s-1.5.7-2.6.7c-1.6 0-2.8-.5-3.6-1.6-.6-.8-.9-1.9-.9-3.2 0-1.5.4-2.8 1.2-3.6s1.8-1.3 3.1-1.3c1.4 0 2.5.5 3.3 1.4.8.9 1.2 2.3 1.2 4.2h-6.2c0 .7.2 1.3.6 1.7.4.4.9.6 1.4.6.4 0 .7-.1 1-.3s.3-.6.5-1.1zm.1-2.5c0-.7-.2-1.3-.6-1.6-.4-.4-.8-.6-1.3-.6s-1 .2-1.3.6-.5.9-.5 1.6h3.7zm8.7-3.8v2h-1.7v5.1c0 .1.1.2.2.3.1.1.3.1.4.1.2 0 .6-.1 1-.2l.2 1.9c-.6.2-1.2.4-2 .4-.4 0-.8-.1-1.2-.2-.4-.1-.6-.3-.8-.6-.2-.2-.3-.6-.3-1-.1-.3-.1-.9-.1-1.7v-4.1h-1.1v-2h1.1v-1.9l2.5-1.4v3.3h1.8zm7.2 6.3l2.5.4c-.3.9-.8 1.6-1.5 2.1s-1.5.7-2.6.7c-1.6 0-2.8-.5-3.6-1.6-.6-.8-.9-1.9-.9-3.2 0-1.5.4-2.8 1.2-3.6s1.8-1.3 3.1-1.3c1.4 0 2.5.5 3.3 1.4.8.9 1.2 2.3 1.2 4.2h-6.2c0 .7.2 1.3.6 1.7.4.4.9.6 1.4.6.4 0 .7-.1 1-.3s.3-.6.5-1.1zm.1-2.5c0-.7-.2-1.3-.6-1.6-.4-.4-.8-.6-1.3-.6s-1 .2-1.3.6-.5.9-.5 1.6h3.7z"/>
</g>
<g class="f2f">
    <path class="f2f-icon f2f-icon-appraisee" d="M311.5 71.5h-25c-4.5 0-7.6-2.6-7.6-6.9 0-6.1 1.5-15.3 9.9-15.3 0.9 0 4.6 3.7 10.2 3.7s9.3-3.7 10.2-3.7c8.4 0 9.9 9.3 9.9 15.3 0 4.3-3.1 6.9-7.6 6.9zM299 50.9c-6.1 0-11-4.6-11-10.3S292.9 30.3 299 30.3s11 4.6 11 10.3-5 10.3-11 10.3z"/>
    <path class="f2f-icon f2f-icon-appraiser" d="M353.7 71.5h-25c-4.5 0-7.6-2.6-7.6-6.9 0-6.1 1.5-15.3 9.9-15.3 0.9 0 4.6 3.7 10.2 3.7s9.3-3.7 10.2-3.7c8.4 0 9.9 9.3 9.9 15.3 0 4.3-3.1 6.9-7.6 6.9z m-12.5-20.6c-6.1 0-11-4.6-11-10.3S335.1 30.3 341.2 30.3s11 4.6 11 10.3-4.9 10.3-11 10.3z"/>
    <path class="f2f-text f2f-text-main" d="M279.7 15.9V18h3.8v1.8h-3.8v3.9h-2.6v-9.8h6.5v1.8h-3.9v0.2zM289.6 23.8v-0.6-0.6c-0.3 0.5-0.6 0.8-1 1-0.4 0.2-0.8 0.3-1.3 0.3-0.3 0-0.7 0-1-0.1s-0.6-0.2-0.9-0.4c-0.3-0.2-0.5-0.4-0.6-0.7s-0.2-0.6-0.2-1c0-0.6 0.1-1 0.4-1.3s0.6-0.6 1-0.7c0.4-0.2 0.8-0.3 1.2-0.3 0.4-0.1 0.8-0.1 1.1-0.1h0.6c0.2 0 0.4 0 0.6 0.1 0-0.4-0.1-0.7-0.4-0.9-0.3-0.2-0.7-0.3-1.3-0.3-0.4 0-0.8 0-1.2 0.1s-0.8 0.2-1.1 0.4V17c0.5-0.2 1-0.4 1.5-0.4 0.5-0.1 0.9-0.1 1.4-0.1 0.5 0 0.9 0.1 1.3 0.2s0.8 0.3 1.1 0.5c0.3 0.2 0.6 0.6 0.7 0.9 0.2 0.4 0.3 0.8 0.3 1.4V23.5c0 0.1 0 0.3 0.1 0.4h-2.3v-0.1z m-0.7-3.2h-0.5c-0.5 0-0.9 0.1-1.2 0.3s-0.4 0.4-0.4 0.7c0 0.3 0.1 0.5 0.3 0.6 0.2 0.1 0.4 0.2 0.8 0.2 0.2 0 0.4-0.1 0.6-0.2 0.2-0.1 0.4-0.2 0.5-0.4 0.1-0.2 0.2-0.3 0.3-0.6 0.1-0.2 0.1-0.4 0.1-0.6h-0.5zM298.3 23.9c-0.4 0.1-0.7 0.1-1 0.1-0.6 0-1.2-0.1-1.7-0.3-0.5-0.2-1-0.4-1.3-0.7s-0.7-0.7-0.9-1.2c-0.2-0.5-0.3-1-0.3-1.6 0-0.6 0.1-1.2 0.3-1.7s0.5-0.9 0.9-1.2c0.4-0.3 0.8-0.6 1.3-0.7s1.1-0.2 1.6-0.2c0.4 0 0.8 0 1.1 0.1l0.9 0.3-0.2 1.8c-0.3-0.2-0.5-0.3-0.8-0.3-0.2-0.1-0.5-0.1-0.8-0.1-0.6 0-1 0.2-1.4 0.6-0.4 0.4-0.5 0.8-0.5 1.4 0 0.3 0.1 0.6 0.2 0.8 0.1 0.2 0.3 0.4 0.5 0.6 0.2 0.2 0.4 0.3 0.7 0.4 0.2 0.1 0.5 0.1 0.8 0.1 0.6 0 1.1-0.1 1.6-0.4l0.1 1.9c-0.4 0.2-0.8 0.3-1.1 0.3zM302.6 20.9c0.1 0.5 0.3 0.9 0.6 1.1 0.4 0.2 0.9 0.3 1.5 0.3 0.3 0 0.7 0 1.1-0.1s0.8-0.2 1.1-0.4v1.8c-0.4 0.2-0.8 0.3-1.3 0.3-0.5 0.1-0.9 0.1-1.4 0.1-0.6 0-1.2-0.1-1.7-0.3-0.5-0.2-1-0.4-1.3-0.7-0.4-0.3-0.7-0.7-0.9-1.2-0.2-0.5-0.3-1-0.3-1.6 0-0.6 0.1-1.1 0.3-1.6 0.2-0.5 0.4-0.9 0.8-1.2 0.3-0.3 0.7-0.6 1.2-0.8 0.5-0.2 1-0.3 1.7-0.3s1.2 0.1 1.7 0.3 0.8 0.5 1.1 0.9c0.3 0.4 0.5 0.8 0.6 1.3 0.1 0.5 0.2 1 0.2 1.5v0.5h-5v0.1z m2.4-2.5c-0.2-0.3-0.6-0.4-1.1-0.4-0.4 0-0.8 0.1-1 0.4-0.2 0.3-0.4 0.7-0.4 1.1h2.8c0-0.5-0.1-0.8-0.3-1.1zM317.6 24h-0.8c-1 0-1.7-0.2-2.1-0.6-0.4-0.4-0.7-1.1-0.7-2v-3.1h-1.4v-1.8h1.4v-1.6l2.5-0.8v2.4h1.8v1.8h-1.8V21c0 0.4 0.1 0.8 0.2 1 0.1 0.2 0.4 0.3 0.8 0.3h0.3c0.1 0 0.3 0 0.4-0.1l0.1 1.6c-0.2 0.1-0.5 0.1-0.7 0.2zM327.2 21.8c-0.2 0.5-0.5 0.9-0.9 1.2-0.4 0.3-0.8 0.6-1.3 0.8s-1.1 0.3-1.7 0.3c-0.6 0-1.2-0.1-1.7-0.3s-1-0.4-1.3-0.8-0.7-0.7-0.9-1.2c-0.2-0.5-0.3-1-0.3-1.6 0-0.6 0.1-1.1 0.3-1.6 0.2-0.5 0.5-0.9 0.9-1.2 0.4-0.3 0.8-0.6 1.3-0.8s1.1-0.3 1.7-0.3c0.6 0 1.2 0.1 1.7 0.3s1 0.4 1.3 0.8c0.4 0.3 0.7 0.7 0.9 1.2 0.2 0.5 0.3 1 0.3 1.6 0 0.6-0.1 1.1-0.3 1.6z m-2.7-3.1c-0.3-0.4-0.7-0.6-1.2-0.6s-0.9 0.2-1.2 0.6-0.4 0.9-0.4 1.5c0 0.7 0.1 1.2 0.4 1.5s0.7 0.5 1.2 0.5 0.9-0.2 1.2-0.5 0.4-0.9 0.4-1.5-0.1-1.1-0.4-1.5zM335.7 15.9V18h3.8v1.8h-3.8v3.9h-2.6v-9.8h6.5v1.8h-3.9v0.2zM345.6 23.8v-0.6-0.6c-0.3 0.5-0.6 0.8-1 1-0.4 0.2-0.8 0.3-1.3 0.3-0.3 0-0.7 0-1-0.1s-0.6-0.2-0.9-0.4c-0.3-0.2-0.5-0.4-0.6-0.7s-0.2-0.6-0.2-1c0-0.6 0.1-1 0.4-1.3s0.6-0.6 1-0.7c0.4-0.2 0.8-0.3 1.2-0.3 0.4-0.1 0.8-0.1 1.1-0.1h0.6c0.2 0 0.4 0 0.6 0.1 0-0.4-0.1-0.7-0.4-0.9-0.3-0.2-0.7-0.3-1.3-0.3-0.4 0-0.8 0-1.2 0.1s-0.8 0.2-1.1 0.4V17c0.5-0.2 1-0.4 1.5-0.4 0.5-0.1 0.9-0.1 1.4-0.1 0.5 0 0.9 0.1 1.3 0.2s0.8 0.3 1.1 0.5c0.3 0.2 0.6 0.6 0.7 0.9 0.2 0.4 0.3 0.8 0.3 1.4V23.5c0 0.1 0 0.3 0.1 0.4h-2.3v-0.1z m-0.7-3.2h-0.5c-0.5 0-0.9 0.1-1.2 0.3s-0.4 0.4-0.4 0.7c0 0.3 0.1 0.5 0.3 0.6 0.2 0.1 0.4 0.2 0.8 0.2 0.2 0 0.4-0.1 0.6-0.2 0.2-0.1 0.4-0.2 0.5-0.4 0.1-0.2 0.2-0.3 0.3-0.6 0.1-0.2 0.1-0.4 0.1-0.6h-0.5zM354.3 23.9c-0.4 0.1-0.7 0.1-1 0.1-0.6 0-1.2-0.1-1.7-0.3-0.5-0.2-1-0.4-1.3-0.7s-0.7-0.7-0.9-1.2c-0.2-0.5-0.3-1-0.3-1.6 0-0.6 0.1-1.2 0.3-1.7s0.5-0.9 0.9-1.2c0.4-0.3 0.8-0.6 1.3-0.7s1.1-0.2 1.6-0.2c0.4 0 0.8 0 1.1 0.1l0.9 0.3-0.2 1.8c-0.3-0.2-0.5-0.3-0.8-0.3-0.2-0.1-0.5-0.1-0.8-0.1-0.6 0-1 0.2-1.4 0.6-0.4 0.4-0.5 0.8-0.5 1.4 0 0.3 0.1 0.6 0.2 0.8 0.1 0.2 0.3 0.4 0.5 0.6 0.2 0.2 0.4 0.3 0.7 0.4 0.2 0.1 0.5 0.1 0.8 0.1 0.6 0 1.1-0.1 1.6-0.4l0.1 1.9c-0.4 0.2-0.7 0.3-1.1 0.3zM358.6 20.9c0.1 0.5 0.3 0.9 0.6 1.1 0.4 0.2 0.9 0.3 1.5 0.3 0.3 0 0.7 0 1.1-0.1s0.8-0.2 1.1-0.4v1.8c-0.4 0.2-0.8 0.3-1.3 0.3-0.5 0.1-0.9 0.1-1.4 0.1-0.6 0-1.2-0.1-1.7-0.3-0.5-0.2-1-0.4-1.3-0.7-0.4-0.3-0.7-0.7-0.9-1.2-0.2-0.5-0.3-1-0.3-1.6 0-0.6 0.1-1.1 0.3-1.6 0.2-0.5 0.4-0.9 0.8-1.2 0.3-0.3 0.7-0.6 1.2-0.8 0.5-0.2 1-0.3 1.7-0.3s1.2 0.1 1.7 0.3 0.8 0.5 1.1 0.9c0.3 0.4 0.5 0.8 0.6 1.3 0.1 0.5 0.2 1 0.2 1.5v0.5h-5v0.1z m2.4-2.5c-0.2-0.3-0.6-0.4-1.1-0.4-0.4 0-0.8 0.1-1 0.4-0.2 0.3-0.4 0.7-0.4 1.1h2.8c0.1-0.5-0.1-0.8-0.3-1.1z"/>
    <path class="f2f-text f2f-text-held" d="M280.5 90.6v-7.5l-2.5 7.5h-2.4l-2.4-7.5 0.1 7.5h-2.5v-9.8h4.1l2.1 6.5 2.2-6.5h3.9v9.8h-2.6zM286.8 87.7c0.1 0.5 0.3 0.9 0.6 1.1 0.4 0.2 0.9 0.3 1.5 0.3 0.3 0 0.7 0 1.1-0.1s0.8-0.2 1.1-0.4v1.8c-0.4 0.2-0.8 0.3-1.3 0.3-0.5 0.1-0.9 0.1-1.4 0.1-0.6 0-1.2-0.1-1.7-0.3-0.5-0.2-1-0.4-1.3-0.7-0.4-0.3-0.7-0.7-0.9-1.2-0.2-0.5-0.3-1-0.3-1.6 0-0.6 0.1-1.1 0.3-1.6 0.2-0.5 0.4-0.9 0.8-1.2 0.3-0.3 0.7-0.6 1.2-0.8 0.5-0.2 1-0.3 1.7-0.3s1.2 0.1 1.7 0.3 0.8 0.5 1.1 0.9c0.3 0.4 0.5 0.8 0.6 1.3 0.1 0.5 0.2 1 0.2 1.5v0.5h-5v0.1z m2.5-2.5c-0.2-0.3-0.6-0.4-1.1-0.4-0.4 0-0.8 0.1-1 0.4-0.2 0.3-0.4 0.7-0.4 1.1h2.8c0-0.5-0.1-0.8-0.3-1.1zM295.4 87.7c0.1 0.5 0.3 0.9 0.6 1.1 0.4 0.2 0.9 0.3 1.5 0.3 0.3 0 0.7 0 1.1-0.1s0.8-0.2 1.1-0.4v1.8c-0.4 0.2-0.8 0.3-1.3 0.3-0.5 0.1-0.9 0.1-1.4 0.1-0.6 0-1.2-0.1-1.7-0.3-0.5-0.2-1-0.4-1.3-0.7-0.4-0.3-0.7-0.7-0.9-1.2-0.2-0.5-0.3-1-0.3-1.6 0-0.6 0.1-1.1 0.3-1.6 0.2-0.5 0.4-0.9 0.8-1.2 0.3-0.3 0.7-0.6 1.2-0.8 0.5-0.2 1-0.3 1.7-0.3s1.2 0.1 1.7 0.3 0.8 0.5 1.1 0.9c0.3 0.4 0.5 0.8 0.6 1.3 0.1 0.5 0.2 1 0.2 1.5v0.5h-5v0.1z m2.4-2.5c-0.2-0.3-0.6-0.4-1.1-0.4-0.4 0-0.8 0.1-1 0.4-0.2 0.3-0.4 0.7-0.4 1.1h2.8c0.1-0.5-0.1-0.8-0.3-1.1zM306.1 90.8h-0.8c-1 0-1.7-0.2-2.1-0.6-0.4-0.4-0.7-1.1-0.7-2v-3.1h-1.4v-1.8h1.4v-1.6l2.5-0.8v2.4h1.8v1.8H305v2.7c0 0.4 0.1 0.8 0.2 1 0.1 0.2 0.4 0.3 0.8 0.3h0.3c0.1 0 0.3 0 0.4-0.1l0.1 1.6c-0.2 0.1-0.5 0.1-0.7 0.2zM308.2 82.1v-1.8h2.5v1.8h-2.5z m0 8.5v-7.3h2.5v7.3h-2.5zM317.9 90.6v-3.5c0-0.6-0.1-1.1-0.3-1.4-0.2-0.3-0.5-0.5-0.9-0.5-0.5 0-0.9 0.2-1.2 0.5s-0.4 0.9-0.4 1.7v3.1h-2.5v-7.3h2.3v1.3c0.3-0.5 0.6-0.9 1.1-1.1 0.5-0.2 1-0.4 1.6-0.4 0.5 0 0.9 0.1 1.3 0.2 0.4 0.2 0.6 0.4 0.9 0.6 0.2 0.3 0.4 0.6 0.5 0.9 0.1 0.3 0.2 0.7 0.2 1.1v4.6h-2.6v0.2zM329.4 91.7c-0.2 0.5-0.5 0.9-0.8 1.2-0.4 0.3-0.8 0.5-1.4 0.6s-1.2 0.2-1.9 0.2c-0.5 0-0.9 0-1.4-0.1-0.5-0.1-0.9-0.2-1.3-0.3l0.1-2c0.4 0.2 0.8 0.4 1.2 0.5 0.4 0.1 0.8 0.1 1.2 0.1 0.3 0 0.6 0 0.9-0.1 0.3-0.1 0.5-0.2 0.7-0.4s0.4-0.4 0.5-0.7 0.2-0.6 0.2-1v-0.4c-0.3 0.4-0.7 0.8-1.1 1-0.4 0.2-0.9 0.3-1.4 0.3s-0.9-0.1-1.3-0.3c-0.4-0.2-0.7-0.4-1-0.7-0.3-0.3-0.5-0.7-0.7-1.2-0.2-0.5-0.2-1-0.2-1.6 0-0.6 0.1-1.1 0.2-1.6s0.4-0.9 0.6-1.2c0.3-0.3 0.6-0.6 1-0.8 0.4-0.2 0.9-0.3 1.4-0.3 0.5 0 1 0.1 1.4 0.4s0.8 0.6 1.1 1.1v-1.3h2.3v6.4c0 1-0.1 1.7-0.3 2.2z m-2.6-6.1c-0.3-0.3-0.7-0.5-1.2-0.5-0.4 0-0.8 0.2-1 0.5-0.3 0.3-0.4 0.8-0.4 1.3s0.1 1 0.4 1.3 0.6 0.5 1.1 0.5c0.2 0 0.4 0 0.6-0.1 0.2-0.1 0.4-0.2 0.5-0.4l0.3-0.6c0.1-0.2 0.1-0.5 0.1-0.7 0.1-0.6-0.1-1-0.4-1.3zM340.4 90.6v-4.2h-3v4.2h-2.6v-9.8h2.6v3.7h3.1v-3.7h2.6v9.8h-2.6zM346.9 87.7c0.1 0.5 0.3 0.9 0.7 1.1 0.4 0.2 0.9 0.3 1.5 0.3 0.3 0 0.7 0 1.1-0.1s0.8-0.2 1.1-0.4v1.8c-0.4 0.2-0.8 0.3-1.3 0.3-0.5 0.1-0.9 0.1-1.4 0.1-0.6 0-1.2-0.1-1.7-0.3-0.5-0.2-1-0.4-1.3-0.7-0.4-0.3-0.7-0.7-0.9-1.2-0.2-0.5-0.3-1-0.3-1.6 0-0.6 0.1-1.1 0.3-1.6 0.2-0.5 0.4-0.9 0.8-1.2 0.3-0.3 0.7-0.6 1.2-0.8 0.5-0.2 1-0.3 1.7-0.3s1.2 0.1 1.7 0.3 0.8 0.5 1.1 0.9c0.3 0.4 0.5 0.8 0.6 1.3 0.1 0.5 0.2 1 0.2 1.5v0.5h-5v0.1z m2.5-2.5c-0.2-0.3-0.6-0.4-1.1-0.4-0.4 0-0.8 0.1-1 0.4-0.2 0.3-0.4 0.7-0.4 1.1h2.8c0-0.5-0.1-0.9-0.3-1.1zM353.6 90.6V80.1h2.4v10.5h-2.5zM363.4 90.6v-1.3c-0.1 0.2-0.2 0.4-0.3 0.6-0.2 0.2-0.4 0.3-0.6 0.5-0.2 0.1-0.5 0.2-0.7 0.3-0.3 0.1-0.5 0.1-0.8 0.1-0.6 0-1-0.1-1.4-0.3-0.4-0.2-0.8-0.5-1-0.9-0.3-0.4-0.5-0.8-0.6-1.3-0.1-0.5-0.2-1-0.2-1.5 0-0.4 0.1-0.9 0.2-1.3s0.3-0.8 0.6-1.2c0.3-0.3 0.6-0.6 1-0.8 0.4-0.2 0.8-0.3 1.4-0.3 0.5 0 1 0.1 1.4 0.3 0.4 0.2 0.8 0.5 1.1 0.9v-4.1h2.5v10.5h-2.5v-0.2z m-0.5-5c-0.3-0.3-0.7-0.5-1.1-0.5-0.4 0-0.8 0.2-1.1 0.5-0.3 0.3-0.4 0.8-0.4 1.3 0 0.6 0.1 1.1 0.4 1.4 0.3 0.4 0.6 0.5 1.1 0.5 0.2 0 0.4 0 0.6-0.1 0.2-0.1 0.4-0.2 0.5-0.4 0.1-0.2 0.3-0.4 0.3-0.6 0.1-0.2 0.1-0.5 0.1-0.7 0-0.6-0.1-1.1-0.4-1.4z"/>	
</g>
</svg>