<svg xmlns="http://www.w3.org/2000/svg" viewBox="0 0 128 106.13"><defs><style>.cls-1{fill:#dd4628;}.cls-2{fill:#3c3c3b;}.cls-3{fill:#fff;}</style></defs><title>Feedback</title><g id="Layer_2" data-name="Layer 2"><g id="Standard_Activities" data-name="Standard Activities"><g id="Feedback"><path class="cls-1" d="M15.69,32.32H40.83a2.2,2.2,0,1,0,0-4.39H15.69a2.2,2.2,0,0,0,0,4.39Z"/><path class="cls-1" d="M15.69,44h9.36a2.2,2.2,0,1,0,0-4.39H15.69a2.2,2.2,0,0,0,0,4.39Z"/><path class="cls-1" d="M57.1,41.83a2.28,2.28,0,0,0-2.36-2.2H34.58a2.2,2.2,0,1,0,0,4.39H54.74A2.28,2.28,0,0,0,57.1,41.83Z"/><path class="cls-1" d="M15.69,55.72h35.1a2.2,2.2,0,1,0,0-4.39H15.69a2.2,2.2,0,0,0,0,4.39Z"/><path class="cls-2" d="M95.56,18.65A9.93,9.93,0,0,0,86.21,12h-14a1.89,1.89,0,0,0,0,3.77h14a6.16,6.16,0,0,1,6.15,6.06v54.3a6.16,6.16,0,0,1-6.15,6.15H46.05a1.88,1.88,0,0,0-1.88,1.88v16.06l-21-17.51A1.9,1.9,0,0,0,22,82.3h-12a6.16,6.16,0,0,1-6.15-6.15V21.94a6.16,6.16,0,0,1,6.15-6.15H74.64a1.89,1.89,0,0,0,0-3.77H9.91A9.93,9.93,0,0,0,0,21.94V76.15a9.92,9.92,0,0,0,9.91,9.91H21.28L44.85,105.7a1.9,1.9,0,0,0,3.09-1.44V86.06H86.21a9.91,9.91,0,0,0,9.91-9.91V46.78a1.84,1.84,0,0,0-.09-.57Z"/><path class="cls-1" d="M126.29,7.38l-5.67-5.67a6,6,0,0,0-8.35,0L95.33,18.65l-3.2,3.2L65.42,48.56a1.87,1.87,0,0,0-.42.65L57.9,67.67a1.9,1.9,0,0,0,2.43,2.43L78.79,63a2,2,0,0,0,.65-.42L92.13,49.89s3.74-3.5,3.68-3.68l30.48-30.48A6,6,0,0,0,126.29,7.38Z"/><rect class="cls-3" x="68.81" y="34.62" width="56.47" height="4.27" transform="translate(2.43 79.39) rotate(-45)"/><polygon class="cls-3" points="62.81 65.34 64.19 61.74 66.4 63.95 62.81 65.34"/><rect class="cls-3" x="63.47" y="29.16" width="56.47" height="4.27" transform="translate(4.73 74.01) rotate(-45)"/><path class="cls-3" d="M124,12.81l-2.93,2.92L112.39,7l2.92-2.93a2.14,2.14,0,0,1,3,0L124,9.79A2.14,2.14,0,0,1,124,12.81Z"/><polygon class="cls-3" points="70.51 62.01 65.93 57.43 67.6 53.07 74.86 60.33 70.51 62.01"/><path class="cls-1" d="M49.49,32.37H60.6a2.2,2.2,0,0,0,0-4.39H49.49a2.2,2.2,0,0,0,0,4.39Z"/><path class="cls-1" d="M14.82,67.42H25.93a2.2,2.2,0,0,0,0-4.39H14.82a2.2,2.2,0,0,0,0,4.39Z"/></g></g></g></svg>