<svg xmlns="http://www.w3.org/2000/svg" xmlns:xlink="http://www.w3.org/1999/xlink" viewBox="0 0 107.98 127.07"><defs><style>.cls-1{fill:none;}.cls-2{clip-path:url(#clip-path);}.cls-3{fill:#3c3c3b;}.cls-4{fill:#dd4628;}</style><clipPath id="clip-path" transform="translate(0 -0.35)"><rect class="cls-1" width="108.23" height="127.8"/></clipPath></defs><title>Certificate</title><g id="Layer_2" data-name="Layer 2"><g id="Standard_Activities" data-name="Standard Activities"><g id="Certificate"><g class="cls-2"><path class="cls-3" d="M107.62,106.09,89.05,73.47a5.23,5.23,0,0,0,2.88-5.15L90.55,56.78l7.91-8.28a5.17,5.17,0,0,0,.12-6.9l-7.9-8.54,1.63-11.67a5.2,5.2,0,0,0-4-5.52L76.87,13.61,71.35,3.45A4.93,4.93,0,0,0,65,1.07h-.12L54.29,6,44,.94a4.87,4.87,0,0,0-6.65,2L31.7,13.11l-11.42,2a5.16,5.16,0,0,0-4.14,5.65l1.38,11.54-7.9,8.28a5.16,5.16,0,0,0-.13,6.9L17.4,56,15.76,67.69A5.19,5.19,0,0,0,19,73L.33,106.09a2.55,2.55,0,0,0,0,2.51,2.61,2.61,0,0,0,2.14,1.26H22.54l9.16,15.93a2.58,2.58,0,0,0,2.13,1.26A2.43,2.43,0,0,0,36,125.79L53.91,95.18l18,31A2.58,2.58,0,0,0,74,127.42a2.43,2.43,0,0,0,2.13-1.25l9.16-16.31h20.08a2.44,2.44,0,0,0,2.13-1.26,2.08,2.08,0,0,0,.13-2.51ZM34,119.52l-7.78-13.43a2.59,2.59,0,0,0-2.13-1.25H6.73L24.05,74.22l7.15,1.25,5.52,10.17A4.93,4.93,0,0,0,43.12,88h.13l5.14-2.38L50.9,90Zm7.28-36h-.13L35.59,73.09a4.67,4.67,0,0,0-3.51-2.38L20.53,68.57,22.16,57a4.86,4.86,0,0,0-1.25-4.14l-7.78-8.53L21,36.08a4.76,4.76,0,0,0,1.38-4.15L21,20.52a.39.39,0,0,1,.12-.25l11.42-2a5.07,5.07,0,0,0,3.51-2.51L41.74,5.58,52,10.6a4.77,4.77,0,0,0,4.52,0L67,5.83h.13l5.52,10.42A4.68,4.68,0,0,0,76,18.63l11.41,2.26L85.78,32.44A4.88,4.88,0,0,0,87,36.58l7.9,8.53-8,8.28a4.72,4.72,0,0,0-1.38,4.14l1.38,11.55L75.62,71a5.1,5.1,0,0,0-3.52,2.51L66.46,83.63l-10.29-5a4.82,4.82,0,0,0-4.52,0ZM83.9,104.84a2.42,2.42,0,0,0-2.13,1.25L74,119.89,56.29,89.28a2,2,0,0,0-.5-.88L53,83.51l.88-.38,10.29,5a5,5,0,0,0,2.26.5,5,5,0,0,0,4.39-2.51L76.5,76,84,74.6l17.19,30.24Z" transform="translate(0 -0.35)"/></g><path class="cls-4" d="M79,44.61A25.1,25.1,0,1,0,53.91,69.7,25.18,25.18,0,0,0,79,44.61ZM53.91,64.68A20.08,20.08,0,1,1,74,44.61,20.14,20.14,0,0,1,53.91,64.68Z" transform="translate(0 -0.35)"/></g></g></g></svg>