<?xml version="1.0" encoding="UTF-8" standalone="no"?>
<!-- Created with Inkscape (http://www.inkscape.org/) -->

<svg
   xmlns:dc="http://purl.org/dc/elements/1.1/"
   xmlns:cc="http://creativecommons.org/ns#"
   xmlns:rdf="http://www.w3.org/1999/02/22-rdf-syntax-ns#"
   xmlns:svg="http://www.w3.org/2000/svg"
   xmlns="http://www.w3.org/2000/svg"
   version="1.1"
   width="16"
   height="16"
   viewBox="0 0 16 16"
   id="svg2"
   xml:space="preserve"
   style="overflow:visible"><metadata
   id="metadata10"><rdf:RDF><cc:Work
       rdf:about=""><dc:format>image/svg+xml</dc:format><dc:type
         rdf:resource="http://purl.org/dc/dcmitype/StillImage" /><dc:title></dc:title></cc:Work></rdf:RDF></metadata>
<defs
   id="defs4">
</defs>
<path
   d="M 8,0 C 3.6,0 0,3.6 0,8 c 0,4.4 3.6,8 8,8 4.4,0 8,-3.6 8,-8 C 16,3.6 12.4,0 8,0 z M 8,14 C 4.7,14 2,11.3 2,8 2,4.7 4.7,2 8,2 c 3.3,0 6,2.7 6,6 0,3.3 -2.7,6 -6,6 z m 4,-6 c 0,0.6 -0.4,1 -1,1 H 8 C 7.4,9 7,8.6 7,8 V 4 C 7,3.4 7.4,3 8,3 8.6,3 9,3.4 9,4 v 3 h 2 c 0.6,0 1,0.4 1,1 z"
   id="path6"
   style="fill:#ff0000" />
</svg>