<?xml version="1.0" encoding="UTF-8" standalone="no"?>
<!-- Generator: Adobe Illustrator 19.0.1, SVG Export Plug-In . SVG Version: 6.00 Build 0)  -->

<svg
   xmlns:dc="http://purl.org/dc/elements/1.1/"
   xmlns:cc="http://creativecommons.org/ns#"
   xmlns:rdf="http://www.w3.org/1999/02/22-rdf-syntax-ns#"
   xmlns:svg="http://www.w3.org/2000/svg"
   xmlns="http://www.w3.org/2000/svg"
   xmlns:xlink="http://www.w3.org/1999/xlink"
   xmlns:sodipodi="http://sodipodi.sourceforge.net/DTD/sodipodi-0.dtd"
   xmlns:inkscape="http://www.inkscape.org/namespaces/inkscape"
   version="1.1"
   id="Layer_1"
   sodipodi:docname="Arup_logo.svg"
   inkscape:version="0.91 r13725"
   x="0px"
   y="0px"
   viewBox="-840 520 239 42"
   style="enable-background:new -840 520 239 42;"
   xml:space="preserve"><metadata
     id="metadata161"><rdf:RDF><cc:Work
         rdf:about=""><dc:format>image/svg+xml</dc:format><dc:type
           rdf:resource="http://purl.org/dc/dcmitype/StillImage" /><dc:title></dc:title></cc:Work></rdf:RDF></metadata><defs
     id="defs159" /><style
     type="text/css"
     id="style3">
	.st0{clip-path:url(#SVGID_2_);fill:#4D4D50;}
	.st1{clip-path:url(#SVGID_4_);fill:#4D4D50;}
	.st2{clip-path:url(#SVGID_6_);fill:#4D4D50;}
	.st3{clip-path:url(#SVGID_8_);fill:#4D4D50;}
	.st4{clip-path:url(#SVGID_10_);fill:#4D4D50;}
	.st5{clip-path:url(#SVGID_12_);fill:#4D4D50;}
	.st6{clip-path:url(#SVGID_14_);fill:#4D4D50;}
	.st7{clip-path:url(#SVGID_16_);fill:#4D4D50;}
	.st8{clip-path:url(#SVGID_18_);fill:#4D4D50;}
	.st9{clip-path:url(#SVGID_20_);fill:#4D4D50;}
	.st10{clip-path:url(#SVGID_22_);fill:#4D4D50;}
	.st11{clip-path:url(#SVGID_24_);fill:#4D4D50;}
	.st12{clip-path:url(#SVGID_26_);fill:#4D4D50;}
	.st13{clip-path:url(#SVGID_28_);fill:#4D4D50;}
	.st14{fill:#DD462B;}
</style><sodipodi:namedview
     inkscape:current-layer="Layer_1"
     inkscape:window-maximized="1"
     inkscape:window-y="-8"
     inkscape:window-x="-8"
     inkscape:window-height="1017"
     inkscape:window-width="1920"
     inkscape:pageshadow="2"
     inkscape:pageopacity="0"
     id="namedview159"
     objecttolerance="10"
     inkscape:cy="23.71681"
     borderopacity="1"
     bordercolor="#666666"
     gridtolerance="10"
     inkscape:zoom="5.2887031"
     guidetolerance="10"
     pagecolor="#ffffff"
     showgrid="false"
     inkscape:cx="140.63401" /><g
     id="g5"><g
       id="g7"><defs
         id="defs9"><rect
           id="SVGID_1_"
           x="-851.3"
           y="501"
           width="260.3"
           height="73.1" /></defs><clipPath
         id="SVGID_2_"><use
           xlink:href="#SVGID_1_"
           style="overflow:visible;"
           id="use13" /></clipPath><path
         id="path13"
         inkscape:connector-curvature="0"
         class="st0"
         d="M-837.9,545c2-0.1,2.3-0.4,2.9-2c0.9-2.4,2.2-6.1,3.3-9.4    l3.8-10.9l3.6-0.6l6.9,21.1c0.5,1.6,0.9,1.7,2.7,1.8v1.2h-10V545l1.8-0.1c0.8-0.1,1-0.5,0.7-1.4l-2-5.9h-6.9    c-0.6,2.2-1.3,4.1-1.8,6c-0.2,0.8-0.2,1.2,0.7,1.3l1.9,0.1v1.2h-7.8V545z M-824.5,536.1l-2.9-9.1h-0.1c-0.4,1.1-2.5,7.9-2.9,9.1    H-824.5z"
         clip-path="url(#SVGID_2_)" /></g></g><g
     id="g15"><g
       id="g17"><defs
         id="defs19"><rect
           id="SVGID_3_"
           x="-851.3"
           y="501"
           width="260.3"
           height="73.1" /></defs><clipPath
         id="SVGID_4_"><use
           xlink:href="#SVGID_3_"
           style="overflow:visible;"
           id="use23" /></clipPath><path
         id="path23"
         inkscape:connector-curvature="0"
         class="st1"
         d="M-814.3,545c2.1-0.1,2.3-0.2,2.3-1.8V533    c0-1.3-0.2-1.6-0.9-1.6l-1.2-0.2v-1.1l6.1-0.9l0.4,2.9c2.1-2,3.1-2.9,4.5-2.9c1.4,0,2.1,0.9,2.1,2.1c0,0.6-0.1,1.3-0.5,1.7    c-0.4,0.4-0.9,0.7-1.5,0.7c-0.5,0-0.9-0.2-1.3-0.4c-0.8-0.5-1.4-0.7-1.9-0.7c-0.8,0-1.4,0.8-1.4,2.9v7.8c0,1.5,0.3,1.6,3,1.8v1.2    h-9.8L-814.3,545C-814.3,545-814.3,545-814.3,545z"
         clip-path="url(#SVGID_4_)" /></g></g><g
     id="g25"><g
       id="g27"><defs
         id="defs29"><rect
           id="SVGID_5_"
           x="-851.3"
           y="501"
           width="260.3"
           height="73.1" /></defs><clipPath
         id="SVGID_6_"><use
           xlink:href="#SVGID_5_"
           style="overflow:visible;"
           id="use33" /></clipPath><path
         id="path33"
         inkscape:connector-curvature="0"
         class="st2"
         d="M-787.2,544.2c-1.2,0.6-3.2,2.3-6.1,2.3    c-2.5,0-4.9-1.1-4.9-5.1V533c0-1.3-0.2-1.5-0.9-1.6l-1.2-0.2v-1.1l6.3-0.9l0.2,0.2v11.1c0,2.6,1.3,3.8,3,3.8c1.6,0,2.7-0.9,3.2-2    c0.2-0.4,0.3-1.3,0.3-2V533c0-1.3-0.2-1.5-0.9-1.6l-1.2-0.2v-1.1l6.3-0.9l0.2,0.2v13.8c0,1.5,0.2,1.7,2.3,1.8v1.2h-6.4    L-787.2,544.2z"
         clip-path="url(#SVGID_6_)" /></g></g><g
     id="g35"><g
       id="g37"><defs
         id="defs39"><rect
           id="SVGID_7_"
           x="-851.3"
           y="501"
           width="260.3"
           height="73.1" /></defs><clipPath
         id="SVGID_8_"><use
           xlink:href="#SVGID_7_"
           style="overflow:visible;"
           id="use43" /></clipPath><path
         id="path43"
         inkscape:connector-curvature="0"
         class="st3"
         d="M-781.3,552.8c2.1-0.1,2.3-0.2,2.3-1.8v-18    c0-1.3-0.2-1.6-0.9-1.6l-1.2-0.2v-1.1l6-0.9l0.5,2.4c1.5-1.1,3.2-2.4,5.7-2.4c4.2,0,6.3,3.8,6.3,8.3c0,3.6-1,6-2.6,7.3    c-1.6,1.4-3.8,1.8-6.1,1.8c-1.2,0-2.6-0.3-3.2-0.6v5c0,1.5,0.3,1.7,2.9,1.8v1.2h-9.6L-781.3,552.8    C-781.3,552.8-781.3,552.8-781.3,552.8z M-774.6,540.9c0,0.7,0,1.5,0.2,2c0.4,1.4,1.5,2.2,3,2.2c2.8,0,4-2.7,4-7.2    c0-5.5-2.2-6.5-3.7-6.5c-1.6,0-2.6,0.8-3.2,2.1c-0.2,0.5-0.3,1.2-0.3,1.9V540.9z"
         clip-path="url(#SVGID_8_)" /></g></g><g
     id="g45"><g
       id="g47"><defs
         id="defs49"><rect
           id="SVGID_9_"
           x="-851.3"
           y="501"
           width="260.3"
           height="73.1" /></defs><clipPath
         id="SVGID_10_"><use
           xlink:href="#SVGID_9_"
           style="overflow:visible;"
           id="use53" /></clipPath><path
         id="path53"
         inkscape:connector-curvature="0"
         class="st4"
         d="M-732.8,538.1c0,2-0.4,3.8-1.1,5c-1.6,2.7-4.7,3.6-8.5,3.6    c-4,0-7.1-0.9-8.6-3.6c-0.7-1.2-1-3-1-5V526c0-1.8-0.2-1.9-2.8-2v-1.2h10.3v1.2c-2.6,0.1-2.8,0.2-2.8,2v12.2    c0,3.4,0.9,7.1,4.9,7.1c4.1,0,4.9-3.6,4.9-7.1V526c0-1.8-0.2-1.9-2.8-2v-1.2h10.3v1.2c-2.6,0.1-2.8,0.2-2.8,2L-732.8,538.1    C-732.8,538.1-732.8,538.1-732.8,538.1z"
         clip-path="url(#SVGID_10_)" /></g></g><g
     id="g55"><g
       id="g57"><defs
         id="defs59"><rect
           id="SVGID_11_"
           x="-851.3"
           y="501"
           width="260.3"
           height="73.1" /></defs><clipPath
         id="SVGID_12_"><use
           xlink:href="#SVGID_11_"
           style="overflow:visible;"
           id="use63" /></clipPath><path
         id="path63"
         inkscape:connector-curvature="0"
         class="st5"
         d="M-730.4,545c2.1-0.1,2.3-0.2,2.3-1.8V533    c0-1.3-0.2-1.5-0.9-1.6l-1.3-0.2v-1.1l6.1-0.9l0.5,2.4c2.2-1.4,3.8-2.4,5.9-2.4c3.4,0,5.1,2,5.1,5.3v8.8c0,1.5,0.2,1.7,2.3,1.8    v1.2h-8.8V545l0.9-0.1c0.9-0.1,1.2-0.3,1.2-1.6V535c0-2.4-1.1-3.5-3-3.5c-1.6,0-2.7,0.9-3.2,1.9c-0.3,0.5-0.3,1.2-0.3,2v8    c0,1.3,0.3,1.5,1.2,1.6l0.8,0.1v1.2h-8.8C-730.4,546.2-730.4,545-730.4,545z"
         clip-path="url(#SVGID_12_)" /></g></g><g
     id="g65"><g
       id="g67"><defs
         id="defs69"><rect
           id="SVGID_13_"
           x="-851.3"
           y="501"
           width="260.3"
           height="73.1" /></defs><clipPath
         id="SVGID_14_"><use
           xlink:href="#SVGID_13_"
           style="overflow:visible;"
           id="use73" /></clipPath><path
         id="path73"
         inkscape:connector-curvature="0"
         class="st6"
         d="M-702.8,543.2c0,1.5,0.2,1.7,2.3,1.8v1.2h-9.1V545    c2.1-0.1,2.3-0.2,2.3-1.8V533c0-1.3-0.2-1.5-0.9-1.6l-1.2-0.2v-1.1l6.3-0.9l0.2,0.2L-702.8,543.2L-702.8,543.2L-702.8,543.2z     M-707.9,524.5c0-1.5,1.1-2.6,2.7-2.6c1.7,0,2.7,1.2,2.7,2.6c0,1.5-1.1,2.6-2.7,2.6C-706.8,527.1-707.9,526-707.9,524.5"
         clip-path="url(#SVGID_14_)" /></g></g><g
     id="g75"><g
       id="g77"><defs
         id="defs79"><rect
           id="SVGID_15_"
           x="-851.3"
           y="501"
           width="260.3"
           height="73.1" /></defs><clipPath
         id="SVGID_16_"><use
           xlink:href="#SVGID_15_"
           style="overflow:visible;"
           id="use83" /></clipPath><path
         id="path83"
         inkscape:connector-curvature="0"
         class="st7"
         d="M-696.4,538.9c-0.8-2.3-1.6-4.4-2.5-6.6    c-0.5-1.1-0.9-1.4-2.3-1.5v-1.2h8.5v1.2l-1.4,0.2c-0.6,0.1-0.7,0.3-0.5,1c0.2,0.6,1.6,4.5,1.8,5.1l1.8,5.1h0.1l1.9-5.6    c0.6-1.7,1.1-3.4,1.5-4.6c0.2-0.6,0.1-1-0.5-1l-1.5-0.2v-1.2h6.8v1.2c-1.5,0.1-1.8,0.3-2.4,1.5c-0.5,1.2-1.5,3.3-2.5,5.9l-2.9,8.1    h-3.3L-696.4,538.9z"
         clip-path="url(#SVGID_16_)" /></g></g><g
     id="g85"><g
       id="g87"><defs
         id="defs89"><rect
           id="SVGID_17_"
           x="-851.3"
           y="501"
           width="260.3"
           height="73.1" /></defs><clipPath
         id="SVGID_18_"><use
           xlink:href="#SVGID_17_"
           style="overflow:visible;"
           id="use93" /></clipPath><path
         id="path93"
         inkscape:connector-curvature="0"
         class="st8"
         d="M-668.8,541.7c-1.1,2.9-3.2,4.9-7.1,4.9    c-5.9,0-8.2-3.8-8.2-8.7c0-2.4,0.6-4.6,2-6.2c1.4-1.6,3.4-2.6,6.2-2.6c6.9,0,7.4,5,7.4,6.9c0,1.1-0.6,1.4-1.7,1.4h-9.1    c0,3.6,1,6.8,4.7,6.8c2.3,0,3.7-1.3,4.7-3.2C-669.9,541-668.8,541.7-668.8,541.7z M-674.3,536c0.8,0,1.1-0.2,1.1-1.1    c0-1.5-0.3-4.3-2.8-4.3c-2.7,0-3.2,3.4-3.2,5.4H-674.3z"
         clip-path="url(#SVGID_18_)" /></g></g><g
     id="g95"><g
       id="g97"><defs
         id="defs99"><rect
           id="SVGID_19_"
           x="-851.3"
           y="501"
           width="260.3"
           height="73.1" /></defs><clipPath
         id="SVGID_20_"><use
           xlink:href="#SVGID_19_"
           style="overflow:visible;"
           id="use103" /></clipPath><path
         id="path103"
         inkscape:connector-curvature="0"
         class="st9"
         d="M-668.1,545c2.1-0.1,2.3-0.2,2.3-1.8V533    c0-1.3-0.2-1.6-0.9-1.6l-1.2-0.2v-1.1l6.1-0.9l0.4,2.9c2.1-2,3.1-2.9,4.5-2.9c1.4,0,2.1,0.9,2.1,2.1c0,0.6-0.1,1.3-0.5,1.7    c-0.4,0.4-0.9,0.7-1.5,0.7c-0.5,0-0.9-0.2-1.3-0.4c-0.8-0.5-1.4-0.7-1.9-0.7c-0.8,0-1.4,0.8-1.4,2.9v7.8c0,1.5,0.3,1.6,3,1.8v1.2    h-9.8L-668.1,545L-668.1,545L-668.1,545z"
         clip-path="url(#SVGID_20_)" /></g></g><g
     id="g105"><g
       id="g107"><defs
         id="defs109"><rect
           id="SVGID_21_"
           x="-851.3"
           y="501"
           width="260.3"
           height="73.1" /></defs><clipPath
         id="SVGID_22_"><use
           xlink:href="#SVGID_21_"
           style="overflow:visible;"
           id="use113" /></clipPath><path
         id="path113"
         inkscape:connector-curvature="0"
         class="st10"
         d="M-643.9,534.7c-0.5-2.4-1.9-4.1-3.8-4.1    c-1.5,0-2.5,0.9-2.5,2.2c0,1.6,1.7,2.3,3.5,2.9c3.2,1.2,5.1,2.5,5.1,5.5c0,3.3-2.6,5.3-6.7,5.3c-1.9,0-4.4-0.5-5.6-1.6l-0.4-4.9    h1.2c0.8,2.8,2.5,5,4.9,5c1.6,0,2.6-0.9,2.6-2.3c0-1.8-1.8-2.8-3.4-3.3c-2.9-1-5.1-2.4-5.1-5.1c0-3.3,2.5-5.2,6.5-5.2    c1.7,0,3.6,0.3,4.8,1.2v4.3H-643.9L-643.9,534.7z"
         clip-path="url(#SVGID_22_)" /></g></g><g
     id="g115"><g
       id="g117"><defs
         id="defs119"><rect
           id="SVGID_23_"
           x="-851.3"
           y="501"
           width="260.3"
           height="73.1" /></defs><clipPath
         id="SVGID_24_"><use
           xlink:href="#SVGID_23_"
           style="overflow:visible;"
           id="use123" /></clipPath><path
         id="path123"
         inkscape:connector-curvature="0"
         class="st11"
         d="M-634.1,543.2c0,1.5,0.2,1.7,2.3,1.8v1.2h-9.1V545    c2.1-0.1,2.3-0.2,2.3-1.8V533c0-1.3-0.2-1.5-0.9-1.6l-1.2-0.2v-1.1l6.3-0.9l0.2,0.2V543.2L-634.1,543.2z M-639.1,524.5    c0-1.5,1-2.6,2.7-2.6c1.7,0,2.7,1.2,2.7,2.6c0,1.5-1.1,2.6-2.7,2.6C-638.1,527.1-639.1,526-639.1,524.5"
         clip-path="url(#SVGID_24_)" /></g></g><g
     id="g125"><g
       id="g127"><defs
         id="defs129"><rect
           id="SVGID_25_"
           x="-851.3"
           y="501"
           width="260.3"
           height="73.1" /></defs><clipPath
         id="SVGID_26_"><use
           xlink:href="#SVGID_25_"
           style="overflow:visible;"
           id="use133" /></clipPath><path
         id="path133"
         inkscape:connector-curvature="0"
         class="st12"
         d="M-621.9,531.1h-3.8v10c0,2.3,0.9,3.2,2.2,3.2    c0.8,0,1.5-0.1,2.1-0.4l0.3,0.9c-1.6,1-3.5,1.7-5,1.7c-1.6,0-4-1-4-4.2v-11.2h-2.1v-1.6h2.3l2.7-4.3h1.6v4.3h3.8L-621.9,531.1    L-621.9,531.1L-621.9,531.1z"
         clip-path="url(#SVGID_26_)" /></g></g><g
     id="g135"><g
       id="g137"><defs
         id="defs139"><rect
           id="SVGID_27_"
           x="-851.3"
           y="501"
           width="260.3"
           height="73.1" /></defs><clipPath
         id="SVGID_28_"><use
           xlink:href="#SVGID_27_"
           style="overflow:visible;"
           id="use143" /></clipPath><path
         id="path143"
         inkscape:connector-curvature="0"
         class="st13"
         d="M-602.1,530.8l-0.7,0.1c-1,0.1-1.3,0.6-1.9,2    c-1.7,4-4.1,10.1-6.1,15.6c-1.8,4.9-3.4,5.9-5.4,5.9c-1.5,0-2.6-0.8-2.6-2c0-1.2,1-2.4,1.9-2.4c0.5,0,0.8,0.1,1.4,0.6    c0.5,0.4,0.8,0.6,1.2,0.6c0.6,0,1.1-0.7,1.4-1.6c0.2-0.7,0.3-1.4,0.3-2c0-0.4-0.1-0.7-0.2-1.1c-1.5-3.9-3.8-9.7-5.6-14.1    c-0.4-0.9-0.7-1.4-1.3-1.5l-1.2-0.2v-1.2h8.8v1.2l-1.3,0.1c-0.6,0.1-0.6,0.5-0.4,1.1c1.1,3.3,2.4,6.7,3.7,10.1h0.1    c1.2-3.4,2.5-7.3,3.4-10.1c0.2-0.7,0-1.1-0.5-1.1l-1.5-0.2v-1.2h6.7L-602.1,530.8L-602.1,530.8L-602.1,530.8z"
         clip-path="url(#SVGID_28_)" /></g></g><path
     id="path3997"
     inkscape:connector-curvature="0"
     class="st14"
     d="m -667.6,554.5 c 0.1,0.2 0.2,0.4 0.3,0.6 0.1,0.2 0.2,0.4 0.3,0.6 0.1,-0.2 0.2,-0.4 0.3,-0.6 0.1,-0.2 0.2,-0.4 0.3,-0.6 l 2.8,-5.5 c 0,-0.1 0.1,-0.2 0.2,-0.2 0.1,0 0.1,-0.1 0.2,-0.1 0.1,0 0.1,0 0.2,0 0.1,0 0.2,0 0.3,0 l 1.9,0 0,10.9 -2.2,0 0,-6.3 c 0,-0.3 0,-0.6 0,-1 l -2.9,5.6 c -0.1,0.2 -0.2,0.3 -0.4,0.4 -0.2,0.1 -0.3,0.1 -0.5,0.1 l -0.3,0 c -0.2,0 -0.4,0 -0.5,-0.1 -0.2,-0.1 -0.3,-0.2 -0.4,-0.4 l -2.9,-5.6 c 0,0.2 0,0.3 0,0.5 0,0.2 0,0.3 0,0.5 l 0,6.3 -2.2,0 0,-10.9 1.9,0 c 0.1,0 0.2,0 0.3,0 0.1,0 0.2,0 0.2,0 0,0 0.1,0.1 0.2,0.1 0.1,0.1 0.1,0.1 0.2,0.2 -0.2,0 2.7,5.5 2.7,5.5 z"
     style="fill:#dd462b" /><path
     id="path3999"
     inkscape:connector-curvature="0"
     class="st14"
     d="m -655.7,551.6 c 0.6,0 1.1,0.1 1.6,0.3 0.5,0.2 0.9,0.4 1.2,0.8 0.3,0.3 0.6,0.8 0.8,1.3 0.2,0.5 0.3,1 0.3,1.7 0,0.6 -0.1,1.2 -0.3,1.7 -0.2,0.5 -0.5,0.9 -0.8,1.3 -0.3,0.3 -0.8,0.6 -1.2,0.8 -0.5,0.2 -1,0.3 -1.6,0.3 -0.6,0 -1.1,-0.1 -1.6,-0.3 -0.5,-0.2 -0.9,-0.5 -1.3,-0.8 -0.4,-0.3 -0.6,-0.8 -0.8,-1.3 -0.2,-0.5 -0.3,-1.1 -0.3,-1.7 0,-0.6 0.1,-1.2 0.3,-1.7 0.2,-0.5 0.5,-0.9 0.8,-1.3 0.4,-0.3 0.8,-0.6 1.3,-0.8 0.5,-0.2 1,-0.3 1.6,-0.3 z m 0,6.3 c 0.5,0 0.9,-0.2 1.2,-0.6 0.3,-0.4 0.4,-0.9 0.4,-1.7 0,-0.8 -0.1,-1.3 -0.4,-1.7 -0.3,-0.4 -0.6,-0.6 -1.2,-0.6 -0.5,0 -0.9,0.2 -1.2,0.6 -0.3,0.4 -0.4,0.9 -0.4,1.7 0,0.8 0.1,1.3 0.4,1.7 0.2,0.4 0.6,0.6 1.2,0.6 z"
     style="fill:#dd462b" /><path
     id="path4001"
     inkscape:connector-curvature="0"
     class="st14"
     d="m -647,551.6 c 0.6,0 1.1,0.1 1.6,0.3 0.5,0.2 0.9,0.4 1.2,0.8 0.3,0.3 0.6,0.8 0.8,1.3 0.2,0.5 0.3,1 0.3,1.7 0,0.6 -0.1,1.2 -0.3,1.7 -0.2,0.5 -0.5,0.9 -0.8,1.3 -0.3,0.3 -0.8,0.6 -1.2,0.8 -0.5,0.2 -1,0.3 -1.6,0.3 -0.6,0 -1.1,-0.1 -1.6,-0.3 -0.5,-0.2 -0.9,-0.5 -1.3,-0.8 -0.4,-0.3 -0.6,-0.8 -0.8,-1.3 -0.2,-0.5 -0.3,-1.1 -0.3,-1.7 0,-0.6 0.1,-1.2 0.3,-1.7 0.2,-0.5 0.5,-0.9 0.8,-1.3 0.4,-0.3 0.8,-0.6 1.3,-0.8 0.5,-0.2 1,-0.3 1.6,-0.3 z m 0,6.3 c 0.5,0 0.9,-0.2 1.2,-0.6 0.3,-0.4 0.4,-0.9 0.4,-1.7 0,-0.8 -0.1,-1.3 -0.4,-1.7 -0.3,-0.4 -0.6,-0.6 -1.2,-0.6 -0.5,0 -0.9,0.2 -1.2,0.6 -0.3,0.4 -0.4,0.9 -0.4,1.7 0,0.8 0.1,1.3 0.4,1.7 0.2,0.4 0.6,0.6 1.2,0.6 z"
     style="fill:#dd462b" /><path
     id="path4003"
     inkscape:connector-curvature="0"
     class="st14"
     d="m -636.4,559.5 c -0.1,0 -0.3,0 -0.4,-0.1 -0.1,-0.1 -0.2,-0.2 -0.2,-0.3 l -0.2,-0.6 c -0.2,0.2 -0.3,0.3 -0.5,0.4 -0.2,0.1 -0.4,0.3 -0.5,0.3 -0.1,0 -0.4,0.2 -0.6,0.2 -0.2,0.1 -0.5,0.1 -0.7,0.1 -0.4,0 -0.8,-0.1 -1.1,-0.3 -0.3,-0.2 -0.6,-0.4 -0.9,-0.8 -0.2,-0.3 -0.4,-0.8 -0.6,-1.2 -0.2,-0.4 -0.2,-1.1 -0.2,-1.7 0,-0.6 0.1,-1.1 0.2,-1.6 0.2,-0.5 0.4,-0.9 0.7,-1.3 0.3,-0.4 0.6,-0.6 1.1,-0.8 0.5,-0.2 0.9,-0.3 1.4,-0.3 0.4,0 0.7,0.1 1,0.2 0.3,0.1 0.5,0.3 0.8,0.5 l 0,-3.9 2.3,0 0,11.2 -1.6,0 z m -2.3,-1.7 c 0.2,0 0.3,0 0.5,0 0.1,0 0.3,-0.1 0.4,-0.1 0.1,0 0.2,-0.1 0.3,-0.2 0.1,-0.1 0.2,-0.2 0.3,-0.3 l 0,-3.3 c -0.2,-0.2 -0.4,-0.3 -0.6,-0.4 -0.2,-0.1 -0.4,-0.1 -0.6,-0.1 -0.2,0 -0.4,0 -0.6,0.1 -0.2,0.1 -0.3,0.2 -0.5,0.4 -0.2,0.2 -0.2,0.4 -0.3,0.7 -0.1,0.3 -0.1,0.7 -0.1,1.1 0,0.4 0,0.8 0.1,1 0.1,0.3 0.1,0.5 0.3,0.7 0.1,0.2 0.2,0.3 0.4,0.4 0,0 0.2,0 0.4,0 z"
     style="fill:#dd462b" /><path
     id="path4005"
     inkscape:connector-curvature="0"
     class="st14"
     d="m -630.7,548.3 0,11.2 -2.3,0 0,-11.2 2.3,0 z"
     style="fill:#dd462b" /><path
     id="path4007"
     inkscape:connector-curvature="0"
     class="st14"
     d="m -625.5,551.6 c 0.5,0 1,0.1 1.4,0.2 0.4,0.1 0.8,0.4 1.1,0.7 0.3,0.3 0.5,0.7 0.7,1.1 0.2,0.4 0.3,0.9 0.3,1.5 0,0.2 0,0.3 0,0.4 0,0.1 0,0.2 -0.1,0.3 -0.1,0.1 -0.1,0.1 -0.2,0.1 -0.1,0 -0.2,0 -0.3,0 l -4.5,0 c 0.1,0.6 0.3,1.1 0.6,1.4 0.3,0.3 0.7,0.4 1.2,0.4 0.3,0 0.5,0 0.7,-0.1 0.2,-0.1 0.4,-0.1 0.5,-0.2 0.2,-0.1 0.3,-0.2 0.4,-0.2 0.1,-0.1 0.3,-0.1 0.4,-0.1 0.2,0 0.3,0.1 0.4,0.2 l 0.7,0.8 c -0.2,0.3 -0.5,0.5 -0.8,0.7 -0.3,0.2 -0.6,0.3 -0.9,0.4 -0.3,0.1 -0.6,0.2 -0.9,0.2 -0.3,0 -0.6,0.1 -0.8,0.1 -0.5,0 -1.1,-0.1 -1.5,-0.3 -0.5,-0.2 -0.9,-0.4 -1.2,-0.8 -0.4,-0.3 -0.6,-0.8 -0.8,-1.3 -0.2,-0.5 -0.3,-1.1 -0.3,-1.8 0,-0.5 0.1,-1 0.3,-1.5 0.2,-0.5 0.4,-0.9 0.8,-1.2 0.3,-0.3 0.7,-0.6 1.2,-0.8 0.4,-0.1 1,-0.2 1.6,-0.2 l 0,0 z m 0,1.6 c -0.4,0 -0.8,0.1 -1,0.4 -0.2,0.3 -0.4,0.6 -0.5,1.1 l 2.9,0 c 0,-0.2 0,-0.4 -0.1,-0.5 0,-0.2 -0.1,-0.3 -0.2,-0.5 -0.1,-0.1 -0.2,-0.2 -0.4,-0.3 -0.2,-0.2 -0.5,-0.2 -0.7,-0.2 l 0,0 z"
     style="fill:#dd462b" /></svg>