<?xml version="1.0" encoding="utf-8"?>
<!-- Generator: Adobe Illustrator 19.0.1, SVG Export Plug-In . SVG Version: 6.00 Build 0)  -->
<svg version="1.1"
	 id="Layer_1" sodipodi:docname="New Moodle Logo CG v3.svg" inkscape:version="0.48.4 r9939" xmlns:inkscape="http://www.inkscape.org/namespaces/inkscape" xmlns:svg="http://www.w3.org/2000/svg" xmlns:sodipodi="http://sodipodi.sourceforge.net/DTD/sodipodi-0.dtd" xmlns:rdf="http://www.w3.org/1999/02/22-rdf-syntax-ns#" xmlns:dc="http://purl.org/dc/elements/1.1/" xmlns:cc="http://creativecommons.org/ns#"
	 xmlns="http://www.w3.org/2000/svg" xmlns:xlink="http://www.w3.org/1999/xlink" x="0px" y="0px" viewBox="-840 520 239 42"
	 style="enable-background:new -840 520 239 42;" xml:space="preserve">
<style type="text/css">
	.st0{clip-path:url(#SVGID_2_);fill:#4D4D50;}
	.st1{clip-path:url(#SVGID_4_);fill:#4D4D50;}
	.st2{clip-path:url(#SVGID_6_);fill:#4D4D50;}
	.st3{clip-path:url(#SVGID_8_);fill:#4D4D50;}
	.st4{clip-path:url(#SVGID_10_);fill:#4D4D50;}
	.st5{clip-path:url(#SVGID_12_);fill:#4D4D50;}
	.st6{clip-path:url(#SVGID_14_);fill:#4D4D50;}
	.st7{clip-path:url(#SVGID_16_);fill:#4D4D50;}
	.st8{clip-path:url(#SVGID_18_);fill:#4D4D50;}
	.st9{clip-path:url(#SVGID_20_);fill:#4D4D50;}
	.st10{clip-path:url(#SVGID_22_);fill:#4D4D50;}
	.st11{clip-path:url(#SVGID_24_);fill:#4D4D50;}
	.st12{clip-path:url(#SVGID_26_);fill:#4D4D50;}
	.st13{clip-path:url(#SVGID_28_);fill:#4D4D50;}
	.st14{fill:#DD462B;}
</style>
<sodipodi:namedview  inkscape:current-layer="Layer_1" inkscape:window-maximized="1" inkscape:window-y="-8" inkscape:window-x="1272" inkscape:window-height="778" inkscape:window-width="1280" inkscape:pageshadow="2" inkscape:pageopacity="0" id="namedview159" objecttolerance="10" inkscape:cy="36.732528" borderopacity="1" bordercolor="#666666" gridtolerance="10" inkscape:zoom="1.8698389" guidetolerance="10" pagecolor="#ffffff" showgrid="false" inkscape:cx="184.63221">
	</sodipodi:namedview>
<g id="g5">
	<g>
		<defs>
			<rect id="SVGID_1_" x="-851.3" y="501" width="260.3" height="73.1"/>
		</defs>
		<clipPath id="SVGID_2_">
			<use xlink:href="#SVGID_1_"  style="overflow:visible;"/>
		</clipPath>
		<path id="path13" inkscape:connector-curvature="0" class="st0" d="M-837.9,545c2-0.1,2.3-0.4,2.9-2c0.9-2.4,2.2-6.1,3.3-9.4
			l3.8-10.9l3.6-0.6l6.9,21.1c0.5,1.6,0.9,1.7,2.7,1.8v1.2h-10V545l1.8-0.1c0.8-0.1,1-0.5,0.7-1.4l-2-5.9h-6.9
			c-0.6,2.2-1.3,4.1-1.8,6c-0.2,0.8-0.2,1.2,0.7,1.3l1.9,0.1v1.2h-7.8V545z M-824.5,536.1l-2.9-9.1h-0.1c-0.4,1.1-2.5,7.9-2.9,9.1
			H-824.5z"/>
	</g>
</g>
<g id="g15">
	<g>
		<defs>
			<rect id="SVGID_3_" x="-851.3" y="501" width="260.3" height="73.1"/>
		</defs>
		<clipPath id="SVGID_4_">
			<use xlink:href="#SVGID_3_"  style="overflow:visible;"/>
		</clipPath>
		<path id="path23" inkscape:connector-curvature="0" class="st1" d="M-814.3,545c2.1-0.1,2.3-0.2,2.3-1.8V533
			c0-1.3-0.2-1.6-0.9-1.6l-1.2-0.2v-1.1l6.1-0.9l0.4,2.9c2.1-2,3.1-2.9,4.5-2.9c1.4,0,2.1,0.9,2.1,2.1c0,0.6-0.1,1.3-0.5,1.7
			c-0.4,0.4-0.9,0.7-1.5,0.7c-0.5,0-0.9-0.2-1.3-0.4c-0.8-0.5-1.4-0.7-1.9-0.7c-0.8,0-1.4,0.8-1.4,2.9v7.8c0,1.5,0.3,1.6,3,1.8v1.2
			h-9.8L-814.3,545C-814.3,545-814.3,545-814.3,545z"/>
	</g>
</g>
<g id="g25">
	<g>
		<defs>
			<rect id="SVGID_5_" x="-851.3" y="501" width="260.3" height="73.1"/>
		</defs>
		<clipPath id="SVGID_6_">
			<use xlink:href="#SVGID_5_"  style="overflow:visible;"/>
		</clipPath>
		<path id="path33" inkscape:connector-curvature="0" class="st2" d="M-787.2,544.2c-1.2,0.6-3.2,2.3-6.1,2.3
			c-2.5,0-4.9-1.1-4.9-5.1V533c0-1.3-0.2-1.5-0.9-1.6l-1.2-0.2v-1.1l6.3-0.9l0.2,0.2v11.1c0,2.6,1.3,3.8,3,3.8c1.6,0,2.7-0.9,3.2-2
			c0.2-0.4,0.3-1.3,0.3-2V533c0-1.3-0.2-1.5-0.9-1.6l-1.2-0.2v-1.1l6.3-0.9l0.2,0.2v13.8c0,1.5,0.2,1.7,2.3,1.8v1.2h-6.4
			L-787.2,544.2z"/>
	</g>
</g>
<g id="g35">
	<g>
		<defs>
			<rect id="SVGID_7_" x="-851.3" y="501" width="260.3" height="73.1"/>
		</defs>
		<clipPath id="SVGID_8_">
			<use xlink:href="#SVGID_7_"  style="overflow:visible;"/>
		</clipPath>
		<path id="path43" inkscape:connector-curvature="0" class="st3" d="M-781.3,552.8c2.1-0.1,2.3-0.2,2.3-1.8v-18
			c0-1.3-0.2-1.6-0.9-1.6l-1.2-0.2v-1.1l6-0.9l0.5,2.4c1.5-1.1,3.2-2.4,5.7-2.4c4.2,0,6.3,3.8,6.3,8.3c0,3.6-1,6-2.6,7.3
			c-1.6,1.4-3.8,1.8-6.1,1.8c-1.2,0-2.6-0.3-3.2-0.6v5c0,1.5,0.3,1.7,2.9,1.8v1.2h-9.6L-781.3,552.8
			C-781.3,552.8-781.3,552.8-781.3,552.8z M-774.6,540.9c0,0.7,0,1.5,0.2,2c0.4,1.4,1.5,2.2,3,2.2c2.8,0,4-2.7,4-7.2
			c0-5.5-2.2-6.5-3.7-6.5c-1.6,0-2.6,0.8-3.2,2.1c-0.2,0.5-0.3,1.2-0.3,1.9V540.9z"/>
	</g>
</g>
<g id="g45">
	<g>
		<defs>
			<rect id="SVGID_9_" x="-851.3" y="501" width="260.3" height="73.1"/>
		</defs>
		<clipPath id="SVGID_10_">
			<use xlink:href="#SVGID_9_"  style="overflow:visible;"/>
		</clipPath>
		<path id="path53" inkscape:connector-curvature="0" class="st4" d="M-732.8,538.1c0,2-0.4,3.8-1.1,5c-1.6,2.7-4.7,3.6-8.5,3.6
			c-4,0-7.1-0.9-8.6-3.6c-0.7-1.2-1-3-1-5V526c0-1.8-0.2-1.9-2.8-2v-1.2h10.3v1.2c-2.6,0.1-2.8,0.2-2.8,2v12.2
			c0,3.4,0.9,7.1,4.9,7.1c4.1,0,4.9-3.6,4.9-7.1V526c0-1.8-0.2-1.9-2.8-2v-1.2h10.3v1.2c-2.6,0.1-2.8,0.2-2.8,2L-732.8,538.1
			C-732.8,538.1-732.8,538.1-732.8,538.1z"/>
	</g>
</g>
<g id="g55">
	<g>
		<defs>
			<rect id="SVGID_11_" x="-851.3" y="501" width="260.3" height="73.1"/>
		</defs>
		<clipPath id="SVGID_12_">
			<use xlink:href="#SVGID_11_"  style="overflow:visible;"/>
		</clipPath>
		<path id="path63" inkscape:connector-curvature="0" class="st5" d="M-730.4,545c2.1-0.1,2.3-0.2,2.3-1.8V533
			c0-1.3-0.2-1.5-0.9-1.6l-1.3-0.2v-1.1l6.1-0.9l0.5,2.4c2.2-1.4,3.8-2.4,5.9-2.4c3.4,0,5.1,2,5.1,5.3v8.8c0,1.5,0.2,1.7,2.3,1.8
			v1.2h-8.8V545l0.9-0.1c0.9-0.1,1.2-0.3,1.2-1.6V535c0-2.4-1.1-3.5-3-3.5c-1.6,0-2.7,0.9-3.2,1.9c-0.3,0.5-0.3,1.2-0.3,2v8
			c0,1.3,0.3,1.5,1.2,1.6l0.8,0.1v1.2h-8.8C-730.4,546.2-730.4,545-730.4,545z"/>
	</g>
</g>
<g id="g65">
	<g>
		<defs>
			<rect id="SVGID_13_" x="-851.3" y="501" width="260.3" height="73.1"/>
		</defs>
		<clipPath id="SVGID_14_">
			<use xlink:href="#SVGID_13_"  style="overflow:visible;"/>
		</clipPath>
		<path id="path73" inkscape:connector-curvature="0" class="st6" d="M-702.8,543.2c0,1.5,0.2,1.7,2.3,1.8v1.2h-9.1V545
			c2.1-0.1,2.3-0.2,2.3-1.8V533c0-1.3-0.2-1.5-0.9-1.6l-1.2-0.2v-1.1l6.3-0.9l0.2,0.2L-702.8,543.2L-702.8,543.2L-702.8,543.2z
			 M-707.9,524.5c0-1.5,1.1-2.6,2.7-2.6c1.7,0,2.7,1.2,2.7,2.6c0,1.5-1.1,2.6-2.7,2.6C-706.8,527.1-707.9,526-707.9,524.5"/>
	</g>
</g>
<g id="g75">
	<g>
		<defs>
			<rect id="SVGID_15_" x="-851.3" y="501" width="260.3" height="73.1"/>
		</defs>
		<clipPath id="SVGID_16_">
			<use xlink:href="#SVGID_15_"  style="overflow:visible;"/>
		</clipPath>
		<path id="path83" inkscape:connector-curvature="0" class="st7" d="M-696.4,538.9c-0.8-2.3-1.6-4.4-2.5-6.6
			c-0.5-1.1-0.9-1.4-2.3-1.5v-1.2h8.5v1.2l-1.4,0.2c-0.6,0.1-0.7,0.3-0.5,1c0.2,0.6,1.6,4.5,1.8,5.1l1.8,5.1h0.1l1.9-5.6
			c0.6-1.7,1.1-3.4,1.5-4.6c0.2-0.6,0.1-1-0.5-1l-1.5-0.2v-1.2h6.8v1.2c-1.5,0.1-1.8,0.3-2.4,1.5c-0.5,1.2-1.5,3.3-2.5,5.9l-2.9,8.1
			h-3.3L-696.4,538.9z"/>
	</g>
</g>
<g id="g85">
	<g>
		<defs>
			<rect id="SVGID_17_" x="-851.3" y="501" width="260.3" height="73.1"/>
		</defs>
		<clipPath id="SVGID_18_">
			<use xlink:href="#SVGID_17_"  style="overflow:visible;"/>
		</clipPath>
		<path id="path93" inkscape:connector-curvature="0" class="st8" d="M-668.8,541.7c-1.1,2.9-3.2,4.9-7.1,4.9
			c-5.9,0-8.2-3.8-8.2-8.7c0-2.4,0.6-4.6,2-6.2c1.4-1.6,3.4-2.6,6.2-2.6c6.9,0,7.4,5,7.4,6.9c0,1.1-0.6,1.4-1.7,1.4h-9.1
			c0,3.6,1,6.8,4.7,6.8c2.3,0,3.7-1.3,4.7-3.2C-669.9,541-668.8,541.7-668.8,541.7z M-674.3,536c0.8,0,1.1-0.2,1.1-1.1
			c0-1.5-0.3-4.3-2.8-4.3c-2.7,0-3.2,3.4-3.2,5.4H-674.3z"/>
	</g>
</g>
<g id="g95">
	<g>
		<defs>
			<rect id="SVGID_19_" x="-851.3" y="501" width="260.3" height="73.1"/>
		</defs>
		<clipPath id="SVGID_20_">
			<use xlink:href="#SVGID_19_"  style="overflow:visible;"/>
		</clipPath>
		<path id="path103" inkscape:connector-curvature="0" class="st9" d="M-668.1,545c2.1-0.1,2.3-0.2,2.3-1.8V533
			c0-1.3-0.2-1.6-0.9-1.6l-1.2-0.2v-1.1l6.1-0.9l0.4,2.9c2.1-2,3.1-2.9,4.5-2.9c1.4,0,2.1,0.9,2.1,2.1c0,0.6-0.1,1.3-0.5,1.7
			c-0.4,0.4-0.9,0.7-1.5,0.7c-0.5,0-0.9-0.2-1.3-0.4c-0.8-0.5-1.4-0.7-1.9-0.7c-0.8,0-1.4,0.8-1.4,2.9v7.8c0,1.5,0.3,1.6,3,1.8v1.2
			h-9.8L-668.1,545L-668.1,545L-668.1,545z"/>
	</g>
</g>
<g id="g105">
	<g>
		<defs>
			<rect id="SVGID_21_" x="-851.3" y="501" width="260.3" height="73.1"/>
		</defs>
		<clipPath id="SVGID_22_">
			<use xlink:href="#SVGID_21_"  style="overflow:visible;"/>
		</clipPath>
		<path id="path113" inkscape:connector-curvature="0" class="st10" d="M-643.9,534.7c-0.5-2.4-1.9-4.1-3.8-4.1
			c-1.5,0-2.5,0.9-2.5,2.2c0,1.6,1.7,2.3,3.5,2.9c3.2,1.2,5.1,2.5,5.1,5.5c0,3.3-2.6,5.3-6.7,5.3c-1.9,0-4.4-0.5-5.6-1.6l-0.4-4.9
			h1.2c0.8,2.8,2.5,5,4.9,5c1.6,0,2.6-0.9,2.6-2.3c0-1.8-1.8-2.8-3.4-3.3c-2.9-1-5.1-2.4-5.1-5.1c0-3.3,2.5-5.2,6.5-5.2
			c1.7,0,3.6,0.3,4.8,1.2v4.3H-643.9L-643.9,534.7z"/>
	</g>
</g>
<g id="g115">
	<g>
		<defs>
			<rect id="SVGID_23_" x="-851.3" y="501" width="260.3" height="73.1"/>
		</defs>
		<clipPath id="SVGID_24_">
			<use xlink:href="#SVGID_23_"  style="overflow:visible;"/>
		</clipPath>
		<path id="path123" inkscape:connector-curvature="0" class="st11" d="M-634.1,543.2c0,1.5,0.2,1.7,2.3,1.8v1.2h-9.1V545
			c2.1-0.1,2.3-0.2,2.3-1.8V533c0-1.3-0.2-1.5-0.9-1.6l-1.2-0.2v-1.1l6.3-0.9l0.2,0.2V543.2L-634.1,543.2z M-639.1,524.5
			c0-1.5,1-2.6,2.7-2.6c1.7,0,2.7,1.2,2.7,2.6c0,1.5-1.1,2.6-2.7,2.6C-638.1,527.1-639.1,526-639.1,524.5"/>
	</g>
</g>
<g id="g125">
	<g>
		<defs>
			<rect id="SVGID_25_" x="-851.3" y="501" width="260.3" height="73.1"/>
		</defs>
		<clipPath id="SVGID_26_">
			<use xlink:href="#SVGID_25_"  style="overflow:visible;"/>
		</clipPath>
		<path id="path133" inkscape:connector-curvature="0" class="st12" d="M-621.9,531.1h-3.8v10c0,2.3,0.9,3.2,2.2,3.2
			c0.8,0,1.5-0.1,2.1-0.4l0.3,0.9c-1.6,1-3.5,1.7-5,1.7c-1.6,0-4-1-4-4.2v-11.2h-2.1v-1.6h2.3l2.7-4.3h1.6v4.3h3.8L-621.9,531.1
			L-621.9,531.1L-621.9,531.1z"/>
	</g>
</g>
<g id="g135">
	<g>
		<defs>
			<rect id="SVGID_27_" x="-851.3" y="501" width="260.3" height="73.1"/>
		</defs>
		<clipPath id="SVGID_28_">
			<use xlink:href="#SVGID_27_"  style="overflow:visible;"/>
		</clipPath>
		<path id="path143" inkscape:connector-curvature="0" class="st13" d="M-602.1,530.8l-0.7,0.1c-1,0.1-1.3,0.6-1.9,2
			c-1.7,4-4.1,10.1-6.1,15.6c-1.8,4.9-3.4,5.9-5.4,5.9c-1.5,0-2.6-0.8-2.6-2c0-1.2,1-2.4,1.9-2.4c0.5,0,0.8,0.1,1.4,0.6
			c0.5,0.4,0.8,0.6,1.2,0.6c0.6,0,1.1-0.7,1.4-1.6c0.2-0.7,0.3-1.4,0.3-2c0-0.4-0.1-0.7-0.2-1.1c-1.5-3.9-3.8-9.7-5.6-14.1
			c-0.4-0.9-0.7-1.4-1.3-1.5l-1.2-0.2v-1.2h8.8v1.2l-1.3,0.1c-0.6,0.1-0.6,0.5-0.4,1.1c1.1,3.3,2.4,6.7,3.7,10.1h0.1
			c1.2-3.4,2.5-7.3,3.4-10.1c0.2-0.7,0-1.1-0.5-1.1l-1.5-0.2v-1.2h6.7L-602.1,530.8L-602.1,530.8L-602.1,530.8z"/>
	</g>
</g>
<path id="path3997" inkscape:connector-curvature="0" class="st14" d="M-725.6,554.5c0.1,0.2,0.2,0.4,0.3,0.6
	c0.1,0.2,0.2,0.4,0.3,0.6c0.1-0.2,0.2-0.4,0.3-0.6c0.1-0.2,0.2-0.4,0.3-0.6l2.8-5.5c0-0.1,0.1-0.2,0.2-0.2s0.1-0.1,0.2-0.1
	s0.1,0,0.2,0s0.2,0,0.3,0h1.9v10.9h-2.2v-6.3c0-0.3,0-0.6,0-1l-2.9,5.6c-0.1,0.2-0.2,0.3-0.4,0.4c-0.2,0.1-0.3,0.1-0.5,0.1h-0.3
	c-0.2,0-0.4,0-0.5-0.1c-0.2-0.1-0.3-0.2-0.4-0.4l-2.9-5.6c0,0.2,0,0.3,0,0.5s0,0.3,0,0.5v6.3h-2.2v-10.9h1.9c0.1,0,0.2,0,0.3,0
	c0.1,0,0.2,0,0.2,0s0.1,0.1,0.2,0.1c0.1,0.1,0.1,0.1,0.2,0.2C-728.5,549-725.6,554.5-725.6,554.5z"/>
<path id="path3999" inkscape:connector-curvature="0" class="st14" d="M-713.7,551.6c0.6,0,1.1,0.1,1.6,0.3c0.5,0.2,0.9,0.4,1.2,0.8
	c0.3,0.3,0.6,0.8,0.8,1.3s0.3,1,0.3,1.7c0,0.6-0.1,1.2-0.3,1.7c-0.2,0.5-0.5,0.9-0.8,1.3c-0.3,0.3-0.8,0.6-1.2,0.8
	c-0.5,0.2-1,0.3-1.6,0.3c-0.6,0-1.1-0.1-1.6-0.3s-0.9-0.5-1.3-0.8c-0.4-0.3-0.6-0.8-0.8-1.3c-0.2-0.5-0.3-1.1-0.3-1.7
	c0-0.6,0.1-1.2,0.3-1.7c0.2-0.5,0.5-0.9,0.8-1.3c0.4-0.3,0.8-0.6,1.3-0.8S-714.3,551.6-713.7,551.6z M-713.7,557.9
	c0.5,0,0.9-0.2,1.2-0.6c0.3-0.4,0.4-0.9,0.4-1.7s-0.1-1.3-0.4-1.7c-0.3-0.4-0.6-0.6-1.2-0.6c-0.5,0-0.9,0.2-1.2,0.6
	c-0.3,0.4-0.4,0.9-0.4,1.7s0.1,1.3,0.4,1.7C-714.7,557.7-714.3,557.9-713.7,557.9z"/>
<path id="path4001" inkscape:connector-curvature="0" class="st14" d="M-705,551.6c0.6,0,1.1,0.1,1.6,0.3c0.5,0.2,0.9,0.4,1.2,0.8
	c0.3,0.3,0.6,0.8,0.8,1.3s0.3,1,0.3,1.7c0,0.6-0.1,1.2-0.3,1.7c-0.2,0.5-0.5,0.9-0.8,1.3c-0.3,0.3-0.8,0.6-1.2,0.8
	c-0.5,0.2-1,0.3-1.6,0.3c-0.6,0-1.1-0.1-1.6-0.3s-0.9-0.5-1.3-0.8c-0.4-0.3-0.6-0.8-0.8-1.3c-0.2-0.5-0.3-1.1-0.3-1.7
	c0-0.6,0.1-1.2,0.3-1.7c0.2-0.5,0.5-0.9,0.8-1.3c0.4-0.3,0.8-0.6,1.3-0.8S-705.6,551.6-705,551.6z M-705,557.9
	c0.5,0,0.9-0.2,1.2-0.6c0.3-0.4,0.4-0.9,0.4-1.7c0-0.8-0.1-1.3-0.4-1.7c-0.3-0.4-0.6-0.6-1.2-0.6c-0.5,0-0.9,0.2-1.2,0.6
	c-0.3,0.4-0.4,0.9-0.4,1.7s0.1,1.3,0.4,1.7C-706,557.7-705.6,557.9-705,557.9z"/>
<path id="path4003" inkscape:connector-curvature="0" class="st14" d="M-694.4,559.5c-0.1,0-0.3,0-0.4-0.1s-0.2-0.2-0.2-0.3
	l-0.2-0.6c-0.2,0.2-0.3,0.3-0.5,0.4c-0.2,0.1-0.4,0.3-0.5,0.3s-0.4,0.2-0.6,0.2c-0.2,0.1-0.5,0.1-0.7,0.1c-0.4,0-0.8-0.1-1.1-0.3
	s-0.6-0.4-0.9-0.8c-0.2-0.3-0.4-0.8-0.6-1.2s-0.2-1.1-0.2-1.7c0-0.6,0.1-1.1,0.2-1.6c0.2-0.5,0.4-0.9,0.7-1.3
	c0.3-0.4,0.6-0.6,1.1-0.8s0.9-0.3,1.4-0.3c0.4,0,0.7,0.1,1,0.2c0.3,0.1,0.5,0.3,0.8,0.5v-3.9h2.3v11.2H-694.4z M-696.7,557.8
	c0.2,0,0.3,0,0.5,0c0.1,0,0.3-0.1,0.4-0.1s0.2-0.1,0.3-0.2c0.1-0.1,0.2-0.2,0.3-0.3v-3.3c-0.2-0.2-0.4-0.3-0.6-0.4
	c-0.2-0.1-0.4-0.1-0.6-0.1c-0.2,0-0.4,0-0.6,0.1c-0.2,0.1-0.3,0.2-0.5,0.4s-0.2,0.4-0.3,0.7c-0.1,0.3-0.1,0.7-0.1,1.1
	c0,0.4,0,0.8,0.1,1c0.1,0.3,0.1,0.5,0.3,0.7c0.1,0.2,0.2,0.3,0.4,0.4C-697.1,557.8-696.9,557.8-696.7,557.8z"/>
<path id="path4005" inkscape:connector-curvature="0" class="st14" d="M-688.7,548.3v11.2h-2.3v-11.2H-688.7z"/>
<path id="path4007" inkscape:connector-curvature="0" class="st14" d="M-683.5,551.6c0.5,0,1,0.1,1.4,0.2s0.8,0.4,1.1,0.7
	s0.5,0.7,0.7,1.1c0.2,0.4,0.3,0.9,0.3,1.5c0,0.2,0,0.3,0,0.4c0,0.1,0,0.2-0.1,0.3s-0.1,0.1-0.2,0.1s-0.2,0-0.3,0h-4.5
	c0.1,0.6,0.3,1.1,0.6,1.4c0.3,0.3,0.7,0.4,1.2,0.4c0.3,0,0.5,0,0.7-0.1c0.2-0.1,0.4-0.1,0.5-0.2c0.2-0.1,0.3-0.2,0.4-0.2
	c0.1-0.1,0.3-0.1,0.4-0.1c0.2,0,0.3,0.1,0.4,0.2l0.7,0.8c-0.2,0.3-0.5,0.5-0.8,0.7c-0.3,0.2-0.6,0.3-0.9,0.4
	c-0.3,0.1-0.6,0.2-0.9,0.2c-0.3,0-0.6,0.1-0.8,0.1c-0.5,0-1.1-0.1-1.5-0.3c-0.5-0.2-0.9-0.4-1.2-0.8c-0.4-0.3-0.6-0.8-0.8-1.3
	c-0.2-0.5-0.3-1.1-0.3-1.8c0-0.5,0.1-1,0.3-1.5c0.2-0.5,0.4-0.9,0.8-1.2c0.3-0.3,0.7-0.6,1.2-0.8
	C-684.7,551.7-684.1,551.6-683.5,551.6L-683.5,551.6z M-683.5,553.2c-0.4,0-0.8,0.1-1,0.4c-0.2,0.3-0.4,0.6-0.5,1.1h2.9
	c0-0.2,0-0.4-0.1-0.5c0-0.2-0.1-0.3-0.2-0.5c-0.1-0.1-0.2-0.2-0.4-0.3C-683,553.2-683.3,553.2-683.5,553.2L-683.5,553.2z"/>
<path id="path4009" inkscape:connector-curvature="0" class="st14" d="M-672,548.4c0.5,0,1,0.1,1.4,0.2s0.8,0.4,1.1,0.6
	c0.3,0.3,0.5,0.6,0.7,0.9c0.1,0.3,0.2,0.7,0.2,1.1c0,0.3,0,0.6-0.1,0.9c-0.1,0.3-0.2,0.5-0.3,0.7c-0.1,0.2-0.3,0.4-0.5,0.5
	c-0.2,0.1-0.4,0.2-0.7,0.3c1.2,0.4,1.8,1.2,1.8,2.5c0,0.6-0.1,1.1-0.3,1.5c-0.2,0.4-0.5,0.8-0.8,1.1c-0.4,0.3-0.8,0.5-1.2,0.6
	s-0.9,0.2-1.5,0.2c-0.5,0-1-0.1-1.4-0.2c-0.4-0.1-0.8-0.3-1.1-0.5s-0.6-0.5-0.8-0.9c-0.2-0.4-0.4-0.8-0.6-1.3l1-0.4
	c0.1,0,0.2-0.1,0.3-0.1s0.2,0,0.3,0c0.2,0,0.3,0,0.4,0.1s0.2,0.2,0.3,0.3c0.2,0.4,0.5,0.7,0.7,0.9c0.3,0.2,0.5,0.3,0.9,0.3
	c0.3,0,0.5,0,0.7-0.1c0.2-0.1,0.4-0.2,0.5-0.3c0.1-0.1,0.2-0.3,0.3-0.5c0.1-0.2,0.1-0.4,0.1-0.5c0-0.2,0-0.4,0-0.6
	c0-0.2-0.1-0.3-0.3-0.5c-0.1-0.1-0.4-0.2-0.7-0.3s-0.7-0.1-1.3-0.1v-1.6c0.5,0,0.8,0,1.1-0.1c0.3-0.1,0.5-0.2,0.6-0.3
	c0.2-0.1,0.3-0.3,0.3-0.4s0.1-0.4,0.1-0.6c0-0.4-0.1-0.8-0.3-1s-0.5-0.3-0.9-0.3c-0.2,0-0.3,0-0.5,0.1c-0.1,0-0.3,0.1-0.4,0.2
	s-0.2,0.2-0.3,0.3c-0.1,0.1-0.1,0.2-0.2,0.4c-0.1,0.2-0.2,0.4-0.3,0.5s-0.3,0.1-0.5,0.1c0,0-0.1,0-0.2,0s-0.1,0-0.2,0l-1.2-0.2
	c0.1-0.5,0.2-1,0.5-1.4s0.5-0.7,0.8-1c0.3-0.3,0.7-0.5,1.2-0.6C-673,548.5-672.5,548.4-672,548.4z"/>
<path id="path4011" inkscape:connector-curvature="0" class="st14" d="M-667.6,558.3c0-0.2,0-0.3,0.1-0.5c0.1-0.2,0.2-0.3,0.3-0.4
	c0.1-0.1,0.3-0.2,0.4-0.3s0.3-0.1,0.5-0.1c0.2,0,0.4,0,0.5,0.1s0.3,0.2,0.4,0.3c0.1,0.1,0.2,0.2,0.3,0.4s0.1,0.3,0.1,0.5
	s0,0.3-0.1,0.5c-0.1,0.2-0.2,0.3-0.3,0.4c-0.1,0.1-0.3,0.2-0.4,0.3s-0.3,0.1-0.5,0.1c-0.2,0-0.4,0-0.5-0.1s-0.3-0.2-0.4-0.3
	c-0.1-0.1-0.2-0.3-0.3-0.4S-667.6,558.5-667.6,558.3z"/>
<path id="path4013" inkscape:connector-curvature="0" class="st14" d="M-656.1,554c0,1-0.1,1.8-0.3,2.5c-0.2,0.7-0.5,1.3-0.8,1.7
	c-0.4,0.5-0.8,0.8-1.3,1c-0.5,0.2-1,0.3-1.6,0.3c-0.6,0-1.1-0.1-1.6-0.3s-0.9-0.6-1.3-1c-0.4-0.5-0.6-1-0.8-1.7
	c-0.2-0.7-0.3-1.5-0.3-2.5c0-1,0.1-1.8,0.3-2.5s0.5-1.3,0.8-1.7s0.8-0.8,1.3-1c0.5-0.2,1-0.3,1.6-0.3c0.6,0,1.1,0.1,1.6,0.3
	c0.5,0.2,0.9,0.6,1.3,1s0.6,1,0.8,1.7C-656.2,552.2-656.1,553.1-656.1,554z M-658.5,554c0-0.8,0-1.4-0.1-1.9
	c-0.1-0.5-0.2-0.9-0.4-1.1c-0.2-0.3-0.3-0.5-0.5-0.6c-0.2-0.1-0.4-0.2-0.6-0.2c-0.2,0-0.4,0.1-0.6,0.2c-0.2,0.1-0.4,0.3-0.5,0.6
	s-0.3,0.7-0.4,1.1c-0.1,0.5-0.1,1.1-0.1,1.9c0,0.8,0,1.4,0.1,1.9s0.2,0.9,0.4,1.1c0.2,0.3,0.3,0.5,0.5,0.6c0.2,0.1,0.4,0.2,0.6,0.2
	c0.2,0,0.4-0.1,0.6-0.2c0.2-0.1,0.4-0.3,0.5-0.6c0.2-0.3,0.3-0.7,0.4-1.1S-658.5,554.8-658.5,554z"/>
<path id="path4015" inkscape:connector-curvature="0" class="st14" d="M-652,559.5v-10.9h4c0.8,0,1.4,0.1,1.9,0.2
	c0.5,0.1,1,0.3,1.3,0.6c0.3,0.3,0.6,0.6,0.7,0.9c0.2,0.4,0.2,0.8,0.2,1.2c0,0.2,0,0.5-0.1,0.7c-0.1,0.2-0.2,0.4-0.3,0.6
	s-0.3,0.4-0.6,0.5c-0.2,0.2-0.5,0.3-0.8,0.4c0.7,0.2,1.2,0.5,1.6,0.8c0.3,0.4,0.5,0.9,0.5,1.5c0,0.5-0.1,0.9-0.3,1.3
	c-0.2,0.4-0.4,0.7-0.8,1c-0.3,0.3-0.8,0.5-1.3,0.7c-0.5,0.2-1.1,0.3-1.7,0.3H-652z M-649.5,554.8v2.7h1.8c0.3,0,0.6,0,0.8-0.1
	c0.2-0.1,0.4-0.2,0.5-0.3c0.1-0.1,0.2-0.3,0.2-0.5c0-0.2,0.1-0.3,0.1-0.5c0-0.2,0-0.4-0.1-0.5c-0.1-0.2-0.1-0.3-0.3-0.4
	c-0.1-0.1-0.3-0.2-0.5-0.3c-0.2-0.1-0.5-0.1-0.8-0.1H-649.5z M-649.5,553.2h1.3c0.3,0,0.5,0,0.8-0.1c0.2,0,0.4-0.1,0.6-0.2
	c0.2-0.1,0.3-0.2,0.4-0.4c0.1-0.2,0.1-0.4,0.1-0.7c0-0.3,0-0.5-0.1-0.6c-0.1-0.2-0.2-0.3-0.3-0.4c-0.1-0.1-0.3-0.2-0.5-0.2
	c-0.2,0-0.5-0.1-0.7-0.1h-1.5L-649.5,553.2z"/>
<path id="path4017" inkscape:connector-curvature="0" class="st14" d="M-638.9,551.6c0.5,0,1,0.1,1.4,0.2c0.4,0.2,0.8,0.4,1.1,0.7
	s0.5,0.7,0.7,1.1c0.2,0.4,0.3,0.9,0.3,1.5c0,0.2,0,0.3,0,0.4c0,0.1,0,0.2-0.1,0.3c0,0.1-0.1,0.1-0.2,0.1c-0.1,0-0.2,0-0.3,0h-4.5
	c0.1,0.6,0.3,1.1,0.6,1.4c0.3,0.3,0.7,0.4,1.2,0.4c0.3,0,0.5,0,0.7-0.1c0.2-0.1,0.4-0.1,0.5-0.2c0.2-0.1,0.3-0.2,0.4-0.2
	s0.3-0.1,0.4-0.1c0.2,0,0.3,0.1,0.4,0.2l0.7,0.8c-0.2,0.3-0.5,0.5-0.8,0.7c-0.3,0.2-0.6,0.3-0.9,0.4s-0.6,0.2-0.9,0.2
	c-0.3,0-0.6,0.1-0.8,0.1c-0.5,0-1.1-0.1-1.5-0.3c-0.5-0.2-0.9-0.4-1.2-0.8c-0.4-0.3-0.6-0.8-0.8-1.3c-0.2-0.5-0.3-1.1-0.3-1.8
	c0-0.5,0.1-1,0.3-1.5c0.2-0.5,0.4-0.9,0.8-1.2c0.3-0.3,0.7-0.6,1.2-0.8C-640,551.7-639.5,551.6-638.9,551.6L-638.9,551.6z
	 M-638.9,553.2c-0.4,0-0.8,0.1-1,0.4c-0.2,0.3-0.4,0.6-0.5,1.1h2.9c0-0.2,0-0.4-0.1-0.5c0-0.2-0.1-0.3-0.2-0.5
	c-0.1-0.1-0.2-0.2-0.4-0.3S-638.6,553.2-638.9,553.2L-638.9,553.2z"/>
<path id="path4019" inkscape:connector-curvature="0" class="st14" d="M-631.3,559.6c-0.4,0-0.7-0.1-1-0.2c-0.3-0.1-0.5-0.3-0.7-0.5
	c-0.2-0.2-0.3-0.4-0.4-0.7c-0.1-0.3-0.1-0.6-0.1-0.9v-4h-0.7c-0.1,0-0.2,0-0.3-0.1c-0.1-0.1-0.1-0.2-0.1-0.3v-0.9l1.2-0.2l0.5-1.9
	c0.1-0.2,0.2-0.4,0.5-0.4h1.2v2.3h1.9v1.6h-1.9v3.9c0,0.2,0,0.3,0.1,0.4c0.1,0.1,0.2,0.2,0.4,0.2c0.1,0,0.2,0,0.2,0
	c0.1,0,0.1,0,0.1-0.1s0.1,0,0.1-0.1s0.1,0,0.1,0c0.1,0,0.1,0,0.2,0s0.1,0.1,0.1,0.2l0.7,1.1c-0.3,0.2-0.6,0.4-1,0.5
	C-630.6,559.5-630.9,559.6-631.3,559.6z"/>
<path id="path4021" inkscape:connector-curvature="0" class="st14" d="M-622.7,559.5c-0.2,0-0.4,0-0.5-0.1c-0.1-0.1-0.2-0.2-0.3-0.4
	l-0.2-0.4c-0.2,0.2-0.4,0.3-0.6,0.4s-0.4,0.2-0.6,0.3c-0.2,0.1-0.4,0.2-0.6,0.2c-0.2,0-0.5,0.1-0.7,0.1c-0.4,0-0.7,0-1-0.1
	s-0.5-0.2-0.7-0.4c-0.2-0.2-0.4-0.4-0.5-0.7c-0.1-0.3-0.2-0.6-0.2-0.9c0-0.3,0.1-0.6,0.2-0.8c0.1-0.3,0.4-0.6,0.7-0.8
	c0.3-0.2,0.8-0.4,1.4-0.6c0.6-0.2,1.3-0.2,2.2-0.3v-0.3c0-0.5-0.1-0.8-0.3-1c-0.2-0.2-0.5-0.3-0.8-0.3c-0.3,0-0.5,0-0.7,0.1
	c-0.2,0.1-0.3,0.1-0.5,0.2c-0.1,0.1-0.3,0.1-0.4,0.2c-0.1,0.1-0.3,0.1-0.5,0.1c-0.2,0-0.3,0-0.4-0.1c-0.1-0.1-0.2-0.2-0.3-0.3
	l-0.4-0.7c0.5-0.4,1-0.7,1.6-0.9c0.6-0.2,1.2-0.3,1.8-0.3c0.5,0,0.9,0.1,1.3,0.2c0.4,0.2,0.7,0.4,1,0.6c0.3,0.3,0.5,0.6,0.6,1
	c0.1,0.4,0.2,0.8,0.2,1.2v4.8H-622.7z M-625.4,558.1c0.3,0,0.6-0.1,0.8-0.2c0.2-0.1,0.5-0.3,0.7-0.5v-1.1c-0.5,0-0.8,0.1-1.1,0.1
	c-0.3,0.1-0.5,0.1-0.7,0.2c-0.2,0.1-0.3,0.2-0.4,0.3c-0.1,0.1-0.1,0.2-0.1,0.4c0,0.3,0.1,0.4,0.2,0.6
	C-625.9,558-625.7,558.1-625.4,558.1L-625.4,558.1z"/>
</svg>
