<?xml version="1.0" encoding="UTF-8" standalone="no"?>
<!-- Generator: Adobe Illustrator 16.0.2, SVG Export Plug-In . SVG Version: 6.00 Build 0)  -->

<svg
   xmlns:dc="http://purl.org/dc/elements/1.1/"
   xmlns:cc="http://creativecommons.org/ns#"
   xmlns:rdf="http://www.w3.org/1999/02/22-rdf-syntax-ns#"
   xmlns:svg="http://www.w3.org/2000/svg"
   xmlns="http://www.w3.org/2000/svg"
   xmlns:xlink="http://www.w3.org/1999/xlink"
   xmlns:sodipodi="http://sodipodi.sourceforge.net/DTD/sodipodi-0.dtd"
   xmlns:inkscape="http://www.inkscape.org/namespaces/inkscape"
   version="1.1"
   id="Layer_1"
   x="0px"
   y="0px"
   width="239px"
   height="42px"
   viewBox="0 0 239 42"
   enable-background="new 0 0 239 42"
   xml:space="preserve"
   inkscape:version="0.48.4 r9939"
   sodipodi:docname="New Moodle Logo CG v3.svg"><metadata
     id="metadata163"><rdf:RDF><cc:Work
         rdf:about=""><dc:format>image/svg+xml</dc:format><dc:type
           rdf:resource="http://purl.org/dc/dcmitype/StillImage" /><dc:title></dc:title></cc:Work></rdf:RDF></metadata><defs
     id="defs161">
	
	
	
	
	
	
	
	
	
	
	
	
	
	
</defs><sodipodi:namedview
     pagecolor="#ffffff"
     bordercolor="#666666"
     borderopacity="1"
     objecttolerance="10"
     gridtolerance="10"
     guidetolerance="10"
     inkscape:pageopacity="0"
     inkscape:pageshadow="2"
     inkscape:window-width="1280"
     inkscape:window-height="778"
     id="namedview159"
     showgrid="false"
     inkscape:zoom="1.8698389"
     inkscape:cx="184.63221"
     inkscape:cy="36.732528"
     inkscape:window-x="1272"
     inkscape:window-y="-8"
     inkscape:window-maximized="1"
     inkscape:current-layer="Layer_1" /><g
     id="g5">
		<defs
   id="defs7">
			<rect
   height="73.096001"
   width="260.31201"
   y="-19"
   x="-11.312"
   id="SVGID_1_" />
		</defs>
		<clipPath
   id="SVGID_2_">
			<use
   height="42"
   width="239"
   y="0"
   x="0"
   style="overflow:visible"
   id="use11"
   overflow="visible"
   xlink:href="#SVGID_1_" />
		</clipPath>
		<path
   style="fill:#4d4d50"
   inkscape:connector-curvature="0"
   id="path13"
   d="M 2.144,24.975 C 4.109,24.909 4.447,24.604 5.057,23.014 6.005,20.576 7.223,16.92 8.375,13.635 L 12.167,2.733 15.788,2.15 22.662,23.216 c 0.509,1.558 0.914,1.692 2.742,1.761 v 1.188 h -9.952 v -1.188 l 1.793,-0.135 c 0.847,-0.068 0.982,-0.51 0.712,-1.354 L 15.993,17.562 H 9.05 c -0.643,2.167 -1.319,4.099 -1.759,5.993 -0.204,0.848 -0.17,1.219 0.677,1.287 l 1.928,0.135 v 1.188 H 2.144 v -1.19 z M 15.519,16.073 12.606,6.965 h -0.1 c -0.373,1.084 -2.541,7.888 -2.947,9.108 h 5.96 z"
   clip-path="url(#SVGID_2_)" />
	</g><g
     id="g15">
		<defs
   id="defs17">
			<rect
   height="73.096001"
   width="260.31201"
   y="-19"
   x="-11.312"
   id="SVGID_3_" />
		</defs>
		<clipPath
   id="SVGID_4_">
			<use
   height="42"
   width="239"
   y="0"
   x="0"
   style="overflow:visible"
   id="use21"
   overflow="visible"
   xlink:href="#SVGID_3_" />
		</clipPath>
		<path
   style="fill:#4d4d50"
   inkscape:connector-curvature="0"
   id="path23"
   d="m 25.709,24.977 c 2.065,-0.101 2.301,-0.236 2.301,-1.762 V 12.991 c 0,-1.287 -0.236,-1.558 -0.915,-1.626 l -1.218,-0.168 v -1.083 l 6.096,-0.947 0.405,2.877 c 2.064,-2.03 3.147,-2.877 4.467,-2.877 1.422,0 2.1,0.914 2.1,2.065 0,0.609 -0.136,1.253 -0.474,1.727 -0.373,0.44 -0.88,0.745 -1.457,0.745 -0.474,0 -0.88,-0.202 -1.252,-0.405 -0.812,-0.475 -1.354,-0.745 -1.896,-0.745 -0.813,0 -1.421,0.812 -1.421,2.877 v 7.786 c 0,1.524 0.271,1.627 3.013,1.762 v 1.187 h -9.75 l 0.001,-1.189 0,0 z"
   clip-path="url(#SVGID_4_)" />
	</g><g
     id="g25">
		<defs
   id="defs27">
			<rect
   height="73.096001"
   width="260.31201"
   y="-19"
   x="-11.312"
   id="SVGID_5_" />
		</defs>
		<clipPath
   id="SVGID_6_">
			<use
   height="42"
   width="239"
   y="0"
   x="0"
   style="overflow:visible"
   id="use31"
   overflow="visible"
   xlink:href="#SVGID_5_" />
		</clipPath>
		<path
   style="fill:#4d4d50"
   inkscape:connector-curvature="0"
   id="path33"
   d="m 52.821,24.23 c -1.218,0.646 -3.183,2.334 -6.062,2.334 -2.471,0 -4.874,-1.147 -4.874,-5.077 V 12.99 c 0,-1.287 -0.238,-1.523 -0.915,-1.625 l -1.22,-0.169 v -1.084 l 6.33,-0.947 0.238,0.204 v 11.07 c 0,2.64 1.254,3.792 3.015,3.792 1.557,0 2.741,-0.912 3.215,-1.963 0.203,-0.44 0.272,-1.253 0.272,-1.963 v -7.313 c 0,-1.287 -0.239,-1.523 -0.916,-1.625 l -1.218,-0.169 v -1.084 l 6.33,-0.947 0.237,0.204 v 13.845 c 0,1.521 0.239,1.661 2.304,1.76 v 1.188 H 53.123 L 52.821,24.23 z"
   clip-path="url(#SVGID_6_)" />
	</g><g
     id="g35">
		<defs
   id="defs37">
			<rect
   height="73.096001"
   width="260.31201"
   y="-19"
   x="-11.312"
   id="SVGID_7_" />
		</defs>
		<clipPath
   id="SVGID_8_">
			<use
   height="42"
   width="239"
   y="0"
   x="0"
   style="overflow:visible"
   id="use41"
   overflow="visible"
   xlink:href="#SVGID_7_" />
		</clipPath>
		<path
   style="fill:#4d4d50"
   inkscape:connector-curvature="0"
   id="path43"
   d="m 58.709,32.764 c 2.066,-0.102 2.303,-0.238 2.303,-1.761 V 12.991 c 0,-1.286 -0.237,-1.557 -0.915,-1.625 l -1.218,-0.168 v -1.083 l 6.026,-0.948 0.542,2.404 c 1.525,-1.119 3.25,-2.404 5.655,-2.404 4.232,0 6.295,3.757 6.295,8.262 0,3.622 -1.014,5.992 -2.64,7.344 -1.625,1.356 -3.792,1.795 -6.061,1.795 -1.185,0 -2.573,-0.271 -3.25,-0.575 v 5.012 c 0,1.521 0.272,1.659 2.877,1.761 v 1.186 h -9.615 l 0.001,-1.188 0,0 z m 6.738,-11.818 c 0,0.713 0.034,1.49 0.171,2.031 0.371,1.354 1.454,2.168 3.045,2.168 2.812,0 3.995,-2.674 3.995,-7.177 0,-5.519 -2.199,-6.467 -3.724,-6.467 -1.557,0 -2.607,0.779 -3.182,2.132 -0.204,0.542 -0.305,1.151 -0.305,1.897 v 5.416 z"
   clip-path="url(#SVGID_8_)" />
	</g><g
     id="g45">
		<defs
   id="defs47">
			<rect
   height="73.096001"
   width="260.31201"
   y="-19"
   x="-11.312"
   id="SVGID_9_" />
		</defs>
		<clipPath
   id="SVGID_10_">
			<use
   height="42"
   width="239"
   y="0"
   x="0"
   style="overflow:visible"
   id="use51"
   overflow="visible"
   xlink:href="#SVGID_9_" />
		</clipPath>
		<path
   style="fill:#4d4d50"
   inkscape:connector-curvature="0"
   id="path53"
   d="m 107.227,18.104 c -0.036,1.963 -0.407,3.792 -1.084,4.977 -1.558,2.674 -4.707,3.587 -8.532,3.587 -4.028,0 -7.11,-0.913 -8.6,-3.552 -0.676,-1.187 -1.015,-3.014 -1.015,-5.012 V 5.95 c 0,-1.797 -0.204,-1.896 -2.811,-2.033 V 2.732 H 95.478 V 3.917 C 92.869,4.053 92.665,4.153 92.665,5.95 v 12.221 c 0,3.421 0.949,7.075 4.945,7.075 4.062,0 4.942,-3.622 4.942,-7.075 V 5.95 c 0,-1.797 -0.203,-1.896 -2.81,-2.033 V 2.732 h 10.293 v 1.185 c -2.607,0.136 -2.81,0.236 -2.81,2.033 v 12.154 h 0.002 z"
   clip-path="url(#SVGID_10_)" />
	</g><g
     id="g55">
		<defs
   id="defs57">
			<rect
   height="73.096001"
   width="260.31201"
   y="-19"
   x="-11.312"
   id="SVGID_11_" />
		</defs>
		<clipPath
   id="SVGID_12_">
			<use
   height="42"
   width="239"
   y="0"
   x="0"
   style="overflow:visible"
   id="use61"
   overflow="visible"
   xlink:href="#SVGID_11_" />
		</clipPath>
		<path
   style="fill:#4d4d50"
   inkscape:connector-curvature="0"
   id="path63"
   d="m 109.595,24.977 c 2.098,-0.101 2.302,-0.236 2.302,-1.762 V 12.991 c 0,-1.287 -0.238,-1.524 -0.881,-1.626 l -1.252,-0.168 v -1.083 l 6.093,-0.947 0.475,2.438 c 2.166,-1.354 3.759,-2.438 5.893,-2.438 3.385,0 5.076,1.997 5.076,5.282 v 8.768 c 0,1.524 0.238,1.661 2.338,1.762 v 1.187 H 120.8 v -1.187 l 0.88,-0.065 c 0.916,-0.067 1.188,-0.308 1.188,-1.56 V 14.99 c 0,-2.369 -1.087,-3.487 -2.982,-3.487 -1.556,0 -2.672,0.881 -3.215,1.93 -0.271,0.508 -0.339,1.152 -0.339,1.964 v 7.957 c 0,1.252 0.271,1.49 1.219,1.56 l 0.846,0.065 v 1.187 h -8.802 v -1.189 z"
   clip-path="url(#SVGID_12_)" />
	</g><g
     id="g65">
		<defs
   id="defs67">
			<rect
   height="73.096001"
   width="260.31201"
   y="-19"
   x="-11.312"
   id="SVGID_13_" />
		</defs>
		<clipPath
   id="SVGID_14_">
			<use
   height="42"
   width="239"
   y="0"
   x="0"
   style="overflow:visible"
   id="use71"
   overflow="visible"
   xlink:href="#SVGID_13_" />
		</clipPath>
		<path
   style="fill:#4d4d50"
   inkscape:connector-curvature="0"
   id="path73"
   d="m 137.189,23.214 c 0,1.522 0.234,1.662 2.334,1.761 v 1.188 h -9.108 v -1.188 c 2.101,-0.099 2.337,-0.236 2.337,-1.761 V 12.991 c 0,-1.286 -0.236,-1.523 -0.879,-1.625 l -1.221,-0.168 v -1.083 l 6.298,-0.948 0.239,0.205 v 13.842 l 0,0 z m -5.046,-18.72 c 0,-1.455 1.051,-2.641 2.709,-2.641 1.693,0 2.742,1.187 2.742,2.641 -0.033,1.457 -1.117,2.642 -2.742,2.642 -1.661,0 -2.709,-1.186 -2.709,-2.642"
   clip-path="url(#SVGID_14_)" />
	</g><g
     id="g75">
		<defs
   id="defs77">
			<rect
   height="73.096001"
   width="260.31201"
   y="-19"
   x="-11.312"
   id="SVGID_15_" />
		</defs>
		<clipPath
   id="SVGID_16_">
			<use
   height="42"
   width="239"
   y="0"
   x="0"
   style="overflow:visible"
   id="use81"
   overflow="visible"
   xlink:href="#SVGID_15_" />
		</clipPath>
		<path
   style="fill:#4d4d50"
   inkscape:connector-curvature="0"
   id="path83"
   d="m 143.62,18.881 c -0.813,-2.269 -1.595,-4.435 -2.474,-6.636 -0.473,-1.149 -0.879,-1.388 -2.301,-1.488 V 9.571 h 8.496 v 1.186 l -1.355,0.168 c -0.644,0.068 -0.709,0.338 -0.506,0.981 0.236,0.643 1.558,4.469 1.795,5.146 l 1.793,5.146 h 0.104 l 1.93,-5.587 c 0.609,-1.726 1.117,-3.352 1.455,-4.638 0.17,-0.609 0.066,-0.981 -0.541,-1.049 l -1.522,-0.168 V 9.571 h 6.804 v 1.186 c -1.454,0.066 -1.824,0.271 -2.369,1.454 -0.542,1.186 -1.521,3.32 -2.472,5.893 l -2.944,8.059 h -3.251 l -2.642,-7.282 z"
   clip-path="url(#SVGID_16_)" />
	</g><g
     id="g85">
		<defs
   id="defs87">
			<rect
   height="73.096001"
   width="260.31201"
   y="-19"
   x="-11.312"
   id="SVGID_17_" />
		</defs>
		<clipPath
   id="SVGID_18_">
			<use
   height="42"
   width="239"
   y="0"
   x="0"
   style="overflow:visible"
   id="use91"
   overflow="visible"
   xlink:href="#SVGID_17_" />
		</clipPath>
		<path
   style="fill:#4d4d50"
   inkscape:connector-curvature="0"
   id="path93"
   d="m 171.25,21.693 c -1.085,2.875 -3.184,4.873 -7.109,4.873 -5.925,0.035 -8.16,-3.756 -8.16,-8.667 0,-2.368 0.607,-4.568 1.963,-6.161 1.354,-1.592 3.388,-2.573 6.162,-2.573 6.908,0 7.381,5.044 7.381,6.941 0,1.116 -0.608,1.387 -1.659,1.387 h -9.106 c 0,3.556 1.016,6.805 4.704,6.805 2.304,0 3.689,-1.284 4.675,-3.25 l 1.149,0.645 z m -5.552,-5.69 c 0.845,0 1.081,-0.237 1.081,-1.117 0,-1.489 -0.34,-4.299 -2.776,-4.299 -2.673,0 -3.249,3.352 -3.249,5.416 h 4.944 z"
   clip-path="url(#SVGID_18_)" />
	</g><g
     id="g95">
		<defs
   id="defs97">
			<rect
   height="73.096001"
   width="260.31201"
   y="-19"
   x="-11.312"
   id="SVGID_19_" />
		</defs>
		<clipPath
   id="SVGID_20_">
			<use
   height="42"
   width="239"
   y="0"
   x="0"
   style="overflow:visible"
   id="use101"
   overflow="visible"
   xlink:href="#SVGID_19_" />
		</clipPath>
		<path
   style="fill:#4d4d50"
   inkscape:connector-curvature="0"
   id="path103"
   d="m 171.893,24.977 c 2.064,-0.101 2.301,-0.236 2.301,-1.762 V 12.991 c 0,-1.287 -0.235,-1.558 -0.912,-1.626 l -1.221,-0.168 v -1.083 l 6.098,-0.947 0.402,2.877 c 2.066,-2.03 3.147,-2.877 4.469,-2.877 1.424,0 2.101,0.914 2.101,2.065 0,0.609 -0.138,1.253 -0.474,1.727 -0.375,0.44 -0.879,0.745 -1.455,0.745 -0.477,0 -0.883,-0.202 -1.252,-0.405 -0.814,-0.475 -1.356,-0.747 -1.896,-0.747 -0.813,0 -1.423,0.813 -1.423,2.878 v 7.786 c 0,1.524 0.272,1.627 3.013,1.761 v 1.188 h -9.75 v -1.188 l -0.001,0 z"
   clip-path="url(#SVGID_20_)" />
	</g><g
     id="g105">
		<defs
   id="defs107">
			<rect
   height="73.096001"
   width="260.31201"
   y="-19"
   x="-11.312"
   id="SVGID_21_" />
		</defs>
		<clipPath
   id="SVGID_22_">
			<use
   height="42"
   width="239"
   y="0"
   x="0"
   style="overflow:visible"
   id="use111"
   overflow="visible"
   xlink:href="#SVGID_21_" />
		</clipPath>
		<path
   style="fill:#4d4d50"
   inkscape:connector-curvature="0"
   id="path113"
   d="m 196.132,14.651 c -0.509,-2.405 -1.929,-4.062 -3.79,-4.062 -1.523,0 -2.473,0.947 -2.507,2.233 0,1.591 1.728,2.336 3.488,2.945 3.247,1.152 5.077,2.539 5.077,5.485 0,3.284 -2.57,5.313 -6.7,5.313 -1.937,0 -4.371,-0.472 -5.589,-1.59 l -0.373,-4.873 h 1.152 c 0.813,2.841 2.502,5.042 4.941,5.042 1.591,0 2.605,-0.881 2.605,-2.336 0,-1.83 -1.795,-2.775 -3.354,-3.318 -2.875,-0.98 -5.143,-2.437 -5.143,-5.112 0,-3.35 2.539,-5.213 6.498,-5.213 1.692,0 3.557,0.34 4.843,1.153 v 4.333 h -1.148 z"
   clip-path="url(#SVGID_22_)" />
	</g><g
     id="g115">
		<defs
   id="defs117">
			<rect
   height="73.096001"
   width="260.31201"
   y="-19"
   x="-11.312"
   id="SVGID_23_" />
		</defs>
		<clipPath
   id="SVGID_24_">
			<use
   height="42"
   width="239"
   y="0"
   x="0"
   style="overflow:visible"
   id="use121"
   overflow="visible"
   xlink:href="#SVGID_23_" />
		</clipPath>
		<path
   style="fill:#4d4d50"
   inkscape:connector-curvature="0"
   id="path123"
   d="m 205.917,23.214 c 0,1.522 0.235,1.662 2.335,1.761 v 1.188 h -9.105 v -1.188 c 2.1,-0.099 2.332,-0.236 2.332,-1.761 V 12.991 c 0,-1.286 -0.232,-1.523 -0.877,-1.625 l -1.22,-0.168 v -1.083 l 6.298,-0.948 0.237,0.205 V 23.214 z M 200.87,4.494 c 0,-1.455 1.05,-2.641 2.71,-2.641 1.693,0 2.742,1.187 2.742,2.641 -0.035,1.457 -1.119,2.642 -2.742,2.642 -1.66,0 -2.71,-1.186 -2.71,-2.642"
   clip-path="url(#SVGID_24_)" />
	</g><g
     id="g125">
		<defs
   id="defs127">
			<rect
   height="73.096001"
   width="260.31201"
   y="-19"
   x="-11.312"
   id="SVGID_25_" />
		</defs>
		<clipPath
   id="SVGID_26_">
			<use
   height="42"
   width="239"
   y="0"
   x="0"
   style="overflow:visible"
   id="use131"
   overflow="visible"
   xlink:href="#SVGID_25_" />
		</clipPath>
		<path
   style="fill:#4d4d50"
   inkscape:connector-curvature="0"
   id="path133"
   d="m 218.104,11.13 h -3.791 v 9.952 c 0,2.302 0.949,3.217 2.166,3.217 0.779,0 1.492,-0.135 2.099,-0.372 l 0.34,0.915 c -1.556,0.98 -3.483,1.725 -5.007,1.725 -1.629,0 -4.03,-0.979 -4.03,-4.197 V 11.13 h -2.136 V 9.571 h 2.268 l 2.676,-4.266 h 1.627 v 4.266 h 3.791 v 1.559 h -0.003 z"
   clip-path="url(#SVGID_26_)" />
	</g><g
     id="g135">
		<defs
   id="defs137">
			<rect
   height="73.096001"
   width="260.31201"
   y="-19"
   x="-11.312"
   id="SVGID_27_" />
		</defs>
		<clipPath
   id="SVGID_28_">
			<use
   height="42"
   width="239"
   y="0"
   x="0"
   style="overflow:visible"
   id="use141"
   overflow="visible"
   xlink:href="#SVGID_27_" />
		</clipPath>
		<path
   style="fill:#4d4d50"
   inkscape:connector-curvature="0"
   id="path143"
   d="m 237.909,10.757 -0.712,0.066 c -0.982,0.103 -1.32,0.644 -1.895,1.999 -1.658,3.962 -4.063,10.122 -6.095,15.642 -1.763,4.909 -3.386,5.892 -5.384,5.892 -1.49,0 -2.609,-0.847 -2.609,-2.031 0,-1.151 1.02,-2.405 1.932,-2.405 0.508,0 0.778,0.138 1.354,0.644 0.476,0.408 0.849,0.576 1.22,0.576 0.643,0 1.051,-0.678 1.387,-1.591 0.238,-0.678 0.34,-1.354 0.308,-1.962 -0.035,-0.373 -0.103,-0.747 -0.238,-1.085 -1.454,-3.858 -3.758,-9.65 -5.622,-14.118 -0.404,-0.948 -0.742,-1.354 -1.316,-1.456 L 219.085,10.76 V 9.571 h 8.839 v 1.186 l -1.319,0.135 c -0.642,0.067 -0.642,0.473 -0.439,1.118 1.117,3.316 2.402,6.67 3.654,10.055 h 0.064 c 1.221,-3.418 2.508,-7.278 3.355,-10.055 0.203,-0.678 0,-1.051 -0.508,-1.084 l -1.524,-0.168 V 9.571 h 6.704 l -0.002,1.186 0,0 z"
   clip-path="url(#SVGID_28_)" />
	</g><path
     inkscape:connector-curvature="0"
     id="path3997"
     style="font-size:14.95932674px;font-style:normal;font-variant:normal;font-weight:900;font-stretch:normal;text-align:start;line-height:125%;letter-spacing:0px;word-spacing:0px;writing-mode:lr-tb;text-anchor:start;fill:#dd462b;fill-opacity:1;stroke:none;font-family:Lato Black;-inkscape-font-specification:'Lato Black, Heavy'"
     d="m 114.35479,34.484332 c 0.0998,0.189613 0.19584,0.386603 0.28807,0.590968 0.0922,0.204374 0.18077,0.413841 0.26569,0.628403 0.0846,-0.219431 0.17431,-0.432627 0.26912,-0.639588 0.0948,-0.206952 0.19196,-0.40767 0.29149,-0.602153 l 2.79757,-5.505204 c 0.0499,-0.09464 0.10104,-0.168142 0.15339,-0.2205 0.0523,-0.05234 0.11093,-0.09099 0.17577,-0.115957 0.0648,-0.02495 0.13839,-0.03986 0.22072,-0.04474 0.0823,-0.0049 0.17826,-0.0073 0.28784,-0.0073 l 1.92972,0 0,10.897647 -2.22874,0 0,-6.268053 c -1e-5,-0.304037 0.0149,-0.633037 0.0447,-0.987001 l -2.88705,5.601987 c -0.0898,0.174697 -0.21077,0.30686 -0.36293,0.396489 -0.15219,0.08963 -0.32551,0.134447 -0.51998,0.134446 l -0.34377,0 c -0.19448,1e-6 -0.36781,-0.04481 -0.51997,-0.134446 -0.15218,-0.08963 -0.27316,-0.221792 -0.36294,-0.396489 l -2.90211,-5.609748 c 0.0201,0.174703 0.0352,0.348029 0.0452,0.519979 0.01,0.171963 0.0151,0.330224 0.0151,0.474783 l 0,6.268053 -2.2292,0 0,-10.897647 1.92972,0 c 0.10987,1.1e-5 0.20589,0.0024 0.28807,0.0073 0.0822,0.0049 0.15567,0.01979 0.2205,0.04474 0.0648,0.02497 0.12341,0.06362 0.17576,0.115957 0.0523,0.05236 0.10347,0.125858 0.15339,0.2205 l 2.80487,5.527574 z" /><path
     inkscape:connector-curvature="0"
     id="path3999"
     style="font-size:14.95932674px;font-style:normal;font-variant:normal;font-weight:900;font-stretch:normal;text-align:start;line-height:125%;letter-spacing:0px;word-spacing:0px;writing-mode:lr-tb;text-anchor:start;fill:#dd462b;fill-opacity:1;stroke:none;font-family:Lato Black;-inkscape-font-specification:'Lato Black, Heavy'"
     d="m 126.29148,31.589979 c 0.58861,8e-6 1.12472,0.09223 1.60833,0.276653 0.48361,0.184442 0.89874,0.448693 1.2454,0.792751 0.34664,0.344072 0.61591,0.761714 0.80781,1.252926 0.19189,0.491223 0.28783,1.043463 0.28784,1.65672 -1e-5,0.618439 -0.0959,1.1757 -0.28784,1.671785 -0.1919,0.496089 -0.46117,0.917383 -0.80781,1.263882 -0.34666,0.346501 -0.76179,0.613262 -1.2454,0.800284 -0.48361,0.187022 -1.01972,0.280533 -1.60833,0.280533 -0.59317,0 -1.13286,-0.09351 -1.61905,-0.280533 -0.4862,-0.187022 -0.90506,-0.453783 -1.25658,-0.800284 -0.35152,-0.346499 -0.62331,-0.767793 -0.81535,-1.263882 -0.19204,-0.496085 -0.28807,-1.053346 -0.28807,-1.671785 0,-0.613257 0.096,-1.165497 0.28807,-1.65672 0.19204,-0.491212 0.46383,-0.908854 0.81535,-1.252926 0.35152,-0.344058 0.77038,-0.608309 1.25658,-0.792751 0.48619,-0.184427 1.02588,-0.276645 1.61905,-0.276653 z m 0,6.275358 c 0.53383,1e-6 0.92659,-0.188238 1.17829,-0.564719 0.25169,-0.376476 0.37754,-0.94865 0.37754,-1.716524 0,-0.767866 -0.12585,-1.338823 -0.37754,-1.712872 -0.2517,-0.374038 -0.64446,-0.56106 -1.17829,-0.561066 -0.54844,6e-6 -0.94979,0.187028 -1.20407,0.561066 -0.25429,0.374049 -0.38143,0.945006 -0.38143,1.712872 0,0.767874 0.12714,1.340048 0.38143,1.716524 0.25428,0.376481 0.65563,0.56472 1.20407,0.564719 z" /><path
     inkscape:connector-curvature="0"
     id="path4001"
     style="font-size:14.95932674px;font-style:normal;font-variant:normal;font-weight:900;font-stretch:normal;text-align:start;line-height:125%;letter-spacing:0px;word-spacing:0px;writing-mode:lr-tb;text-anchor:start;fill:#dd462b;fill-opacity:1;stroke:none;font-family:Lato Black;-inkscape-font-specification:'Lato Black, Heavy'"
     d="m 134.96906,31.589979 c 0.58861,8e-6 1.12471,0.09223 1.60833,0.276653 0.4836,0.184442 0.89873,0.448693 1.24539,0.792751 0.34665,0.344072 0.61592,0.761714 0.80782,1.252926 0.19188,0.491223 0.28783,1.043463 0.28784,1.65672 -1e-5,0.618439 -0.096,1.1757 -0.28784,1.671785 -0.1919,0.496089 -0.46117,0.917383 -0.80782,1.263882 -0.34666,0.346501 -0.76179,0.613262 -1.24539,0.800284 -0.48362,0.187022 -1.01972,0.280533 -1.60833,0.280533 -0.59318,0 -1.13286,-0.09351 -1.61906,-0.280533 -0.48619,-0.187022 -0.90505,-0.453783 -1.25657,-0.800284 -0.35153,-0.346499 -0.62331,-0.767793 -0.81535,-1.263882 -0.19205,-0.496085 -0.28807,-1.053346 -0.28807,-1.671785 0,-0.613257 0.096,-1.165497 0.28807,-1.65672 0.19204,-0.491212 0.46382,-0.908854 0.81535,-1.252926 0.35152,-0.344058 0.77038,-0.608309 1.25657,-0.792751 0.4862,-0.184427 1.02588,-0.276645 1.61906,-0.276653 z m 0,6.275358 c 0.53382,1e-6 0.92658,-0.188238 1.17829,-0.564719 0.25169,-0.376476 0.37753,-0.94865 0.37754,-1.716524 -1e-5,-0.767866 -0.12585,-1.338823 -0.37754,-1.712872 -0.25171,-0.374038 -0.64447,-0.56106 -1.17829,-0.561066 -0.54844,6e-6 -0.9498,0.187028 -1.20408,0.561066 -0.25428,0.374049 -0.38142,0.945006 -0.38142,1.712872 0,0.767874 0.12714,1.340048 0.38142,1.716524 0.25428,0.376481 0.65564,0.56472 1.20408,0.564719 z" /><path
     inkscape:connector-curvature="0"
     id="path4003"
     style="font-size:14.95932674px;font-style:normal;font-variant:normal;font-weight:900;font-stretch:normal;text-align:start;line-height:125%;letter-spacing:0px;word-spacing:0px;writing-mode:lr-tb;text-anchor:start;fill:#dd462b;fill-opacity:1;stroke:none;font-family:Lato Black;-inkscape-font-specification:'Lato Black, Heavy'"
     d="m 145.63662,39.465904 c -0.14488,0 -0.26585,-0.03241 -0.36294,-0.09724 -0.0971,-0.06483 -0.16572,-0.162065 -0.20589,-0.291718 l -0.17941,-0.59074 c -0.15461,0.164349 -0.31668,0.31386 -0.4862,0.448533 -0.16952,0.134675 -0.35274,0.250631 -0.54965,0.34787 -0.19692,0.09724 -0.40882,0.172033 -0.63571,0.224381 -0.22689,0.05235 -0.47243,0.07852 -0.7366,0.07852 -0.40417,0 -0.77829,-0.08978 -1.12236,-0.269348 -0.34406,-0.179565 -0.64073,-0.43887 -0.88999,-0.777914 -0.24926,-0.339043 -0.44495,-0.754098 -0.58708,-1.245165 -0.14214,-0.491064 -0.2132,-1.050836 -0.2132,-1.679318 0,-0.578257 0.0798,-1.115508 0.23945,-1.611752 0.15963,-0.496234 0.3853,-0.925061 0.67702,-1.286481 0.29171,-0.361406 0.64202,-0.644374 1.05091,-0.848903 0.40889,-0.204514 0.86016,-0.306775 1.35382,-0.306783 0.39869,8e-6 0.73644,0.0586 1.01325,0.175761 0.2768,0.117182 0.52736,0.270573 0.75167,0.460175 l 0,-3.927006 2.31867,0 0,11.197125 z m -2.34881,-1.660372 c 0.16952,2e-6 0.32284,-0.0162 0.45995,-0.04862 0.1371,-0.03241 0.26303,-0.07852 0.37777,-0.138327 0.11474,-0.0598 0.22324,-0.134596 0.3255,-0.224381 0.10226,-0.08978 0.20315,-0.194476 0.30268,-0.314087 l 0,-3.29107 c -0.17958,-0.194473 -0.37033,-0.330364 -0.57226,-0.407675 -0.20194,-0.0773 -0.41505,-0.11595 -0.63935,-0.115956 -0.21427,6e-6 -0.41118,0.04239 -0.59074,0.127141 -0.17957,0.08477 -0.3354,0.220659 -0.46748,0.407675 -0.13209,0.187027 -0.23557,0.430125 -0.31044,0.729294 -0.0749,0.299179 -0.11231,0.660593 -0.1123,1.084241 -1e-5,0.409048 0.0299,0.753189 0.0897,1.032425 0.0598,0.279243 0.14335,0.504841 0.25063,0.676795 0.10728,0.171959 0.23572,0.295372 0.38531,0.37024 0.14958,0.07487 0.31659,0.112306 0.50103,0.112304 z" /><path
     inkscape:connector-curvature="0"
     id="path4005"
     style="font-size:14.95932674px;font-style:normal;font-variant:normal;font-weight:900;font-stretch:normal;text-align:start;line-height:125%;letter-spacing:0px;word-spacing:0px;writing-mode:lr-tb;text-anchor:start;fill:#dd462b;fill-opacity:1;stroke:none;font-family:Lato Black;-inkscape-font-specification:'Lato Black, Heavy'"
     d="m 151.26235,28.268779 0,11.197125 -2.31868,0 0,-11.197125 z" /><path
     inkscape:connector-curvature="0"
     id="path4007"
     style="font-size:14.95932674px;font-style:normal;font-variant:normal;font-weight:900;font-stretch:normal;text-align:start;line-height:125%;letter-spacing:0px;word-spacing:0px;writing-mode:lr-tb;text-anchor:start;fill:#dd462b;fill-opacity:1;stroke:none;font-family:Lato Black;-inkscape-font-specification:'Lato Black, Heavy'"
     d="m 156.45575,31.589979 c 0.51343,8e-6 0.98334,0.07975 1.40974,0.239218 0.42638,0.159486 0.79289,0.391323 1.09953,0.695512 0.30663,0.304203 0.546,0.676953 0.71811,1.118252 0.1721,0.44131 0.25816,0.941202 0.25816,1.499676 0,0.174396 -0.008,0.31645 -0.0226,0.426164 -0.0151,0.109721 -0.0425,0.196993 -0.0824,0.261815 -0.0399,0.06483 -0.0934,0.109721 -0.16069,0.134674 -0.0673,0.02496 -0.15325,0.03744 -0.25794,0.03743 l -4.473,0 c 0.0749,0.648265 0.27185,1.118254 0.59097,1.40997 0.3191,0.291719 0.7305,0.437578 1.2342,0.437576 0.26904,2e-6 0.5008,-0.03241 0.69529,-0.09724 0.19447,-0.06482 0.3678,-0.137107 0.51998,-0.216848 0.15216,-0.07974 0.29178,-0.15202 0.41886,-0.216848 0.12705,-0.06482 0.26044,-0.09724 0.40014,-0.09724 0.18443,2e-6 0.32412,0.06726 0.41909,0.201782 l 0.67291,0.830415 c -0.23923,0.274218 -0.49724,0.497306 -0.77403,0.669262 -0.27682,0.171957 -0.56108,0.306555 -0.85279,0.403794 -0.29172,0.09724 -0.58344,0.164576 -0.87515,0.202011 -0.29172,0.03743 -0.56967,0.05615 -0.83384,0.05615 -0.54357,0 -1.05343,-0.08849 -1.52958,-0.265468 -0.47615,-0.176978 -0.8925,-0.440011 -1.24904,-0.789099 -0.35655,-0.349086 -0.6383,-0.782934 -0.84526,-1.301545 -0.20695,-0.518607 -0.31043,-1.121977 -0.31043,-1.810112 0,-0.518604 0.0885,-1.009746 0.26547,-1.473426 0.17697,-0.463668 0.43126,-0.870049 0.76285,-1.219143 0.33158,-0.34908 0.73302,-0.625809 1.2043,-0.830186 0.47128,-0.204362 1.00366,-0.306547 1.59715,-0.306555 z m 0.0447,1.600568 c -0.44375,6e-6 -0.79032,0.12593 -1.03973,0.377772 -0.24942,0.251854 -0.414,0.614561 -0.49373,1.088122 l 2.89481,0 c -10e-6,-0.184431 -0.0238,-0.36392 -0.0712,-0.538469 -0.0475,-0.174538 -0.12479,-0.330364 -0.23192,-0.467479 -0.10713,-0.137103 -0.24797,-0.248037 -0.42251,-0.332804 -0.17455,-0.08476 -0.38645,-0.127136 -0.6357,-0.127142 z" /><path
     inkscape:connector-curvature="0"
     id="path4009"
     style="font-size:14.95932674px;font-style:normal;font-variant:normal;font-weight:900;font-stretch:normal;text-align:start;line-height:125%;letter-spacing:0px;word-spacing:0px;writing-mode:lr-tb;text-anchor:start;fill:#dd462b;fill-opacity:1;stroke:none;font-family:Lato Black;-inkscape-font-specification:'Lato Black, Heavy'"
     d="m 167.99344,28.448192 c 0.53838,1.1e-5 1.01705,0.0761 1.43599,0.228261 0.41893,0.152185 0.77296,0.357924 1.0621,0.617219 0.28912,0.259314 0.50848,0.559706 0.65807,0.901175 0.14958,0.341488 0.22438,0.701836 0.22438,1.081045 0,0.343921 -0.0348,0.646748 -0.10454,0.90848 -0.0697,0.261746 -0.1731,0.488638 -0.31021,0.680675 -0.13711,0.19205 -0.30663,0.355408 -0.50856,0.490076 -0.20194,0.13468 -0.43256,0.246909 -0.69186,0.336686 1.20643,0.418788 1.80965,1.239006 1.80965,2.460655 0,0.578265 -0.1047,1.081809 -0.31408,1.510633 -0.2094,0.428828 -0.48986,0.785372 -0.84137,1.069632 -0.35153,0.284262 -0.75913,0.497458 -1.2228,0.639588 -0.46368,0.142131 -0.94737,0.213196 -1.45106,0.213196 -0.51861,0 -0.97985,-0.05608 -1.38372,-0.168228 -0.40387,-0.112153 -0.76292,-0.286696 -1.07716,-0.523632 -0.31424,-0.236934 -0.58975,-0.539836 -0.82653,-0.908708 -0.23679,-0.368868 -0.44253,-0.807738 -0.61722,-1.31661 l 1.03219,-0.418631 c 0.0898,-0.03987 0.17835,-0.06726 0.2657,-0.08217 0.0874,-0.01491 0.17332,-0.02237 0.25794,-0.02237 0.15978,3e-6 0.3032,0.03112 0.43027,0.09336 0.12706,0.06224 0.22301,0.153166 0.28784,0.272772 0.2243,0.413916 0.46237,0.714384 0.71422,0.901404 0.25185,0.187024 0.54729,0.280534 0.88634,0.280533 0.2593,10e-7 0.48498,-0.0436 0.67703,-0.130794 0.19203,-0.08719 0.35159,-0.199422 0.47866,-0.336685 0.12706,-0.137259 0.223,-0.293085 0.28784,-0.467479 0.0648,-0.174389 0.0972,-0.351367 0.0972,-0.530936 -1e-5,-0.234345 -0.0162,-0.445029 -0.0486,-0.632055 -0.0324,-0.187018 -0.12342,-0.347866 -0.273,-0.482544 -0.1496,-0.13467 -0.37519,-0.238148 -0.6768,-0.310436 -0.30161,-0.07228 -0.72176,-0.108419 -1.26046,-0.108424 l 0,-1.600567 c 0.45378,6e-6 0.82029,-0.03492 1.09954,-0.104772 0.27923,-0.06984 0.49494,-0.165863 0.64712,-0.288066 0.15217,-0.122189 0.25321,-0.270558 0.30313,-0.445109 0.0499,-0.174537 0.0749,-0.366504 0.0749,-0.575903 -1e-5,-0.428819 -0.10349,-0.759112 -0.31044,-0.990882 -0.20696,-0.231752 -0.52242,-0.347633 -0.94637,-0.347642 -0.17439,9e-6 -0.33395,0.02489 -0.47866,0.07464 -0.14472,0.04977 -0.27438,0.117031 -0.38896,0.201783 -0.11459,0.08477 -0.21305,0.18452 -0.29537,0.299251 -0.0823,0.114748 -0.14845,0.239378 -0.19836,0.373892 -0.0797,0.224617 -0.18071,0.386758 -0.3029,0.486424 -0.1222,0.09968 -0.28799,0.149519 -0.49738,0.149511 -0.0499,8e-6 -0.10356,-0.0025 -0.16093,-0.0075 -0.0574,-0.005 -0.11588,-0.01255 -0.17553,-0.0226 L 164.134,31.679458 c 0.0797,-0.543558 0.23305,-1.017276 0.45994,-1.421155 0.22689,-0.40386 0.50864,-0.740393 0.84525,-1.009599 0.33661,-0.269185 0.72184,-0.469903 1.15569,-0.602153 0.43384,-0.132228 0.90003,-0.198348 1.39856,-0.198359 z" /><path
     inkscape:connector-curvature="0"
     id="path4011"
     style="font-size:14.95932674px;font-style:normal;font-variant:normal;font-weight:900;font-stretch:normal;text-align:start;line-height:125%;letter-spacing:0px;word-spacing:0px;writing-mode:lr-tb;text-anchor:start;fill:#dd462b;fill-opacity:1;stroke:none;font-family:Lato Black;-inkscape-font-specification:'Lato Black, Heavy'"
     d="m 172.40756,38.291729 c -1e-5,-0.179565 0.0336,-0.346652 0.10089,-0.501262 0.0673,-0.154607 0.15947,-0.289281 0.27665,-0.404022 0.11717,-0.114738 0.25557,-0.205738 0.41521,-0.273001 0.15963,-0.06726 0.33425,-0.100889 0.52386,-0.100891 0.18443,2e-6 0.35639,0.03363 0.51587,0.100891 0.15947,0.06726 0.29909,0.158263 0.41886,0.273001 0.11975,0.114741 0.21326,0.249415 0.28053,0.404022 0.0673,0.15461 0.10089,0.321697 0.10089,0.501262 0,0.179566 -0.0336,0.34787 -0.10089,0.504913 -0.0673,0.157045 -0.16078,0.29286 -0.28053,0.407447 -0.11977,0.114587 -0.25939,0.204293 -0.41886,0.26912 -0.15948,0.06483 -0.33144,0.09724 -0.51587,0.09724 -0.18961,0 -0.36423,-0.03241 -0.52386,-0.09724 -0.15964,-0.06483 -0.29804,-0.154533 -0.41521,-0.26912 -0.11718,-0.114587 -0.20939,-0.250402 -0.27665,-0.407447 -0.0673,-0.157043 -0.1009,-0.325347 -0.10089,-0.504913 z" /><path
     inkscape:connector-curvature="0"
     id="path4013"
     style="font-size:14.95932674px;font-style:normal;font-variant:normal;font-weight:900;font-stretch:normal;text-align:start;line-height:125%;letter-spacing:0px;word-spacing:0px;writing-mode:lr-tb;text-anchor:start;fill:#dd462b;fill-opacity:1;stroke:none;font-family:Lato Black;-inkscape-font-specification:'Lato Black, Heavy'"
     d="m 183.87129,34.0132 c -10e-6,0.952311 -0.10219,1.77755 -0.30656,2.475722 -0.20437,0.698177 -0.48734,1.276666 -0.8489,1.73547 -0.36157,0.458805 -0.79047,0.80036 -1.28671,1.024664 -0.49624,0.224305 -1.03349,0.336457 -1.61175,0.336457 -0.57857,0 -1.11339,-0.112152 -1.60445,-0.336457 -0.49107,-0.224304 -0.91616,-0.565859 -1.27529,-1.024664 -0.35914,-0.458804 -0.63967,-1.037293 -0.8416,-1.73547 -0.20194,-0.698172 -0.30291,-1.523411 -0.30291,-2.475722 0,-0.952299 0.10097,-1.777538 0.30291,-2.475721 0.20193,-0.698166 0.48246,-1.276579 0.8416,-1.735241 0.35913,-0.458643 0.78422,-0.79898 1.27529,-1.021013 0.49106,-0.222011 1.02588,-0.333022 1.60445,-0.333033 0.57826,1.1e-5 1.11551,0.111022 1.61175,0.333033 0.49624,0.222033 0.92514,0.56237 1.28671,1.021013 0.36156,0.458662 0.64453,1.037075 0.8489,1.735241 0.20437,0.698183 0.30655,1.523422 0.30656,2.475721 z m -2.39355,0 c 0,-0.752951 -0.0473,-1.370017 -0.14198,-1.851198 -0.0947,-0.481167 -0.22058,-0.858863 -0.37777,-1.133089 -0.1572,-0.274209 -0.33547,-0.462448 -0.53481,-0.564718 -0.19936,-0.102252 -0.40129,-0.153382 -0.60581,-0.153391 -0.20453,9e-6 -0.40524,0.05114 -0.60215,0.153391 -0.19692,0.10227 -0.37146,0.290509 -0.52363,0.564718 -0.15218,0.274226 -0.27438,0.651922 -0.36659,1.133089 -0.0922,0.481181 -0.13833,1.098247 -0.13833,1.851198 0,0.757832 0.0461,1.376115 0.13833,1.854851 0.0922,0.478743 0.21441,0.856515 0.36659,1.133317 0.15217,0.276807 0.32671,0.46634 0.52363,0.568599 0.19691,0.102262 0.39762,0.153393 0.60215,0.153391 0.20452,2e-6 0.40645,-0.05113 0.60581,-0.153391 0.19934,-0.102259 0.37761,-0.291792 0.53481,-0.568599 0.15719,-0.276802 0.28312,-0.654574 0.37777,-1.133317 0.0947,-0.478736 0.14198,-1.097019 0.14198,-1.854851 z" /><path
     inkscape:connector-curvature="0"
     id="path4015"
     style="font-size:14.95932674px;font-style:normal;font-variant:normal;font-weight:900;font-stretch:normal;text-align:start;line-height:125%;letter-spacing:0px;word-spacing:0px;writing-mode:lr-tb;text-anchor:start;fill:#dd462b;fill-opacity:1;stroke:none;font-family:Lato Black;-inkscape-font-specification:'Lato Black, Heavy'"
     d="m 187.96172,39.465904 0,-10.897647 4.00918,0 c 0.75296,1.1e-5 1.39368,0.06978 1.92219,0.209316 0.5285,0.139554 0.95983,0.336467 1.29401,0.59074 0.33417,0.254293 0.57727,0.563434 0.7293,0.927425 0.15201,0.36401 0.22802,0.770466 0.22803,1.219372 -1e-5,0.244399 -0.0349,0.480041 -0.10477,0.706925 -0.0699,0.226898 -0.17957,0.440018 -0.32915,0.639359 -0.1496,0.199355 -0.34157,0.380061 -0.57591,0.542121 -0.23435,0.162071 -0.51603,0.302908 -0.84502,0.422511 0.71795,0.174702 1.24896,0.457745 1.59304,0.849132 0.34405,0.391396 0.51609,0.893723 0.5161,1.50698 -1e-5,0.46383 -0.0897,0.895243 -0.26912,1.294242 -0.17943,0.399002 -0.44246,0.746795 -0.7891,1.043382 -0.34666,0.296588 -0.77427,0.528425 -1.28283,0.695511 -0.50857,0.167088 -1.08942,0.250631 -1.74255,0.250631 z m 2.52823,-4.622289 0,2.714939 1.77998,0 c 0.33417,10e-7 0.60724,-0.04238 0.81923,-0.127142 0.21197,-0.08476 0.37776,-0.194476 0.49738,-0.329153 0.1196,-0.134671 0.20185,-0.286769 0.24675,-0.456294 0.0449,-0.169519 0.0673,-0.341475 0.0673,-0.51587 0,-0.199649 -0.0262,-0.379214 -0.0785,-0.538697 -0.0524,-0.159474 -0.14213,-0.294072 -0.26935,-0.403794 -0.12722,-0.109713 -0.29552,-0.194474 -0.50491,-0.254283 -0.2094,-0.0598 -0.47372,-0.0897 -0.79298,-0.08971 z m 0,-1.690503 1.31615,0 c 0.27939,6e-6 0.53131,-0.01993 0.75577,-0.0598 0.22445,-0.03986 0.4152,-0.109711 0.57225,-0.209544 0.15704,-0.09982 0.27665,-0.236928 0.35883,-0.411327 0.0822,-0.174384 0.12325,-0.393819 0.12326,-0.658305 -1e-5,-0.259297 -0.0324,-0.474927 -0.0972,-0.646892 -0.0648,-0.171949 -0.1645,-0.310275 -0.29902,-0.414979 -0.13453,-0.104687 -0.30527,-0.179481 -0.51222,-0.224381 -0.20696,-0.04488 -0.45257,-0.06733 -0.73683,-0.06734 l -1.48095,0 z" /><path
     inkscape:connector-curvature="0"
     id="path4017"
     style="font-size:14.95932674px;font-style:normal;font-variant:normal;font-weight:900;font-stretch:normal;text-align:start;line-height:125%;letter-spacing:0px;word-spacing:0px;writing-mode:lr-tb;text-anchor:start;fill:#dd462b;fill-opacity:1;stroke:none;font-family:Lato Black;-inkscape-font-specification:'Lato Black, Heavy'"
     d="m 201.09999,31.589979 c 0.51343,8e-6 0.98334,0.07975 1.40974,0.239218 0.42638,0.159486 0.7929,0.391323 1.09953,0.695512 0.30663,0.304203 0.546,0.676953 0.71811,1.118252 0.1721,0.44131 0.25816,0.941202 0.25817,1.499676 -1e-5,0.174396 -0.008,0.31645 -0.0226,0.426164 -0.0151,0.109721 -0.0425,0.196993 -0.0824,0.261815 -0.0399,0.06483 -0.0934,0.109721 -0.1607,0.134674 -0.0673,0.02496 -0.15325,0.03744 -0.25794,0.03743 l -4.473,0 c 0.0749,0.648265 0.27185,1.118254 0.59097,1.40997 0.3191,0.291719 0.7305,0.437578 1.2342,0.437576 0.26904,2e-6 0.5008,-0.03241 0.69529,-0.09724 0.19447,-0.06482 0.3678,-0.137107 0.51998,-0.216848 0.15217,-0.07974 0.29179,-0.15202 0.41886,-0.216848 0.12706,-0.06482 0.26044,-0.09724 0.40014,-0.09724 0.18443,2e-6 0.32412,0.06726 0.41909,0.201782 l 0.67291,0.830415 c -0.23922,0.274218 -0.49724,0.497306 -0.77403,0.669262 -0.27681,0.171957 -0.56108,0.306555 -0.85279,0.403794 -0.29172,0.09724 -0.58344,0.164576 -0.87515,0.202011 -0.29172,0.03743 -0.56967,0.05615 -0.83384,0.05615 -0.54357,0 -1.05343,-0.08849 -1.52958,-0.265468 -0.47615,-0.176978 -0.8925,-0.440011 -1.24904,-0.789099 -0.35655,-0.349086 -0.6383,-0.782934 -0.84525,-1.301545 -0.20696,-0.518607 -0.31044,-1.121977 -0.31044,-1.810112 0,-0.518604 0.0885,-1.009746 0.26547,-1.473426 0.17698,-0.463668 0.43126,-0.870049 0.76285,-1.219143 0.33158,-0.34908 0.73302,-0.625809 1.2043,-0.830186 0.47128,-0.204362 1.00366,-0.306547 1.59715,-0.306555 z m 0.0447,1.600568 c -0.44375,6e-6 -0.79032,0.12593 -1.03973,0.377772 -0.24942,0.251854 -0.414,0.614561 -0.49373,1.088122 l 2.89481,0 c -1e-5,-0.184431 -0.0238,-0.36392 -0.0712,-0.538469 -0.0475,-0.174538 -0.12479,-0.330364 -0.23191,-0.467479 -0.10714,-0.137103 -0.24798,-0.248037 -0.42252,-0.332804 -0.17454,-0.08476 -0.38645,-0.127136 -0.6357,-0.127142 z" /><path
     inkscape:connector-curvature="0"
     id="path4019"
     style="font-size:14.95932674px;font-style:normal;font-variant:normal;font-weight:900;font-stretch:normal;text-align:start;line-height:125%;letter-spacing:0px;word-spacing:0px;writing-mode:lr-tb;text-anchor:start;fill:#dd462b;fill-opacity:1;stroke:none;font-family:Lato Black;-inkscape-font-specification:'Lato Black, Heavy'"
     d="m 208.65315,39.585513 c -0.36918,0 -0.6946,-0.05356 -0.97627,-0.160696 -0.28168,-0.10713 -0.51854,-0.259228 -0.71058,-0.456294 -0.19204,-0.197065 -0.3379,-0.435217 -0.43758,-0.714458 -0.0997,-0.279238 -0.14951,-0.590814 -0.14951,-0.934729 l 0,-4.00918 -0.6583,0 c -0.11961,6e-6 -0.2218,-0.03865 -0.30656,-0.115957 -0.0848,-0.0773 -0.12714,-0.190668 -0.12714,-0.340109 l 0,-0.905284 1.23398,-0.239218 0.45652,-1.892285 c 0.0597,-0.239512 0.22918,-0.359273 0.50857,-0.359283 l 1.21161,0 0,2.266634 1.88498,0 0,1.585502 -1.88498,0 0,3.852136 c 0,0.179568 0.0437,0.327937 0.13102,0.445109 0.0873,0.117176 0.21319,0.175763 0.37755,0.175762 0.0849,10e-7 0.15605,-0.0087 0.21342,-0.02625 0.0574,-0.0175 0.1072,-0.03751 0.14951,-0.06003 0.0423,-0.02252 0.0822,-0.04245 0.11961,-0.0598 0.0374,-0.01735 0.0811,-0.02602 0.13102,-0.02602 0.0697,10e-7 0.12577,0.01621 0.16823,0.04862 0.0425,0.03242 0.0861,0.08347 0.13079,0.153164 l 0.70305,1.099762 c -0.29918,0.224305 -0.63571,0.392533 -1.0096,0.504686 -0.3739,0.112152 -0.76034,0.168228 -1.15934,0.168228 z" /><path
     inkscape:connector-curvature="0"
     id="path4021"
     style="font-size:14.95932674px;font-style:normal;font-variant:normal;font-weight:900;font-stretch:normal;text-align:start;line-height:125%;letter-spacing:0px;word-spacing:0px;writing-mode:lr-tb;text-anchor:start;fill:#dd462b;fill-opacity:1;stroke:none;font-family:Lato Black;-inkscape-font-specification:'Lato Black, Heavy'"
     d="m 217.27549,39.465904 c -0.21944,0 -0.38524,-0.0299 -0.49738,-0.08971 -0.11216,-0.05981 -0.20567,-0.184511 -0.28054,-0.374121 l -0.16435,-0.426391 c -0.19448,0.164653 -0.3815,0.309294 -0.56106,0.433924 -0.17957,0.124631 -0.36538,0.23062 -0.55742,0.317968 -0.19204,0.08735 -0.39649,0.152174 -0.61333,0.194478 -0.21685,0.0423 -0.45737,0.06346 -0.72154,0.06346 -0.35426,0 -0.67596,-0.04611 -0.96509,-0.138326 -0.28913,-0.09222 -0.53466,-0.228109 -0.73659,-0.407675 -0.20194,-0.179565 -0.35777,-0.402728 -0.46748,-0.66949 -0.10972,-0.26676 -0.16458,-0.574684 -0.16458,-0.923773 0,-0.274215 0.0698,-0.55589 0.20932,-0.845023 0.13954,-0.289128 0.38134,-0.55216 0.72541,-0.789099 0.34406,-0.236931 0.80781,-0.435138 1.39125,-0.59462 0.58343,-0.159475 1.31904,-0.249257 2.20683,-0.269349 l 0,-0.329152 c 0,-0.453778 -0.0935,-0.781637 -0.28053,-0.983578 -0.18703,-0.201929 -0.45265,-0.302896 -0.79686,-0.302903 -0.27422,7e-6 -0.4986,0.02991 -0.67314,0.08971 -0.17455,0.05981 -0.33038,0.127148 -0.46748,0.202011 -0.13711,0.07488 -0.27049,0.142213 -0.40014,0.202011 -0.12966,0.05981 -0.28427,0.08971 -0.46383,0.08971 -0.15948,6e-6 -0.2953,-0.03865 -0.40745,-0.115957 -0.11215,-0.0773 -0.20064,-0.17332 -0.26547,-0.288065 l -0.41908,-0.725414 c 0.46869,-0.413907 0.98852,-0.721831 1.55948,-0.923773 0.57095,-0.201928 1.18315,-0.302895 1.83659,-0.302903 0.46869,8e-6 0.89128,0.07609 1.26776,0.228261 0.37647,0.152182 0.69558,0.364084 0.95733,0.635708 0.26173,0.271637 0.46245,0.594474 0.60215,0.968512 0.13969,0.37405 0.20954,0.782941 0.20954,1.226676 l 0,4.846898 z m -2.6629,-1.41385 c 0.29917,2e-6 0.56099,-0.05235 0.78545,-0.157043 0.22445,-0.104695 0.45142,-0.274216 0.6809,-0.508566 l 0,-1.076937 c -0.46383,0.01979 -0.84533,0.05966 -1.1445,0.119609 -0.29918,0.05996 -0.53604,0.134829 -0.71058,0.224609 -0.17454,0.08979 -0.29545,0.19197 -0.3627,0.306555 -0.0673,0.114589 -0.1009,0.239296 -0.1009,0.37412 0,0.264176 0.0723,0.449828 0.21685,0.556957 0.14456,0.107132 0.35639,0.160698 0.63548,0.160696 z" /></svg>