<?xml version="1.0" encoding="utf-8"?>
<!-- Generator: Adobe Illustrator 18.1.1, SVG Export Plug-In . SVG Version: 6.00 Build 0)  -->
<!DOCTYPE svg PUBLIC "-//W3C//DTD SVG 1.1//EN" "http://www.w3.org/Graphics/SVG/1.1/DTD/svg11.dtd">
<svg version="1.1" id="Layer_1" xmlns="http://www.w3.org/2000/svg" xmlns:xlink="http://www.w3.org/1999/xlink" x="0px" y="0px"
	 viewBox="0 0 130 129.7" enable-background="new 0 0 130 129.7" xml:space="preserve">
<g>
	<path d="M65.2,114.2c-17.5,0-35-0.1-52.5,0c-4.6,0-8.3-1.1-10.2-5.5c-1.8-4.1-0.8-7.9,2.4-10.9c7.8-7.7,10.8-16.6,10.1-27.7
		C14,55,14.7,39.8,14.8,24.6c0-7.9,3.4-11.3,11.2-11.3c26,0,52,0,77.9,0c7.7,0,11.3,3.5,11.3,11.3c0.1,18.5-0.1,37,0.2,55.5
		c0,3,1.5,6.3,3,9c2,3.4,4.7,6.4,7.3,9.5c2.6,3.1,3.4,6.5,1.7,10.2c-1.8,3.9-5,5.5-9.3,5.5C100.5,114.2,82.8,114.2,65.2,114.2z
		 M65.7,22.5C65.7,22.5,65.7,22.4,65.7,22.5c-11.7,0-23.3,0.1-34.9-0.1c-4.8-0.1-6.4,1.6-6.3,6.4c0.3,14.8,0.2,29.6,0,44.4
		c-0.1,4.7,1.4,6.5,6.3,6.4c23.1-0.2,46.3-0.2,69.4,0c4.6,0,6.1-1.6,6.1-6.1c-0.2-15-0.2-30,0-44.9c0.1-4.5-1.4-6.3-6-6.2
		C88.6,22.6,77.2,22.5,65.7,22.5z M85.8,106.9c-0.2-0.4-0.4-0.8-0.6-1.2c-13.5,0-27,0-40.6,0c-0.2,0.5-0.3,1-0.5,1.5
		c1.8,0.8,3.5,2.1,5.3,2.2c10.3,0.2,20.6,0.2,30.9,0C82.2,109.4,84,107.8,85.8,106.9z"/>
</g>
</svg>
