<?xml version="1.0" standalone="no"?>
<!DOCTYPE svg PUBLIC "-//W3C//DTD SVG 20010904//EN"
 "http://www.w3.org/TR/2001/REC-SVG-20010904/DTD/svg10.dtd">
<svg version="1.0" xmlns="http://www.w3.org/2000/svg"
 width="640.000000pt" height="640.000000pt" viewBox="0 0 640.000000 640.000000"
 preserveAspectRatio="xMidYMid meet">
<metadata>
Created by potrace 1.11, written by Peter Selinger 2001-2013
</metadata>
<g transform="translate(0.000000,640.000000) scale(0.100000,-0.100000)"
fill="#000000" stroke="none">
<path d="M2909 5895 c-4 -3 -21 -7 -39 -10 -17 -2 -57 -19 -87 -37 -114 -69
-209 -247 -215 -401 -1 -21 -5 -40 -10 -43 -4 -3 -6 -8 -4 -12 2 -4 7 -49 10
-101 4 -52 9 -97 11 -101 2 -4 7 -22 10 -41 3 -19 13 -59 23 -89 9 -30 17 -58
18 -62 1 -5 3 -10 4 -13 1 -3 3 -8 5 -12 1 -5 7 -21 13 -36 7 -16 12 -30 12
-32 0 -14 95 -203 120 -240 16 -24 30 -48 30 -54 0 -6 3 -11 8 -11 4 0 20 -19
36 -43 16 -23 50 -60 74 -82 48 -43 48 -42 28 30 -63 225 -50 396 43 585 33
66 86 164 134 245 71 119 99 184 101 232 4 107 -37 202 -112 262 -22 17 -42
31 -45 31 -3 0 -18 5 -34 12 -47 19 -125 33 -134 23z"/>
<path d="M3623 5855 c-83 -35 -94 -159 -18 -215 11 -8 23 -15 28 -16 4 -1 8
-2 10 -3 1 -1 22 -4 47 -6 69 -5 171 -43 206 -76 17 -16 33 -27 36 -24 5 5 1
93 -5 125 -2 8 -12 35 -24 60 -54 118 -190 193 -280 155z"/>
<path d="M2035 5597 c-93 -50 -136 -124 -137 -233 -1 -58 22 -122 59 -164 12
-14 35 -41 52 -60 62 -70 181 -258 196 -310 1 -3 5 -12 8 -20 14 -33 36 -107
42 -142 4 -21 11 -35 16 -32 19 12 100 187 123 268 36 122 41 158 39 291 -1
133 -5 163 -35 245 -26 70 -59 114 -110 146 -46 30 -62 34 -140 38 -47 2 -66
-2 -113 -27z"/>
<path d="M4204 5514 c-54 -16 -93 -37 -127 -69 -35 -33 -76 -95 -82 -123 -3
-12 -8 -32 -11 -44 -7 -28 -6 -93 1 -128 9 -44 15 -70 19 -87 2 -10 20 -63 39
-118 19 -55 35 -104 37 -110 1 -5 4 -14 6 -20 22 -73 27 -277 9 -375 -3 -19
-7 -44 -9 -55 -2 -11 -6 -31 -10 -45 -7 -24 -6 -24 20 5 14 17 39 44 53 60
164 183 378 532 412 670 6 28 15 55 19 60 14 19 3 159 -15 205 -26 64 -110
143 -176 166 -65 21 -129 24 -185 8z"/>
<path d="M3570 5493 c-114 -41 -189 -100 -270 -212 -25 -34 -28 -42 -14 -37
68 27 332 27 374 1 16 -10 51 -16 99 -17 39 -1 48 3 78 35 18 20 33 45 34 54
0 10 2 25 4 34 1 9 -7 34 -19 55 -31 55 -99 87 -196 90 -41 1 -82 0 -90 -3z"/>
<path d="M3468 5165 c-1 -1 -21 -5 -43 -8 -129 -18 -260 -113 -318 -230 -33
-67 -54 -158 -51 -212 5 -71 34 -195 54 -230 32 -57 96 -149 147 -209 33 -40
116 -173 139 -225 74 -161 69 -385 -15 -625 -12 -32 -26 -65 -31 -72 -8 -8 -8
-14 0 -19 5 -3 10 -2 10 3 0 4 8 17 18 28 49 55 181 228 211 277 13 21 29 43
36 50 7 7 22 31 34 53 12 21 31 55 43 74 35 58 124 241 143 295 10 28 23 56
28 63 5 6 6 12 2 12 -4 0 -2 7 5 15 7 8 10 15 7 15 -4 0 1 19 9 42 8 23 16 53
19 67 8 44 14 75 22 106 12 53 18 255 9 301 -2 12 -7 38 -10 57 -28 176 -178
332 -347 362 -45 8 -116 14 -121 10z"/>
<path d="M1665 5148 c-128 -27 -176 -189 -90 -305 24 -34 109 -113 120 -113
15 0 166 -119 216 -170 68 -70 182 -228 214 -297 8 -17 18 -34 22 -36 16 -10
-1 256 -21 320 -3 10 -8 32 -10 48 -3 17 -15 57 -26 90 -11 33 -22 65 -23 70
-8 29 -65 137 -100 190 -117 176 -191 226 -302 203z"/>
<path d="M4770 5002 c-59 -20 -141 -119 -222 -268 l-55 -102 63 28 c34 16 90
36 123 44 34 9 89 23 124 32 81 21 105 37 127 86 27 60 10 122 -42 161 -27 20
-87 30 -118 19z"/>
<path d="M2516 4648 c-9 -5 -16 -6 -16 -3 0 16 -83 -43 -104 -74 -31 -45 -73
-139 -86 -194 -6 -23 -13 -51 -16 -62 -3 -11 -7 -72 -9 -135 -3 -102 1 -159
21 -265 3 -16 6 -35 6 -42 2 -23 15 -4 21 29 11 72 98 218 161 273 147 126
206 189 220 233 28 89 -5 181 -80 220 -36 19 -100 30 -118 20z"/>
<path d="M4793 4609 c-13 -4 -23 -6 -23 -2 0 3 -6 0 -13 -6 -8 -6 -22 -12 -33
-14 -10 -2 -32 -9 -49 -16 -16 -7 -32 -13 -35 -13 -3 -1 -22 -12 -42 -24 -21
-13 -40 -24 -43 -24 -9 0 -180 -116 -217 -147 -63 -53 -234 -228 -282 -288
-26 -33 -52 -67 -59 -75 -24 -30 -155 -236 -186 -292 -32 -58 -34 -69 -9 -45
13 13 184 107 193 107 3 -1 20 6 38 14 83 37 127 54 127 49 0 -3 7 0 15 7 8 7
15 9 15 5 0 -4 7 -2 15 5 8 7 15 10 15 7 0 -3 16 1 35 9 19 8 38 14 42 14 5 0
24 3 43 6 19 4 43 8 54 10 17 3 79 11 156 19 59 6 186 27 240 40 14 3 30 7 35
8 6 2 15 5 20 9 6 3 24 9 42 13 18 3 55 17 83 31 27 13 53 24 58 24 16 0 81
69 107 114 15 25 29 60 33 78 10 51 5 169 -7 181 -6 6 -11 17 -11 24 0 39
-118 150 -168 159 -8 1 -21 6 -30 10 -25 11 -134 13 -159 3z"/>
<path d="M1448 4545 c-20 -7 -38 -12 -40 -10 -2 2 -28 -13 -58 -33 -100 -68
-160 -173 -164 -290 -8 -201 121 -344 329 -366 239 -25 357 -80 600 -277 39
-31 103 -88 143 -127 51 -48 72 -63 69 -48 -3 11 -8 32 -11 45 -45 196 -193
556 -291 712 -14 21 -25 43 -25 49 0 5 -4 10 -9 10 -5 0 -13 9 -16 20 -3 11
-12 26 -18 32 -7 7 -39 49 -72 92 -33 43 -64 84 -70 90 -25 28 -94 74 -135 91
-56 22 -182 28 -232 10z"/>
<path d="M2788 4184 c-106 -24 -183 -78 -249 -174 -13 -19 -24 -37 -25 -40 0
-3 -6 -18 -13 -35 -39 -95 -54 -270 -37 -428 8 -71 9 -80 26 -162 20 -97 23
-108 32 -135 3 -8 16 -44 28 -80 12 -36 31 -85 42 -110 12 -25 21 -51 21 -57
0 -7 4 -13 9 -13 4 0 8 -5 8 -10 0 -11 89 -172 113 -204 136 -187 258 -321
389 -429 63 -53 63 -54 23 53 -76 208 -109 541 -71 725 18 87 59 197 84 228 8
9 12 17 8 17 -3 0 4 21 18 48 24 48 81 201 92 250 4 15 8 71 9 125 3 103 -7
145 -52 232 -23 44 -107 132 -135 141 -10 3 -18 9 -18 13 0 5 -53 30 -80 36
-86 21 -155 24 -222 9z"/>
<path d="M5017 3884 c-1 -1 -18 -5 -38 -8 -19 -3 -46 -9 -59 -14 -22 -8 -21
-9 19 -30 22 -12 41 -19 41 -16 0 3 12 -3 28 -14 82 -59 180 -72 200 -27 21
45 -9 87 -71 101 -24 6 -116 12 -120 8z"/>
<path d="M4568 3756 c-1 -2 -32 -6 -68 -10 -71 -7 -108 -13 -189 -30 -13 -3
-65 -17 -114 -32 -421 -124 -730 -397 -902 -798 -14 -32 -25 -60 -25 -63 0 -2
26 15 58 39 60 46 141 96 156 96 5 0 12 4 15 9 12 17 168 75 236 88 62 11 132
18 185 19 61 0 158 -11 172 -20 5 -3 19 -7 31 -9 12 -1 42 -7 67 -13 48 -12
93 -21 125 -26 11 -2 36 -7 55 -11 67 -13 106 -16 242 -20 106 -3 150 0 190
12 29 8 58 16 63 17 6 1 31 13 56 28 103 61 172 162 186 274 8 66 8 71 0 131
-15 101 -115 240 -199 276 -18 8 -46 20 -63 27 -26 12 -266 25 -277 16z"/>
<path d="M1515 3679 c-74 -15 -80 -17 -120 -40 -129 -73 -192 -212 -162 -359
7 -36 47 -109 77 -144 33 -37 110 -83 159 -94 39 -8 157 -6 231 4 123 16 266
9 367 -20 50 -14 104 -31 120 -37 15 -6 30 -11 33 -11 3 0 14 -5 25 -11 11 -6
22 -11 25 -12 12 -1 150 -72 197 -102 l53 -33 -46 87 c-158 299 -395 544 -664
687 -75 40 -169 76 -198 76 -13 0 -31 4 -40 8 -9 5 -35 5 -57 1z"/>
<path d="M3740 2883 c-41 -7 -95 -20 -120 -29 -25 -10 -47 -16 -49 -15 -2 2
-7 -1 -10 -6 -3 -4 -24 -17 -46 -28 -38 -19 -100 -75 -137 -123 -26 -33 -59
-139 -62 -196 -1 -28 3 -70 10 -93 7 -24 10 -43 7 -43 -3 0 1 -7 8 -17 8 -9
13 -18 11 -20 -7 -9 33 -67 77 -111 83 -83 182 -119 304 -109 211 18 339 76
487 220 91 88 251 207 278 207 6 0 12 5 12 10 0 6 6 10 13 11 6 0 39 13 72 28
l59 27 -94 66 c-52 36 -120 78 -150 94 -30 16 -58 33 -62 39 -4 5 -8 6 -8 1 0
-5 -6 -4 -12 2 -15 12 -184 73 -213 76 -11 2 -36 7 -55 11 -57 13 -240 12
-320 -2z"/>
<path d="M4737 2839 c-12 -3 -64 -5 -114 -4 -85 2 -90 1 -66 -12 15 -8 31 -20
35 -26 4 -7 8 -8 8 -3 0 5 6 3 13 -3 24 -19 151 -63 200 -68 63 -7 97 14 97
61 0 50 -26 68 -94 64 -31 -2 -66 -6 -79 -9z"/>
<path d="M2190 2791 c173 -115 350 -308 443 -486 72 -136 124 -302 143 -455
10 -81 12 -334 3 -400 -4 -36 -11 -86 -14 -111 -3 -25 -8 -56 -10 -70 -3 -13
-8 -39 -11 -58 -3 -19 -10 -45 -15 -59 -5 -14 -12 -41 -15 -60 -3 -19 -10 -47
-16 -61 -5 -14 -11 -33 -13 -41 -7 -31 -73 -208 -108 -287 l-36 -82 52 -17
c29 -9 57 -19 62 -23 6 -3 15 -6 20 -7 6 -2 46 -11 90 -23 189 -47 374 -57
521 -27 12 2 39 7 60 10 51 8 154 35 179 48 12 5 27 11 35 12 8 2 29 9 47 15
l31 12 -53 70 c-29 39 -59 82 -66 97 -8 15 -26 45 -40 67 -34 51 -126 243
-135 281 -4 16 -10 34 -14 39 -9 13 -48 168 -55 220 -20 143 -3 269 51 375 26
52 122 142 181 170 29 14 52 29 53 34 0 5 -2 7 -5 4 -5 -4 -60 5 -148 27 -114
27 -301 123 -406 209 -30 24 -117 112 -251 252 -105 110 -220 202 -321 256
-58 31 -119 56 -141 59 -4 0 -22 5 -40 10 -18 6 -44 12 -58 13 l-25 4 25 -17z"/>
</g>
</svg>
