<?xml version="1.0" encoding="utf-8"?>
<!-- Generator: Adobe Illustrator 19.1.1, SVG Export Plug-In . SVG Version: 6.00 Build 0)  -->
<svg version="1.1" id="Layer_1" xmlns="http://www.w3.org/2000/svg" xmlns:xlink="http://www.w3.org/1999/xlink" x="0px" y="0px"
	 viewBox="-14 15 35 35" style="enable-background:new -14 15 35 35;" xml:space="preserve">
<style type="text/css">
	.st0{fill:#4E4E50;}
</style>
<path d="M20.9,23.2v2.4h-2.3c0,0.7-0.6,1.2-1.3,1.2h-27.6c-0.7,0-1.2-0.5-1.2-1.2h-2.3v-2.4L3.5,16L20.9,23.2z"/>
<path d="M20.9,47.4v2.4h-34.8v-2.4c0-0.7,0.6-1.2,1.2-1.2h32.3C20.3,46.2,20.9,46.7,20.9,47.4z"/>
<path class="st0" d="M-4.6,28.1v14.5h2.3V28.1h4.6v14.5h2.3V28.1h4.6v14.5h2.3V28.1h4.6v14.5h1.1c0.7,0,1.3,0.5,1.3,1.2V45h-30.1
	v-1.2c0-0.7,0.6-1.2,1.2-1.2h1.1V28.1H-4.6z"/>
</svg>
