<?xml version="1.0" encoding="utf-8"?>
<!-- Generator: Adobe Illustrator 19.1.1, SVG Export Plug-In . SVG Version: 6.00 Build 0)  -->
<svg version="1.1" id="Layer_1" xmlns="http://www.w3.org/2000/svg" xmlns:xlink="http://www.w3.org/1999/xlink" x="0px" y="0px"
	 viewBox="0 0 64 64" style="enable-background:new 0 0 64 64;" xml:space="preserve">
<style type="text/css">
	.st0{fill:#48CFAE;}
	.st1{fill:#FFFFFF;}
</style>
<circle class="st0" cx="32" cy="32" r="31"/>
<g>
	<g>
		<path class="st1" d="M34.7,49c-0.2-0.8-0.9-1.3-1.7-1.3c-0.8,0.1-1.8,0.1-2.2,0.1l0,0.4l-0.3,6c0,0.8,0.4,1.5,1,1.5
			c0,0,0.7,0,1.5,0c0.5,0,1-0.1,1.4-0.1c0.8-0.1,1.3-0.9,1.2-1.7L34.7,49z M41.2,46.3c-0.5-0.7-1.4-0.8-2.1-0.4
			c-0.4,0.2-0.8,0.4-1.1,0.6c-0.7,0.3-1.2,1.2-0.9,1.9l1.6,4.7c0.3,0.8,1.1,1.2,1.9,0.9c1.1-0.4,2.1-0.9,3-1.5
			c0.7-0.4,0.9-1.3,0.4-2L41.2,46.3z M49.8,44.5l-4.1-2.8c-0.7-0.5-1.6-0.3-2.1,0.3c-0.1,0.2-0.3,0.4-0.5,0.5
			c-0.5,0.6-0.6,1.5,0,2.1l3.3,3.6C47,49,48,49,48.5,48.4c0.6-0.6,1.1-1.2,1.6-1.9C50.7,45.9,50.5,45,49.8,44.5 M55.4,28.5h-0.4
			c-0.3-1.9-0.8-3.8-1.5-5.6l0,0c-0.4-1.1-0.9-2.1-1.5-3c-1.1-1.8-2.4-3.5-3.9-4.9l0,0c-0.6-0.6-1.2-1.1-1.9-1.7
			c-4-3.1-9.1-5-14.5-5c0,0-0.7,0-1.5,0c-0.5,0-1,0.1-1.4,0.1c-0.8,0.1-1.3,0.9-1.2,1.7l0.9,4.8c0.2,0.8,0.9,1.3,1.7,1.3
			c0.6-0.1,1.3-0.1,1.5-0.1c0.2,0,0.5,0,0.7,0c1.3,0.1,2.5,0.3,3.7,0.6c0.4,0.1,0.8,0.3,1.2,0.4c1.6,0.6,3.2,1.5,4.5,2.6
			c0.2,0.1,0.4,0.3,0.5,0.5c1.3,1.2,2.4,2.5,3.2,4.1c0.2,0.4,0.4,0.8,0.6,1.1c0.4,1,0.8,2,1,3h-0.8c-0.9,0-1.1,0.5-0.5,1.1l4,3.9
			c0.6,0.6,1.6,0.6,2.2,0l4-3.9C56.4,29,56.2,28.5,55.4,28.5 M27.1,47.2c-0.4-0.1-0.8-0.3-1.2-0.4c-0.8-0.3-1.6,0-2,0.7l-2.2,4.4
			c-0.4,0.7-0.1,1.6,0.7,1.9c1,0.4,2.1,0.8,3.2,1.1c0.8,0.2,1.6-0.3,1.7-1.1l0.9-4.8C28.4,48.2,27.9,47.4,27.1,47.2 M21.4,44.1
			c-0.2-0.1-0.4-0.3-0.5-0.5c-0.6-0.5-1.5-0.6-2.1,0L15.1,47c-0.6,0.6-0.6,1.5-0.1,2.1c0.6,0.6,1.2,1.1,1.9,1.6
			c0.6,0.5,1.6,0.3,2-0.3l2.8-4.1C22.2,45.6,22.1,44.7,21.4,44.1 M21.8,17.7c0.5,0.7,1.4,0.8,2.1,0.4c0.4-0.2,0.8-0.4,1.1-0.6
			c0.7-0.3,1.2-1.2,0.9-1.9L24.3,11c-0.3-0.8-1.1-1.2-1.9-0.9c-1.1,0.4-2.1,0.9-3,1.5c-0.7,0.4-0.9,1.3-0.4,2L21.8,17.7z M13.2,19.5
			l4.1,2.8c0.7,0.5,1.6,0.3,2.1-0.3c0.1-0.2,0.3-0.4,0.5-0.5c0.5-0.6,0.6-1.5,0-2.1l-3.3-3.6C16,15,15.1,15,14.5,15.6
			c-0.6,0.6-1.1,1.2-1.6,1.9C12.3,18.1,12.5,19,13.2,19.5 M17.7,39.6c-0.2-0.4-0.4-0.8-0.6-1.1c-0.3-0.7-1.2-1.2-1.9-0.9l-4.7,1.6
			c-0.8,0.3-1.2,1.1-0.9,1.9c0.4,1.1,0.9,2.1,1.5,3c0.4,0.7,1.3,0.9,2,0.4l4.1-2.8C17.9,41.2,18.1,40.3,17.7,39.6 M14.5,35.2
			c0.8-0.2,1.3-0.9,1.3-1.7c-0.1-0.8-0.1-1.8,0-2.2l-0.4,0l-7-0.3l-0.5,0c0,0.6,0,1.7,0,2.6c0,0.5,0.1,1,0.1,1.4
			c0.1,0.8,0.9,1.3,1.7,1.2L14.5,35.2z M9.7,27.9l4.8,0.9c0.8,0.2,1.6-0.4,1.8-1.2c0.1-0.4,0.3-0.8,0.4-1.2c0.3-0.8,0-1.6-0.7-2
			l-4.4-2.2c-0.7-0.4-1.6-0.1-1.9,0.7c-0.4,1-0.8,2.1-1.1,3.2C8.4,26.9,8.9,27.7,9.7,27.9"/>
	</g>
</g>
</svg>
