<?xml version="1.0" encoding="utf-8"?>
<!-- Generator: Adobe Illustrator 19.1.1, SVG Export Plug-In . SVG Version: 6.00 Build 0)  -->
<svg version="1.1" id="Layer_1" xmlns="http://www.w3.org/2000/svg" xmlns:xlink="http://www.w3.org/1999/xlink" x="0px" y="0px"
	 viewBox="-14 15 35 35" style="enable-background:new -14 15 35 35;" xml:space="preserve">
<style type="text/css">
	.st0{fill:#6C6467;}
	.st1{stroke:#FFFFFF;stroke-width:1.5;stroke-miterlimit:10;}
</style>
<path class="st0" d="M9,46.1H-8.6c-3.2,0-5.4-1.7-5.4-4.6c0-4,1.1-10.2,7-10.2c0.6,0,3.3,2.5,7.2,2.5s6.6-2.5,7.2-2.5
	c5.9,0,7,6.2,7,10.2C14.3,44.4,12.2,46.1,9,46.1z"/>
<ellipse class="st0" cx="0.2" cy="25.6" rx="7.7" ry="6.8"/>
<g>
	<path class="st1" d="M15.6,50H-2c-3.2,0-5.4-1.7-5.4-4.6c0-4,1.1-10.2,7-10.2c0.6,0,3.3,2.5,7.2,2.5s6.6-2.5,7.2-2.5
		c5.9,0,7,6.2,7,10.2C21,48.2,18.8,50,15.6,50z M6.8,36.3c-4.3,0-7.7-3.1-7.7-6.8s3.5-6.8,7.7-6.8c4.3,0,7.7,3.1,7.7,6.8
		S11.1,36.3,6.8,36.3z"/>
</g>
</svg>
