<?xml version="1.0" encoding="utf-8"?>
<!-- Generator: Adobe Illustrator 19.1.1, SVG Export Plug-In . SVG Version: 6.00 Build 0)  -->
<svg version="1.1" id="Layer_1" xmlns="http://www.w3.org/2000/svg" xmlns:xlink="http://www.w3.org/1999/xlink" x="0px" y="0px"
	 viewBox="-14 15 35 35" style="enable-background:new -14 15 35 35;" xml:space="preserve">
<style type="text/css">
	.st0{fill:#FFFFFF;}
</style>
<path d="M21,40.7c0,2.3-2.1,4.3-4.7,4.3H-9.2c-2.6,0-4.7-1.9-4.7-4.3V22.4c0-2.3,2.1-4.3,4.7-4.3h6.7c2.6,0,4.7,1.9,4.7,4.3V23h14.1
	c2.6,0,4.7,1.9,4.7,4.3V40.7z"/>
<g>
	<path class="st0" d="M-1.5,35.2c-0.1-1.7-0.2-3.8-0.2-5.4h-0.1c-0.4,1.5-0.9,3-1.4,4.7l-2,6h-1.1l-1.8-5.9c-0.5-1.8-1-3.4-1.3-4.8
		h0c0,1.5-0.1,3.6-0.2,5.5l-0.3,5.3h-1.4l0.8-12.4h1.9l1.9,6c0.5,1.5,0.9,2.9,1.2,4.2h0.1c0.3-1.3,0.7-2.6,1.2-4.2l2-6h1.9l0.7,12.4
		h-1.4L-1.5,35.2z"/>
	<path class="st0" d="M4.4,29.2c0,0.6-0.4,1-0.9,1c-0.5,0-0.9-0.4-0.9-1c0-0.6,0.4-1,0.9-1C4,28.2,4.4,28.6,4.4,29.2z M2.7,40.6
		v-8.9h1.5v8.9H2.7z"/>
	<path class="st0" d="M6.5,39c0.4,0.3,1.2,0.6,2,0.6c1.1,0,1.6-0.6,1.6-1.3c0-0.8-0.4-1.2-1.5-1.6c-1.5-0.6-2.2-1.5-2.2-2.5
		c0-1.4,1.1-2.6,2.8-2.6c0.8,0,1.6,0.3,2,0.6l-0.4,1.2c-0.3-0.2-0.9-0.5-1.7-0.5c-0.9,0-1.4,0.6-1.4,1.2c0,0.7,0.5,1.1,1.6,1.5
		c1.4,0.6,2.2,1.4,2.2,2.7c0,1.6-1.1,2.7-3.1,2.7c-0.9,0-1.7-0.2-2.3-0.6L6.5,39z"/>
	<path class="st0" d="M19.2,40.3c-0.4,0.2-1.3,0.5-2.4,0.5c-2.5,0-4.1-1.8-4.1-4.6c0-2.7,1.7-4.7,4.4-4.7c0.9,0,1.7,0.2,2.1,0.5
		l-0.3,1.3c-0.4-0.2-0.9-0.4-1.7-0.4c-1.9,0-2.9,1.5-2.9,3.4c0,2.1,1.2,3.3,2.8,3.3c0.8,0,1.4-0.2,1.8-0.4L19.2,40.3z"/>
</g>
</svg>
