<?xml version="1.0" encoding="utf-8"?>
<!-- Generator: Adobe Illustrator 19.1.1, SVG Export Plug-In . SVG Version: 6.00 Build 0)  -->
<svg version="1.1" id="Layer_1" xmlns="http://www.w3.org/2000/svg" xmlns:xlink="http://www.w3.org/1999/xlink" x="0px" y="0px"
	 viewBox="-14 15 35 35" style="enable-background:new -14 15 35 35;" xml:space="preserve">
<g>
	<path d="M21.1,32.6h-35v-6.7c0-1.5,1.4-2.8,3.1-2.8h6.9v-2.8c0-0.9,0.8-1.7,1.9-1.7H9.3c1,0,1.9,0.8,1.9,1.7v2.8H18
		c1.7,0,3.1,1.3,3.1,2.8V32.6z M21.1,42.7c0,1.5-1.4,2.8-3.1,2.8h-28.8c-1.7,0-3.1-1.3-3.1-2.8v-8.4h13.1v2.8c0,0.6,0.6,1.1,1.3,1.1
		h6.3c0.7,0,1.3-0.5,1.3-1.1v-2.8h13.1V42.7z M8.6,23.1v-2.2h-10v2.2H8.6z M6.1,36.5h-5v-2.2h5V36.5z"/>
</g>
</svg>
