<?xml version="1.0" encoding="utf-8"?>
<!-- Generator: Adobe Illustrator 19.1.1, SVG Export Plug-In . SVG Version: 6.00 Build 0)  -->
<svg version="1.1" id="Layer_1" xmlns="http://www.w3.org/2000/svg" xmlns:xlink="http://www.w3.org/1999/xlink" x="0px" y="0px"
	 viewBox="-14 15 35 35" style="enable-background:new -14 15 35 35;" xml:space="preserve">
<g>
	<path d="M20.6,25.8L3.8,32.6c-0.1,0-0.1,0-0.1,0s-0.1,0-0.1,0l-9.8-4c-0.9,0.9-1.5,3-1.6,5.6c0.6,0.4,0.9,1.2,0.9,2.1
		c0,0.9-0.3,1.6-0.9,2.1l0.9,8.3c0,0.2,0,0.3-0.1,0.5c-0.1,0.1-0.2,0.2-0.4,0.2h-2.9c-0.1,0-0.3-0.1-0.4-0.2
		c-0.1-0.1-0.1-0.3-0.1-0.5l0.9-8.3c-0.5-0.4-0.9-1.2-0.9-2.1c0-0.9,0.4-1.7,1-2.1c0.1-2.3,0.5-4.7,1.5-6.3l-5-2
		c-0.2-0.1-0.3-0.3-0.3-0.6s0.1-0.5,0.3-0.6l16.8-6.8c0.1,0,0.1,0,0.1,0s0.1,0,0.1,0l16.8,6.8c0.2,0.1,0.3,0.3,0.3,0.6
		S20.8,25.7,20.6,25.8z M13.3,37.5c0.1,2.7-4.3,4.9-9.6,4.9c-5.3,0-9.7-2.2-9.6-4.9l0.3-6.1l8.6,3.5C3.2,35,3.4,35,3.7,35
		s0.5,0,0.7-0.1l8.6-3.5L13.3,37.5z"/>
</g>
</svg>
