<?xml version="1.0" encoding="utf-8"?>
<!-- Generator: Adobe Illustrator 19.1.1, SVG Export Plug-In . SVG Version: 6.00 Build 0)  -->
<svg version="1.1" id="Layer_1" xmlns="http://www.w3.org/2000/svg" xmlns:xlink="http://www.w3.org/1999/xlink" x="0px" y="0px"
	 viewBox="-14 15 35 35" style="enable-background:new -14 15 35 35;" xml:space="preserve">
<path d="M20.9,28.8l-5.7,17.3c-0.5,1.6-2.4,2.9-4.1,2.9H-8.2c-2.1,0-4.4-1.5-5.2-3.5c-0.3-0.9-0.3-1.7,0-2.4c0-0.4,0.1-0.8,0.1-1.2
	c0-0.3-0.2-0.6-0.1-0.8c0.1-0.5,0.5-0.8,0.9-1.3c0.6-1,1.3-2.5,1.6-3.5c0.1-0.4-0.1-0.8,0-1.1c0.1-0.4,0.5-0.6,0.7-1
	c0.6-0.9,1.3-2.6,1.4-3.5c0-0.4-0.2-0.8,0-1.1c0.1-0.4,0.6-0.6,0.9-1c0.5-0.6,1.3-2.4,1.5-3.5c0-0.3-0.2-0.6-0.1-1s0.6-0.7,0.9-1.2
	c0.9-1.2,1-3.8,3.7-3.1v0.1c0.4-0.1,0.7-0.2,1.1-0.2H15c1,0,1.9,0.4,2.4,1.1s0.7,1.6,0.4,2.5l-5.9,17.2c-1,2.9-1.5,3.6-4.2,3.6
	h-18.1c-0.3,0-0.6,0.1-0.8,0.3s-0.2,0.4,0,0.8c0.4,1.1,1.9,1.3,3,1.3H11c0.8,0,1.7-0.4,1.9-1.1l6.2-18.9c0.1-0.4,0.1-0.7,0.1-1.1
	c0.5,0.2,0.9,0.4,1.2,0.8C21,27,21.2,27.9,20.9,28.8z M-2.9,31.9H9.8c0.4,0,0.7-0.3,0.9-0.6l0.4-1.2c0.1-0.3-0.1-0.6-0.5-0.6H-2
	c-0.4,0-0.7,0.3-0.9,0.6l-0.4,1.2C-3.5,31.6-3.3,31.9-2.9,31.9z M-1.2,27h12.7c0.4,0,0.7-0.3,0.9-0.6l0.4-1.2
	c0.1-0.3-0.1-0.6-0.5-0.6H-0.3c-0.4,0-0.7,0.3-0.9,0.6l-0.4,1.2C-1.8,26.7-1.5,27-1.2,27z"/>
</svg>
