<?xml version="1.0" encoding="utf-8"?>
<!-- Generator: Adobe Illustrator 19.1.1, SVG Export Plug-In . SVG Version: 6.00 Build 0)  -->
<svg version="1.1" id="Layer_1" xmlns="http://www.w3.org/2000/svg" xmlns:xlink="http://www.w3.org/1999/xlink" x="0px" y="0px"
	 viewBox="-14 15 35 35" style="enable-background:new -14 15 35 35;" xml:space="preserve">
<g>
	<path d="M21,46.7c0,1.7-1.3,3.1-2.9,3.1h-28.9c-1.6,0-2.9-1.4-2.9-3.1V20.4c0-1.7,1.3-3.1,2.9-3.1h28.9c1.6,0,2.9,1.4,2.9,3.1V46.7
		z M-6.8,21.1c0-0.7-0.5-1.3-1.2-1.3h-2.3c-0.6,0-1.2,0.6-1.2,1.3v2.5c0,0.7,0.5,1.3,1.2,1.3H-8c0.6,0,1.2-0.6,1.2-1.3V21.1z
		 M-6.8,28.6c0-0.7-0.5-1.3-1.2-1.3h-2.3c-0.6,0-1.2,0.6-1.2,1.3v2.5c0,0.7,0.5,1.3,1.2,1.3H-8c0.6,0,1.2-0.6,1.2-1.3V28.6z
		 M-6.8,36.1c0-0.7-0.5-1.3-1.2-1.3h-2.3c-0.6,0-1.2,0.6-1.2,1.3v2.5c0,0.7,0.5,1.3,1.2,1.3H-8c0.6,0,1.2-0.6,1.2-1.3V36.1z
		 M-6.8,43.6c0-0.7-0.5-1.3-1.2-1.3h-2.3c-0.6,0-1.2,0.6-1.2,1.3v2.5c0,0.7,0.5,1.3,1.2,1.3H-8c0.6,0,1.2-0.6,1.2-1.3V43.6z
		 M11.7,21.1c0-0.7-0.5-1.3-1.2-1.3H-3.3c-0.6,0-1.2,0.6-1.2,1.3v10c0,0.7,0.5,1.3,1.2,1.3h13.9c0.6,0,1.2-0.6,1.2-1.3V21.1z
		 M11.7,36.1c0-0.7-0.5-1.3-1.2-1.3H-3.3c-0.6,0-1.2,0.6-1.2,1.3v10c0,0.7,0.5,1.3,1.2,1.3h13.9c0.6,0,1.2-0.6,1.2-1.3V36.1z
		 M18.7,21.1c0-0.7-0.5-1.3-1.2-1.3h-2.3c-0.6,0-1.2,0.6-1.2,1.3v2.5c0,0.7,0.5,1.3,1.2,1.3h2.3c0.6,0,1.2-0.6,1.2-1.3V21.1z
		 M18.7,28.6c0-0.7-0.5-1.3-1.2-1.3h-2.3c-0.6,0-1.2,0.6-1.2,1.3v2.5c0,0.7,0.5,1.3,1.2,1.3h2.3c0.6,0,1.2-0.6,1.2-1.3V28.6z
		 M18.7,36.1c0-0.7-0.5-1.3-1.2-1.3h-2.3c-0.6,0-1.2,0.6-1.2,1.3v2.5c0,0.7,0.5,1.3,1.2,1.3h2.3c0.6,0,1.2-0.6,1.2-1.3V36.1z
		 M18.7,43.6c0-0.7-0.5-1.3-1.2-1.3h-2.3c-0.6,0-1.2,0.6-1.2,1.3v2.5c0,0.7,0.5,1.3,1.2,1.3h2.3c0.6,0,1.2-0.6,1.2-1.3V43.6z"/>
</g>
</svg>
