<svg xmlns="http://www.w3.org/2000/svg" xmlns:xlink="http://www.w3.org/1999/xlink" viewBox="0 0 127.45 127.67"><defs><style>.cls-1{fill:none;}.cls-2{clip-path:url(#clip-path);}.cls-3{fill:#3c3c3b;}.cls-4{fill:#dd4628;}</style><clipPath id="clip-path" transform="translate(-0.08 -0.23)"><rect class="cls-1" width="127.8" height="127.8"/></clipPath></defs><title>Lesson</title><g id="Layer_2" data-name="Layer 2"><g id="Standard_Activities" data-name="Standard Activities"><g id="Lesson"><g class="cls-2"><path class="cls-3" d="M127.06,85.48l-.06-.16a15.56,15.56,0,0,0-19.55-8.9L91.41,82a14.73,14.73,0,0,0-14.35-4.27L60,82.06a15.23,15.23,0,0,1-11.5-1.69,31.17,31.17,0,0,0-16-4.41h-6.8V69.55a2.14,2.14,0,0,0-2.14-2.15H2.23A2.15,2.15,0,0,0,.08,69.55v56.21a2.14,2.14,0,0,0,2.15,2.14h21.4a2.14,2.14,0,0,0,2.14-2.14V115.15h6.81a27,27,0,0,1,10.92,2.29l4.24,1.86A29,29,0,0,0,72,118.84L123.92,93.7A6.45,6.45,0,0,0,127.06,85.48ZM21.48,123.62H4.37V71.69H21.48v51.93ZM122.06,89.84,70.11,115a24.63,24.63,0,0,1-20.65.39l-4.24-1.85a31.29,31.29,0,0,0-12.64-2.65H25.77V80.25h6.8a26.82,26.82,0,0,1,13.77,3.81A19.55,19.55,0,0,0,61.1,86.21l17-4.33a10.41,10.41,0,0,1,12.1,6l.37.89h0l.24.58.15.37L61.65,101.55l1.6,4L94.59,92.9h0l.08,0,.1,0,.11-.07.07,0,.11-.09.06,0,.11-.09,0,0a.94.94,0,0,0,.1-.1l0,0,.09-.11,0-.06.07-.11a.43.43,0,0,1,0-.07l.06-.12,0-.07h0l.06-.16s0,0,0,0a2.13,2.13,0,0,0,0-1.25,1.59,1.59,0,0,0-.07-.2l-1.59-3.81v0l-.25-.6,14.93-5.18A11.27,11.27,0,0,1,123,86.92l.07.16A2.14,2.14,0,0,1,122.06,89.84Z" transform="translate(-0.08 -0.23)"/></g><path class="cls-4" d="M45.19,72.22H91.77a2.12,2.12,0,0,0,2.12-2.12V2.35A2.12,2.12,0,0,0,91.77.23H45.19A10.6,10.6,0,0,0,34.6,10.82V61.63A10.58,10.58,0,0,0,45.19,72.22Zm0-4.24a6.35,6.35,0,1,1,0-12.7H89.65v4.24H45.19v4.23H89.65V68ZM89.65,51.05H47.3V4.46H89.65ZM38.83,10.82a6.36,6.36,0,0,1,4.24-6V51.26c-.15,0-.29.09-.44.13-.43.11-.85.24-1.27.39l-.61.27a11,11,0,0,0-1.12.61,6,6,0,0,0-.53.34c-.09.06-.18.1-.27.17Z" transform="translate(-0.08 -0.23)"/><path class="cls-4" d="M55.77,29.87H81.18a2.12,2.12,0,0,0,2.12-2.11V15.05a2.12,2.12,0,0,0-2.12-2.12H55.77a2.11,2.11,0,0,0-2.11,2.12V27.76a2.11,2.11,0,0,0,2.11,2.11Zm2.12-12.7H79.06v8.47H57.89Z" transform="translate(-0.08 -0.23)"/></g></g></g></svg>