<?xml version="1.0" encoding="utf-8"?>
<!-- Generator: Adobe Illustrator 23.0.1, SVG Export Plug-In . SVG Version: 6.00 Build 0)  -->
<svg version="1.1" id="Layer_1" xmlns="http://www.w3.org/2000/svg" xmlns:xlink="http://www.w3.org/1999/xlink" x="0px" y="0px"
	 viewBox="0 0 24 24" style="enable-background:new 0 0 24 24;" xml:space="preserve">
<style type="text/css">
	.st0{fill:#CED4DA;}
</style>
<g>
	<path class="st0" d="M2.2,10.1c0.8-4,4-7.2,8-7.9v-2C5.1,0.9,1,5,0.2,10.1H2.2z"/>
	<path class="st0" d="M14,2.2c3.9,0.8,7,3.9,7.8,7.9h2c-0.8-5-4.8-9-9.8-9.9V2.2z"/>
	<path class="st0" d="M10.2,21.8c-4-0.7-7.2-3.9-8-7.9h-2C1,19,5.1,23.1,10.2,23.9V21.8z"/>
	<path class="st0" d="M21.8,13.9C21,17.8,18,21,14,21.8v2c5-0.9,9-4.9,9.8-9.9H21.8z"/>
</g>
<g>
	<path class="st0" d="M17.8,8.6l-6,8c-0.2,0.2-0.4,0.4-0.7,0.4H11c-0.3,0-0.5-0.1-0.7-0.3l-4-4c-0.4-0.4-0.4-1,0-1.4s1-0.4,1.4,0
		l3.2,3.2l5.3-7.1c0.3-0.4,1-0.5,1.4-0.2C18,7.5,18.1,8.2,17.8,8.6z"/>
</g>
</svg>
