<?xml version="1.0" encoding="UTF-8" standalone="no"?>
<!-- Created with Inkscape (http://www.inkscape.org/) -->

<svg
   xmlns:dc="http://purl.org/dc/elements/1.1/"
   xmlns:cc="http://creativecommons.org/ns#"
   xmlns:rdf="http://www.w3.org/1999/02/22-rdf-syntax-ns#"
   xmlns:svg="http://www.w3.org/2000/svg"
   xmlns="http://www.w3.org/2000/svg"
   version="1.1"
   width="16"
   height="16"
   viewBox="0 0 16 16"
   id="ArupTree"
   xml:space="preserve"><metadata
     id="metadata3145"><rdf:RDF><cc:Work
         rdf:about=""><dc:format>image/svg+xml</dc:format><dc:type
           rdf:resource="http://purl.org/dc/dcmitype/StillImage" /><dc:title></dc:title></cc:Work></rdf:RDF></metadata><defs
     id="defs3143" /><g
     transform="matrix(0.66648352,0,0,0.66666667,5.3112533e-4,-1e-7)"
     id="g3103"><path
       d="M 8.9,7.6 C 8.5,8 8.1,8.6 8.1,9.2 7.5,7.1 8.5,5.9 8.5,5.9 8.6,5.7 8.9,5.5 9.2,5.5 9.6,5.5 10.1,5.8 10.1,6.4 10,6.7 9.8,6.9 9.8,7 9.6,7.1 8.9,7.6 8.9,7.6 z"
       id="path3105"
       style="fill:#d84727" /><path
       d="m 15.6,3.1 0,0 c 0,-0.8 0.7,-1.4 1.4,-1.4 0.8,0 1.4,0.7 1.4,1.4 v 0.1 c 0,0 0,1.4 -2.4,3.9 0,0 0.3,-1.2 0.1,-2.1 C 15.9,4.3 15.6,3.7 15.6,3.1 z"
       id="path3107"
       style="fill:#d84727" /><path
       d="M 17.9,5.7 C 18.8,4 19.3,4 19.4,4 c 0.3,0 0.7,0.2 0.7,0.7 0,0.2 -0.1,0.4 -0.3,0.5 0,0 -0.2,0.1 -0.7,0.2 -0.6,-0.1 -1.2,0.3 -1.2,0.3 z"
       id="path3109"
       style="fill:#e16d45" /><path
       d="m 17.7,8.9 c -1.5,0.1 -3.1,1.2 -3.1,1.2 2,-3.8 4.6,-4.4 4.6,-4.4 0.1,0 0.2,-0.1 0.4,-0.1 0.8,0 1.4,0.7 1.4,1.4 0,0.5 -0.3,1.1 -0.8,1.2 -0.5,0.3 -1,0.5 -2.5,0.7 z"
       id="path3111"
       style="fill:#d84727" /><path
       d="m 19.5,9.1 c 1.2,-0.4 1.5,0 1.5,0 0.1,0.1 0.1,0.1 0.1,0.2 0,0.1 -0.1,0.3 -0.3,0.3 -0.2,0 -0.3,0 -0.7,-0.2 C 20,9.2 19.5,9.1 19.5,9.1 z"
       id="path3113"
       style="fill:#d84727" /><path
       d="M 12.3,13.7 C 14,9 19.2,9.3 19.2,9.3 c 0.9,0.1 1.6,0.9 1.6,1.7 0,1 -0.7,1.6 -1.6,1.7 0,0 -1,0.1 -2.8,-0.3 -2.3,-0.3 -4.1,1.3 -4.1,1.3 z"
       id="path3115"
       style="fill:#e16d45" /><path
       d="M 14.9,1.4 C 14.5,1.3 14.1,1.3 14.1,1.3 13.8,1.3 13.6,1 13.6,0.8 c 0,-0.3 0.2,-0.5 0.7,-0.5 h 0.1 c 0,0 1.2,0.3 1,1.7 0,-0.1 -0.1,-0.4 -0.5,-0.6 z"
       id="path3117"
       style="fill:#e16d45" /><path
       d="M 11.2,6.7 C 11.2,6.7 10.2,6.2 9.5,4 8.6,1.5 9.9,0.4 9.9,0.4 10.1,0.2 10.6,0 10.9,0 c 0.8,0 1.4,0.7 1.4,1.3 0,0.2 -0.1,0.4 -0.2,0.7 0,0 -0.5,0.9 -1,1.7 -0.6,1.5 0.1,3 0.1,3 z"
       id="path3119"
       style="fill:#da4827" /><path
       d="M 12.3,2.9 C 13.5,1 14.8,1.8 14.8,1.8 15,2 15.2,2.2 15.2,2.4 15.2,2.7 15,2.9 14.7,3.1 14.5,3.1 14,2.9 13.6,2.9 c -0.9,-0.1 -1.3,0 -1.3,0 z"
       id="path3121"
       style="fill:#d84727" /><path
       d="M 7.4,4.4 C 7,3.7 6.4,3.2 6.4,3.2 6.3,2.9 6.2,2.6 6.2,2.4 6.2,1.7 6.7,1.2 7.4,1.2 8,1.2 8.3,1.5 8.5,2 8.5,2 9.3,3.7 7.8,5.8 7.9,5.8 7.7,5 7.4,4.4 z"
       id="path3123"
       style="fill:#e16d45" /><path
       d="M 6.4,12.7 C 5.7,12.6 5.1,12.8 4.5,12.8 3.6,12.8 3,12.1 3,11.4 3,10.6 3.7,10 4.5,10 4.7,9.9 5,10 5.1,10 5.1,10 7.6,10.8 9,13.8 9,13.7 7.9,12.9 6.4,12.7 z"
       id="path3125"
       style="fill:#d84727" /><path
       d="m 16.6,16 c -0.8,0.9 -2.2,0.9 -2.2,0.9 -1,0 -1.7,-0.8 -1.7,-1.7 0,-0.7 0.4,-1.3 1,-1.5 0,0 2.3,-1.3 5.1,1.1 0,-0.1 -1.2,0.1 -2.2,1.2 z"
       id="path3127"
       style="fill:#d84727" /><path
       d="M 6.4,9.8 C 5.4,9.1 4.5,9.1 4.5,9.1 3.5,9.1 2.9,8.4 2.9,7.5 2.9,6.6 3.7,5.9 4.5,5.9 c 0.5,0 1,0.2 1.3,0.5 0,0 1.6,1.6 2.3,4.8 0.2,0.1 -0.6,-0.6 -1.7,-1.4 z"
       id="path3129"
       style="fill:#e16d45" /><path
       d="M 12.1,16.3 C 8.2,13.4 8.7,9.4 8.7,9.4 c 0.1,-1.1 0.9,-1.9 2,-1.9 1.1,0 2,0.9 2,1.9 0,0.4 -0.1,1.1 -0.7,2.2 -1.1,1.9 0.1,4.7 0.1,4.7 z"
       id="path3131"
       style="fill:#d84727" /><path
       d="m 19,13.5 c 0.3,0 0.4,-0.1 0.5,-0.1 0.2,0 0.3,0.1 0.3,0.3 0,0.2 -0.1,0.3 -0.3,0.3 0,0 -0.7,0 -1.5,-0.7 0,0.2 0.7,0.3 1,0.2 z"
       id="path3133"
       style="fill:#e16d45" /><path
       d="M 14.2,23.5 C 13.4,23.8 12.6,24 11.7,24 10.8,24 10,23.8 9.2,23.5 c 0,0 1.5,-2.7 1.1,-5.7 -0.4,-2.9 -2.8,-4 -2.8,-4 0,0 1.3,-0.2 3.3,2 1.5,1.7 3.6,1.7 3.6,1.7 0,0 -1.9,0.2 -1.6,2.4 -0.1,1.8 1.4,3.6 1.4,3.6 z"
       id="path3135"
       style="fill:#5a5a5d" /><path
       d="m 11.5,5.8 c 0,-0.2 -0.1,-0.3 -0.1,-0.5 0,-1.1 0.9,-2 2.1,-2 0.9,0 1.5,0.4 1.9,1.2 0,0 1.4,2.7 -2.7,7.2 0,0 1.2,-2.2 0.3,-3.7 C 12.1,6.8 11.7,6.7 11.5,5.8 z"
       id="path3137"
       style="fill:#e16d45" /><path
       d="M 5.9,5.7 C 5.1,5.2 4.9,5.2 4.6,4.6 4.4,4.1 4.5,3.7 4.9,3.4 c 0.3,-0.1 0.7,-0.1 1,0 0,0 1.6,1.3 1.5,4.1 0,0.1 -0.6,-1.2 -1.5,-1.8 z"
       id="path3139"
       style="fill:#d84727" /></g></svg>