<?xml version="1.0" encoding="utf-8"?>
<!-- Generator: Adobe Illustrator 16.0.2, SVG Export Plug-In . SVG Version: 6.00 Build 0)  -->
<!DOCTYPE svg PUBLIC "-//W3C//DTD SVG 1.1//EN" "http://www.w3.org/Graphics/SVG/1.1/DTD/svg11.dtd">
<svg version="1.1" id="Masters" xmlns="http://www.w3.org/2000/svg" xmlns:xlink="http://www.w3.org/1999/xlink" x="0px" y="0px"
	 width="35px" height="35px" viewBox="182.5 182.5 35 35" enable-background="new 182.5 182.5 35 35" xml:space="preserve">
<circle fill="#4E4E50" cx="199.9" cy="195.3" r="8.3"/>
<path fill="#FFFFFF" stroke="#ABABAB" stroke-linejoin="round" stroke-miterlimit="10" d="M204,186l3.7,5.8c0,0-5.6,0.3-7.7,2.7l0,0
	c-4.8-3.3-8.1-2.9-8.1-2.9v-0.1l3.2-6.2"/>
<line fill="none" stroke="#848484" stroke-width="0.5" stroke-linecap="round" stroke-linejoin="round" stroke-miterlimit="10" x1="186.8" y1="187" x2="186.8" y2="191.9"/>
<ellipse fill="#848484" cx="186.8" cy="193.8" rx="0.7" ry="1.5"/>
<path fill="#4E4E50" d="M188.4,217.5v-9.8c0-1.1,0.9-1.9,1.9-1.9h19.6c1.1,0,1.9,0.9,1.9,1.9v9.8"/>
<polygon fill="#FFFFFF" stroke="#ABABAB" stroke-linejoin="round" stroke-miterlimit="10" points="187,186.7 200.1,183 213.4,186.7 
	200.2,190.3 "/>
</svg>
