<svg xmlns="http://www.w3.org/2000/svg" viewBox="0 0 127.5 109.91"><defs><style>.cls-1{fill:#fff;}</style></defs><title>Virtual Classroom</title><g id="Layer_2" data-name="Layer 2"><g id="Virtual_Classroom" data-name="Virtual Classroom"><path class="cls-1" d="M127.5,25.65V11A11.11,11.11,0,0,0,116.29,0H78.69a11.11,11.11,0,0,0-11.2,11v3.66H60V11A11.11,11.11,0,0,0,48.81,0H11.21A11.11,11.11,0,0,0,0,11V25.65A11,11,0,0,0,7.47,36V87.93H3.73A3.7,3.7,0,0,0,0,91.59a18.52,18.52,0,0,0,18.68,18.32h90.14A18.52,18.52,0,0,0,127.5,91.59a3.7,3.7,0,0,0-3.73-3.66H120V36A11,11,0,0,0,127.5,25.65ZM60,25.65V22h7.48v3.67a11.11,11.11,0,0,0,11.2,11h3.74v8A11,11,0,0,0,75,55a10.83,10.83,0,0,0,1.89,6.11,18.26,18.26,0,0,0-9.36,15.87,3.7,3.7,0,0,0,3.73,3.66H101.1a3.7,3.7,0,0,0,3.74-3.66,18.27,18.27,0,0,0-9.37-15.87A10.76,10.76,0,0,0,97.37,55a10.9,10.9,0,0,0-4.46-8.77l9.74-9.55h9.91V87.93H14.94V36.64h9.91l9.74,9.55A10.9,10.9,0,0,0,30.13,55,10.76,10.76,0,0,0,32,61.07a18.27,18.27,0,0,0-9.37,15.87A3.7,3.7,0,0,0,26.4,80.6H56.28A3.7,3.7,0,0,0,60,76.94a18.26,18.26,0,0,0-9.36-15.87A10.83,10.83,0,0,0,52.54,55a11,11,0,0,0-7.47-10.37v-8h3.74A11.11,11.11,0,0,0,60,25.65Zm26.15,33a3.67,3.67,0,1,1,0-7.33h0a3.67,3.67,0,1,1,0,7.33ZM96.73,73.28H75.6a11.28,11.28,0,0,1,21.13,0ZM41.34,66A11.2,11.2,0,0,1,51.9,73.28H30.77A11.21,11.21,0,0,1,41.34,66ZM37.6,55a3.71,3.71,0,0,1,3.74-3.67h0A3.67,3.67,0,1,1,37.6,55ZM7.47,11a3.71,3.71,0,0,1,3.74-3.66h37.6A3.7,3.7,0,0,1,52.54,11V25.65a3.7,3.7,0,0,1-3.73,3.66H41.34A3.7,3.7,0,0,0,37.6,33v5.81L29,30.38a3.8,3.8,0,0,0-2.64-1.07H11.21a3.71,3.71,0,0,1-3.74-3.66Zm101.35,91.6H18.68A11.24,11.24,0,0,1,8.11,95.23H119.39A11.24,11.24,0,0,1,108.82,102.59Zm7.47-73.28H101.1a3.8,3.8,0,0,0-2.64,1.07l-8.56,8.4V33a3.7,3.7,0,0,0-3.74-3.66H78.69A3.7,3.7,0,0,1,75,25.65V11a3.7,3.7,0,0,1,3.73-3.66h37.6A3.71,3.71,0,0,1,120,11V25.65A3.71,3.71,0,0,1,116.29,29.31Z"/></g></g></svg>