<svg xmlns="http://www.w3.org/2000/svg" viewBox="0 0 127.5 127.5"><defs><style>.cls-1{fill:#fff;}</style></defs><title>Learning Burst</title><g id="Layer_2" data-name="Layer 2"><g id="Learning_Burst" data-name="Learning Burst"><path class="cls-1" d="M63.75,67.48a3.74,3.74,0,1,0,3.73,3.73A3.74,3.74,0,0,0,63.75,67.48ZM54.12,1A45,45,0,0,0,30.24,74.81,28.35,28.35,0,0,1,37.6,93.63v7.72A11.23,11.23,0,0,0,45.35,112a18.67,18.67,0,0,0,36.8,0,11.23,11.23,0,0,0,7.75-10.66V93.63a29.18,29.18,0,0,1,7.58-19.07A45,45,0,0,0,54.12,1Zm9.63,119a11.25,11.25,0,0,1-10.57-7.5H74.31A11.24,11.24,0,0,1,63.75,120Zm18.68-18.68a3.75,3.75,0,0,1-3.74,3.74H48.81a3.75,3.75,0,0,1-3.74-3.74v-4H82.43Zm9.43-31.72a37.27,37.27,0,0,0-9.22,20.26H44.87a36.15,36.15,0,0,0-9-20,37.35,37.35,0,1,1,56-.21ZM11.21,45.06H3.74a3.74,3.74,0,0,0,0,7.48h7.47a3.74,3.74,0,0,0,0-7.48ZM7.47,31.67a3.73,3.73,0,0,0,5.28-5.28L7.47,21.1a3.74,3.74,0,0,0-5.28,5.29Zm0,34.26L2.19,71.21A3.74,3.74,0,0,0,7.47,76.5l5.28-5.29a3.73,3.73,0,1,0-5.28-5.28ZM116.29,52.54h7.47a3.74,3.74,0,0,0,0-7.48h-7.47a3.74,3.74,0,0,0,0,7.48ZM120,31.67l5.28-5.28A3.74,3.74,0,0,0,120,21.1l-5.29,5.29A3.74,3.74,0,1,0,120,31.67Zm0,34.26a3.74,3.74,0,1,0-5.29,5.28L120,76.5a3.74,3.74,0,0,0,5.28-5.29ZM63.75,30.12A3.74,3.74,0,0,0,60,33.86V56.27a3.74,3.74,0,1,0,7.47,0V33.86A3.73,3.73,0,0,0,63.75,30.12Z"/></g></g></svg>