<svg xmlns="http://www.w3.org/2000/svg" viewBox="0 0 99.84 127.8"><defs><style>.cls-1{fill:#fff;}</style></defs><title>Other</title><g id="Layer_2" data-name="Layer 2"><g id="Other"><path class="cls-1" d="M47.43,51.42a2.5,2.5,0,1,0-2.5-2.5,2.5,2.5,0,0,0,2.5,2.5Z"/><path class="cls-1" d="M47.43,66.4a2.5,2.5,0,1,0-2.5-2.5,2.5,2.5,0,0,0,2.5,2.5Z"/><path class="cls-1" d="M47.43,81.37a2.5,2.5,0,1,0-2.5-2.49,2.5,2.5,0,0,0,2.5,2.49Z"/><path class="cls-1" d="M89.86,120.38v-2.56h2.5a7.5,7.5,0,0,0,7.48-7.49V7.49A7.5,7.5,0,0,0,92.36,0H17.47A7.5,7.5,0,0,0,10,7.49V10H7.49A7.5,7.5,0,0,0,0,17.47V120.31a7.5,7.5,0,0,0,7.49,7.49H82.41a7.44,7.44,0,0,0,7.45-7.42Zm-20-101.87L81.34,30H69.89ZM15,7.49A2.5,2.5,0,0,1,17.47,5H92.36a2.5,2.5,0,0,1,2.49,2.5V110.33a2.5,2.5,0,0,1-2.49,2.49h-2.5V32.45a2.49,2.49,0,0,0-.71-1.74l0,0-20-20A2.49,2.49,0,0,0,67.39,10H15ZM5,120.31V17.47A2.5,2.5,0,0,1,7.49,15H64.9V32.45A2.5,2.5,0,0,0,67.39,35H84.87v85.43a2.42,2.42,0,0,1-2.46,2.43H7.49a2.5,2.5,0,0,1-2.5-2.5Z"/><path class="cls-1" d="M72.39,76.38h-15a2.5,2.5,0,1,0,0,5h15a2.5,2.5,0,0,0,0-5Z"/><path class="cls-1" d="M72.39,61.4h-15a2.5,2.5,0,1,0,0,5h15a2.5,2.5,0,0,0,0-5Z"/><path class="cls-1" d="M72.39,46.43h-15a2.5,2.5,0,1,0,0,5h15a2.5,2.5,0,0,0,0-5Z"/><path class="cls-1" d="M72.39,91.36h-25a2.5,2.5,0,1,0,0,5h25a2.5,2.5,0,0,0,0-5Z"/><path class="cls-1" d="M72.39,106.33h-25a2.5,2.5,0,1,0,0,5h25a2.5,2.5,0,0,0,0-5Z"/><path class="cls-1" d="M32.45,31.45h-15A2.49,2.49,0,0,0,15,34v15a2.49,2.49,0,0,0,2.49,2.5h15a2.5,2.5,0,0,0,2.5-2.5V34a2.5,2.5,0,0,0-2.5-2.5Zm-2.5,15H20v-10H30Z"/><path class="cls-1" d="M32.45,61.4h-15A2.49,2.49,0,0,0,15,63.9v15a2.48,2.48,0,0,0,2.49,2.49h15A2.49,2.49,0,0,0,35,78.88v-15a2.5,2.5,0,0,0-2.5-2.5Zm-2.5,15H20v-10H30Z"/><path class="cls-1" d="M32.45,91.36h-15A2.48,2.48,0,0,0,15,93.85v15a2.49,2.49,0,0,0,2.49,2.5h15a2.5,2.5,0,0,0,2.5-2.5v-15a2.49,2.49,0,0,0-2.5-2.49Zm-2.5,15H20v-10H30Z"/></g></g></svg>