<svg xmlns="http://www.w3.org/2000/svg" viewBox="0 0 127.5 127.5"><defs><style>.cls-1{fill:#fff;}</style></defs><title>Masters Courses</title><g id="Layer_2" data-name="Layer 2"><g id="Masters_Courses" data-name="Masters Courses"><path class="cls-1" d="M55.82,64.2a3.74,3.74,0,0,0-5.28,5.29,18.67,18.67,0,0,0,26.41,0,3.74,3.74,0,0,0-5.28-5.29,11.21,11.21,0,0,1-15.85,0Zm49.26-.45v7.47A3.75,3.75,0,0,0,108.82,75h14.94a3.75,3.75,0,0,0,3.74-3.74V63.75A11.22,11.22,0,0,0,120,53.19V18.9a3.72,3.72,0,0,0-2.67-3.55h0L64.79.15a3.68,3.68,0,0,0-2.08,0L10.41,15.34a3.74,3.74,0,0,0,0,7.18l19.7,5.63V56.28a33.52,33.52,0,0,0,10,23.93l-23,8.28A26.23,26.23,0,0,0,0,113.06v10.7a3.73,3.73,0,0,0,3.74,3.74h120a3.74,3.74,0,0,0,3.74-3.74V113.19a26.21,26.21,0,0,0-17.41-24.64L86.51,80.24c.41-.43.82-.88,1.21-1.34,6.31-7.4,9.64-17.81,9.64-30.09V28.19l15.19-4.32V53.19A11.23,11.23,0,0,0,105.08,63.75ZM60,120H7.47v-7A18.75,18.75,0,0,1,19.75,95.51l18.85-6.8L60,110.12ZM46.37,85.91l.91-.33A33.4,33.4,0,0,0,63.75,89.9a31.34,31.34,0,0,0,15.82-4.18l1.29.46L63.75,103.29Zm42.31,3,18.92,6.66A18.71,18.71,0,0,1,120,113.19V120H67.48v-9.91Zm1.21-40.12c0,20.11-10.5,33.62-26.14,33.62A26.18,26.18,0,0,1,37.6,56.28V47.1a71,71,0,0,0,26.15,5,70.94,70.94,0,0,0,26.14-5Zm0-9.83A63.42,63.42,0,0,1,37.6,39v-8.7l25.12,7.18a4,4,0,0,0,1,.14,3.92,3.92,0,0,0,1-.14l25.12-7.14ZM63.75,30,25,18.9,63.75,7.62l39,11.28Zm52.54,30A3.74,3.74,0,0,1,120,63.75v3.73h-7.47V63.75A3.75,3.75,0,0,1,116.29,60Z"/></g></g></svg>