<svg xmlns="http://www.w3.org/2000/svg" viewBox="0 0 127.8 127.8"><defs><style>.cls-1{fill:#fff;}</style></defs><title>Classroom</title><g id="Layer_2" data-name="Layer 2"><g id="Classroom_Course" data-name="Classroom Course"><path class="cls-1" d="M119.55,86.08a15,15,0,0,0-6.73-25.2V11.23A11.25,11.25,0,0,0,101.59,0H26.21A11.25,11.25,0,0,0,15,11.23V60.88a15,15,0,0,0-6.73,25.2A18.72,18.72,0,0,0,0,101.59v22.47a3.75,3.75,0,0,0,3.74,3.74H124.06a3.75,3.75,0,0,0,3.74-3.74V101.59A18.72,18.72,0,0,0,119.55,86.08Zm-3-10.7a7.49,7.49,0,1,1-7.49-7.49A7.5,7.5,0,0,1,116.57,75.38ZM22.47,11.23a3.75,3.75,0,0,1,3.74-3.74h75.38a3.75,3.75,0,0,1,3.75,3.74V60.88a15,15,0,0,0-9.22,7H76.86a15,15,0,0,0-25.92,0H31.68a15,15,0,0,0-9.21-7Zm51.9,74.85a14.93,14.93,0,0,0,4.51-10.7H94.1a14.93,14.93,0,0,0,4.51,10.7,18.72,18.72,0,0,0-8.25,15.51v3.75H82.62v-3.75A18.72,18.72,0,0,0,74.37,86.08Zm-45.18,0a14.93,14.93,0,0,0,4.51-10.7H48.92a14.93,14.93,0,0,0,4.51,10.7,18.72,18.72,0,0,0-8.25,15.51v3.75H37.44v-3.75A18.7,18.7,0,0,0,29.19,86.08Zm23.48,15.51a11.23,11.23,0,1,1,22.46,0v3.75H52.67Zm3.74-26.21a7.49,7.49,0,1,1,7.49,7.49A7.5,7.5,0,0,1,56.41,75.38ZM18.72,67.89a7.49,7.49,0,1,1-7.49,7.49A7.5,7.5,0,0,1,18.72,67.89ZM7.49,101.59a11.23,11.23,0,0,1,22.46,0v3.75H7.49Zm112.82,18.72H7.49v-7.49H120.31Zm0-15H97.85v-3.75a11.23,11.23,0,1,1,22.46,0ZM54.65,52.22A3.73,3.73,0,0,0,58.49,52L81,37.06a3.74,3.74,0,0,0,0-6.21L58.51,15.62a3.74,3.74,0,0,0-5.84,3.1v30.2A3.74,3.74,0,0,0,54.65,52.22Zm5.51-26.44,12,8.14-12,8Z"/></g></g></svg>