<svg xmlns="http://www.w3.org/2000/svg" viewBox="0 0 127.5 127.5"><defs><style>.cls-1{fill:#fff;}</style></defs><title>E-Learning</title><g id="Layer_2" data-name="Layer 2"><g id="E-Learning"><path class="cls-1" d="M57.73,52.45a3.73,3.73,0,0,0-5.28,5.28L57.73,63A3.74,3.74,0,1,0,63,57.73Zm0,26.41-5.28,5.29a3.73,3.73,0,0,0,5.28,5.28L63,84.15a3.74,3.74,0,1,0-5.29-5.29Zm-.45-7.92a3.7,3.7,0,0,0-3.74-3.69H46.07a3.71,3.71,0,1,0,0,7.42h7.47A3.73,3.73,0,0,0,57.28,70.94ZM71.47,57.28a3.74,3.74,0,0,0,3.74-3.74V46.07a3.74,3.74,0,0,0-7.47,0v7.47A3.73,3.73,0,0,0,71.47,57.28ZM84.15,63l5.28-5.28a3.73,3.73,0,0,0-5.28-5.28l-5.29,5.28A3.74,3.74,0,1,0,84.15,63Zm42.26,47.55L113.2,97.35l7.92-7.92a3.73,3.73,0,0,0-1.09-6V11.21A11.22,11.22,0,0,0,108.83,0H11.21A11.22,11.22,0,0,0,0,11.21V93.88a11.22,11.22,0,0,0,11.21,11.21H78.39l4.85,14.57a3.73,3.73,0,0,0,6.19,1.46l7.92-7.92,13.21,13.21a3.75,3.75,0,0,0,5.28,0l10.57-10.57A3.73,3.73,0,0,0,126.41,110.56ZM90.15,7.47h18.68a3.74,3.74,0,0,1,3.73,3.74v11.2H90.15ZM7.47,11.21a3.74,3.74,0,0,1,3.74-3.74H82.68V22.41H7.47Zm3.74,86.41a3.75,3.75,0,0,1-3.74-3.74v-64H112.56v51L72.12,67.4a3.73,3.73,0,0,0-4.72,4.72l8.5,25.5Zm102,20.86L100,105.28a3.72,3.72,0,0,0-5.28,0l-6.29,6.29-3.77-11.32h0L76.85,76.85l34.72,11.57-6.29,6.29a3.73,3.73,0,0,0,0,5.28l13.2,13.21Z"/></g></g></svg>