<svg xmlns="http://www.w3.org/2000/svg" viewBox="0 0 127.74 103.88"><defs><style>.cls-1{fill:#dd4628;}.cls-2{fill:#3c3c3b;}</style></defs><title>Forum</title><g id="Layer_2" data-name="Layer 2"><g id="Standard_Activities" data-name="Standard Activities"><g id="Forum"><path class="cls-1" d="M91.65,53.82a4.57,4.57,0,1,0,4.57,4.57A4.57,4.57,0,0,0,91.65,53.82Z"/><path class="cls-1" d="M75.42,53.82A4.57,4.57,0,1,0,80,58.39,4.56,4.56,0,0,0,75.42,53.82Z"/><path class="cls-1" d="M107.88,53.82a4.57,4.57,0,1,0,4.57,4.57A4.57,4.57,0,0,0,107.88,53.82Z"/><path class="cls-1" d="M57,23.22H13.29a2,2,0,0,0-2,1.57A1.9,1.9,0,0,0,13.19,27h44C59.7,27,59.58,23.22,57,23.22Z"/><path class="cls-1" d="M42.7,34.61H13.33a2,2,0,1,0,0,4.06H42.7a2,2,0,0,0,0-4.06Z"/><path class="cls-2" d="M45.41,48.36s-9,0-10.78.07c-.87,0-1.36.77-2.14,1.4l-14.63,15s0-14.28,0-14.34a2.38,2.38,0,0,0-2.37-2.17H6.25c-1.74,0-2.67-.79-2.67-2.43V6.4A2.83,2.83,0,0,1,6.5,3.47H76.92A3.22,3.22,0,0,1,79.84,6.9V27.44c0,1.31.4,2.38,1.72,2.38s1.76-1.07,1.76-2.38V5.69A5.69,5.69,0,0,0,77.63,0H5.69A5.69,5.69,0,0,0,0,5.69V46.63a5.69,5.69,0,0,0,5.69,5.69h8.59V67.45a2.38,2.38,0,0,0,2.38,2.38,2.42,2.42,0,0,0,1.69-.69L35.16,52.32H46.53A2.05,2.05,0,0,0,48.64,50C48.44,48.05,45.41,48.36,45.41,48.36Z"/><path class="cls-1" d="M65.29,12.17h-52a2,2,0,0,0-2,1.57,1.89,1.89,0,0,0,1.87,2.2h52A1.89,1.89,0,1,0,65.29,12.17Z"/><path class="cls-2" d="M127.74,42.9c0-8-4.59-9.62-9.95-9.62h-14a1.88,1.88,0,1,0,0,3.76h14c3.36,0,6.15,1.08,6.15,6.06V73.9a6.16,6.16,0,0,1-6.15,6.15H100.13a1.88,1.88,0,0,0-1.88,1.88V98l-21-17.5A1.86,1.86,0,0,0,76,80.05H64a6.16,6.16,0,0,1-6.15-6.15V43.19A6.16,6.16,0,0,1,64,37h53.88a1.88,1.88,0,0,0,0-3.76H64a9.92,9.92,0,0,0-9.91,9.91V73.9A9.93,9.93,0,0,0,64,83.82H75.36l23.57,19.64A1.9,1.9,0,0,0,102,102V83.82h15.77a9.92,9.92,0,0,0,9.91-9.92V68a1.89,1.89,0,0,0,0-.58Z"/></g></g></g></svg>