<?xml version="1.0" encoding="utf-8"?>
<!-- Generator: Adobe Illustrator 18.1.1, SVG Export Plug-In . SVG Version: 6.00 Build 0)  -->
<!DOCTYPE svg PUBLIC "-//W3C//DTD SVG 1.1//EN" "http://www.w3.org/Graphics/SVG/1.1/DTD/svg11.dtd">
<svg version="1.1" id="Layer_1" xmlns="http://www.w3.org/2000/svg" xmlns:xlink="http://www.w3.org/1999/xlink" x="0px" y="0px"
	 viewBox="0 0 24 24" enable-background="new 0 0 24 24" xml:space="preserve">
<path fill="#FAA927" d="M9.3,5c0-0.7,0-1.5,0-2.2c-0.1-1.1,0.9-2.4,1.9-2.7C13-0.3,14.8,0.5,15,2.8c0,0.6,0,1.1,0,1.7
	c0,0.5,0,1,0,1.5c0,1.1,0.1,2.1-0.1,3.2c-1.1,0.3-1.7,1-2.1,2c-0.1,0.2-0.1,0.3-0.4,0.4c-0.1,0-0.2-0.1-0.4-0.1
	c0-0.2,0.1-0.3,0.1-0.4c0.5-1.1,0.4-2.2-0.4-3.2C11.1,6.8,10.2,6,9.4,5.2C9.3,5.1,9.3,5.1,9.3,5z"/>
<path fill="#B4D44C" d="M18.5,9.1c1,0,1.9,0.1,2.9,0.1c1.5,0,2.6,1.3,2.7,2.9c0,1.4-1.2,2.7-2.6,2.8c-0.8,0-1.6,0-2.4,0
	c-0.1,0-0.1,0-0.2,0c-1-1.1-2-2.2-3.2-3.1c1-0.8,1.8-1.7,2.6-2.6C18.4,9.1,18.5,9.1,18.5,9.1z"/>
<path fill="#70B2E1" d="M15.1,19C14.9,19.7,15,20.4,15,21c0,1-0.4,1.8-1.1,2.4c-0.9,0.7-1.9,0.8-2.9,0.3c-1.1-0.5-1.6-1.5-1.7-2.8
	c0-0.7,0-1.3,0-2c0-0.1,0.1-0.1,0.1-0.2c0.9-0.9,1.9-1.8,2.8-2.8c0.6,0.6,1.2,1.3,1.9,1.9c0.3,0.3,0.6,0.7,1,0.9
	C15,18.8,15.1,18.9,15.1,19z"/>
<path fill="#F5735D" d="M9.3,5c0,0.1,0,0.1,0,0.2C9.2,5.4,9.3,5.6,9.3,5.8c0,1.1,0,2.2,0.1,3.4c-1.3,0-2.6,0-4,0
	c-0.1,0-0.1-0.1-0.2-0.1c-0.5-0.5-1-1-1.4-1.5C2.6,6.4,2.5,4.7,3.6,3.6c1.1-1.1,2.7-1.2,4-0.1C8.2,3.9,8.7,4.6,9.3,5z"/>
<path fill="#D587AB" d="M5.2,9.1c0.1,0,0.1,0.1,0.2,0.1c0.2,0.2,0.3,0.4,0.5,0.5c0.8,0.8,1.5,1.6,2.3,2.3c-0.8,0.5-1.4,1.3-2,1.9
	c-0.3,0.3-0.6,0.5-0.8,0.9c-0.1,0-0.1,0-0.2,0c-0.7,0-1.4,0-2.2,0c-1.5,0-2.9-1.4-2.9-2.9C0.2,10.4,1.4,9.2,3,9.2
	C3.7,9.2,4.5,9.3,5.2,9.1z"/>
<path fill="#A68DC4" d="M5.2,14.9c0.1,0,0.1,0,0.2,0c1.3,0,2.6,0.1,4-0.1c-0.2,1-0.1,2-0.1,3c0,0.3-0.1,0.6,0.1,0.9
	c0,0.1-0.1,0.1-0.1,0.2c-0.5,0.4-1,0.9-1.5,1.4c-1.2,1.2-3,1.2-4.2,0.1c-1.1-1.1-1-2.9,0.1-4.1C4.2,15.9,4.7,15.4,5.2,14.9z"/>
<path fill="#67C19F" d="M15.1,19c0-0.1-0.1-0.1-0.1-0.2c0-1.3,0.1-2.7-0.1-4c1.3,0.2,2.7,0.1,4,0.1c0.1,0,0.1,0,0.2,0
	c0.5,0.5,1,1,1.5,1.6c1.1,1.1,1.1,2.9,0.1,4c-1.1,1.2-2.9,1.2-4,0.1C16.1,20,15.6,19.5,15.1,19z"/>
<path fill="#F1E42F" d="M18.5,9.1c0,0-0.1,0-0.1,0c-1.2-0.1-2.3,0.1-3.5,0.1C15.1,8.1,15,7,15,6c0-0.5,0-1,0-1.5
	c0.3-0.3,0.7-0.6,1-1c1-1.1,2-1.3,3.3-0.6c1.3,0.6,1.9,1.8,1.6,3.2c-0.2,0.6-0.4,1.2-1,1.6C19.3,8,19.1,8.7,18.5,9.1z"/>
<path fill="#F34C1C" d="M9.3,9.2c0-1.1-0.1-2.2-0.1-3.4c0-0.2-0.1-0.4,0.1-0.6c0.9,0.8,1.8,1.6,2.5,2.5c0.8,0.9,0.9,2.1,0.4,3.2
	c-0.1,0.1-0.1,0.3-0.1,0.4c-0.1,0-0.3,0-0.4,0.1c-0.2-0.1-0.3-0.2-0.4-0.4c-0.1-0.4-0.3-0.6-0.6-0.9C10.4,9.6,9.9,9.4,9.3,9.2z"/>
<path fill="#AAC024" d="M14.9,9.2c1.2,0,2.3-0.2,3.5-0.1c-0.8,1-1.6,1.9-2.6,2.6c-1.1-0.3-2.1-0.2-3,0.5c0-0.3-0.2-0.5-0.3-0.7
	c0.2,0,0.3-0.2,0.4-0.4C13.2,10.2,13.9,9.4,14.9,9.2z"/>
<path fill="#FDFDFD" d="M11.9,12.7c0.1,0.2,0.2,0.4,0.2,0.6c0,0.1,0,0.2-0.1,0.3c-0.1,0-0.3,0.1-0.4,0.1c-0.2,0-0.3,0-0.5-0.1
	c-0.1-0.1-0.1-0.4-0.4-0.4c0.1-0.2,0.2-0.4,0.4-0.6c0.1,0,0.2,0,0.3-0.1C11.6,12.6,11.7,12.6,11.9,12.7z"/>
<path fill="#49A12D" d="M12.7,12.5c0-0.1,0-0.2,0.1-0.3c0.9-0.7,1.9-0.7,3-0.5c1.2,0.9,2.2,2,3.2,3.1c-1.3,0-2.7,0.1-4-0.1
	C13.7,14.4,13,13.7,12.7,12.5z"/>
<path fill="#4862AE" d="M11.7,12.5c0.2,0,0.3,0.1,0.5,0.1c-0.6,1.1-0.7,2.2-0.1,3.3c-0.9,1-1.8,1.9-2.8,2.8
	c-0.2-0.3-0.1-0.6-0.1-0.9c0-1-0.1-2,0.1-3C9.6,13.5,10.5,12.9,11.7,12.5z"/>
<path fill="#2D858B" d="M12.1,16c-0.6-1.1-0.5-2.2,0.1-3.3c0.1,0,0.3-0.1,0.4-0.1c0.3,1.2,1.1,2,2.2,2.3c0.2,1.3,0,2.7,0.1,4
	c-0.5-0.2-0.7-0.6-1-0.9C13.4,17.3,12.7,16.6,12.1,16z"/>
<path fill="#CD383E" d="M11.7,11.4c-0.1,0.2-0.3,0.4-0.4,0.6c-1.1,0.4-2.1,0.5-3.2,0c-0.8-0.8-1.5-1.6-2.3-2.3
	C5.7,9.6,5.5,9.4,5.4,9.2c1.3,0,2.6,0,4,0c0.5,0.2,1.1,0.4,1.5,0.9c0.2,0.3,0.5,0.5,0.6,0.9C11.4,11.2,11.5,11.3,11.7,11.4z"/>
<path fill="#8A4A84" d="M8.2,12.1c1.1,0.5,2.1,0.4,3.2,0c0.3,0,0.2,0.3,0.4,0.5c-1.2,0.3-2.1,1-2.4,2.2c-1.3,0.2-2.6,0-4,0.1
	c0.1-0.4,0.5-0.6,0.8-0.9C6.8,13.3,7.4,12.6,8.2,12.1z"/>
</svg>
