<svg xmlns="http://www.w3.org/2000/svg" viewBox="0 0 122.53 128"><defs><style>.cls-1{fill:#3c3c3b;}.cls-2,.cls-4{fill:#dd4628;}.cls-3{fill:#fff;}.cls-4{font-size:28px;font-family:ArialRoundedMTBold, Arial Rounded MT Bold;}</style></defs><title>Quiz</title><g id="Layer_2" data-name="Layer 2"><g id="Standard_Activities" data-name="Standard Activities"><g id="Quiz"><path class="cls-1" d="M90.07,84.4v34.12a4.74,4.74,0,0,1-4.74,4.74H9.48a4.74,4.74,0,0,1-4.74-4.74V33.18a4.74,4.74,0,0,1,4.74-4.74H19v9.49H75.85V28.44h9.48a4.74,4.74,0,0,1,4.74,4.74V50.79L94.82,46V33.18a9.49,9.49,0,0,0-9.49-9.48H75a14.26,14.26,0,0,0-9.46-8.93,6.51,6.51,0,0,1-4.49-4.49,14.23,14.23,0,0,0-27.34,0,6.53,6.53,0,0,1-4.5,4.5,14.24,14.24,0,0,0-9.46,8.92H9.48A9.49,9.49,0,0,0,0,33.18v85.34A9.49,9.49,0,0,0,9.48,128H85.33a9.49,9.49,0,0,0,9.49-9.48V79.66Zm-66.37-56a9.54,9.54,0,0,1,6.85-9,11.23,11.23,0,0,0,7.74-7.74,9.49,9.49,0,0,1,18.23,0,11.23,11.23,0,0,0,7.74,7.74,9.53,9.53,0,0,1,6.85,9.11v4.75H23.7Z"/><path class="cls-2" d="M120.82,44.79l-5.68-5.68a6,6,0,0,0-8.34,0L89.86,56.05l-3.2,3.2L60,86a1.91,1.91,0,0,0-.42.66l-7.1,18.45a1.9,1.9,0,0,0,2.43,2.44l18.46-7.1A1.89,1.89,0,0,0,74,100L86.66,87.29s3.73-3.49,3.68-3.67l30.48-30.49A5.94,5.94,0,0,0,120.82,44.79Z"/><rect class="cls-3" x="63.34" y="72.03" width="56.47" height="4.27" transform="translate(-25.62 86.48) rotate(-45)"/><polygon class="cls-3" points="57.33 102.74 58.72 99.14 60.93 101.36 57.33 102.74"/><rect class="cls-3" x="58" y="66.57" width="56.47" height="4.27" transform="translate(-23.32 81.1) rotate(-45)"/><path class="cls-3" d="M118.54,50.21l-2.93,2.93-8.7-8.7,2.93-2.92a2.12,2.12,0,0,1,3,0l5.68,5.67A2.14,2.14,0,0,1,118.54,50.21Z"/><polygon class="cls-3" points="65.03 99.41 60.45 94.83 62.13 90.47 69.39 97.74 65.03 99.41"/><text class="cls-4" transform="translate(6.79 70.96)">Q</text><path class="cls-2" d="M76.83,51.5H36.37a2.22,2.22,0,0,0-2.23,1.78,2.15,2.15,0,0,0,2.11,2.5H76.73A2.14,2.14,0,1,0,76.83,51.5Z"/><path class="cls-2" d="M68.52,61H36.37a2.22,2.22,0,0,0-2.23,1.78,2.15,2.15,0,0,0,2.11,2.5H68.41A2.14,2.14,0,1,0,68.52,61Z"/><text class="cls-4" transform="translate(7.28 107.79)">A</text><path class="cls-2" d="M57.52,70.63H36.37a2.22,2.22,0,0,0-2.23,1.78,2.15,2.15,0,0,0,2.11,2.5H57.41A2.14,2.14,0,1,0,57.52,70.63Z"/><path class="cls-2" d="M49.57,86.87H34.92a2.22,2.22,0,0,0-2.23,1.78,2.15,2.15,0,0,0,2.11,2.5H49.46A2.14,2.14,0,1,0,49.57,86.87Z"/><path class="cls-2" d="M45.07,96.3H34.92a2.22,2.22,0,0,0-2.23,1.78,2.15,2.15,0,0,0,2.11,2.5H45A2.14,2.14,0,1,0,45.07,96.3Z"/></g></g></g></svg>