<?xml version="1.0" encoding="utf-8"?>
<!-- Generator: Adobe Illustrator 16.0.2, SVG Export Plug-In . SVG Version: 6.00 Build 0)  -->
<!DOCTYPE svg PUBLIC "-//W3C//DTD SVG 1.1//EN" "http://www.w3.org/Graphics/SVG/1.1/DTD/svg11.dtd">
<svg version="1.1" id="Classroom" xmlns="http://www.w3.org/2000/svg" xmlns:xlink="http://www.w3.org/1999/xlink" x="0px" y="0px"
	 width="35px" height="35px" viewBox="182.5 182.5 35 35" enable-background="new 182.5 182.5 35 35" xml:space="preserve">
<g id="Layer_2">
	<ellipse fill="#4E4E50" cx="189.1" cy="187.1" rx="4.3" ry="4"/>
	<polygon fill="#4E4E50" points="185,215.4 193.7,215.4 193.7,191.6 185,191.6 	"/>
	<rect x="192.9" y="191.6" fill="#4E4E50" width="10.5" height="3.2"/>
	<ellipse fill="#4E4E50" cx="203.4" cy="193.1" rx="1.7" ry="1.6"/>
	<path fill="#4E4E50" d="M182.4,192.8c0-0.7,0.6-1.2,1.3-1.2c0.7,0,1.3,0.5,1.3,1.2c0,0.7-0.6,1.2-1.3,1.2
		C183,194,182.4,193.4,182.4,192.8z"/>
	<path fill="#4E4E50" d="M182.4,202.5c0-0.7,0.6-1.2,1.3-1.2c0.7,0,1.3,0.5,1.3,1.2c0,0.7-0.6,1.2-1.3,1.2
		C183,203.7,182.4,203.2,182.4,202.5z"/>
	<polygon fill="#4E4E50" points="183.7,193.1 186.7,193.1 186.7,191.6 183.7,191.6 	"/>
	<polygon fill="#4E4E50" points="182.4,202.5 185,202.5 185,192.8 182.4,192.8 	"/>
	<ellipse fill="#4E4E50" cx="187.2" cy="215.4" rx="2.2" ry="2"/>
	<ellipse fill="#4E4E50" cx="191.5" cy="215.4" rx="2.2" ry="2"/>
</g>
<g id="Layer_3">
	<path fill="none" stroke="#ABABAB" stroke-width="2" stroke-miterlimit="10" d="M195.9,186.6h17.9c1.4,0,2.6,1.1,2.6,2.4v17.4
		c0,1.3-1.2,2.4-2.6,2.4H196"/>
	<path fill="none" stroke="#ABABAB" stroke-width="13" stroke-linejoin="round" stroke-miterlimit="10" d="M199.6,216.3"/>
	
		<polyline fill="none" stroke="#848484" stroke-width="2" stroke-linecap="round" stroke-linejoin="round" stroke-miterlimit="10" points="
		199.6,216.3 204.7,211 209.7,216.3 	"/>
	<path fill="#848484" d="M201.7,185.2c0-1.5,1.3-2.8,3-2.8c1.7,0,3,1.2,3,2.8"/>
</g>
</svg>
