<?xml version="1.0" encoding="utf-8"?>
<!-- Generator: Adobe Illustrator 16.0.2, SVG Export Plug-In . SVG Version: 6.00 Build 0)  -->
<!DOCTYPE svg PUBLIC "-//W3C//DTD SVG 1.1//EN" "http://www.w3.org/Graphics/SVG/1.1/DTD/svg11.dtd">
<svg version="1.1" id="CPD_Icon" xmlns="http://www.w3.org/2000/svg" xmlns:xlink="http://www.w3.org/1999/xlink" x="0px" y="0px"
	 width="35px" height="35px" viewBox="182.5 182.5 35 35" enable-background="new 182.5 182.5 35 35" xml:space="preserve">
<g id="Outline">
	
		<polygon fill="none" stroke="#848484" stroke-width="2" stroke-linecap="round" stroke-linejoin="round" stroke-miterlimit="10" points="
		216.4,194.4 215.1,199 214,194.4 	"/>
	<path fill="none" stroke="#848484" stroke-width="2" stroke-linecap="round" stroke-linejoin="round" stroke-miterlimit="10" d="
		M215.2,202.8v11.8c0,1-0.8,1.9-1.8,1.9h-28c-1,0-1.8-0.8-1.8-1.9v-29.2c0-1,0.8-1.9,1.8-1.9h28c1,0,1.8,0.8,1.8,1.9v11.9"/>
</g>
<g id="CPD">
	<path fill="#4E4E50" d="M192,201.6l1.9,0.6c-0.3,1.1-0.8,1.9-1.5,2.5c-0.7,0.5-1.5,0.8-2.6,0.8c-1.3,0-2.3-0.5-3.2-1.4
		c-0.8-0.9-1.2-2.2-1.2-3.8c0-1.7,0.4-3,1.3-3.9c0.8-0.9,1.9-1.4,3.3-1.4c1.2,0,2.1,0.4,2.9,1.1c0.4,0.4,0.8,1.1,1,1.9l-1.9,0.5
		c-0.1-0.5-0.4-0.9-0.7-1.2c-0.4-0.3-0.8-0.5-1.3-0.5c-0.7,0-1.3,0.3-1.7,0.8c-0.4,0.5-0.7,1.4-0.7,2.6c0,1.3,0.2,2.2,0.7,2.7
		c0.4,0.5,1,0.8,1.7,0.8c0.5,0,1-0.2,1.3-0.5C191.6,202.9,191.8,202.3,192,201.6z"/>
	<path fill="#4E4E50" d="M195.6,205.3v-10.1h3.1c1.2,0,2,0.1,2.3,0.2c0.6,0.2,1,0.5,1.4,1c0.4,0.5,0.6,1.2,0.6,2
		c0,0.6-0.1,1.1-0.3,1.6c-0.2,0.4-0.5,0.8-0.8,1c-0.3,0.2-0.7,0.4-1,0.5c-0.5,0.1-1.1,0.1-2,0.1h-1.3v3.8H195.6L195.6,205.3z
		 M197.5,196.9v2.9h1.1c0.8,0,1.3-0.1,1.5-0.2s0.5-0.3,0.6-0.5c0.2-0.2,0.2-0.5,0.2-0.8c0-0.4-0.1-0.7-0.3-0.9
		c-0.2-0.2-0.5-0.4-0.8-0.4c-0.2,0-0.7-0.1-1.4-0.1H197.5z"/>
	<path fill="#4E4E50" d="M204.6,195.2h3.6c0.8,0,1.4,0.1,1.8,0.2c0.6,0.2,1.1,0.5,1.5,0.9c0.4,0.4,0.7,1,0.9,1.6
		c0.2,0.6,0.3,1.4,0.3,2.4c0,0.8-0.1,1.5-0.3,2.1c-0.2,0.7-0.6,1.3-1,1.8c-0.3,0.3-0.8,0.6-1.4,0.8c-0.4,0.1-1,0.2-1.7,0.2h-3.7
		V195.2L204.6,195.2z M206.6,196.9v6.7h1.5c0.5,0,0.9,0,1.2-0.1c0.3-0.1,0.6-0.2,0.8-0.4c0.2-0.2,0.4-0.5,0.5-1s0.2-1.1,0.2-1.8
		c0-0.8-0.1-1.4-0.2-1.8s-0.3-0.7-0.6-1c-0.2-0.2-0.5-0.4-0.9-0.5c-0.3-0.1-0.8-0.1-1.6-0.1H206.6L206.6,196.9z"/>
</g>
</svg>
