<?xml version="1.0" encoding="UTF-8" standalone="no"?>
<!-- Created with Inkscape (http://www.inkscape.org/) -->

<svg
   xmlns:dc="http://purl.org/dc/elements/1.1/"
   xmlns:cc="http://creativecommons.org/ns#"
   xmlns:rdf="http://www.w3.org/1999/02/22-rdf-syntax-ns#"
   xmlns:svg="http://www.w3.org/2000/svg"
   xmlns="http://www.w3.org/2000/svg"
   xmlns:xlink="http://www.w3.org/1999/xlink"
   version="1.1"
   width="35"
   height="35"
   viewBox="0 0 35 35"
   id="Layer_1"
   xml:space="preserve"><metadata
     id="metadata43"><rdf:RDF><cc:Work
         rdf:about=""><dc:format>image/svg+xml</dc:format><dc:type
           rdf:resource="http://purl.org/dc/dcmitype/StillImage" /><dc:title></dc:title></cc:Work></rdf:RDF></metadata><defs
     id="defs41"><linearGradient
       id="linearGradient3868"><stop
         id="stop3870"
         style="stop-color:#000000;stop-opacity:1"
         offset="0" /><stop
         id="stop3872"
         style="stop-color:#000000;stop-opacity:0"
         offset="1" /></linearGradient><linearGradient
       id="linearGradient3798"><stop
         id="stop3800"
         style="stop-color:#4d4d4d;stop-opacity:1"
         offset="0" /><stop
         id="stop3802"
         style="stop-color:#4d4d4d;stop-opacity:0"
         offset="1" /></linearGradient><radialGradient
       cx="19.131355"
       cy="18.983051"
       r="24.228813"
       fx="19.131355"
       fy="18.983051"
       id="radialGradient3804"
       xlink:href="#linearGradient3798"
       gradientUnits="userSpaceOnUse"
       gradientTransform="matrix(1,0,0,0.93878977,0,1.161957)" /></defs><path
     d="m 42.860168,18.983051 a 23.728813,22.245762 0 1 1 -47.4576259,0 23.728813,22.245762 0 1 1 47.4576259,0 z"
     transform="matrix(0.74241466,0,0,0.79190899,3.2966014,0.98415092)"
     id="path3020"
     style="opacity:0.4;fill:url(#radialGradient3804);fill-opacity:1;fill-rule:evenodd;stroke:none" /><g
     id="Layer_2"><path
       d="m 28,14.7 c 0,2.2 -1.4,4.6 -2.5,7 -1,2.3 -1.5,4.1 -1.8,6.4 -0.3,1.7 -4.4,1.7 -6.1,1.7 -1.2,0 -4.1,0.1 -4.7,-0.9 C 11.8,27.1 11.8,24.7 10.6,22.5 9.2,19.9 7.2,17.2 7.2,14.6 7.2,8.5 11.8,3.5 17.6,3.5 23.4,3.6 28,8.6 28,14.7 z"
       id="path4"
       style="fill:#ffffff;stroke:#848484;stroke-miterlimit:10" /></g><g
     id="Layer_4"><g
       id="g7"><path
         d="m 22.8,34.3 c 0,0.3 -0.4,0.5 -0.8,0.6 L 15,35 c -0.5,0 -0.8,-0.2 -0.8,-0.5 0,-0.3 0.4,-0.5 0.8,-0.5 l 7,-0.1 c 0.5,-0.2 0.8,0.1 0.8,0.4 z"
         id="path9"
         style="fill:#848484" /><path
         d="m 22.8,34.3 c 0,0.3 -0.4,0.5 -0.8,0.6 L 15,35 c -0.5,0 -0.8,-0.2 -0.8,-0.5 0,-0.3 0.4,-0.5 0.8,-0.5 l 7,-0.1 c 0.5,-0.2 0.8,0.1 0.8,0.4 z"
         id="path11"
         style="fill:none;stroke:#ffffff;stroke-width:0.25;stroke-miterlimit:10" /></g><g
       id="g13"><path
         d="m 22.5,31.5 c 0,0.3 -0.4,0.5 -0.8,0.6 l -6.9,0.1 C 14.3,32.2 14,32 14,31.7 c 0,-0.3 0.4,-0.5 0.8,-0.6 L 21.7,31 c 0.4,-0.1 0.8,0.2 0.8,0.5 z"
         id="path15"
         style="fill:#848484" /><path
         d="m 22.5,31.5 c 0,0.3 -0.4,0.5 -0.8,0.6 l -6.9,0.1 C 14.3,32.2 14,32 14,31.7 c 0,-0.3 0.4,-0.5 0.8,-0.6 L 21.7,31 c 0.4,-0.1 0.8,0.2 0.8,0.5 z"
         id="path17"
         style="fill:none;stroke:#ffffff;stroke-width:0.25;stroke-miterlimit:10" /></g></g><g
     id="Layer_3"><g
       id="g20"><path
         d="m 22.8,31.3 c 0.1,0.4 -0.3,0.7 -0.7,0.8 l -7.2,1.4 C 14.4,33.6 14,33.4 14,33.1 13.9,32.8 14.3,32.5 14.7,32.4 L 22,30.8 c 0.3,-0.1 0.7,0.1 0.8,0.5 z"
         id="path22"
         style="fill:#848484" /><path
         d="m 22.8,31.3 c 0.1,0.4 -0.3,0.7 -0.7,0.8 l -7.2,1.4 C 14.4,33.6 14,33.4 14,33.1 13.9,32.8 14.3,32.5 14.7,32.4 L 22,30.8 c 0.3,-0.1 0.7,0.1 0.8,0.5 z"
         id="path24"
         style="fill:none;stroke:#ffffff;stroke-width:0.25;stroke-miterlimit:10" /></g><g
       id="g26"><path
         d="m 22.9,32.6 c 0.1,0.3 -0.3,0.6 -0.7,0.7 L 15,34.7 C 14.5,34.8 14.1,34.6 14.1,34.3 14,34 14.4,33.7 14.8,33.6 L 22,32.2 c 0.4,0 0.8,0.1 0.9,0.4 z"
         id="path28"
         style="fill:#848484" /><path
         d="m 22.9,32.6 c 0.1,0.3 -0.3,0.6 -0.7,0.7 L 15,34.7 C 14.5,34.8 14.1,34.6 14.1,34.3 14,34 14.4,33.7 14.8,33.6 L 22,32.2 c 0.4,0 0.8,0.1 0.9,0.4 z"
         id="path30"
         style="fill:none;stroke:#ffffff;stroke-width:0.25;stroke-miterlimit:10" /></g></g><g
     id="Layer_6"><line
       stroke-miterlimit="10"
       x1="17.9"
       y1="30.1"
       x2="17.9"
       y2="19.299999"
       id="line33"
       stroke="#ABABAB"
       fill="none"
       style="fill:none;stroke:#ababab;stroke-miterlimit:10" /><line
       stroke-miterlimit="10"
       x1="17.9"
       y1="19.299999"
       x2="21.700001"
       y2="15.5"
       id="line35"
       stroke="#ABABAB"
       fill="none"
       style="fill:none;stroke:#ababab;stroke-miterlimit:10" /><line
       stroke-miterlimit="10"
       x1="17.9"
       y1="19.299999"
       x2="14.1"
       y2="15.6"
       id="line37"
       stroke="#ABABAB"
       fill="none"
       style="fill:none;stroke:#ababab;stroke-miterlimit:10" /></g></svg>