<svg xmlns="http://www.w3.org/2000/svg" viewBox="0 0 127.75 102.08"><defs><style>.cls-1{fill:#dd4628;}.cls-2{fill:#3c3c3b;stroke:#3c3c3b;stroke-miterlimit:10;stroke-width:0.25px;}</style></defs><title>Face 2 Face</title><g id="Layer_2" data-name="Layer 2"><g id="Standard_Activities" data-name="Standard Activities"><g id="Face_2_Face" data-name="Face 2 Face"><path class="cls-1" d="M102.91,89.18V102H107V89.18Z"/><path class="cls-1" d="M26,89.26v12.82h4.08V89.26Z"/><path class="cls-1" d="M88.06,62.91,77.58,57.77a2.88,2.88,0,0,1-.83-2.26v-7a22.35,22.35,0,0,0,6.17-14,2.76,2.76,0,0,0,.82-.62A4.87,4.87,0,0,0,85,30.84V20.56a20.56,20.56,0,1,0-41.12,0V30.84a4.06,4.06,0,0,0,1.23,2.88c.21.2.62.41.82.61.41,5.14,2.47,10.49,6.17,14v7.19a2.93,2.93,0,0,1-.82,2.26s-10,4.61-15,7.08,2.85,2.8,3.74,2.92l10.61-5.06a14.52,14.52,0,0,0,14,11.3,14.29,14.29,0,0,0,14-11.3l7.46,3.74,3.57,1.76c.65.32,4.44-2.08,3.16-2.75C89.77,63.85,88.06,62.91,88.06,62.91ZM52.7,8.84A16.3,16.3,0,0,1,64.42,4.11,17,17,0,0,1,76.14,8.84a16.09,16.09,0,0,1,4.73,10.69,9.37,9.37,0,0,0-4.12-1h-2a1.86,1.86,0,0,1-1.44-.61,1.88,1.88,0,0,1-.62-1.44,1.8,1.8,0,0,0-1.23-1.85,1.87,1.87,0,0,0-2.26.41l-3.5,3.49H52.08a9.29,9.29,0,0,0-4.11,1A16.49,16.49,0,0,1,52.7,8.84ZM48,30.84V26.73a4.2,4.2,0,0,1,4.11-4.11H66.47A1.87,1.87,0,0,0,67.91,22l1.85-1.85.62.62a5.92,5.92,0,0,0,4.32,1.85h2a4.22,4.22,0,0,1,4.12,4.11v4.11a1.94,1.94,0,0,0-2.06,2.06c0,6.37-3.91,16.44-14.39,16.44S50,39.27,50,32.9A2,2,0,0,0,48,30.84ZM64.42,69.9a10.43,10.43,0,0,1-10.28-9.25,7.3,7.3,0,0,0,2-5.14V51.4a17.45,17.45,0,0,0,16.45,0v4.11a7.26,7.26,0,0,0,2.06,5.14A10.44,10.44,0,0,1,64.42,69.9Z"/><path class="cls-2" d="M24.83,64.85h.38a11.17,11.17,0,0,0,8.55-3.7c4.67-5.27,3.89-14.3,3.81-15.16-.3-6.47-3.63-9.17-5.88-11-2.45-2-6.87-2.16-10.12-1.54l-.85.23a8.92,8.92,0,0,0-2.28,1.13c-2.48,1.57-5.65,4.67-6,11.18-.08.86-.86,9.89,3.81,15.16a11.14,11.14,0,0,0,8.54,3.7ZM15.72,46.3s0-.08,0-.1c.4-8.7,6.57-9.64,9.22-9.64h.14c3.28.08,8.84,1.41,9.22,9.64a.31.31,0,0,0,0,.1c0,.08.86,8.33-3,12.68a7.91,7.91,0,0,1-6.24,2.59H25A7.89,7.89,0,0,1,18.73,59c-3.85-4.32-3-12.61-3-12.68Z"/><path class="cls-2" d="M50,79.83v0c0-.1,0-.19,0-.3-.08-2.41-.23-8-5.5-9.82l-.12,0C38.87,68.24,32.57,62,32.53,62a1.64,1.64,0,1,0-1.89,2.68c.21.15,6.78,6.55,12.83,8.11,2.82,1,3.14,4,3.22,6.79a1.56,1.56,0,0,0,0,.31,22.69,22.69,0,0,1-.26,3.75c-2,1.11-9.67,5-21.4,5s-19.42-3.87-21.4-5a20.82,20.82,0,0,1-.26-3.76c0-.09,0-.19,0-.3.09-2.77.41-5.79,3.23-6.79,6.05-1.56,13.49-7.54,13.69-7.68a1.64,1.64,0,1,0-1.88-2.68c-.05,0-7.18,5.8-12.68,7.2l-.12,0C.37,71.47.21,77.08.14,79.47c0,.11,0,.21,0,.31v0a18.43,18.43,0,0,0,.62,5.5,1.58,1.58,0,0,0,.63.77c.36.24,9.09,5.8,23.69,5.8s23.32-5.57,23.69-5.8a1.64,1.64,0,0,0,.63-.77A19.8,19.8,0,0,0,50,79.83Z"/><path class="cls-2" d="M102.48,64.85h.39a11.17,11.17,0,0,0,8.54-3.7c4.67-5.27,3.9-14.3,3.81-15.16-.3-6.47-3.63-9.17-5.88-11-2.44-2-6.87-2.16-10.12-1.54l-.84.23a8.82,8.82,0,0,0-2.29,1.13c-2.47,1.57-5.65,4.67-6,11.18-.08.86-.86,9.89,3.81,15.16a11.14,11.14,0,0,0,8.54,3.7ZM93.37,46.3s0-.08,0-.1c.4-8.7,6.58-9.64,9.22-9.64h.14c3.28.08,8.84,1.41,9.22,9.64a.31.31,0,0,0,0,.1c0,.08.86,8.33-3,12.68a8,8,0,0,1-6.25,2.59h-.12A7.89,7.89,0,0,1,96.38,59c-3.84-4.32-3-12.61-3-12.68Z"/><path class="cls-2" d="M127.62,79.83v0c0-.1,0-.19,0-.3-.07-2.41-.23-8-5.5-9.82l-.12,0C116.52,68.24,110.23,62,110.18,62a1.64,1.64,0,0,0-1.88,2.68c.2.15,6.77,6.55,12.82,8.11,2.82,1,3.14,4,3.22,6.79a1.56,1.56,0,0,0,0,.31,21.66,21.66,0,0,1-.26,3.75c-2,1.11-9.67,5-21.39,5s-19.43-3.87-21.41-5A21.77,21.77,0,0,1,81,79.87c0-.09,0-.19,0-.3.08-2.77.4-5.79,3.23-6.79,6-1.56,13.48-7.54,13.69-7.68a1.64,1.64,0,1,0-1.89-2.68s-7.18,5.8-12.68,7.2l-.12,0c-5.27,1.81-5.42,7.42-5.5,9.81,0,.11,0,.21,0,.31v0a18.77,18.77,0,0,0,.62,5.5,1.58,1.58,0,0,0,.63.77c.36.24,9.09,5.8,23.69,5.8s23.32-5.57,23.69-5.8a1.64,1.64,0,0,0,.63-.77,19.42,19.42,0,0,0,.58-5.48Z"/></g></g></g></svg>