<svg xmlns="http://www.w3.org/2000/svg" viewBox="0 0 127.5 114.55"><defs><style>.cls-1{fill:#dd4628;}.cls-2{fill:#3c3c3b;}</style></defs><title>Chat</title><g id="Layer_2" data-name="Layer 2"><g id="Standard_Activities" data-name="Standard Activities"><g id="Chat"><path class="cls-1" d="M107.78,39.84H66.3a2.49,2.49,0,0,0,0,5h41.48a2.49,2.49,0,0,0,0-5Z"/><path class="cls-2" d="M83.67,0C61.25,0,42.85,15.46,41.43,34.93,20.08,36,0,51.39,0,72.22A34.78,34.78,0,0,0,9.71,96a15.14,15.14,0,0,1-4,14.27,2.49,2.49,0,0,0,1.76,4.25,27.49,27.49,0,0,0,19-7.69,56.75,56.75,0,0,0,17.33,2.71c22.41,0,40.81-15.45,42.24-34.92A55.66,55.66,0,0,0,101,72a27.45,27.45,0,0,0,19,7.7,2.49,2.49,0,0,0,1.76-4.25,15.14,15.14,0,0,1-4-14.27,34.78,34.78,0,0,0,9.71-23.82C127.5,15.72,105.87,0,83.67,0ZM43.83,104.59a50.17,50.17,0,0,1-17.06-2.94,2.5,2.5,0,0,0-2.76.63,22.44,22.44,0,0,1-11.18,6.63,20.1,20.1,0,0,0,1.52-14.82,2.48,2.48,0,0,0-.61-1A29.91,29.91,0,0,1,5,72.22C5,54.67,22.77,39.84,43.83,39.84c19.88,0,37.35,13.83,37.35,32.38,0,17.85-16.76,32.37-37.35,32.37Zm69.93-46.41a2.37,2.37,0,0,0-.61,1,20.11,20.11,0,0,0,1.52,14.82,22.44,22.44,0,0,1-11.18-6.63,2.49,2.49,0,0,0-2.76-.63,49,49,0,0,1-14.67,2.87c-.73-9.41-5.42-18.26-13.45-24.84l-7.66-5a46.51,46.51,0,0,0-18.53-4.9C47.85,18.21,64,5,83.67,5c21.06,0,38.85,14.83,38.85,32.37a29.94,29.94,0,0,1-8.76,20.83Z"/><path class="cls-1" d="M64.75,77.69H31.41a2.49,2.49,0,0,0,0,5H64.75a2.49,2.49,0,0,0,0-5Z"/><path class="cls-1" d="M107.59,24.9H76.21a2.49,2.49,0,1,0,0,5h31.38a2.49,2.49,0,0,0,0-5Z"/><path class="cls-1" d="M45.59,62.75H21.72a2.49,2.49,0,1,0,0,5H45.59a2.49,2.49,0,1,0,0-5Z"/><path class="cls-1" d="M67.18,24.9H59.8a2.55,2.55,0,0,0,0,5h7.38c1.87,0,3-1.11,3-2.49a2.5,2.5,0,0,0-2.49-2.49Z"/><path class="cls-1" d="M65,62.75H51.63a2.49,2.49,0,1,0,0,5H65a2.49,2.49,0,0,0,0-5Z"/><path class="cls-1" d="M25.34,77.69H22a2.49,2.49,0,0,0,0,5h3.37a2.49,2.49,0,0,0,0-5Z"/></g></g></g></svg>